<?xml version="1.0" encoding="iso-8859-1"?>
<!-- Generator: Adobe Illustrator 18.1.1, SVG Export Plug-In . SVG Version: 6.00 Build 0)  -->
<svg version="1.1" id="Capa_1" xmlns="http://www.w3.org/2000/svg" xmlns:xlink="http://www.w3.org/1999/xlink" x="0px" y="0px"
	 viewBox="0 0 18.159 18.159" style="enable-background:new 0 0 18.159 18.159;" xml:space="preserve">
<g>
	<g>
		<path style="fill:#030104;" d="M15.457,10.174c-1.877-2.358-1.562-4.979-3.056-4.979c-0.646,0-1.588,0.434-2.053,1.154
			c-0.524-2.227-1.52-3.733-2.664-3.733c-1.368,0-2.525,2.151-2.916,5.117C4.494,7.48,3.838,7.335,3.514,7.335
			c-1.17,0-1.725,1.572-2.118,4.105c-0.393,2.532-2.174,4.104-1.004,4.104h5.779c-0.01-0.15-0.016-0.304-0.016-0.459
			c0-2.351,1.183-4.257,2.642-4.257c1.458,0,2.642,1.906,2.642,4.257c0,0.155-0.006,0.309-0.017,0.459h6.174
			C19.093,15.545,17.336,12.532,15.457,10.174z"/>
	</g>
</g>
<g>
</g>
<g>
</g>
<g>
</g>
<g>
</g>
<g>
</g>
<g>
</g>
<g>
</g>
<g>
</g>
<g>
</g>
<g>
</g>
<g>
</g>
<g>
</g>
<g>
</g>
<g>
</g>
<g>
</g>
</svg>
