<?xml version="1.0" encoding="UTF-8" standalone="no"?>
<svg
   xmlns:dc="http://purl.org/dc/elements/1.1/"
   xmlns:cc="http://creativecommons.org/ns#"
   xmlns:rdf="http://www.w3.org/1999/02/22-rdf-syntax-ns#"
   xmlns:svg="http://www.w3.org/2000/svg"
   xmlns="http://www.w3.org/2000/svg"
   xmlns:sodipodi="http://sodipodi.sourceforge.net/DTD/sodipodi-0.dtd"
   xmlns:inkscape="http://www.inkscape.org/namespaces/inkscape"
   inkscape:version="1.0 (4035a4fb49, 2020-05-01)"
   sodipodi:docname="pol-map.svg"
   id="pol-map"
   width="1000"
   viewbox="0 0 1000 661"
   version="1.2"
   stroke-width="2"
   stroke-linejoin="round"
   stroke-linecap="round"
   stroke="#ffffff"
   height="661"
   fill="#7c7c7c"
   baseprofile="tiny">
  <metadata
     id="metadata416">
    <rdf:RDF>
      <cc:Work
         rdf:about="">
        <dc:format>image/svg+xml</dc:format>
        <dc:type
           rdf:resource="http://purl.org/dc/dcmitype/StillImage" />
      </cc:Work>
    </rdf:RDF>
  </metadata>
  <defs
     id="defs414" />
  <sodipodi:namedview
     inkscape:current-layer="pol-map"
     inkscape:window-maximized="0"
     inkscape:window-y="0"
     inkscape:window-x="-7"
     inkscape:cy="327.70055"
     inkscape:cx="704.21743"
     inkscape:zoom="0.95185641"
     showgrid="false"
     id="namedview412"
     inkscape:window-height="1008"
     inkscape:window-width="1918"
     inkscape:pageshadow="2"
     inkscape:pageopacity="0"
     guidetolerance="10"
     gridtolerance="10"
     objecttolerance="10"
     borderopacity="1"
     bordercolor="#666666"
     pagecolor="#ffffff"
     inkscape:document-rotation="0" />
  <g
     info="Byl zřízen v květnu 2005. Nachází se v jihozápadní části Slovinska. V regionu je celkem 8 občin. Hlavním a také největším městem regionu je městská občina Koper. Rozloha regionu je 1044 km² a v lednu 2014 zde žilo 112 848 lidí. Pobřežní oblast regionu se středomořským klimatem je jedinou oblastí Slovinska s přístupem k moři. Vhodné přírodní podmínky umožňují rozvíjet cestovní ruch, dopravu a pěstování různých plodin v zemědělství."
     name="Obalno-kraška"
     style="fill:#cccccc"
     id="obalnokraska">
    <path
       d="m 213.9,507.2 11.1,8 3,4.1 3.7,9.1 -3.3,3.5 -3.6,1.8 -2.2,4.1 -0.7,3.2 0.6,3.1 1.3,2.8 0.2,6.3 1.2,3 1.6,3.4 1.6,4.5 -1.1,2.7 0.1,0.8 3.4,1.6 -0.2,4.6 -4,1.9 -1.7,2.9 -1.8,1.2 -2.1,0.6 -6.3,-1.3 -4.7,-4.1 -5.9,-2.8 -5.9,-4.3 -5.2,-2.7 -6.5,-1.3 -3.9,-3 1.7,-8.4 -2.3,-4.2 8.2,-12.6 1.7,-3.2 -0.9,-4 -1.7,-3.6 -1.3,-5.1 0.4,-3.1 2.4,-2 3.6,-1.8 4.5,-7.5 4.1,-2.3 0.8,-0.6 3.3,0.3 z"
       id="SVN1025"
       name="Divaca"
       style="fill:#cccccc" />
    <path
       d="m 182.6,560.9 3.9,3 6.5,1.3 5.2,2.7 5.9,4.3 5.9,2.8 4.7,4.1 6.3,1.3 2.1,-0.6 1.8,-1.2 1.7,-2.9 4,-1.9 4.6,4.3 -0.7,1.5 -1,3.3 -1.7,3.4 -1.3,5.4 0.3,2 1,1.3 1.8,-0.6 2,1.2 -1,7.1 -2.6,8.7 -2.3,5.9 0.7,1.3 5.8,4.7 1.4,1.6 2,4.3 -0.1,5.5 -0.4,3 -7.6,-0.4 -8.3,-2.9 -7.9,-5.8 -4.2,-4.3 -4.6,-2.4 -8.4,-1.8 -1.1,-3.5 -10,-11.9 -13.3,-2.8 -5,-3.5 -3.1,-3.6 -1.5,-2.1 -3,-11.3 -0.8,-2.2 6,-7.5 2.4,-5.9 -0.3,-0.9 4.8,-4.5 z"
       id="SVN1026"
       name="Hrpelje-Kozina"
       style="fill:#cccccc" />
    <path
       d="m 95.3,622.3 -1.7,6.7 -3.5,1.8 -1.5,-0.6 -0.7,-1.6 -1.9,-3 -1.6,-1.1 -2,-2.1 -1,-4 -0.1,-2.7 -2.3,-5.4 -0.2,-2 20.4,-3.1 -0.3,10.9 z"
       id="SVN1027"
       name="Izola"
       style="fill:#cccccc" />
    <path
       d="m 149.5,473.3 7.6,4.1 1.8,0.1 7.1,-1.1 5.2,8.4 -15.8,4.8 -31.5,4 -6.8,-0.2 -1.9,0.7 -6.3,4.6 -1.9,4.2 -12.5,-9.8 -5.3,-1.7 -10.9,-1.3 -8.9,-4.9 -2.2,-4.4 5.6,-1 18.1,0.5 6.7,-1.1 3.8,-4.2 3.7,-2.1 2.2,-3 1.8,-1.6 0.9,-8.4 16.8,9.3 5.5,1.6 h 6.8 l 3.4,-0.5 z"
       id="SVN1030"
       name="Komen"
       style="fill:#cccccc" />
    <path
       d="m 198.1,620.1 -4.9,-1 -2.2,1.4 -1.1,3.2 v 4.9 l 6.7,8.1 -4.1,5.5 -14.8,6.4 -4.6,4.5 -2.8,4.4 -3.4,2.5 -16.9,-2.5 -5,-1.6 -4.2,-4.3 -15,-9.5 -31.4,1.5 0.4,-3 3,-2.1 2.2,-5.3 3.5,-3.6 1.4,-2 -1.1,-1.9 -8.5,-3.4 3.6,-6.2 0.3,-10.9 24.6,-3.6 v -2.8 l -3.3,-4.9 -9.7,-10.6 15.6,-1.4 12.5,6.8 15,-1.5 6.4,-8 0.8,2.2 3,11.3 1.5,2.1 3.1,3.6 5,3.5 13.3,2.8 10,11.9 z"
       id="SVN1031"
       name="Koper"
       style="fill:#cccccc" />
    <path
       d="m 78.8,608.3 0.2,2 2.3,5.4 0.1,2.7 1,4 2,2.1 1.6,1.1 1.9,3 0.7,1.6 1.5,0.6 3.5,-1.8 1.7,-6.7 8.5,3.4 1.1,1.9 -1.4,2 -3.5,3.6 -2.2,5.3 -3,2.1 -0.4,3 -9.8,0.4 -12.5,-13.5 0.6,-1.9 -0.8,-3.8 2.2,-4.7 v -2.8 l -3.1,-0.6 -2.4,-1.8 -1.9,-3 -1.3,-4.2 6.7,1.6 z"
       id="SVN1033"
       name="Piran"
       style="fill:#cccccc" />
    <path
       d="m 198.9,505.4 -4.5,7.5 -3.6,1.8 -2.4,2 -0.4,3.1 1.3,5.1 1.7,3.6 0.9,4 -1.7,3.2 -8.2,12.6 2.3,4.2 -1.7,8.4 -9.4,-0.5 -4.8,4.5 -0.2,-0.4 -2.8,-0.2 -4.8,-2.7 -3.4,-3.7 -25.2,-42.7 -21.9,-10 -3.1,-2.3 1.9,-4.2 6.3,-4.6 1.9,-0.7 6.8,0.2 31.5,-4 15.8,-4.8 9.2,7.7 16.5,9.3 z"
       id="SVN1034"
       name="Sežana"
       style="fill:#cccccc" />
  </g>
  <g
     name="Goriška"
     info=" Byl zřízen v květnu 2005. Rozkládá se na západě Slovinska. V regionu je celkem 13 občin. Hlavním a také největším městem regionu je Nova Gorica. Rozloha regionu je 2325 km² a v lednu 2014 zde žilo 118 374 lidí."
     style="fill:#cccccc"
     id="goriska">
    <path
       d="m 225.4,326.1 -14.5,25.8 -1.1,4.1 -0.8,4.8 0.5,1.5 2.1,2.7 v 3.2 l -3.4,1 -3.2,-0.3 -3,-1.2 -5.6,-4.1 -5.5,-4.9 -1.4,-0.2 -1.1,3.6 -2.4,2.4 -1.3,2 -3,0.2 -1.5,-1 -1.1,0.2 -0.3,2.5 -0.9,2 -3.1,0.1 -1.9,-0.4 -4.1,-2.6 3.8,-2.6 0.3,-1.4 -0.5,-3 -0.8,-2.6 -0.7,-4 v -3.6 l -0.6,-3.6 -3,-5.4 -1.3,-4.4 v -2.5 l 1.2,-3.6 1.2,-2.9 4.1,-4.3 5.4,-3.3 10.9,-3.5 9.9,-7.4 -0.3,3.9 v 2.5 l 1.7,1.2 2.9,1.1 12,1.1 8.5,2.7 z"
       id="SVN1010"
       name="Cerkno"
       style="fill:#cccccc" />
    <path
       d="m 201.2,288.9 2.5,5.9 v 3 l -5,11.6 -9.9,7.4 -10.9,3.5 -5.4,3.3 -4.1,4.3 -1.2,2.9 -1.2,3.6 v 2.5 l 1.3,4.4 3,5.4 0.6,3.6 v 3.6 l 0.7,4 0.8,2.6 0.5,3 -0.3,1.4 -3.8,2.6 -2.3,-0.6 -1.7,2.6 -1.7,0.2 -3,-0.9 -1.2,0.7 -0.9,2 0.4,1.6 0.9,1.3 1.9,1.2 0.9,1.4 0.3,1.7 -0.7,0.9 -1.3,0.1 -0.4,1.7 0.2,5.2 -0.6,8.6 -8.7,-5.6 -2.4,-2.7 -3.3,-5 -2.9,-6.4 -1.1,-5.6 -0.2,-5.5 0.3,-3.2 -2.6,-10.2 -2.2,-2.2 -3.9,-0.2 -3.7,3.4 -19.1,-12.1 -1.4,-2.5 -2.3,-1.3 -3.2,-4.5 -0.6,-3.4 -5.8,-9.9 -8.1,1.7 -1.2,-4.1 -3.2,-0.6 3.1,-4.3 -4.5,-4.3 -0.3,-4.5 0.7,-3.9 1.6,-2.5 1.6,-1.5 3,0.9 1.4,-0.6 3.6,-2.5 2.5,-0.6 5.7,-0.1 2.3,-2.2 0.8,-5.4 2.2,-8.4 2.2,-3.9 3.1,-3.3 2.5,-0.6 3.2,-0.1 10.8,11 15.9,9.3 14.2,4.6 4.7,0.7 4.5,0.1 z"
       id="SVN1018"
       name="Tolmin"
       style="fill:#cccccc" />
    <path
       d="m 240.4,453.6 1.6,4.6 -9.3,7.7 -1.1,1.3 -14.9,5.5 -7.7,-5.1 -1.2,-3.3 -1,-4.5 -3.1,-3.6 -2.5,-1.3 -3.3,-0.8 -4.2,0.2 -5.4,1.6 -7.6,4.7 -3.3,3.5 -4.6,2.9 -5,4 -1.8,5.4 -7.1,1.1 -1.8,-0.1 -7.6,-4.1 -3.4,-5.4 -0.8,-1.1 -5,-2.8 -1.3,-1.2 -0.9,-1.8 -1,-1.1 -2.5,-3.5 -5.7,-5.8 -4.4,-2.7 -2.5,-3.2 -2.6,-1.6 -1.6,-0.6 -0.4,-1.2 4.4,-3.1 2.1,-0.8 6.7,-8 7.8,-13.2 14.3,-10.4 v -4.4 l 2.6,-4 4.3,6.1 0.3,1.8 2,2.1 3.1,2.1 5.7,2.9 7.2,8.4 7.7,6.5 4.2,1.3 3,2.7 6.3,4.1 4,4.2 12.6,8.8 z"
       id="SVN1022"
       name="Ajdovščina"
       style="fill:#cccccc" />
    <path
       d="m 152,223.4 -4.4,6 -20.2,11 -4.7,4.5 -2.3,4.3 -4.7,11.1 -17.7,3.1 -6.3,-0.6 -7,-2 -14.3,0.5 -10.8,-1.1 -5.6,1.8 -2,1.7 1,1.5 0.3,2.2 -1,2.2 -3.8,1.9 -12.1,-1.7 -8.9,-2.8 -5.2,-2.5 -4.3,-1.3 -4.7,-3.6 -2.7,-1.6 4.5,-7.7 4.3,-9.8 3.4,-4.1 4.2,-0.5 3.9,-1.9 7.6,-5.6 14.7,-7.9 7.7,-8.1 6.8,-9.5 7.7,-7.3 10.8,-1.5 7.8,0.3 5.9,-3.2 2.7,-5.5 1.4,4.7 -1.1,10.2 1.6,1.1 3.3,-0.4 3.2,-1 8.2,-3.6 4,0.9 5.2,2.4 9.9,6 4,3.2 1.9,2.5 1.2,2.9 1,1.7 z"
       id="SVN1023"
       name="Bovec"
       style="fill:#cccccc" />
    <path
       d="m 76.6,392.5 7.1,7.4 -4.8,2.5 -3.3,3 -9.2,2.2 -10.2,4.9 -9.5,0.7 -8.6,-9.9 -0.9,-1.8 -1.5,-1.2 -4.1,-4.9 4.8,-4.4 1.7,-1.1 2.4,-3.2 0.9,-3.2 -0.8,-2.9 -2.5,-2.7 7.2,-9.7 5.5,-4.2 3,2.3 4.5,1.8 3.3,3.5 1.8,4.3 2.8,4.9 5.1,4.8 z"
       id="SVN1024"
       name="Brda"
       style="fill:#cccccc" />
    <path
       d="m 128.9,352 -0.7,9 -1.9,2.8 -2.9,5.1 -3.8,2.9 -2.4,0.1 -8.5,-3.6 -7.5,-0.5 -4.7,2.5 -3.7,3.1 -7,10.8 -2.4,1.7 -0.2,1.7 4.3,5.9 1.7,2.7 -1,1.2 -1.2,0.4 -1.3,-0.1 -2.3,-2.3 -3.2,-2.4 -3.6,-0.5 -5.3,-6.9 -5.1,-4.8 -2.8,-4.9 -1.8,-4.3 -3.3,-3.5 -4.5,-1.8 -3,-2.3 29.8,-22.8 9,-16.7 -1.2,-4.5 8.1,-1.7 5.8,9.9 0.6,3.4 3.2,4.5 2.3,1.3 1.4,2.5 z"
       id="SVN1028"
       name="Kanal"
       style="fill:#cccccc" />
    <path
       d="m 115.7,260.3 3,7.2 -3.2,0.1 -2.5,0.6 -3.1,3.3 -2.2,3.9 -2.2,8.4 -0.8,5.4 -2.3,2.2 -5.7,0.1 -2.5,0.6 -3.6,2.5 -1.4,0.6 -3,-0.9 -1.6,1.5 -1.6,2.5 -0.7,3.9 0.3,4.5 4.5,4.3 -3.1,4.3 -4.2,-0.8 -9.3,1 -8.1,-1.3 -9.5,-9.5 -6,-4.2 -8.8,-1.8 -4.5,-2.5 -9.4,-0.7 -5,-1.7 4.7,8.1 -8.7,1.4 -2.7,-4 -1.1,-6.3 -4.2,-5.9 -2,-11.5 -1.7,-5.5 -2.5,-4.6 8.3,-5.1 1.3,-2.4 2.7,1.6 4.7,3.6 4.3,1.3 5.2,2.5 8.9,2.8 12.1,1.7 3.8,-1.9 1,-2.2 -0.3,-2.2 -1,-1.5 2,-1.7 5.6,-1.8 10.8,1.1 14.3,-0.5 7,2 6.3,0.6 z"
       id="SVN1029"
       name="Kobarid"
       style="fill:#cccccc" />
    <path
       d="m 90.2,445.2 -2.3,2.1 -4.4,0.7 -1.6,0.9 -0.1,1.4 2.8,3.2 3.2,2.1 8.3,2.9 4.4,-0.2 9.5,1.6 -0.9,8.4 -1.8,1.6 -2.2,3 -3.7,2.1 -3.8,4.2 -6.7,1.1 -18.1,-0.5 -5.6,1 -2.6,-5.1 1,-15.6 9.6,-21.8 4.5,3.8 z"
       id="SVN1032"
       name="Miren-Kostanjevica"
       style="fill:#cccccc" />
    <path
       d="m 216.7,472.7 4,12.8 -2.1,5.3 -1,8.6 -1.7,2.4 -2,5.4 -6.8,-4.4 -3.3,-0.3 -0.8,0.6 -4.1,2.3 -2,-3.6 -16.5,-9.3 -9.2,-7.7 -5.2,-8.4 1.8,-5.4 5,-4 4.6,-2.9 3.3,-3.5 7.6,-4.7 5.4,-1.6 4.2,-0.2 3.3,0.8 2.5,1.3 3.1,3.6 1,4.5 1.2,3.3 z"
       id="SVN1035"
       name="Vipava"
       style="fill:#cccccc" />
    <path
       d="m 159.6,395.2 -4.3,2.2 -2.6,4 v 4.4 l -14.3,10.4 -7.8,13.2 -6.7,8 -2.1,0.8 -4.4,3.1 0.4,1.2 1.6,0.6 2.6,1.6 2.5,3.2 4.4,2.7 5.7,5.8 2.5,3.5 1,1.1 0.9,1.8 1.3,1.2 5,2.8 0.8,1.1 3.4,5.4 -7,-3 -3.4,0.5 h -6.8 l -5.5,-1.6 -16.8,-9.3 -9.5,-1.6 -4.4,0.2 -8.3,-2.9 -3.2,-2.1 -2.8,-3.2 0.1,-1.4 1.6,-0.9 4.4,-0.7 2.3,-2.1 6.3,-5.8 3.3,-1.2 1.7,0.4 1.2,-1.6 0.3,-3.2 -0.3,-1.6 h -2.2 l -2.2,-1.6 -3.8,-0.3 -1.5,-0.9 -2.9,-2.8 -2.3,-1.2 -2,-0.5 -5.6,-1.9 2.4,-9.3 -5.4,-8.7 -1.6,0.4 3.3,-3 4.8,-2.5 -7.1,-7.4 3.6,0.5 3.2,2.4 2.3,2.3 1.3,0.1 1.2,-0.4 1,-1.2 -1.7,-2.7 -4.3,-5.9 0.2,-1.7 2.4,-1.7 7,-10.8 3.7,-3.1 4.7,-2.5 7.5,0.5 8.5,3.6 2.4,-0.1 3.8,-2.9 2.9,-5.1 1.9,-2.8 0.7,-9 3.7,-3.4 3.9,0.2 2.2,2.2 2.6,10.2 -0.3,3.2 0.2,5.5 1.1,5.6 2.9,6.4 3.3,5 2.4,2.7 z"
       id="SVN260"
       name="Nova Goriška"
       style="fill:#cccccc" />
    <path
       d="m 90.2,445.2 -10.5,-3.1 -4.5,-3.8 2.8,-6.4 2.2,-8.9 5.6,1.9 2,0.5 2.3,1.2 2.9,2.8 1.5,0.9 3.8,0.3 2.2,1.6 h 2.2 l 0.3,1.6 -0.3,3.2 -1.2,1.6 -1.7,-0.4 -3.3,1.2 z"
       id="SVN261"
       name="Šempeter-Vrtojba"
       style="fill:#cccccc" />
    <path
       d="m 211.6,365 7.6,4.6 8.8,12.9 2.6,1.1 2.1,0.1 1.3,2.2 1.6,3.9 1.7,2.8 8.7,3.1 -0.4,6.2 -2.7,3.5 -2.6,2.7 -3.1,2.5 -0.7,1.8 0.3,0.9 1.4,0.5 0.7,2.1 -0.4,4.6 -2,5.3 -2.2,4.3 -0.4,4 0.1,3.5 1.1,3.5 1.5,2.2 3.8,10.3 -24.7,-5.2 -12.6,-8.8 -4,-4.2 -6.3,-4.1 -3,-2.7 -4.2,-1.3 -7.7,-6.5 -7.2,-8.4 -5.7,-2.9 -3.1,-2.1 -2,-2.1 -0.3,-1.8 -4.3,-6.1 4.3,-2.2 0.6,-8.6 -0.2,-5.2 0.4,-1.7 1.3,-0.1 0.7,-0.9 -0.3,-1.7 -0.9,-1.4 -1.9,-1.2 -0.9,-1.3 -0.4,-1.6 0.9,-2 1.2,-0.7 3,0.9 1.7,-0.2 1.7,-2.6 2.3,0.6 4.1,2.6 1.9,0.4 3.1,-0.1 0.9,-2 0.3,-2.5 1.1,-0.2 1.5,1 3,-0.2 1.3,-2 2.4,-2.4 1.1,-3.6 1.4,0.2 5.5,4.9 5.6,4.1 3,1.2 3.2,0.3 3.4,-1 z"
       id="SVN1012"
       name="Idrija"
       style="fill:#cccccc" />
  </g>
  <g
     info="Byl zřízen v květnu 2005. Rozkládá se v severozápadní části Slovinska. V regionu je celkem 18 občin. Hlavním a také největším městem regionu je Kranj. Rozloha regionu je 2 136,5 km² a k 1. lednu 2016 zde žilo 203 808 lidí."
     name="Gorenjska statistična"
     style="fill:#cccccc"
     id="gorenjska">
    <path
       d="m 242.6,212 -2.2,6.5 5.2,9.5 1.7,2.8 2.1,4.1 0.9,2.4 -0.4,2.3 -4.7,4.7 -1.1,3 -1.1,1.9 -4.1,3.5 -1.6,5.3 -3,3.6 -1.4,-0.9 -1.8,-4.5 -1.5,-2.5 -2.1,-0.2 -1.9,0.8 -2.7,0.9 -2.5,0.3 -4.5,-1.4 -3,-2.8 -1.8,-2.3 -1.9,-1.8 -4.2,-2.8 -3.5,-0.7 -4.7,-4.5 -6.1,-2.1 -5.4,-3.5 -15.1,-3.1 -6.5,0.1 -9.8,-6.8 22.2,-12.1 9.3,-8.4 4.2,-2.9 3.7,-1.9 2.3,-2.7 4.1,-1.2 25.5,13.9 2.8,2.4 4.7,2.2 1.6,0.4 z"
       id="SVN1008"
       name="Bled"
       style="fill:#cccccc" />
    <path
       d="m 380.2,219 0.3,0.9 1.8,9.6 -10.4,3.9 -21.1,-1.8 -4.7,-1.2 -3.1,0.2 -1.3,0.8 -2.1,4.3 -2.2,2.2 -6.8,-0.5 0.9,-5.7 -0.1,-4.1 3.4,-6.4 1.2,-4.4 3.7,-9 0.9,-1.3 4.4,2 5.3,0.8 10.9,-2.6 4.3,6 3.6,7.9 4.2,4.4 5.5,-2.4 z"
       id="SVN237"
       name="Jezersko"
       style="fill:#cccccc" />
    <path
       d="m 261.3,381.1 -5,8 -10.3,6.6 -8.7,-3.1 -1.7,-2.8 -1.6,-3.9 -1.3,-2.2 -2.1,-0.1 -2.6,-1.1 -8.8,-12.9 -7.6,-4.6 1,-3.9 1.8,-0.8 3.6,-0.8 25.2,5.5 3.4,1.5 1.9,1.7 4,5.1 2.2,2.2 z"
       id="SVN1021"
       name="Žiri"
       style="fill:#cccccc" />
    <path
       d="m 153.9,223.8 9.8,6.8 6.5,-0.1 15.1,3.1 5.4,3.5 6.1,2.1 4.7,4.5 3.5,0.7 4.2,2.8 1.9,1.8 1.8,2.3 3,2.8 4.5,1.4 2.5,-0.3 2.7,-0.9 1.9,-0.8 2.1,0.2 1.5,2.5 1.8,4.5 1.4,0.9 3,-3.6 15.4,1.7 1.6,-0.6 2.2,-0.3 1.1,0.6 1.6,2.3 -0.4,6.7 -3.9,1.3 -10.6,-1.2 -3.7,0.4 -3.5,0.8 -2.3,3.3 -1.3,3 -1,7.1 -0.8,2.5 -2.6,1.2 -17.8,-2.8 -6.2,1.6 -3.9,3.3 -32.4,4.3 -4.5,-0.1 -4.7,-0.7 -14.2,-4.6 -15.9,-9.3 -10.8,-11 -3,-7.2 4.7,-11.1 2.3,-4.3 4.7,-4.5 20.2,-11 4.4,-6 z"
       id="SVN1009"
       name="Bohinj"
       style="fill:#cccccc" />
    <path
       d="m 269,358.1 -0.3,6.7 -0.8,3 -0.3,3.1 -6.3,10.2 -6.6,-5.6 -2.2,-2.2 -4,-5.1 -1.9,-1.7 -3.4,-1.5 -25.2,-5.5 -3.6,0.8 -1.8,0.8 -1,3.9 -2.1,-2.7 -0.5,-1.5 0.8,-4.8 1.1,-4.1 14.5,-25.8 6.6,-4.3 1.1,-1.3 20.3,-4.1 3.7,0.5 3.9,-0.8 5.8,-0.4 2.8,0.8 1.9,1.8 1.2,2 -2.6,5.3 -2,1.9 -1.5,2.8 -1,3.6 1.4,1.4 0.5,1.5 0.2,2.1 -1.3,2.1 -0.9,2.6 -0.1,4 0.3,3.9 2.3,2.5 z"
       id="SVN1011"
       name="Gorenja vas-Poljane"
       style="fill:#cccccc" />
    <path
       d="m 334.3,266.2 -0.7,4.5 -4.1,5.7 -3.1,12 -2.5,4.6 -0.4,2.7 0.3,1.3 1.5,2.1 5.6,11.6 1.5,7.7 1,2 -6.5,4.7 -2.8,-7.3 -1.7,-2.4 -2.5,-0.7 -1.2,0.3 -1.2,-0.4 -0.4,-2.1 1.3,-3.1 -0.5,-0.4 -5,1.4 -3.7,-0.2 -19.7,-8.2 -2,-1.7 V 298 l 0.8,-1.4 1.9,-1.9 0.2,-1.4 -1.1,-2 -8.4,-4.1 -8.5,-3.4 -4.4,-2.4 -5,-5.7 -8.1,-6 3.9,-1.3 15.5,4.1 2,0.9 12.8,-0.8 7.5,3 8.5,6.2 1.6,-0.8 0.8,-1.9 0.6,-4.5 -1.4,-3.1 -4.7,-6.4 -1.2,-0.9 -0.1,-1.8 0.4,-1.6 2.7,-2.6 0.6,-2.5 1.8,-1.1 -0.7,-3.3 1.3,-7.1 2.4,-1.5 4,-3.8 2.8,-1.1 14.6,-0.4 -3.8,11.7 -1.4,6.5 -0.8,2.3 -1.2,1.6 -4.4,-1.3 -0.7,1.2 0.5,2.6 0.9,2.1 2.7,1.9 3.1,-0.9 z"
       id="SVN1013"
       name="Kranj"
       style="fill:#cccccc" />
    <path
       d="m 206.8,177.2 -0.2,6.2 -0.6,3.9 -2.4,2.4 -1.6,1.1 -2.3,3.8 -4.1,1.2 -2.3,2.7 -3.7,1.9 -4.2,2.9 -9.3,8.4 -22.2,12.1 -1.9,-0.4 -5.6,-7.1 -1,-1.7 -1.2,-2.9 -1.9,-2.5 -4,-3.2 -9.9,-6 -5.2,-2.4 -4,-0.9 -8.2,3.6 -3.2,1 -3.3,0.4 -1.6,-1.1 1.1,-10.2 -1.4,-4.7 0.8,-1.7 0.5,-11.8 1.7,-2.4 1.2,-2.9 0.6,-3.2 v -3.6 l 4.8,0.4 20.9,5.1 4.3,-0.1 20.6,-3.4 9.5,1.6 29,13.8 5.2,0.6 z"
       id="SVN1014"
       name="Kranjska Gora"
       style="fill:#cccccc" />
    <path
       d="m 305.5,251.3 0.7,3.3 -1.8,1.1 -0.6,2.5 -2.7,2.6 -0.4,1.6 0.1,1.8 1.2,0.9 4.7,6.4 1.4,3.1 -0.6,4.5 -0.8,1.9 -1.6,0.8 -8.5,-6.2 -7.5,-3 -2.2,-7.1 -0.5,-3.1 0.3,-13.3 7,1.7 1.9,1.3 1.8,0.3 z"
       id="SVN1015"
       name="Naklo"
       style="fill:#cccccc" />
    <path
       d="m 286.7,249.1 -0.3,13.3 0.5,3.1 2.2,7.1 -12.8,0.8 -2,-0.9 -15.5,-4.1 0.4,-6.7 -1.6,-2.3 -1.1,-0.6 -2.2,0.3 -1.6,0.6 -15.4,-1.7 1.6,-5.3 4.1,-3.5 1.1,-1.9 1.1,-3 4.7,-4.7 0.4,-2.3 -0.9,-2.4 -2.1,-4.1 -1.7,-2.8 7,-4.4 2.9,0.3 3.7,-0.4 3.3,-2.3 1.3,-3.1 1.7,-4.7 4.6,-6 2.7,-2.2 4.8,-1.6 4.6,5.4 0.8,10.7 -2.1,16.9 0.5,2.7 0.9,1.4 1.6,1 -0.6,2.2 1.2,3.3 z"
       id="SVN1016"
       name="Radovljica"
       style="fill:#cccccc" />
    <path
       d="m 326.9,325.1 -3.1,1 -2.1,3.6 -2.7,1.4 -3.7,0.8 -6.2,5 -2.2,3.5 -0.9,3.8 0.8,2.4 -1.7,6.9 -18.3,-3.8 -11.2,3 -6.6,5.4 -1,-4.1 -2.3,-2.5 -0.3,-3.9 0.1,-4 0.9,-2.6 1.3,-2.1 -0.2,-2.1 -0.5,-1.5 -1.4,-1.4 1,-3.6 1.5,-2.8 2,-1.9 2.6,-5.3 -1.2,-2 -1.9,-1.8 -2.8,-0.8 -5.8,0.4 -3.9,0.8 -3.7,-0.5 2.5,-4.3 6.7,-2.3 2.5,-2.4 5.4,-2.6 3,-1 1.6,-1.8 1.5,-8 2.4,-2.5 1.9,-4.3 8.4,4.1 1.1,2 -0.2,1.4 -1.9,1.9 -0.8,1.4 v 2.3 l 2,1.7 19.7,8.2 3.7,0.2 5,-1.4 0.5,0.4 -1.3,3.1 0.4,2.1 1.2,0.4 1.2,-0.3 2.5,0.7 1.7,2.4 z"
       id="SVN1017"
       name="Škofja Loka"
       style="fill:#cccccc" />
    <path
       d="m 340.6,206.5 -0.9,1.3 -3.7,9 -1.2,4.4 -3.4,6.4 0.1,4.1 -0.9,5.7 -14.6,0.4 -2.8,1.1 -4,3.8 -2.4,1.5 -1.3,7.1 -8.1,1.1 -1.8,-0.3 -1.9,-1.3 -7,-1.7 -2.2,-1.9 -1.2,-3.3 0.6,-2.2 -1.6,-1 -0.9,-1.4 -0.5,-2.7 2.1,-16.9 -0.8,-10.7 -4.6,-5.4 1.3,-6 37.9,1.1 10.7,-2.4 3.4,0.8 1.5,2.1 1,2.6 1.8,2.2 z"
       id="SVN1019"
       name="Tržič"
       style="fill:#cccccc" />
    <path
       d="m 254.9,269.7 8.1,6 5,5.7 4.4,2.4 8.5,3.4 -1.9,4.3 -2.4,2.5 -1.5,8 -1.6,1.8 -3,1 -5.4,2.6 -2.5,2.4 -6.7,2.3 -2.5,4.3 -20.3,4.1 -1.1,1.3 -6.6,4.3 -1.9,-4.2 -8.5,-2.7 -12,-1.1 -2.9,-1.1 -1.7,-1.2 v -2.5 l 0.3,-3.9 5,-11.6 v -3 l -2.5,-5.9 3.9,-3.3 6.2,-1.6 17.8,2.8 2.6,-1.2 0.8,-2.5 1,-7.1 1.3,-3 2.3,-3.3 3.5,-0.8 3.7,-0.4 z"
       id="SVN1020"
       name="Železniki"
       style="fill:#cccccc" />
    <path
       d="m 371.9,233.4 3,3.5 0.4,3 -0.7,4.4 2.7,7 -2.8,4.3 -9.1,5.6 -4.6,1.4 -5.4,0.2 -5.3,2.1 -15.8,1.3 -8.8,-1.1 -3.1,0.9 -2.7,-1.9 -0.9,-2.1 -0.5,-2.6 0.7,-1.2 4.4,1.3 1.2,-1.6 0.8,-2.3 1.4,-6.5 3.8,-11.7 6.8,0.5 2.2,-2.2 2.1,-4.3 1.3,-0.8 3.1,-0.2 4.7,1.2 z"
       id="SVN215"
       name="Preddvor"
       style="fill:#cccccc" />
    <path
       d="m 249,196.6 -3.3,2.9 -2.6,4.1 -0.5,8.4 -8.3,1.5 -1.6,-0.4 -4.7,-2.2 -2.8,-2.4 -25.5,-13.9 2.3,-3.8 1.6,-1.1 2.4,-2.4 0.6,-3.9 0.2,-6.2 5.6,-1 5.5,0.1 5.2,1.6 4.7,2.3 17.8,15.5 z"
       id="SVN258"
       name="Jesenice"
       style="fill:#cccccc" />
    <path
       d="m 278.9,197.6 -1.3,6 -4.8,1.6 -2.7,2.2 -4.6,6 -1.7,4.7 -1.3,3.1 -3.3,2.3 -3.7,0.4 -2.9,-0.3 -7,4.4 -5.2,-9.5 2.2,-6.5 0.5,-8.4 2.6,-4.1 3.3,-2.9 0.6,0.2 z"
       id="SVN259"
       name="Žirovnica"
       style="fill:#cccccc" />
    <path
       d="m 377.2,287.1 -16.5,18.5 -12,-1.5 -5.8,-7.8 -0.4,-4.4 -0.3,-10.3 0.5,-5.4 1.7,-4.2 1.1,-0.9 1,-1.6 1.3,-1.3 2.3,-3.3 5.3,-2.1 5.4,-0.2 4.6,-1.4 9.1,-5.6 -0.1,6.1 2.1,4.3 0.9,4.9 1.7,1.9 3.6,6 -0.5,3.6 -1.4,2.9 z"
       id="SVN942"
       name="Cerklje na Gorenjskem"
       style="fill:#cccccc" />
    <path
       d="m 348.7,304.1 1.5,3.3 -2.8,2.6 -16.5,0.7 -5.6,-11.6 -1.5,-2.1 -0.3,-1.3 0.4,-2.7 2.5,-4.6 3.1,-12 4.1,-5.7 0.7,-4.5 15.8,-1.3 -2.3,3.3 -1.3,1.3 -1,1.6 -1.1,0.9 -1.7,4.2 -0.5,5.4 0.3,10.3 0.4,4.4 z"
       id="SVN985"
       name="Šenčur"
       style="fill:#cccccc" />
  </g>
  <g
     info=" Byl zřízen v květnu 2005. Rozkládá se na severovýchodě Slovinska. V regionu je celkem 27 občin. Hlavním a také největším městem regionu je Murska Sobota. Rozloha regionu je 1337,2 km² a v k 1. 1. 2016 zde žilo 116 078 obyvatel."
     name="Pomurska"
     style="fill:#cccccc"
     id="pomurska">
    <path
       d="m 963.3,93.9 -3.2,-0.5 -6.1,-2.7 -3,-2.2 -2.4,-4.5 2.9,-5.6 1.9,0.8 5.9,0.4 4.8,3.2 1.7,8.7 z"
       id="SVN1043"
       name="Kobilje"
       style="fill:#cccccc" />
    <path
       d="m 935.3,102.2 10.7,13.8 9.6,7.2 -4.6,1.1 -4.7,-1.5 -2.7,0.6 -1.5,1 -0.2,1.5 -2.1,4.6 -8.8,-6.2 -0.8,-9.5 -4.7,-4.5 1,-3.9 -0.1,-2.4 3.7,-3 z"
       id="SVN1049"
       name="Turnišče"
       style="fill:#cccccc" />
    <path
       d="m 930.1,101 -3.7,3 0.1,2.4 -1,3.9 4.7,4.5 0.8,9.5 -8.4,-0.5 -2.5,2.5 -1.4,1.8 -0.8,2.6 0.8,3.3 1.3,3.3 -5.8,7.1 -9.8,-14 -4.2,-3.6 -13.5,-6.4 6.9,-4.4 3.1,-4.8 4.1,-1.7 11.2,-11.2 8.8,1 2.5,-2.7 2.3,0.6 z"
       id="SVN1039"
       name="Beltinci"
       style="fill:#cccccc" />
    <path
       d="m 930.6,40.1 -0.4,1.7 0.7,1.8 4.4,13.3 3.6,4.6 2.7,5.3 2.9,3.5 4.4,-0.7 0.1,7.8 2.5,1 -2.9,5.6 -4.9,-2 -2.1,2.4 -2.1,3.5 -3.2,7.1 -1,7.2 -5.2,-1.2 -4.5,-3.8 -2.3,-0.6 -2.5,2.7 -8.8,-1 -4.7,-0.8 -7.1,-3.7 -1.7,-1.6 -1.9,-2.4 -0.1,-3.4 -4.1,-8.4 -1,-9.7 2.7,-3.9 1.9,-0.1 6.5,-8.2 2.3,0.3 1.8,-1.2 2.7,-4.7 2.7,-2.4 5.4,-8.2 10.4,1.3 z"
       id="SVN1044"
       name="Moravske Toplice"
       style="fill:#cccccc" />
    <path
       d="m 912,98.3 -11.2,11.2 -4.1,1.7 -3.1,4.8 -6.9,4.4 -12.8,-6.1 -3.2,-2.2 3.2,-6.1 0.8,-3.2 -1.4,-3.1 -1.4,-2.7 -1.8,-2.3 -1.3,-4.7 -0.4,-2.4 1.7,-6.3 11.4,-0.6 2.2,0.8 8.7,-3.5 4.1,8.4 0.1,3.4 1.9,2.4 1.7,1.6 7.1,3.7 z"
       id="SVN1045"
       name="Murska Sobota"
       style="fill:#cccccc" />
    <path
       d="m 931,124.3 -0.3,3.6 -4,5.2 -2.4,0.8 -4.3,3.4 -1.3,-3.3 -0.8,-3.3 0.8,-2.6 1.4,-1.8 2.5,-2.5 z"
       id="SVN1046"
       name="Odranci"
       style="fill:#cccccc" />
    <path
       d="m 930,8.8 0.1,1.3 1.7,4 v 6.2 l -0.6,2.6 -1.7,3 0.7,2.9 4.1,3 -2.8,4.8 -0.9,3.5 -2.8,1.1 -10.4,-1.3 0.8,-3.6 0.9,-1.7 1.1,-4.9 -0.4,-3.5 -2.1,-3.9 -4.5,-4.5 -5.3,-3.1 -15.3,-11.2 29.3,-2.5 3.3,1.9 z"
       id="SVN196"
       name="Šalovci"
       style="fill:#cccccc" />
    <path
       d="m 877,4.4 -2.3,6.1 0.7,4.8 -8.3,0.5 -2.2,0.8 -4.5,3.6 -1.7,1.7 -5.2,1.3 -1,-13.9 13,-7.7 z"
       id="SVN197"
       name="Kuzma"
       style="fill:#cccccc" />
    <path
       d="m 934.3,31.8 -4.1,-3 -0.7,-2.9 1.7,-3 0.6,-2.6 v -6.2 l -1.7,-4 -0.1,-1.3 1.4,1.8 2.8,1.5 4.6,0.3 1.4,2.3 -0.7,4.1 -1.8,5.7 -2.2,5.2 z"
       id="SVN201"
       name="Hodoš"
       style="fill:#cccccc" />
    <path
       d="m 879,17 -3.1,19.4 -4.7,9.3 -2.1,1.7 -2.5,0.8 -1.9,-0.8 -2.8,-0.5 -6,0.3 -3.6,-2.7 -0.2,-2.6 1.4,-18.7 5.2,-1.3 1.7,-1.7 4.5,-3.6 2.2,-0.8 8.3,-0.5 z"
       id="SVN202"
       name="Grad"
       style="fill:#cccccc" />
    <path
       d="m 939.8,130.5 1.9,2.9 1.1,6.4 -1.1,3.3 -1.8,3.6 1.9,1.7 1.7,0.6 -3.2,3.8 -6.1,2.1 -5.9,-1.7 -3.3,-5.8 -2.2,1.3 -2.2,2.1 -4.4,-3.5 -2,-2.9 5.8,-7.1 4.3,-3.4 2.4,-0.8 4,-5.2 0.3,-3.6 z"
       id="SVN263"
       name="Črenšovci"
       style="fill:#cccccc" />
    <path
       d="m 943.5,149 -1.7,-0.6 -1.9,-1.7 1.8,-3.6 3.1,-0.1 2,-0.4 5.4,-2.4 4.9,-3.3 2.1,-2.2 2.5,-1.6 -6.1,-9.9 -9.6,-7.2 6,-8.7 1.7,-1 1.3,3.3 5.8,4.7 11.3,6.7 11.6,18.4 10.7,9.1 4.6,19.9 -7.7,-6.2 -3.1,-1.8 -3.3,-0.6 -6.9,0.9 -2.7,-0.3 -2.7,-1.9 -5.3,-5.7 -2.8,-1.8 -3.6,-0.3 -4.1,0.3 -4,-0.5 -3.7,-3 -1.9,3.5 -2.4,-3.5 z"
       id="SVN264"
       name="Lendava"
       style="fill:#cccccc" />
    <path
       d="m 955.6,123.2 6.1,9.9 -2.5,1.6 -2.1,2.2 -4.9,3.3 -5.4,2.4 -2,0.4 -3.1,0.1 1.1,-3.3 -1.1,-6.4 -1.9,-2.9 2.1,-4.6 0.2,-1.5 1.5,-1 2.7,-0.6 4.7,1.5 z"
       id="SVN270"
       name="Velika Polana"
       style="fill:#cccccc" />
    <path
       d="m 948.6,84 2.4,4.5 3,2.2 6.1,2.7 3.2,0.5 -1.9,1.9 -6,2.9 -2.9,4.5 1.2,3.1 -1.7,1 -6,8.7 -10.7,-13.8 1,-7.2 3.2,-7.1 2.1,-3.5 2.1,-2.4 z"
       id="SVN271"
       name="Dobrovnik"
       style="fill:#cccccc" />
    <path
       d="m 853.3,51 0.8,9.5 -0.5,3 -1,4.2 1.9,4.9 2.3,2.3 2.7,1.4 2.9,0.8 2.6,2.1 5.1,2.1 -1.7,6.3 0.4,2.4 1.3,4.7 1.8,2.3 1.4,2.7 1.4,3.1 -0.8,3.2 -3.2,6.1 -13.7,-9.5 -8,-8.5 -4.4,-1.1 -3.6,-2.6 -0.6,-10.6 -3.6,-7.2 -6.8,-4.3 -3.6,-11.3 -0.3,-8.1 0.4,-6.7 5.4,-0.4 5.4,0.9 0.7,1.7 3.6,4 2,1.2 z"
       id="SVN926"
       name="Cankova"
       style="fill:#cccccc" />
    <path
       d="m 917.4,39.9 -5.4,8.2 -2.7,2.4 -2.7,4.7 -1.8,1.2 -2.3,-0.3 -4.3,-5.7 -1.2,-2.3 3.3,-9.1 -0.6,-3.9 -1.3,-1.5 -2.1,-1.1 -2.4,-0.7 -6.1,-6 -1.1,-3.5 -2,-2 -1.4,-2 -4.3,-1.3 -3.6,-1.7 -0.7,-4.8 2.3,-6.1 1.6,0.4 14,-1.3 15.3,11.2 5.3,3.1 4.5,4.5 2.1,3.9 0.4,3.5 -1.1,4.9 -0.9,1.7 z"
       id="SVN928"
       name="Gornji Petrovci"
       style="fill:#cccccc" />
    <path
       d="m 902.5,56.1 -6.5,8.2 -1.9,0.1 -2.7,3.9 1,9.7 -8.7,3.5 -2.2,-0.8 -11.4,0.6 -5.1,-2.1 -2.6,-2.1 -2.9,-0.8 -2.7,-1.4 -2.3,-2.3 -1.9,-4.9 1,-4.2 0.5,-3 -0.8,-9.5 2.6,-3.8 6,-0.3 2.8,0.5 1.9,0.8 2.5,-0.8 2.1,-1.7 4.7,-9.3 3.1,-19.4 4.3,1.3 1.4,2 2,2 1.1,3.5 6.1,6 2.4,0.7 2.1,1.1 1.3,1.5 0.6,3.9 -3.3,9.1 1.2,2.3 z"
       id="SVN929"
       name="Puconci"
       style="fill:#cccccc" />
    <path
       d="m 853.5,23.2 -1.4,18.7 0.2,2.6 3.6,2.7 -2.6,3.8 -9.7,-1.4 -2,-1.2 -3.6,-4 -0.7,-1.7 -5.4,-0.9 -5.4,0.4 0.1,-1.4 2.2,-14.4 -0.2,-3.3 -1.4,-1 -0.3,-1 3,-3.3 1.9,-1.1 14.1,-3.5 6.6,-3.9 z"
       id="SVN931"
       name="Rogašovci"
       style="fill:#cccccc" />
    <path
       d="m 860.9,126.2 3.5,10.9 -0.4,2.5 -3.6,10.3 -10.2,-1.6 -3.6,2.8 -1.9,2.7 -0.4,1.1 0.4,1.2 -0.5,3.1 -2,4.8 -4.1,-6.1 -6.6,-10.2 -5.7,-9 3.1,-9.2 11.2,-3.5 4.3,1.9 3,-3.2 3.8,-4.5 2.2,0.2 1.7,1.7 1.6,5.2 1.1,1.6 0.8,-0.3 z"
       id="SVN1048"
       name="Sveti Jurij"
       style="fill:#cccccc" />
    <path
       d="m 914.2,144.4 2,2.9 4.4,3.5 2.2,-2.1 2.2,-1.3 3.3,5.8 5.9,1.7 -2.9,1.8 -7.6,-3.1 -5.7,6.7 0.4,2.6 -8.2,9.3 -0.3,3.9 -2.2,1.7 -1.7,2.7 -1.6,0.4 -2,-0.8 -1.2,1.3 h -1.5 l -3.2,-4.9 -2.7,-2.4 -4,-3 -4.8,1.2 -0.9,1.6 -1.6,0.6 -3.5,-0.4 -7.2,-3 -14.6,-2.7 -5.1,-2.1 -9.9,-2.3 2,-4.8 0.5,-3.1 -0.4,-1.2 0.4,-1.1 1.9,-2.7 3.6,-2.8 10.2,1.6 6.3,1.3 7.8,4.6 6.5,1.5 3.6,0.2 3.7,-1.1 2.5,-2.4 0.7,-4.1 0.9,-3.8 -1.6,-1.8 0.9,-2.8 4.4,-2.9 3.6,-0.1 0.7,-0.6 4,-7.5 z"
       id="SVN265"
       name="Ljutomer"
       style="fill:#cccccc" />
    <path
       d="m 886.7,120.4 -3.4,2.1 -4.3,-0.9 0.5,4.7 1.9,3.7 3.6,3.1 0.9,4.5 5.8,3.9 -0.9,2.8 1.6,1.8 -0.9,3.8 -0.7,4.1 -2.5,2.4 -3.7,1.1 -3.6,-0.2 -6.5,-1.5 -7.8,-4.6 -6.3,-1.3 3.6,-10.3 0.4,-2.5 -3.5,-10.9 5.1,-6.6 5.2,-0.2 -2.1,-4.3 1.6,-3 3.2,2.2 z"
       id="SVN266"
       name="Križevci"
       style="fill:#cccccc" />
    <path
       d="m 904.4,130.4 -4,7.5 -0.7,0.6 -3.6,0.1 -4.4,2.9 -5.8,-3.9 -0.9,-4.5 -3.6,-3.1 -1.9,-3.7 -0.5,-4.7 4.3,0.9 3.4,-2.1 13.5,6.4 z"
       id="SVN267"
       name="Veržej"
       style="fill:#cccccc" />
    <path
       d="m 931.3,156.7 -2,1.2 -9.9,3.9 -1,1.1 -0.4,-2.6 5.7,-6.7 z"
       id="SVN269"
       name="Razkrižje"
       style="fill:#cccccc" />
    <path
       d="m 825.5,79.4 -6.6,9.3 -4.7,4.3 -6.6,0.7 -7.2,0.4 -3.7,-2.6 -5.7,-1.5 -10,-6.8 -2.8,-4.5 -4.4,-1.7 -5.7,-4.7 -0.6,-1 12.1,-5 8.9,-0.7 8.8,1.7 21.4,10.9 z"
       id="SVN5884"
       name="Apace"
       style="fill:#cccccc" />
    <path
       d="m 841,90.4 3.6,2.6 4.4,1.1 -10.8,13.8 -0.3,5.3 2.2,12.8 -11.2,3.5 -7.1,-1 -7.2,-3.8 -5.4,-6.6 -0.8,-3.6 -0.1,-2.5 4.8,-4.4 0.8,-2.2 -2.6,-1.1 -1.4,0.3 -2.9,0.1 -6.7,-2.8 0.1,-7.8 7.2,-0.4 6.6,-0.7 4.7,-4.3 6.6,-9.3 6.1,1.1 3.5,2.4 z"
       id="SVN927"
       name="Gornja Radgona"
       style="fill:#cccccc" />
    <path
       d="m 870.7,112.1 -1.6,3 2.1,4.3 -5.2,0.2 -5.1,6.6 -2.3,2.4 -0.8,0.3 -1.1,-1.6 -1.6,-5.2 -1.7,-1.7 -2.2,-0.2 -3.8,4.5 -3,3.2 -4.3,-1.9 -2.2,-12.8 0.3,-5.3 10.8,-13.8 8,8.5 z"
       id="SVN930"
       name="Radenci"
       style="fill:#cccccc" />
  </g>
  <g
     info="Byl zřízen v květnu 2005. Nachází se na severu státu. V regionu je celkem 12 občin. Hlavním a také největším městem je Slovenj Gradec. Rozloha regionu je 1 040,8 km²; v lednu 2016 zde žilo 71 040 lidí."
     name="Koroška"
     style="fill:#cccccc"
     id="koroska">
    <path
       d="m 522.2,145.9 -2.1,8.6 -0.5,8.1 -1.2,3.9 -2,3.3 -1.7,1.3 -6.7,2.9 -7,-0.6 -0.9,-0.7 -5.2,-5.7 7.5,-7.7 0.9,-4.2 -1.1,-1.7 -0.3,-4.9 0.1,-5.7 -0.4,-2.5 -0.9,-1.5 -2.5,-0.6 -0.9,-1 -1.6,-2.9 -1.2,-3.1 -1.2,-1.9 -3.3,-3.1 -1.7,0.1 -0.8,-0.7 -2.1,-4.9 1.1,-0.2 6.9,-4.4 0.2,0.7 7.4,5.9 5.3,0.5 1.9,1.3 1.5,2.4 3.5,4.5 5,4.1 3.1,1.9 2.1,4.5 z"
       id="SVN217"
       name="Ravne na Koroškem"
       style="fill:#cccccc" />
    <path
       d="m 494.9,167 -7.8,0.1 1,-5.6 -1.2,-1.3 -2.2,-1.8 -3.2,-3.4 -1.1,-3 -0.1,-2.2 -1.7,-1.5 -1.8,-0.9 -1.2,-2.2 -3.2,-0.7 -1.9,0.6 -6.8,-0.2 -3.5,0.6 2.4,-7.5 3.6,-7.7 5.3,-7.8 4,-1.7 4.5,0.6 5.4,-0.7 2.1,4.9 0.8,0.7 1.7,-0.1 3.3,3.1 1.2,1.9 1.2,3.1 1.6,2.9 0.9,1 2.5,0.6 0.9,1.5 0.4,2.5 -0.1,5.7 0.3,4.9 1.1,1.7 -0.9,4.2 z"
       id="SVN233"
       name="Prevalje"
       style="fill:#cccccc" />
    <path
       d="m 487.1,167.1 7.8,-0.1 5.2,5.7 0.9,0.7 7,0.6 -2.9,13.6 -0.2,5.8 -4.4,3.4 -15.9,7.5 -27.7,-0.7 -9.1,-3.1 -1.8,0.3 -4.8,4.5 -6.7,-9.6 -3.6,-2.6 -14.7,-2.9 -1,-2.5 2.3,0.4 2.3,-5.7 3.7,-4.5 1.6,-3.1 1.9,-2.2 5.2,-2.4 2.8,2 8.2,-1.3 7,-3.2 1.7,-1.6 2.6,-5.9 5.2,1 5.8,1.7 6.4,5.2 6.9,2.3 4.1,0.4 2.7,-0.6 z"
       id="SVN944"
       name="Črna na Koroškem"
       style="fill:#cccccc" />
    <path
       d="m 546.1,101 1,6.2 1.5,4.1 3.5,6.4 6.7,4.8 -4.4,1.2 -1.1,1.7 -1.5,3.8 0.7,3.5 -0.8,4.2 -10.3,9.1 -0.6,2.1 -1.5,1.6 -1.3,0.3 -3.6,-1.4 -4,1.4 -2.6,1.6 h -1.1 l -4.5,-5.7 1.2,-4 -2.1,-4.5 -3.1,-1.9 -5,-4.1 -3.5,-4.5 -1.5,-2.4 -1.9,-1.3 -5.3,-0.5 -7.4,-5.9 -0.2,-0.7 4.5,-2.8 4.5,0.9 6.1,8.8 11.8,-16.9 18.2,-5.9 z"
       id="SVN947"
       name="Dravograd"
       style="fill:#cccccc" />
    <path
       d="m 487.1,167.1 -1.5,3.1 -2.7,0.6 -4.1,-0.4 -6.9,-2.3 -6.4,-5.2 -5.8,-1.7 -5.2,-1 3.3,-7.6 2.4,-7.1 3.5,-0.6 6.8,0.2 1.9,-0.6 3.2,0.7 1.2,2.2 1.8,0.9 1.7,1.5 0.1,2.2 1.1,3 3.2,3.4 2.2,1.8 1.2,1.3 z"
       id="SVN970"
       name="Mežica"
       style="fill:#cccccc" />
    <path
       d="m 573.6,104 0.3,1.6 2.6,3.8 0.7,1.9 -0.1,2.8 -9.2,7.3 -4.6,1.8 -4.5,-0.7 -6.7,-4.8 -3.5,-6.4 -1.5,-4.1 -1,-6.2 z"
       id="SVN974"
       name="Muta"
       style="fill:#cccccc" />
    <path
       d="m 582.1,155.7 -3.4,5.5 -14.4,-7.5 -1.7,-3.6 -3.4,-4.8 -4.4,-3.7 -3.1,-4.7 0.8,-4.2 -0.7,-3.5 1.5,-3.8 1.1,-1.7 4.4,-1.2 4.5,0.7 4.6,-1.8 9.2,-7.3 2.6,3.2 1.7,1.3 1.9,0.7 1.9,1.5 0.7,1.5 v 1.9 l -0.5,2.6 -2.6,4.6 -1.8,1.1 -3.8,1.1 0.9,1.9 0.2,1.9 -1.2,3.8 -1.7,3 -0.7,3.1 -0.2,2.3 1.6,3.9 z"
       id="SVN1005"
       name="Vuzenica"
       style="fill:#cccccc" />
    <path
       d="m 617.8,172.6 1.1,4.8 0.7,5.7 2.1,3.1 0.8,2.1 -0.7,3.3 -8.5,0.6 -5.3,1.5 -2.4,1.6 -2.1,2.7 -4.1,10.7 -6.8,9.9 -13.4,1.9 -4.6,-2.6 0.1,-3.8 -0.2,-3.1 -1.7,-0.8 -2.6,-0.8 -2.1,-0.1 -10,-4.2 3.6,-10.1 3,-0.6 1.6,-2.1 0.5,-4.8 3.5,-3.5 7.6,-11.1 3,-8.8 8.6,6.5 4.9,1 6.4,-0.4 z"
       id="SVN971"
       name="Mislinja"
       style="fill:#cccccc" />
    <path
       d="m 656.9,110.5 1.8,3.5 -0.5,4.6 -1,3.4 -0.5,2.5 v 2.1 l 1.8,0.9 0.9,2.6 -2.4,4.6 -3.3,-0.2 -5.7,-3.8 -6.1,-2 -3.8,-0.4 -1.5,0.6 -0.8,1.6 0.1,3.9 -0.8,3 -5.8,8.1 -2.9,7.8 -3.2,4.5 -2,6.5 -1.8,-7.8 0.1,-2.1 1,-2.5 -1,-1.4 -4.9,-2.8 -2.7,-4.8 -7.3,-7.2 4.4,-12 4.3,-4.2 2.1,-0.7 5.2,-2.5 2.6,-2.1 1.1,-7.3 0.1,-3.9 17.5,-1 9.3,3.6 z"
       id="SVN214"
       name="Podvelka"
       style="fill:#cccccc" />
    <path
       d="m 621.2,164.3 -3.4,8.3 -17,-1.4 -6.4,0.4 -4.9,-1 -8.6,-6.5 -2.2,-2.9 3.4,-5.5 3.1,-2.9 0.4,-3.6 1.4,-1.9 1.7,-1.6 15.9,-10 7.3,7.2 2.7,4.8 4.9,2.8 1,1.4 -1,2.5 -0.1,2.1 z"
       id="SVN257"
       name="Ribnica na Pohorju"
       style="fill:#cccccc" />
    <path
       d="m 604.6,135.7 -15.9,10 -1.7,1.6 -1.4,1.9 -0.4,3.6 -3.1,2.9 -6,-2.2 -1.6,-3.9 0.2,-2.3 0.7,-3.1 1.7,-3 1.2,-3.8 -0.2,-1.9 -0.9,-1.9 3.8,-1.1 1.8,-1.1 2.6,-4.6 0.5,-2.6 v -1.9 l -0.7,-1.5 -1.9,-1.5 -1.9,-0.7 -1.7,-1.3 -2.6,-3.2 0.1,-2.8 -0.7,-1.9 -2.6,-3.8 -0.3,-1.6 10.2,1.1 40.6,-2.1 -0.1,3.9 -1.1,7.3 -2.6,2.1 -5.2,2.5 -2.1,0.7 -4.3,4.2 z"
       id="SVN981"
       name="Radlje ob Dravi"
       style="fill:#cccccc" />
    <path
       d="m 578.7,161.2 2.2,2.9 -3,8.8 -7.6,11.1 -3.5,3.5 -0.5,4.8 -1.6,2.1 -3,0.6 -3.6,10.1 -3.7,-4.1 -4.2,-1.4 -2.1,-0.1 -0.9,3.5 -28.3,-9.4 -13.8,-6 2.9,-13.6 6.7,-2.9 1.7,-1.3 2,-3.3 1.2,-3.9 0.5,-8.1 2.1,-8.6 4.5,5.7 h 1.1 l 2.6,-1.6 4,-1.4 3.6,1.4 1.3,-0.3 1.5,-1.6 0.6,-2.1 10.3,-9.1 3.1,4.7 4.4,3.7 3.4,4.8 1.7,3.6 z"
       id="SVN991"
       name="Slovenj Gradec"
       style="fill:#cccccc" />
  </g>
  <g
     info="Byl zřízen v květnu 2005. Nachází se ve východní části Slovinska a tvoří jej celkem 41 občin. Hlavním a také největším městem je Maribor. Rozloha regionu je 2 167,7 km² a k 1. lednu 2016 zde žilo 322 553 obyvatel."
     name="Podravska"
     style="fill:#cccccc"
     id="podravska">
    <path
       d="m 859.7,222.3 4.1,5.2 -9.7,-2 -0.2,8.2 0.8,6.6 -0.1,6 -2.3,6.3 -0.7,0.8 -2.3,-8 -0.7,-5.3 -0.8,-2.6 -1.1,-1.2 -1,-2 v -2.6 l 2.9,-7.2 4.6,-3.8 z"
       id="SVN1050"
       name="Zavrc"
       style="fill:#cccccc" />
    <path
       d="m 844,200.3 -4.5,-1.2 -5.2,2.8 -1.3,1.5 -2.6,4.1 -12.7,-1.8 3.2,-14 7.6,2.2 6.2,-5.7 2.3,-3.7 1.4,-3.3 4,-7.8 6,10.2 -0.3,8.9 z"
       id="SVN1040"
       name="Dornava"
       style="fill:#cccccc" />
    <path
       d="m 844,200.3 7.8,3.4 4.8,9.6 3.1,9 -6.5,-1.6 -4.6,3.8 -2.9,7.2 v 2.6 l 1,2 1.1,1.2 0.8,2.6 0.7,5.3 2.3,8 -3.5,3.8 -6.3,4.4 -6.6,3.4 -1.5,0.4 -1.4,-2.2 -4.4,-14.8 0.3,-3.6 -1.6,-5.1 -1.2,-1.2 0.6,-5.8 2.6,-0.2 2.6,-0.9 1,-0.7 3,-3.3 -0.5,-3.8 -2.5,-5.8 -0.3,-4 -1.5,-6.5 2.6,-4.1 1.3,-1.5 5.2,-2.8 z"
       id="SVN1041"
       name="Gorišnica"
       style="fill:#cccccc" />
    <path
       d="m 842.2,164 -2,1.7 2.2,7.7 -4,7.8 -1.4,3.3 -2.3,3.7 -6.2,5.7 -7.6,-2.2 -3.1,-4.1 0.3,-9.5 0.9,-3 0.8,-6.7 1.6,-2 2.4,-2.3 2.9,-1.4 3.7,-2.4 7.7,-2.4 z"
       id="SVN1042"
       name="Juršinci"
       style="fill:#cccccc" />
    <path
       d="m 909.9,176.1 -0.1,2.9 1.2,6.2 3.7,12.7 0.3,3.7 -0.6,7.4 0.8,3.9 2,2.3 5.4,3.6 1.4,2.2 0.5,5.1 -1.4,1.4 -7.3,-0.1 -11.3,2.8 -2.7,0.1 -5.3,-1.2 -4.5,-2.7 -7.6,-7.3 -3.1,-1.5 -3.9,0.8 -2.6,2.8 -2.5,3.5 -3,2.5 -3.7,0.7 -1.8,-0.4 -4.1,-5.2 -3.1,-9 -4.8,-9.6 -7.8,-3.4 4.1,-7.8 0.3,-8.9 -6,-10.2 -2.2,-7.7 2,-1.7 9.9,2.3 5.1,2.1 14.6,2.7 7.2,3 3.5,0.4 1.6,-0.6 0.9,-1.6 4.8,-1.2 4,3 2.7,2.4 3.2,4.9 h 1.5 l 1.2,-1.3 2,0.8 1.6,-0.4 1.7,-2.7 z"
       id="SVN1047"
       name="Ormož"
       style="fill:#cccccc" />
    <path
       d="m 828.9,129.5 -3.1,9.2 5.7,9 -8.7,6.1 -1.6,0.2 -2.1,-0.2 -0.7,-1.2 -5.3,-2.7 -2.8,-10.8 2.1,-3.8 3.7,-2.8 1.7,-0.7 4,-3.3 z"
       id="SVN198"
       name="Cerkvenjak"
       style="fill:#cccccc" />
    <path
       d="m 814.6,124.7 -2.3,2.5 -3.4,2.4 -3.2,0.4 -0.9,0.7 -1.3,-0.4 -1.6,-1.8 -5.6,-8.2 -4,-2.3 0.9,-5.7 2.9,-6 4.2,-4.4 6.7,2.8 2.9,-0.1 1.4,-0.3 2.6,1.1 -0.8,2.2 -4.8,4.4 0.1,2.5 0.8,3.6 z"
       id="SVN199"
       name="Benedikt"
       style="fill:#cccccc" />
    <path
       d="m 800.4,94.1 -0.1,7.8 -4.2,4.4 -2.9,6 -0.9,5.7 -1.9,1.7 -1.6,-0.1 -2.2,-0.8 -3.3,-2.6 -1.6,-1.9 -0.3,-3.9 -1.6,-5.9 -1.6,-2.4 -5.8,-0.7 -1.8,-3.6 -0.6,-2.8 0.1,-2.2 2,-2.3 0.3,-2.6 1.2,-2.9 0.2,-8 4.4,1.7 2.8,4.5 10,6.8 5.7,1.5 z"
       id="SVN200"
       name="Sveta Ana"
       style="fill:#cccccc" />
    <path
       d="m 813.1,167.3 5.9,7.8 -0.9,3 -6.9,4.4 -4.5,4.9 -0.9,1.8 -1.6,1.3 -2.4,0.6 -2.5,-0.6 -4.8,-2.9 -7.7,-10.5 -7,-5.6 9.8,-5.2 4.1,2.8 6.5,0.1 z"
       id="SVN203"
       name="Destrnik"
       style="fill:#cccccc" />
    <path
       d="m 772.4,101.4 5.8,0.7 1.6,2.4 1.6,5.9 0.3,3.9 1.6,1.9 3.3,2.6 2.2,0.8 1.6,0.1 1.9,-1.7 4,2.3 5.6,8.2 1.6,1.8 1.3,0.4 0.9,-0.7 3.2,-0.4 3.4,-2.4 2.3,-2.5 7.2,3.8 -4,3.3 -1.7,0.7 -3.7,2.8 -2.1,3.8 2.8,10.8 -1.4,3.4 -10.1,-5.5 -2.5,1.9 -3.6,2 -1.7,1.9 -1.8,3.8 -0.6,2.6 -1,1.9 -0.8,4.4 -9.8,5.2 -2.3,-1.1 -1.8,-4.1 1.2,-2.7 1.1,-1.3 -0.8,-2.4 -1.9,-2.4 -5.8,-4.3 -0.7,-1.4 -0.3,-1.9 -0.9,-1.4 -1.3,-1 -1.7,-0.4 -2,0.4 h -4.9 l 4.9,-5.7 -1.1,-0.9 -0.6,-1.7 -2.9,-3.8 1.7,-6.8 -0.7,-6.8 0.9,-5.6 3.2,-8.9 0.8,-4.2 1.6,-2.3 z"
       id="SVN208"
       name="Lenart"
       style="fill:#cccccc" />
    <path
       d="m 773.2,235.9 2,4.6 0.9,1.1 0.5,1.6 -3.9,8.4 -8.9,10.5 -3.5,5.5 -1.3,10.9 -5.2,-1.8 -11.9,0.8 -6,-4.5 8.5,-10.5 2.5,-6.6 0.5,-6.4 0.1,-5.3 -1.7,-3.3 -2.3,-1.2 -5.9,-1 -3.1,-3.6 -0.9,-2.5 1,-2.6 28,2 4.8,1 z"
       id="SVN211"
       name="Majšperk"
       style="fill:#cccccc" />
    <path
       d="m 779.8,171.5 7,5.6 7.7,10.5 4.8,2.9 2.5,0.6 2.4,-0.6 1.6,-1.3 0.9,-1.8 4.5,-4.9 6.9,-4.4 -0.3,9.5 3.1,4.1 -3.2,14 -0.1,2.9 -2.3,3.2 -10,6.3 -2.4,-1.5 -8.5,5.9 0.5,-2.5 -0.6,-0.9 -1.8,-0.9 -1.8,-2 0.4,-1.2 -0.1,-2.8 0.3,-2.2 -0.4,-1.7 -3.5,-7.2 -9.1,-11.1 -4.4,-5.6 -2.8,-1.1 -4.6,0.7 4.2,-5.6 3.7,-2.5 3.1,-5.5 z"
       id="SVN216"
       name="Ptuj"
       style="fill:#cccccc" />
    <path
       d="m 697.5,164.6 -7.7,5.8 -12.3,-0.9 -29.3,9.9 2.3,-10 8,-8.7 2.7,-6.1 0.5,-2.8 -0.2,-1.9 3,-3.8 -0.4,5.3 7.8,1.9 4.2,-1.5 20.4,-11.3 -3.2,20.4 z"
       id="SVN219"
       name="Ruše"
       style="fill:#cccccc" />
    <path
       d="m 689.8,170.4 2,6.5 0.7,4 2.9,2.7 26.3,15.7 0.5,1.6 3.7,1.2 4.5,2.2 6.3,6.9 -3.2,2.9 0.6,1 1.9,1.6 -0.5,1.9 0.6,2.4 -1,3.4 -1.4,2.1 0.9,3.5 -1,2.6 0.9,2.5 3.1,3.6 5.9,1 2.3,1.2 1.7,3.3 -0.1,5.3 -0.5,6.4 -2.5,6.6 -8.5,10.5 -10.1,0.2 -14,-4.7 -6.6,-0.1 -3.5,1.1 -1.8,1.1 -1.7,2.6 -4.2,-1.9 1.7,-7.2 -0.9,-7 -2.3,-11.5 -2.2,-5 -2.7,-2.4 -2.5,-0.3 -6.8,-4.1 -1.9,-5.6 -0.9,-4.2 0.5,-4.2 -0.3,-1.2 -1.5,-1.1 -4.5,-1.3 -3.9,0.4 -1.9,-1.4 -1,-2.6 -1,-1.9 -3.3,-4.2 -5.7,-2.6 -7.8,-6.2 -5.1,-1.3 -4.4,-3.1 -5,-2.3 -2.2,-3.2 -2.2,-2.7 -1.1,-5.5 7.6,-1.3 1.5,0.9 4.1,4 1.4,0.3 1.9,-0.7 1.1,-0.8 5.5,-2.6 29.3,-9.9 z"
       id="SVN221"
       name="Slovenska Bistrica"
       style="fill:#cccccc" />
    <path
       d="m 805.3,218.1 7.8,3.1 2.1,1.6 2.3,6.4 2.8,1.7 5.7,1.8 -0.6,5.8 1.2,1.2 1.6,5.1 -0.3,3.6 4.4,14.8 1.4,2.2 -3.7,1 -10.5,1.9 -9.5,5.3 -0.8,-4.7 0.7,-2.5 -0.2,-2.4 0.3,-2.6 -0.2,-1.4 -2,-4.3 -0.8,-3.5 0.3,-1.5 1.1,-2.3 -0.3,-3.3 -0.7,-1.5 -1.4,-1.3 -1.8,-1.1 -5.2,-2.3 -1.3,-0.9 -4.8,-0.6 -7.2,2.2 -1.5,0.8 -1.8,2.6 -1,2.6 0.2,2.9 -1.3,8.7 -7.6,-5.6 3.9,-8.4 -0.5,-1.6 -0.9,-1.1 -2,-4.6 5.1,-2 0.8,-3.1 1.1,-2.6 2.1,-10.6 6,5.9 6.1,-1 8.5,-5.9 z"
       id="SVN222"
       name="Videm"
       style="fill:#cccccc" />
    <path
       d="m 678.3,233.8 -13.1,0.6 -2.5,-0.8 -9.1,-5.2 -5.1,-4.4 0.3,-1.3 2.4,-3.1 0.5,-1.3 -1.2,-2.1 -1.7,-2.2 v -1.4 l 0.8,-0.9 1.3,-4.6 2,-3.2 5.7,2.6 3.3,4.2 1,1.9 1,2.6 1.9,1.4 3.9,-0.4 4.5,1.3 1.5,1.1 0.3,1.2 -0.5,4.2 0.9,4.2 z"
       id="SVN226"
       name="Oplotnica"
       style="fill:#cccccc" />
    <path
       d="m 794.4,222.5 -6.1,1 -6,-5.9 -9.8,-17 1.7,-2.7 -0.6,-3.4 0.5,-1.9 4.2,-2.6 9.1,11.1 3.5,7.2 0.4,1.7 -0.3,2.2 0.1,2.8 -0.4,1.2 1.8,2 1.8,0.9 0.6,0.9 z"
       id="SVN227"
       name="Hajdina"
       style="fill:#cccccc" />
    <path
       d="m 750.7,167 0.5,0.7 -2.7,3.9 -0.4,1.4 1.4,2.5 0.6,2.8 1,2.6 -5,6.7 -2.4,-2.3 -3.7,-7.6 -0.9,-2.4 1.4,-3.5 0.4,-1.8 -2,-3.6 0.7,-2.8 z"
       id="SVN228"
       name="Miklavž na Dravskem polju"
       style="fill:#cccccc" />
    <path
       d="m 739.6,163.6 -0.7,2.8 2,3.6 -0.4,1.8 -1.4,3.5 0.9,2.4 3.7,7.6 -7.2,1.2 -3.4,0.9 -5.5,0.2 -1.5,-0.3 -2.2,-1 -3.2,-2.7 -7.6,-3.7 h -8.3 l -4.9,-2.1 -8.1,-0.9 -2,-6.5 7.7,-5.8 14.2,-3.1 z"
       id="SVN229"
       name="Hoce-Slivnica"
       style="fill:#cccccc" />
    <path
       d="m 811.7,153.3 2,2.1 0.6,1.2 0.6,3.9 -1.8,6.8 -12.9,1.9 -6.5,-0.1 -4.1,-2.8 0.8,-4.4 1,-1.9 0.6,-2.6 1.8,-3.8 1.7,-1.9 3.6,-2 2.5,-1.9 z"
       id="SVN230"
       name="Trnovska vas"
       style="fill:#cccccc" />
    <path
       d="m 780.3,257.2 11.7,11.3 1.6,1 2.6,7.2 1.8,3 -14.8,0.5 -5,1.3 -4.8,2.3 -1.2,0.9 -13.2,-6.2 1.3,-10.9 3.5,-5.5 8.9,-10.5 z"
       id="SVN231"
       name="Žetale"
       style="fill:#cccccc" />
    <path
       d="m 810,273.6 -11.1,6.1 H 798 l -1.8,-3 -2.6,-7.2 -1.6,-1 -11.7,-11.3 1.3,-8.7 -0.2,-2.9 1,-2.6 1.8,-2.6 1.5,-0.8 7.2,-2.2 4.8,0.6 1.3,0.9 5.2,2.3 1.8,1.1 1.4,1.3 0.7,1.5 0.3,3.3 -1.1,2.3 -0.3,1.5 0.8,3.5 2,4.3 0.2,1.4 -0.3,2.6 0.2,2.4 -0.7,2.5 z"
       id="SVN232"
       name="Podlehnik"
       style="fill:#cccccc" />
    <path
       d="m 696.5,140.5 -20.4,11.3 -4.2,1.5 -7.8,-1.9 0.4,-5.3 0.7,-8.4 -1.3,-3.9 -2.1,-2 -2.4,-1.7 -0.9,-2.6 -1.8,-0.9 v -2.1 l 0.5,-2.5 1,-3.4 0.5,-4.6 -1.8,-3.5 1.4,1.3 7.2,4.5 9.5,-1.7 5.9,-4.6 0.8,-1.9 2,2.4 1.5,6.2 -0.1,3.4 1.1,2.6 1.3,1.9 3.1,1.8 1.6,2.2 0.5,4.3 v 3 z"
       id="SVN234"
       name="Selnica ob Dravi"
       style="fill:#cccccc" />
    <path
       d="m 659.4,130.1 2.4,1.7 2.1,2 1.3,3.9 -0.7,8.4 -3,3.8 0.2,1.9 -0.5,2.8 -2.7,6.1 -8,8.7 -2.3,10 -5.5,2.6 -1.1,0.8 -1.9,0.7 -1.4,-0.3 -4.1,-4 -1.5,-0.9 -7.6,1.3 -6.2,-2.2 -1.1,-4.8 3.4,-8.3 2,-6.5 3.2,-4.5 2.9,-7.8 5.8,-8.1 0.8,-3 -0.1,-3.9 0.8,-1.6 1.5,-0.6 3.8,0.4 6.1,2 5.7,3.8 3.3,0.2 z"
       id="SVN235"
       name="Lovrenc na Pohorju"
       style="fill:#cccccc" />
    <path
       d="m 723.9,125.8 10.4,0.6 6.1,6.1 6.8,4.7 7.7,0.4 3.1,-2.2 2.9,3.8 0.6,1.7 1.1,0.9 -4.9,5.7 -4.9,6.6 -4.8,2.6 -1,2.7 1.4,3.5 2.3,4.1 -11.1,-3.4 -27.9,-2.1 -14.2,3.1 -4.2,-3.7 3.2,-20.4 -3.8,-4.6 v -3 l -0.5,-4.3 -1.6,-2.2 -3.1,-1.8 -1.3,-1.9 -1.1,-2.6 0.1,-3.4 -1.5,-6.2 -2,-2.4 1.2,-2.7 0.9,-4.4 5.2,5.3 10.7,2.9 6.4,-0.1 2.4,1 2.2,2.8 2.7,1.7 4.3,4 1.1,3.3 z"
       id="SVN256"
       name="Maribor"
       style="fill:#cccccc" />
    <path
       d="m 838.1,157.9 -7.7,2.4 -3.7,2.4 -2.9,1.4 -2.4,2.3 -1.6,2 -0.8,6.7 -5.9,-7.8 1.8,-6.8 -0.6,-3.9 -0.6,-1.2 -2,-2.1 1.4,-3.4 5.3,2.7 0.7,1.2 2.1,0.2 1.6,-0.2 8.7,-6.1 z"
       id="SVN268"
       name="Sveti Andraž v Slovenskih Goricah"
       style="fill:#cccccc" />
    <path
       d="m 830.4,207.5 1.5,6.5 0.3,4 2.5,5.8 0.5,3.8 -3,3.3 -1,0.7 -2.6,0.9 -2.6,0.2 -5.7,-1.8 -2.8,-1.7 -2.3,-6.4 -2.1,-1.6 -7.8,-3.1 10,-6.3 2.3,-3.2 0.1,-2.9 z"
       id="SVN272"
       name="Markovci"
       style="fill:#cccccc" />
    <path
       d="m 777.5,170.4 -3.1,5.5 -3.7,2.5 -4.2,5.6 -7.9,-8.3 -1.9,-1 -2.6,-0.9 -1.4,-1.7 -1.5,-4.4 -0.5,-0.7 -2.3,-4.1 -1.4,-3.5 1,-2.7 4.8,-2.6 4.9,-6.6 h 4.9 l 2,-0.4 1.7,0.4 1.3,1 0.9,1.4 0.3,1.9 0.7,1.4 5.8,4.3 1.9,2.4 0.8,2.4 -1.1,1.3 -1.2,2.7 z"
       id="SVN948"
       name="Duplek"
       style="fill:#cccccc" />
    <path
       d="m 772.5,200.6 9.8,17 -2.1,10.6 -1.1,2.6 -0.8,3.1 -5.1,2 -5.8,-2.9 -4.8,-1 -28,-2 -0.9,-3.5 1.4,-2.1 1,-3.4 -0.6,-2.4 0.5,-1.9 -1.9,-1.6 -0.6,-1 3.2,-2.9 14.9,-9.1 5.6,-1.8 5.6,0.6 4,-1.7 z"
       id="SVN956"
       name="Kidricevo"
       style="fill:#cccccc" />
    <path
       d="m 723.5,103.3 5.9,18.1 -5.5,4.4 -5.1,-3.9 -1.1,-3.3 -4.3,-4 -2.7,-1.7 -2.2,-2.8 -2.4,-1 -6.4,0.1 -10.7,-2.9 -5.2,-5.3 0.1,-0.8 3.1,-6.6 4.9,-3.7 6.8,-1.8 6.7,-0.1 4.8,1.4 4.1,-1.2 1.6,-1.2 0.2,5.3 z"
       id="SVN959"
       name="Kungota"
       style="fill:#cccccc" />
    <path
       d="m 763.1,107.3 -3.2,8.9 -0.9,5.6 0.7,6.8 -1.7,6.8 -3.1,2.2 -7.7,-0.4 -6.8,-4.7 -6.1,-6.1 -10.4,-0.6 5.5,-4.4 -5.9,-18.1 8.5,-1.5 1.7,-1.3 -0.4,-1.6 0.6,-2.2 2.1,-4 0.9,-3.4 1.1,-1.5 2.3,-0.2 1.8,0.6 3.8,-0.3 4.5,1.3 1.5,1.4 0.7,1.3 0.4,2.5 1.8,2.1 1.4,1.1 1.2,1.5 1.1,2 1.4,1.6 z"
       id="SVN976"
       name="Pesnica"
       style="fill:#cccccc" />
    <path
       d="m 743.7,185.3 2.4,2.3 2,4.7 -0.5,2.9 4,6.9 -14.9,9.1 -6.3,-6.9 -4.5,-2.2 -3.7,-1.2 -0.5,-1.6 -26.3,-15.7 -2.9,-2.7 -0.7,-4 8.1,0.9 4.9,2.1 h 8.3 l 7.6,3.7 3.2,2.7 2.2,1 1.5,0.3 5.5,-0.2 3.4,-0.9 z"
       id="SVN979"
       name="Race-Fram"
       style="fill:#cccccc" />
    <path
       d="m 767.5,71.3 0.6,1 5.7,4.7 -0.2,8 -1.2,2.9 -0.3,2.6 -2,2.3 -0.1,2.2 0.6,2.8 1.8,3.6 -6.9,-0.6 -1.6,2.3 -0.8,4.2 -3.2,-4.6 -1.4,-1.6 -1.1,-2 -1.2,-1.5 -1.4,-1.1 -1.8,-2.1 -0.4,-2.5 -0.7,-1.3 -1.5,-1.4 -4.5,-1.3 -3.8,0.3 -1.8,-0.6 -2.3,0.2 -1.1,1.5 -0.9,3.4 -2.1,4 -0.6,2.2 0.4,1.6 -1.7,1.3 -8.5,1.5 -7.4,-11 -0.2,-5.3 1.7,-1.3 1.9,-4 -0.1,-5.9 1,-7 5.1,3.1 24.3,3.6 8.4,-0.5 z"
       id="SVN986"
       name="Šentilj"
       style="fill:#cccccc" />
    <path
       d="m 766.5,184 4.6,-0.7 2.8,1.1 4.4,5.6 -4.2,2.6 -0.5,1.9 0.6,3.4 -1.7,2.7 -5.7,-1.4 -4,1.7 -5.6,-0.6 -5.6,1.8 -4,-6.9 0.5,-2.9 -2,-4.7 5,-6.7 -1,-2.6 -0.6,-2.8 -1.4,-2.5 0.4,-1.4 2.7,-3.9 1.5,4.4 1.4,1.7 2.6,0.9 1.9,1 z"
       id="SVN996"
       name="Starše"
       style="fill:#cccccc" />
  </g>
  <g
     info="Byl zřízen v květnu 2005. Nachází se v centrální části Slovinska. V regionu je celkem 31 občin. Hlavním a také největším městem regionu je Celje. Rozloha regionu je 2301 km² a v lednu 2014 zde žilo 259 853 lidí. V tabulce je uveden počet obyvatel k 1. 1. 2014."
     name="Savinjska"
     style="fill:#cccccc"
     id="savinjska">
    <path
       d="m 551.9,281.7 6.2,6.2 4.5,2.5 1.7,2.1 -1.7,0.8 -0.7,1.3 -0.4,2.2 -0.1,7 -0.5,3.9 -0.5,1.5 -1.8,2.2 -2.2,1.1 -2.3,0.2 -10.6,1.4 -10.3,-4.1 2.1,-6.5 0.3,-1.8 -0.5,-6.7 4.9,-2 9,-12.5 z"
       id="SVN243"
       name="Prebold"
       style="fill:#cccccc" />
    <path
       d="m 558.1,205.1 10,4.2 2.1,0.1 2.6,0.8 1.7,0.8 0.2,3.1 -0.1,3.8 4.6,2.6 3.5,12.8 1.1,3 0.5,3.8 v 1.7 l -3.1,6.6 -4.7,1.1 -7.4,-5 -3.9,0.2 -2.6,1.3 -2.1,2.4 -2.7,4.9 -3.9,-2.8 -2.5,-4.4 -4.8,-3.3 -1.9,-3 -4.7,-2.4 1,-9.3 4,-6.6 1.7,-6.3 0.5,-12.2 0.9,-3.5 2.1,0.1 4.2,1.4 z"
       id="SVN1001"
       name="Velenje"
       style="fill:#cccccc" />
    <path
       d="m 623.8,231.2 h -20.1 l -11.1,-12.6 6.8,-9.9 4.1,-10.7 2.1,-2.7 2.4,-1.6 5.3,-1.5 8.5,-0.6 3.9,2.5 -0.1,1 -3.1,2.1 -0.7,1.8 0.2,2.7 4.7,8.2 2.7,2.4 2.2,1.6 0.9,2.4 -0.6,4.2 -0.8,2.4 z"
       id="SVN1002"
       name="Vitanje"
       style="fill:#cccccc" />
    <path
       d="m 625.1,179.6 1.1,5.5 2.2,2.7 2.2,3.2 5,2.3 4.4,3.1 5.1,1.3 7.8,6.2 -2,3.2 -1.3,4.6 -0.8,0.9 v 1.4 l 1.7,2.2 1.2,2.1 -0.5,1.3 -2.4,3.1 -0.3,1.3 5.1,4.4 -4.1,7.5 h -1.4 l -2,-1 -2.4,-0.6 -1.8,1 -1.9,2.1 -4.2,8.1 -6,-3.4 -3.5,-3.7 -0.6,-4.1 -1.9,-3.1 7.3,-8.3 0.8,-2.4 0.6,-4.2 -0.9,-2.4 -2.2,-1.6 -2.7,-2.4 -4.7,-8.2 -0.2,-2.7 0.7,-1.8 3.1,-2.1 0.1,-1 -3.9,-2.5 0.7,-3.3 -0.8,-2.1 -2.1,-3.1 -0.7,-5.7 z"
       id="SVN1007"
       name="Zrece"
       style="fill:#cccccc" />
    <path
       d="m 456.9,203.6 0.4,7.5 1.1,4.5 -0.7,4.9 -8.2,22.9 -15.7,12.8 -8.1,10.9 -6.4,0.2 -1.7,-1.9 -1.1,-4.1 -1.9,-5.1 -7.6,-10.6 -2.2,-15 9.4,0.8 18.1,-8.6 3.5,-2.6 1.7,-1.8 -1,-2.6 0.1,-3.9 4.6,-6.6 4.8,-4.5 1.8,-0.3 z"
       id="SVN210"
       name="Luce"
       style="fill:#cccccc" />
    <path
       d="m 717.4,309.1 -1.1,1.6 -5.9,11.3 -4.6,13 v 11.5 l 4.4,10.3 6.3,6.7 -5.1,4.8 -2.7,-1.5 -1.2,-4.4 0.3,-1.7 1,-1.6 -4.7,-10.3 -2.8,-1.6 -5.3,-4.6 -3.9,-0.8 -3.4,-3 3,-11.3 7,-4.4 3.6,-6.7 10.9,-11.4 z"
       id="SVN213"
       name="Bistrica ob Sotli"
       style="fill:#cccccc" />
    <path
       d="m 686.8,271.8 -1.8,2.1 -1,1.5 -1.9,1.7 -3.9,5 -4.7,3.2 -3.7,1.7 -5.5,4 -3.5,4 -0.2,2.1 0.9,3.8 2.6,6.8 5.7,8.8 0.7,2.6 1.6,3.4 2.4,2.4 4.5,1.7 3.6,-1.1 3.1,-0.3 1.8,-0.6 4.2,2.9 -3,11.3 -5.7,4 -3.3,4.2 -2.6,1.4 -2.4,-0.5 -1.2,-0.7 -2,-0.3 -1,2.1 -0.6,2.7 3.2,6.6 1.9,9.2 -23.5,2 -15.8,-4.1 2.8,-5.3 0.8,-2.5 -0.3,-3.9 1.2,-4.8 2.3,0.4 2.6,-1 2.4,-2.6 2.6,-2.2 0.9,-2.2 1,-0.3 2.2,2.4 1.5,0.9 1.2,0.1 0.6,-0.7 0.9,-4.1 -0.5,-1.4 -1.2,-1.5 -2.9,-1.8 -1.2,-1.1 -2.7,-3.6 -0.5,-1.3 -2.7,-0.1 -10.3,7.5 -1.2,-6.3 2,-3.9 0.5,-4.4 -3.7,-6.2 0.3,-11.6 0.7,-2.9 -1.5,-4.3 -7,-3.1 1.3,-5.8 2.5,-2.3 1.5,-1.9 0.7,-4.4 1.7,-9 1.8,-1 2.7,-3.4 0.6,-2.2 -1.1,-1.9 -0.9,-0.8 0.9,-5 6.2,4.3 32.9,10 2,-0.3 1.8,-1 z"
       id="SVN220"
       name="Šentjur pri Celju"
       style="fill:#cccccc" />
    <path
       d="m 635.8,245.5 -1.4,4.5 1.1,3 0.6,1 2.1,1.9 -0.9,5 0.9,0.8 1.1,1.9 -0.6,2.2 -2.7,3.4 -1.8,1 -1.7,9 -10.4,-5.3 -1.4,-0.6 -2.1,-0.2 -1.1,0.6 -1.7,0.2 -1.3,-0.8 -3.1,-2.9 -1.5,-4.1 -5.4,-8.4 -9.5,-6 6,-6.9 0.8,-3.3 -0.1,-4.5 0.6,-1.5 2,-2.1 -0.6,-2.2 h 20.1 l 1.9,3.1 0.6,4.1 3.5,3.7 z"
       id="SVN223"
       name="Vojnik"
       style="fill:#cccccc" />
    <path
       d="m 581.2,248.4 9.4,4.7 v 14.7 l -1.2,2 -1,3.2 -0.4,1.8 0.8,3.1 -0.5,1.5 1.2,7.4 0.4,3.6 -2.4,17.3 -4,4.6 -8.7,1.7 -20,0.5 -0.7,-1.8 2.3,-0.2 2.2,-1.1 1.8,-2.2 0.5,-1.5 0.5,-3.9 0.1,-7 0.4,-2.2 0.7,-1.3 1.7,-0.8 -1.7,-2.1 -4.5,-2.5 -6.2,-6.2 1.9,-5 -0.8,-2.5 1,-2.6 2.4,-4.8 1,-2.8 0.4,-10.7 2.7,-4.9 2.1,-2.4 2.6,-1.3 3.9,-0.2 7.4,5 z"
       id="SVN224"
       name="Žalec"
       style="fill:#cccccc" />
    <path
       d="m 603.7,231.2 0.6,2.2 -2,2.1 -0.6,1.5 0.1,4.5 -0.8,3.3 -6,6.9 -4.4,1.4 -9.4,-4.7 3.1,-6.6 v -1.7 l -0.5,-3.8 -1.1,-3 -3.5,-12.8 13.4,-1.9 z"
       id="SVN239"
       name="Dobrna"
       style="fill:#cccccc" />
    <path
       d="m 535.1,295 0.5,6.7 -0.3,1.8 -2.1,6.5 -8.5,1 -5.8,-3.6 -9.2,0.5 0.5,-6.3 0.8,-3.1 11.1,-18.1 6.5,2.1 3.8,5.1 0.9,2 z"
       id="SVN240"
       name="Tabor"
       style="fill:#cccccc" />
    <path
       d="m 522.1,280.4 -11.1,18.1 -0.8,3.1 -0.5,6.3 -10.6,2.8 -2.3,-0.9 -4.7,-3.5 -1.7,-4.2 6.4,-3.8 -14.3,-9.9 4,-6.3 V 280 l 0.8,-2.1 2.4,-0.7 3.3,-0.2 2.4,-1.7 6.3,-2.6 1.5,-1.5 v -1.8 l 2.1,-0.6 4.2,-0.3 z"
       id="SVN241"
       name="Vransko"
       style="fill:#cccccc" />
    <path
       d="m 557.8,253.3 -0.4,10.7 -1,2.8 -2.4,4.8 -1,2.6 0.8,2.5 -1.9,5 -2.9,-1.2 -13.8,-22.7 2.1,-3.4 0.5,-4.7 0.2,-5.6 2,-6.7 4.7,2.4 1.9,3 4.8,3.3 2.5,4.4 z"
       id="SVN244"
       name="Polzela"
       style="fill:#cccccc" />
    <path
       d="m 535.2,257.8 13.8,22.7 -9,12.5 -4.9,2 -1.8,-5.4 -0.9,-2 -3.8,-5.1 -6.5,-2.1 -12.6,-11.9 0.1,-8.8 4.5,-4.2 1.2,-2.2 0.5,-2.6 3.1,-4.8 2.7,-1.9 9.1,5.9 z"
       id="SVN247"
       name="Braslovce"
       style="fill:#cccccc" />
    <path
       d="m 415.2,187.7 1,2.5 14.7,2.9 3.6,2.6 6.7,9.6 -4.6,6.6 -0.1,3.9 1,2.6 -1.7,1.8 -3.5,2.6 -18.1,8.6 -9.4,-0.8 -9.5,2 -4.5,0.3 -8.5,-3.4 -1.8,-9.6 -0.3,-0.9 1.5,-4 2.7,-8.9 4.7,-6.8 3,-1.2 6.9,-0.6 3.2,-1 3.3,-2.1 6.4,-6.7 1.4,-0.4 z"
       id="SVN251"
       name="Solcava"
       style="fill:#cccccc" />
    <path
       d="m 640.2,348.9 -3.8,-12.6 10.3,-7.5 2.7,0.1 0.5,1.3 2.7,3.6 1.2,1.1 2.9,1.8 1.2,1.5 0.5,1.4 -0.9,4.1 -0.6,0.7 -1.2,-0.1 -1.5,-0.9 -2.2,-2.4 -1,0.3 -0.9,2.2 -2.6,2.2 -2.4,2.6 -2.6,1 z"
       id="SVN252"
       name="Dobje"
       style="fill:#cccccc" />
    <path
       d="m 738.4,379.4 -2.6,0.7 -5.3,6.2 -1.4,-2.6 -7.9,-0.1 -2.3,-0.8 -2.2,-1.7 -1.5,-1.4 -3.8,-11.4 5.1,-4.8 2.5,2.6 3.9,2.3 8.8,3.8 3.9,2.8 z"
       id="SVN255"
       name="Podcetrtek"
       style="fill:#cccccc" />
    <path
       d="m 632.5,279.2 -0.7,4.4 -1.5,1.9 -2.5,2.3 -1.3,5.8 -2.3,-0.3 -3.3,1.5 -2.5,1.7 -1.8,2.1 v 8.6 l 0.5,2.6 -2.7,2.2 -11.6,-2.2 -2.3,-1.6 -2.8,-0.1 -6.2,2.5 -3.4,-0.5 -0.6,-2.4 2.4,-17.3 -0.4,-3.6 -1.2,-7.4 0.5,-1.5 -0.8,-3.1 0.4,-1.8 1,-3.2 1.2,-2 v -14.7 l 4.4,-1.4 9.5,6 5.4,8.4 1.5,4.1 3.1,2.9 1.3,0.8 1.7,-0.2 1.1,-0.6 2.1,0.2 1.4,0.6 z"
       id="SVN941"
       name="Celje"
       style="fill:#cccccc" />
    <path
       d="m 476.8,254 3.2,6.6 -1.7,5.9 -3.1,4.2 -1.4,4.7 -0.9,7.3 -13.8,-0.7 -7.1,0.6 -11.3,-0.6 -12.4,-4 -3.2,-3 0.6,-7.9 8.1,-10.9 15.7,-12.8 5.3,-2.2 1,1.1 3.1,1.8 11.9,9.6 z"
       id="SVN949"
       name="Gornji Grad"
       style="fill:#cccccc" />
    <path
       d="m 711.4,368.3 3.8,11.4 1.5,1.4 2.2,1.7 2.3,0.8 7.9,0.1 1.4,2.6 -13.9,10.4 -8.3,4.2 -4.5,0.2 6.4,-11.1 -1.4,-1.8 -4.5,0.6 -2.3,0.7 -1.9,0.2 -1.4,0.6 -2.5,0.2 -3.5,-12.3 -3.4,-3.9 -4.1,-3 -2.3,-0.3 -7.9,-3.5 -1.9,-9.2 -3.2,-6.6 0.6,-2.7 1,-2.1 2,0.3 1.2,0.7 2.4,0.5 2.6,-1.4 3.3,-4.2 5.7,-4 3.4,3 3.9,0.8 5.3,4.6 2.8,1.6 4.7,10.3 -1,1.6 -0.3,1.7 1.2,4.4 z"
       id="SVN957"
       name="Kozje"
       style="fill:#cccccc" />
    <path
       d="m 614.4,312 0.5,3.1 -1.3,2.8 -2.5,1.8 -0.7,0.9 0.4,1.2 1.2,0.9 5.9,-0.3 16.1,-6.9 3.7,6.2 -0.5,4.4 -2,3.9 1.2,6.3 3.8,12.6 -1.2,4.8 0.3,3.9 -0.8,2.5 -2.8,5.3 -16.4,1.6 -4.5,1.8 -3.3,2.6 h -1.6 l -1,-1.3 -0.9,-4.4 -1.4,-2.1 -2.5,-1.6 -4.7,-1.7 -16,-0.2 -3.1,0.7 v 1.7 l 2.3,2.7 1.2,2.8 -0.9,2.6 -12.2,-14.5 -4.2,-2 -2.1,-2.1 -0.4,-2.2 0.9,-1.5 1.2,-0.2 3.9,2.2 3.8,1.4 3.7,-2.4 1.1,-1.6 v -2.4 l -2.6,-5.9 -2.7,-4.2 -3.9,-4.8 -7.8,-5.8 -1.2,-2.7 -5.6,-7.4 20,-0.5 8.7,-1.7 4,-4.6 0.6,2.4 3.4,0.5 6.2,-2.5 2.8,0.1 2.3,1.6 z"
       id="SVN960"
       name="Laško"
       style="fill:#cccccc" />
    <path
       d="m 484.6,204.3 2.9,2.8 0.4,10.9 -6.5,19 v 6.8 l -4.6,10.2 -6,-0.3 -11.9,-9.6 -3.1,-1.8 -1,-1.1 -5.3,2.2 8.2,-22.9 0.7,-4.9 -1.1,-4.5 -0.4,-7.5 z"
       id="SVN963"
       name="Ljubno"
       style="fill:#cccccc" />
    <path
       d="m 518.9,225.6 -0.4,9.8 0.5,2.7 2.6,5.9 -2.7,1.9 -3.1,4.8 -0.5,2.6 -1.2,2.2 -4.5,4.2 -1.3,-7.2 -2.1,-2.7 -1.9,-0.5 -1.9,0.9 -7.3,6.3 -15.1,4.1 -3.2,-6.6 4.6,-10.2 V 237 l 6.5,-19 11.9,-3.4 3.2,2.1 4.2,1.1 2.8,0.4 4.4,-1.1 2.5,0.6 2.1,1.9 0.7,1.8 z"
       id="SVN973"
       name="Mozirje"
       style="fill:#cccccc" />
    <path
       d="m 509.6,259.7 -0.1,8.8 -4.2,0.3 -2.1,0.6 v 1.8 l -1.5,1.5 -6.3,2.6 -2.4,1.7 -3.3,0.2 -2.4,0.7 -0.8,2.1 v 2.1 l -4,6.3 -9.6,-5.7 0.9,-7.3 1.4,-4.7 3.1,-4.2 1.7,-5.9 15.1,-4.1 7.3,-6.3 1.9,-0.9 1.9,0.5 2.1,2.7 z"
       id="SVN975"
       name="Nazarje"
       style="fill:#cccccc" />
    <path
       d="m 735.9,273 6,4.5 11.9,-0.8 -6.2,3 -1.7,1.2 -2.5,2.3 -2.2,4.6 -3.1,2 -4.3,8 -0.1,2.5 -5.3,-0.4 -6.8,3.5 -4.2,5.7 -4.2,-4.1 -1.9,-7.2 -1,-1.2 -2.3,-1.3 -3.5,-4.9 -6.3,-17.2 1.7,-2.6 1.8,-1.1 3.5,-1.1 6.6,0.1 14,4.7 z"
       id="SVN982"
       name="Rogaška Slatina"
       style="fill:#cccccc" />
    <path
       d="m 759,278.5 13.2,6.2 -3.3,2.5 -6.4,10.9 -6,3.9 -22.8,-1.7 0.1,-2.5 4.3,-8 3.1,-2 2.2,-4.6 2.5,-2.3 1.7,-1.2 6.2,-3 z"
       id="SVN983"
       name="Rogatec"
       style="fill:#cccccc" />
    <path
       d="m 678.3,233.8 6.8,4.1 2.5,0.3 2.7,2.4 2.2,5 2.3,11.5 0.9,7 -1.7,7.2 -7.2,0.5 -5.7,-2.9 -1.8,1 -2,0.3 -32.9,-10 -6.2,-4.3 -2.1,-1.9 -0.6,-1 -1.1,-3 1.4,-4.5 4.2,-8.1 1.9,-2.1 1.8,-1 2.4,0.6 2,1 h 1.4 l 4.1,-7.5 9.1,5.2 2.5,0.8 z"
       id="SVN992"
       name="Slovenske Konjice"
       style="fill:#cccccc" />
    <path
       d="m 698.2,273.2 6.3,17.2 3.5,4.9 2.3,1.3 1,1.2 1.9,7.2 -10.9,11.4 -3.6,6.7 -7,4.4 -4.2,-2.9 -1.8,0.6 -3.1,0.3 -3.6,1.1 -4.5,-1.7 -2.4,-2.4 -1.6,-3.4 -0.7,-2.6 -5.7,-8.8 -2.6,-6.8 -0.9,-3.8 0.2,-2.1 3.5,-4 5.5,-4 3.7,-1.7 4.7,-3.2 3.9,-5 1.9,-1.7 1,-1.5 1.8,-2.1 7.2,-0.5 z"
       id="SVN993"
       name="Šmarje pri Jelšah"
       style="fill:#cccccc" />
    <path
       d="m 540,237.4 -2,6.7 -0.2,5.6 -0.5,4.7 -2.1,3.4 -4.5,-7.9 -9.1,-5.9 -2.6,-5.9 -0.5,-2.7 0.4,-9.8 4.4,5.9 8,4.1 z"
       id="SVN994"
       name="Šmartno ob Paki"
       style="fill:#cccccc" />
    <path
       d="m 547.2,203 -0.5,12.2 -1.7,6.3 -4,6.6 -1,9.3 -8.7,-1.8 -8,-4.1 -4.4,-5.9 0.8,-4.2 -0.7,-1.8 -2.1,-1.9 -2.5,-0.6 -4.4,1.1 -2.8,-0.4 -4.2,-1.1 -3.2,-2.1 -11.9,3.4 -0.4,-10.9 -2.9,-2.8 15.9,-7.5 4.4,-3.4 0.2,-5.8 13.8,6 z"
       id="SVN995"
       name="Šoštanj"
       style="fill:#cccccc" />
    <path
       d="m 626.5,293.6 7,3.1 1.5,4.3 -0.7,2.9 -0.3,11.6 -16.1,6.9 -5.9,0.3 -1.2,-0.9 -0.4,-1.2 0.7,-0.9 2.5,-1.8 1.3,-2.8 -0.5,-3.1 2.7,-2.2 -0.5,-2.6 v -8.6 l 1.8,-2.1 2.5,-1.7 3.3,-1.5 z"
       id="SVN997"
       name="Štore"
       style="fill:#cccccc" />
  </g>
  <g
     info="Byl zřízen v květnu 2005. Nachází se v jihovýchodní části země. V regionu je pouze 6 občin. Hlavním a také největším městem regionu je Krško. Rozloha regionu je 968,2 km² a k 1. lednu 2016 zde žilo 75 711 obyvatel."
     name="Posavska"
     style="fill:#cccccc"
     id="posavska">
    <path
       d="m 703.8,401.1 -4.7,-1.7 -1.3,-1 -0.2,-2.2 -1.4,-5.7 2.5,-0.2 1.4,-0.6 1.9,-0.2 2.3,-0.7 4.5,-0.6 1.4,1.8 z"
       id="SVN939"
       name="Krsko"
       style="fill:#cccccc" />
    <path
       d="m 693.1,478.7 -1.6,-3 -7,-10.3 -1.5,-3.5 -1.6,-2.9 -1,-3.3 0.1,-3.6 1.7,-5.4 4.7,-3 3.7,-1.3 h 1.4 l 1.3,-1.2 1.9,-1 0.8,-3.9 2.5,-1.5 1,-2.8 0.7,-4.8 -0.3,-16.2 3.9,-9.9 4.5,-0.2 8.3,-4.2 13.9,-10.4 5.3,-6.2 2.6,-0.7 1.7,2.4 -1.4,4.8 -3.7,5.6 -2.5,9.3 0.9,23.4 -0.4,7.6 -1.7,5.7 -2.2,5.4 -1.3,5.4 1.4,5.8 3.7,9.2 0.2,6.5 -3.2,4.5 -6.4,3.5 -6.2,1.8 -12.3,0.4 z"
       id="SVN938"
       name="Brežice"
       style="fill:#cccccc" />
    <path
       d="m 696.2,390.5 1.4,5.7 0.2,2.2 1.3,1 4.7,1.7 -3.9,9.9 0.3,16.2 -0.7,4.8 -1,2.8 -2.5,1.5 -0.8,3.9 -1.9,1 -1.3,1.2 h -1.4 l -3.7,1.3 -4.7,3 -1.7,5.4 -0.1,3.6 1,3.3 1.6,2.9 1.5,3.5 7,10.3 1.6,3 -8.3,-1.4 -3.1,1.5 -5.9,4.9 -3.1,1.1 -3.6,-0.6 -3.6,-1.2 -3.6,-0.4 -3.5,1.6 -1.5,4.3 1.3,4.7 0.5,4.4 -3.6,2.9 -1.8,-1.9 -7.3,-13.7 -0.5,-6.2 -0.9,-5.4 -0.4,-9.9 -2.3,-8.8 -8.6,-3.2 -3.3,-3.7 0.8,-3.5 0.3,-7.7 2.8,-8.4 2.7,-7.4 5.7,-8.5 11,-11.1 1.7,-3 0.1,-2.9 -0.6,-2.6 -1.7,-2.4 -1.1,-3.6 -0.8,-3.4 v -3.9 l 0.9,-2.1 0.3,-1.6 -0.6,-6.1 23.5,-2 7.9,3.5 2.3,0.3 4.1,3 3.4,3.9 z"
       id="SVN958"
       name="Krško"
       style="fill:#cccccc" />
    <path
       d="m 570.7,356.1 12.2,14.5 0.8,3.6 1.8,1.8 2.6,0.7 2.1,1 4.5,3.8 0.3,1.5 -1.7,1.4 -4.5,0.5 -24.1,-5.9 -16,1 -5,-3.8 -1,-2.3 -1.1,-5.1 5.5,-1.4 -0.4,-4.5 3.1,-0.8 1.4,-0.9 1.4,-5.6 7,3.5 z"
       id="SVN980"
       name="Radece"
       style="fill:#cccccc" />
    <path
       d="m 635.7,365.4 15.8,4.1 0.6,6.1 -0.3,1.6 -0.9,2.1 v 3.9 l 0.8,3.4 1.1,3.6 1.7,2.4 0.6,2.6 -0.1,2.9 -1.7,3 -11,11.1 -5.7,8.5 -2.7,7.4 -5.2,-4.4 -1.3,-3.2 -2.5,-1.3 -2.3,-0.7 -3.2,-0.6 -6.8,0.5 -1.9,1 -1,0.9 -0.5,2.9 0.5,2.3 -0.8,2.2 -1.5,-0.2 -4.2,-4 -2,-0.1 -0.7,0.5 -0.7,2.5 -5.4,2.9 0.1,3.6 -11.1,-6 -7.2,-6.4 -4.7,-5.9 -2.2,-4.5 0.3,-2.8 1,-1.9 1.4,-1.8 0.4,-2.6 -0.8,-0.8 -3,0.9 -1.7,1.3 -2.5,0.9 -2,-1 -1.3,-2.3 -5.4,-3.6 -7.2,-12.1 0.2,-4.3 16,-1 24.1,5.9 4.5,-0.5 1.7,-1.4 -0.3,-1.5 -4.5,-3.8 -2.1,-1 -2.6,-0.7 -1.8,-1.8 -0.8,-3.6 0.9,-2.6 -1.2,-2.8 -2.3,-2.7 v -1.7 l 3.1,-0.7 16,0.2 4.7,1.7 2.5,1.6 1.4,2.1 0.9,4.4 1,1.3 h 1.6 l 3.3,-2.6 4.5,-1.8 z"
       id="SVN988"
       name="Sevnica"
       style="fill:#cccccc" />
    <path
       d="m 633.9,428.1 -2.8,8.4 -0.3,7.7 -0.8,3.5 3.3,3.7 -1.7,4.3 -2.4,2 -2.1,0.6 -0.5,-1.1 -3.3,-1.7 -8.1,4.6 -0.7,-4.7 1.4,-2.9 -0.9,-1.9 -1.6,-2.3 -3.1,-3.7 -3.4,-2.4 -2.9,-1.4 -9.5,-7.9 -0.1,-3.6 5.4,-2.9 0.7,-2.5 0.7,-0.5 2,0.1 4.2,4 1.5,0.2 0.8,-2.2 -0.5,-2.3 0.5,-2.9 1,-0.9 1.9,-1 6.8,-0.5 3.2,0.6 2.3,0.7 2.5,1.3 1.3,3.2 z"
       id="SVN989"
       name="Škocjan"
       style="fill:#cccccc" />
    <path
       d="m 655.1,500.5 -0.2,0.2 -31.1,10.3 -0.2,-1.3 -3.1,-12.3 -7.4,-11.3 -5.7,-5.9 -1.7,-4.4 -0.8,-5.4 1.6,-3.9 1.4,-2.4 7.3,-4 8.1,-4.6 3.3,1.7 0.5,1.1 2.1,-0.6 2.4,-2 1.7,-4.3 8.6,3.2 2.3,8.8 0.4,9.9 0.9,5.4 0.5,6.2 7.3,13.7 z"
       id="SVN987"
       name="Šentjernej"
       style="fill:#cccccc" />
  </g>
  <g
     info="Byl zřízen v květnu 2005. Nachází se ve střední části Slovinska. Je nejmenším regionem Slovinska, protože jsou v něm jen 4 občiny. Hlavním městem je Trbovlje. Rozloha regionu je 485,1 km² a k 1. lednu 2016 v něm žilo 57 404 obyvatel."
     name="Zasavska"
     style="fill:#cccccc"
     id="zasavska">
    <path
       d="m 509.7,307.9 9.2,-0.5 4.1,7.7 -2.7,2.3 -3.7,1.8 -2,2 0.5,1.1 2.3,-1 1.2,0.3 4.6,5.5 4.3,7.2 1.3,4.1 v 2.4 l -2.9,3.1 -2.3,1.2 h -1 l -3.7,-1.1 -7.5,3.1 -2.5,1.6 -2.9,3.5 -2.5,1.7 -1.4,0.5 -5.1,1 h -3.9 l -2.3,0.5 -2.5,-1.3 -3.5,-6 -0.2,-2.1 0.8,-3.6 -0.1,-1.5 -1.1,-1.4 -2.7,-0.7 -13.5,-0.1 -1.4,-3.4 1.5,-2.1 0.3,-3.4 -3.8,-5.2 -1.1,-2.6 -2.2,-1.3 0.6,-1.4 20.8,-2.5 2.2,-0.9 2.9,-5.3 -0.9,-8.1 3.5,-0.9 1.7,4.2 4.7,3.5 2.3,0.9 z"
       id="SVN1006"
       name="Zasavska"
       style="fill:#cccccc" />
    <path
       d="m 419.8,344.8 5.2,2.6 3.9,0.7 1.8,1.7 1.5,2.7 2.7,0.6 6.1,-0.5 -1.3,3.2 -1.7,1.2 -10.2,5.1 -6.4,0.7 -2.6,-1.8 -1.9,-0.4 -6.5,2.2 -7.7,0.5 -5.6,-1.5 -6.2,-3.8 -0.5,-3.8 7.3,-0.8 3.7,-1.7 7.6,-5 4.2,-2.1 z"
       id="SVN946"
       name="Dol pri Ljubljani"
       style="fill:#cccccc" />
    <path
       d="m 464.6,325.1 3.8,5.2 -0.3,3.4 -1.5,2.1 -9.1,9.8 -16.5,7 -6.1,0.5 -2.7,-0.6 -1.5,-2.7 -1.8,-1.7 -3.9,-0.7 -5.2,-2.6 0.7,-3.8 -1.9,-1.2 -2.6,-2.1 -0.2,-2.8 3,-2.3 8.6,-3.6 5.9,-4.8 13.4,-2.8 10.3,1.5 z"
       id="SVN972"
       name="Moravce"
       style="fill:#cccccc" />
    <path
       d="m 570.7,356.1 -11.1,3 -7,-3.5 -2.3,-4.4 -0.5,-1.9 -3,-2.9 -2.2,-1 -1.1,-1.5 -2,-3.5 -0.9,-1.1 -1.1,-3.3 0.2,-2.3 1.6,-3.8 4.2,-7.2 5.7,-3.8 3.6,-4.4 5.6,7.4 1.2,2.7 7.8,5.8 3.9,4.8 2.7,4.2 2.6,5.9 v 2.4 l -1.1,1.6 -3.7,2.4 -3.8,-1.4 -3.9,-2.2 -1.2,0.2 -0.9,1.5 0.4,2.2 2.1,2.1 z"
       id="SVN951"
       name="Hrastnik"
       style="fill:#cccccc" />
    <path
       d="m 533.2,310 10.3,4.1 10.6,-1.4 0.7,1.8 -3.6,4.4 -5.7,3.8 -4.2,7.2 -1.6,3.8 -0.2,2.3 1.1,3.3 0.9,1.1 2,3.5 1.1,1.5 2.2,1 3,2.9 0.5,1.9 2.3,4.4 -1.4,5.6 -1.4,0.9 -3.1,0.8 0.4,4.5 -5.5,1.4 -14.2,4.7 -3.1,0.4 -4.6,-1.3 -0.3,-2.4 -1.5,-2.9 -1.1,-6.1 -0.1,-1.8 1.5,-1.4 1.3,-2.3 0.9,-2.5 -1.5,-9.2 3.7,1.1 h 1 l 2.3,-1.2 2.9,-3.1 v -2.4 l -1.3,-4.1 -4.3,-7.2 -4.6,-5.5 -1.2,-0.3 -2.3,1 -0.5,-1.1 2,-2 3.7,-1.8 2.7,-2.3 -4.1,-7.7 5.8,3.6 z"
       id="SVN952"
       name="Trbovlje"
       style="fill:#cccccc" />
    <path
       d="m 504.5,409.7 -4.7,4.1 -3.9,1.4 -6.9,-4.5 -8.9,-13.3 -1.9,-1.4 -1.8,-0.6 -0.7,1 -0.2,1.6 -2.2,0.4 -4.1,-0.3 -10.2,-3.3 -9.3,-0.3 -2,1 -0.8,0.8 -7.3,0.7 -0.6,-9 1.1,-2.5 -0.8,-2.8 -1.6,-2.7 -1.9,-2.1 -2,-2.7 0.6,-1.4 v -2 l 0.9,-3.4 5,-0.3 17.1,3 12.2,-6.1 6.8,1.4 7.5,7.1 7.4,9.8 7.3,6.7 4.5,11.1 z"
       id="SVN5885"
       name="Šmartno in Litiji"
       style="fill:#cccccc" />
    <path
       d="m 518.9,344 1.5,9.2 -0.9,2.5 -1.3,2.3 -1.5,1.4 0.1,1.8 1.1,6.1 1.5,2.9 0.3,2.4 4.6,1.3 3.1,-0.4 14.2,-4.7 1.1,5.1 1,2.3 5,3.8 -0.2,4.3 7.2,12.1 -4.4,-0.3 -1.6,-0.9 -2.5,0.3 -3.2,2.3 -7.7,-0.4 -4.5,0.7 -0.9,3 -0.4,3.8 -1.4,3.7 -2.5,3.3 -7.7,2.7 -5.6,-3.7 -4.4,-1 -4.4,-0.2 -1.4,-8.6 -4.5,-11.1 -7.3,-6.7 -7.4,-9.8 -7.5,-7.1 -6.8,-1.4 -12.2,6.1 -17.1,-3 -5,0.3 -3.4,-1.8 -0.6,-1.7 -3.5,-2.8 10.2,-5.1 1.7,-1.2 1.3,-3.2 16.5,-7 9.1,-9.8 1.4,3.4 13.5,0.1 2.7,0.7 1.1,1.4 0.1,1.5 -0.8,3.6 0.2,2.1 3.5,6 2.5,1.3 2.3,-0.5 h 3.9 l 5.1,-1 1.4,-0.5 2.5,-1.7 2.9,-3.5 2.5,-1.6 z"
       id="SVN961"
       name="Litija"
       style="fill:#cccccc" />
  </g>
  <g
     info="Do 31. 12. 2014 se jmenoval Vnitrokraňsko-krasový region (slovinsky Notranjsko-kraška statistična regija). Spolu s ostatními statistickými regiony byl vytvořen v květnu 2005. Tvoří jej šest občin, z nichž nejlidnatější je občina Postojna. Rozloha regionu činí 1 456,1 km² a k 1. lednu 2016 v něm žilo 52 523 obyvatel. Hlavním městem je Postojna."
     name="Primorsko-notranjska"
     style="fill:#cccccc"
     id="primorsko">
    <path
       d="m 372.4,519.3 6.1,19.1 0.6,5 3,6.6 0.3,1.1 -1.6,0.7 -2.5,2.7 -4,9.2 -3.3,4.9 -8,9 -2.9,4.4 -2,5.7 -0.3,2 -1,-0.5 -2.4,0.2 -2.1,-0.3 -1.9,0.7 -2.4,-0.6 -3.5,0.2 -3.3,-0.4 -0.3,-1.1 1.7,-2.1 0.1,-3.1 -0.8,-2.5 -4.2,-3.9 -1.9,-3.7 0.2,-3.2 1.1,-9.1 -0.1,-8 -2.9,-4.1 -7.4,-8.5 -2.3,-8.2 7.8,-1.2 21.5,-17.1 9.4,7.6 5.4,1 1.4,-0.6 z"
       id="SVN209"
       name="Loška dolina"
       style="fill:#cccccc" />
    <path
       d="m 337.1,560.3 -1.1,9.1 -0.2,3.2 1.9,3.7 4.2,3.9 0.8,2.5 -0.1,3.1 -1.7,2.1 0.3,1.1 3.3,0.4 3.5,-0.2 2.4,0.6 1.9,-0.7 2.1,0.3 2.4,-0.2 1,0.5 -1.3,10.2 -1.6,6.4 -4.2,7.6 -12.4,9.2 -5.9,5.5 -12.2,6.9 -14.6,1.3 -14.7,-2.8 -12.6,-5.5 -6.9,-1.7 -8.1,2.4 -15.1,7 -8.2,1.5 h -0.9 l 0.4,-3 0.1,-5.5 -2,-4.3 -1.4,-1.6 -5.8,-4.7 -0.7,-1.3 2.3,-5.9 2.6,-8.7 1,-7.1 -2,-1.2 -1.8,0.6 -1,-1.3 -0.3,-2 1.3,-5.4 1.7,-3.4 1,-3.3 0.7,-1.5 -4.6,-4.3 0.2,-4.6 3.9,0.7 2.3,-1.5 5.5,-1.9 7.7,-0.5 13.4,0.8 6.8,-0.8 3.5,-0.9 3.6,-3.3 2.7,-1.6 12.4,-4.9 9.9,-2 3.6,-2 0.8,-1.7 -0.7,-1.4 1.3,-0.6 4.6,-0.1 6.9,5.7 3,3.5 z"
       id="SVN954"
       name="Ilirska Bistrica"
       style="fill:#cccccc" />
    <path
       d="m 324.4,531.5 2.3,8.2 7.4,8.5 2.9,4.1 0.1,8 -15.1,-3.6 -3,-3.5 -6.9,-5.7 -4.6,0.1 -1.3,0.6 0.7,1.4 -0.8,1.7 -3.6,2 -9.9,2 -12.4,4.9 -2.7,1.6 -3.6,3.3 -3.5,0.9 -6.8,0.8 -13.4,-0.8 -7.7,0.5 -5.5,1.9 -2.3,1.5 -3.9,-0.7 -3.4,-1.6 -0.1,-0.8 1.1,-2.7 -1.6,-4.5 -1.6,-3.4 -1.2,-3 -0.2,-6.3 -1.3,-2.8 -0.6,-3.1 0.7,-3.2 2.2,-4.1 3.6,-1.8 3.3,-3.5 7.5,3.4 5.3,1.4 h 5.1 l 7.1,-1.4 9.3,-4.3 5.7,-0.4 11.7,-4.4 4.7,-3.6 16.4,-8.8 1.4,6.5 z"
       id="SVN977"
       name="Pivka"
       style="fill:#cccccc" />
    <path
       d="m 289.7,468.5 0.9,4 -6.3,16.3 -0.4,4.9 3.6,6.5 5.7,6.1 3.7,2.6 7.6,1.4 -16.4,8.8 -4.7,3.6 -11.7,4.4 -5.7,0.4 -9.3,4.3 -7.1,1.4 h -5.1 l -5.3,-1.4 -7.5,-3.4 -3.7,-9.1 -3,-4.1 -11.1,-8 2,-5.4 1.7,-2.4 1,-8.6 2.1,-5.3 -4,-12.8 14.9,-5.5 1.1,-1.3 9.3,-7.7 16.8,-3.1 6.6,1.4 7,4.4 z"
       id="SVN978"
       name="Postojna"
       style="fill:#cccccc" />
    <path
       d="m 380.9,494 -3.5,4 4,6.6 1.2,3.3 v 3.3 l 2,7.6 -6.5,0.3 -1.7,-1.6 -4,1.8 -2.5,1.9 -1.4,0.6 -5.4,-1 -9.4,-7.6 4.4,-3.6 -1.8,-3.8 -1.7,-0.7 -5.7,-4.5 -5.3,-6.3 -1.4,-2.9 v -2.2 l 1.3,-2.9 1.4,-2.2 2,-2.5 8.4,-7.1 3,-1.2 3.8,-2.4 7.8,12.7 z"
       id="SVN254"
       name="Bloke"
       style="fill:#cccccc" />
    <path
       d="m 321.3,456.9 2.7,3 2.6,2.1 2.2,-0.4 2,-2.8 3.6,-1.6 5.8,3.6 2,-0.2 15.2,-7.9 2.5,4.7 -0.6,3.8 0.3,4.7 2.5,5 -3.8,2.4 -3,1.2 -8.4,7.1 -2,2.5 -1.4,2.2 -1.3,2.9 v 2.2 l 1.4,2.9 5.3,6.3 5.7,4.5 1.7,0.7 1.8,3.8 -4.4,3.6 -21.5,17.1 -7.8,1.2 -18.5,-14.7 -1.4,-6.5 -7.6,-1.4 -3.7,-2.6 -5.7,-6.1 -3.6,-6.5 0.4,-4.9 6.3,-16.3 -0.9,-4 7.2,-18.1 3.2,-2.5 5.2,1.8 12.4,9.1 z"
       id="SVN943"
       name="Cerknica"
       style="fill:#cccccc" />
  </g>
  <g
     info=" Byl zřízen v květnu 2005. Nachází se v střední části Slovinska. V regionu je celkem 25 občin. Hlavním a také největším městem regionu je městská občina Lublaň. Rozloha regionu je 2487 km² a v lednu 2014 zde žilo 531 260 lidí."
     name="Osrednjeslovenska"
     style="fill:#cccccc"
     id="osrednjeslovenska">
    <path
       d="m 404.9,455.4 v 5.5 l -1,4 0.6,2.1 2,0.4 2.1,0.9 5.5,4.2 5.9,8.8 -5.5,1.7 -5,4.1 -8.5,3.1 -12.9,2.2 -7.2,1.6 -11,-10.4 -7.8,-12.7 -2.5,-5 -0.3,-4.7 0.6,-3.8 -2.5,-4.7 5.6,-1.7 7.2,2.6 3.8,2.8 2.3,1 1.6,1.2 2.2,0.2 2.6,-0.1 3.6,-3.1 1.6,-3.6 -0.4,-6.4 2,0.6 0.7,-0.9 0.3,-2.1 2,-3.3 6.5,6.5 1.4,3.8 z"
       id="SVN1000"
       name="Velike Lašče"
       style="fill:#cccccc" />
    <path
       d="m 317.9,414.1 -6.8,2 -2,2.9 -1.3,5.2 0.2,4.1 1,4 6.4,16.6 2,3.1 3.9,4.9 -3.6,1.9 -12.4,-9.1 -5.2,-1.8 -3.2,2.5 -4.3,-9.8 -8,-10 -6.8,-6.9 -2.8,-2 -2.1,-0.9 -1.5,0.1 -1.4,-0.9 -1.1,-2.1 0.6,-2.2 1.4,-2.7 -0.5,-3.4 1.3,-6.3 2.8,-1.8 0.4,-0.9 -7.6,-5.1 -3,-0.8 -1.9,-7.6 17,2 0.8,3.3 -2.4,1.9 0.5,1.6 1.6,1.8 6.9,3.2 2.1,0.2 0.9,-0.8 -0.2,-1.3 0.4,-1.5 1.8,-0.9 8.1,-1.5 2.2,-0.9 8.4,-2.2 5.5,-3.1 2.3,-3.1 5.9,-2.2 3.6,3.8 0.7,2.1 -0.5,3.9 -3.6,1.3 -2.3,2.5 -2.1,3.9 1,6.2 z"
       id="SVN1004"
       name="Vrhnika"
       style="fill:#cccccc" />
    <path
       d="m 305.1,353.5 2.5,3.5 1.6,1.6 3.9,1.7 6.8,-3.1 11.6,3.3 2.1,0.1 1.8,0.7 1.1,1.3 2.6,7 0.7,1.1 1.7,4.7 0.3,4.3 -0.4,3.3 -3.4,2.1 -5.2,-2.7 -1.7,-0.4 -6.9,1.6 -5.9,2.2 -2.3,3.1 -5.5,3.1 0.7,-3.6 -0.4,-3.3 -1.9,-3.9 -2,-1.4 -2.4,-0.9 -12.9,-1.3 -8,1.9 -1.5,0.7 -2.9,3.8 0.2,5.1 -17,-2 0.8,-4.6 -1.9,-1.4 6.3,-10.2 0.3,-3.1 0.8,-3 0.3,-6.7 6.6,-5.4 11.2,-3 z"
       id="SVN204"
       name="Dobrova-Polhov Gradec"
       style="fill:#cccccc" />
    <path
       d="m 310.5,392 -8.4,2.2 -2.2,0.9 -8.1,1.5 -1.8,0.9 -0.4,1.5 0.2,1.3 -0.9,0.8 -2.1,-0.2 -6.9,-3.2 -1.6,-1.8 -0.5,-1.6 2.4,-1.9 -0.8,-3.3 -0.2,-5.1 2.9,-3.8 1.5,-0.7 8,-1.9 12.9,1.3 2.4,0.9 2,1.4 1.9,3.9 0.4,3.3 z"
       id="SVN250"
       name="Horjul"
       style="fill:#cccccc" />
    <path
       d="m 334.4,457.2 -3.6,1.6 -2,2.8 -2.2,0.4 -2.6,-2.1 -2.7,-3 -3.9,-4.9 -2,-3.1 -6.4,-16.6 -1,-4 -0.2,-4.1 1.3,-5.2 2,-2.9 6.8,-2 1.4,6.2 4.5,5.7 2.5,2.6 3,2 h 1.7 l 1.9,1.4 0.6,1.6 -1,5.9 -0.5,4.9 -1,3.4 z"
       id="SVN937"
       name="Borovnica"
       style="fill:#cccccc" />
    <path
       d="m 338,385.1 4.5,6 3.9,2.9 0.7,1.9 -1.8,2.6 -2.8,2.6 -2.3,3.3 -0.1,3.1 3,2.7 4.5,11.8 -0.1,5 1.6,7.6 0.9,6.6 7.4,11.5 -15.2,7.9 -2,0.2 -5.8,-3.6 -3.4,-9.4 1,-3.4 0.5,-4.9 1,-5.9 -0.6,-1.6 -1.9,-1.4 h -1.7 l -3,-2 -2.5,-2.6 -4.5,-5.7 -1.4,-6.2 3.1,-6.8 -1,-6.2 2.1,-3.9 2.3,-2.5 3.6,-1.3 0.5,-3.9 -0.7,-2.1 -3.6,-3.8 6.9,-1.6 1.7,0.4 z"
       id="SVN940"
       name="Brezovica"
       style="fill:#cccccc" />
    <path
       d="m 262.4,387.1 1.9,7.6 3,0.8 7.6,5.1 -0.4,0.9 -2.8,1.8 -1.3,6.3 0.5,3.4 -1.4,2.7 -0.6,2.2 1.1,2.1 1.4,0.9 1.5,-0.1 2.1,0.9 2.8,2 6.8,6.9 8,10 4.3,9.8 -7.2,18.1 -17.3,-7.6 -7,-4.4 -6.6,-1.4 -16.8,3.1 -1.6,-4.6 -3.8,-10.3 -1.5,-2.2 -1.1,-3.5 -0.1,-3.5 0.4,-4 2.2,-4.3 2,-5.3 0.4,-4.6 -0.7,-2.1 -1.4,-0.5 -0.3,-0.9 0.7,-1.8 3.1,-2.5 2.6,-2.7 2.7,-3.5 0.4,-6.2 10.3,-6.6 5,-8 1.9,1.4 z"
       id="SVN964"
       name="Logatec"
       style="fill:#cccccc" />
    <path
       d="m 360.7,305.6 7.6,11.8 4.2,1.4 -0.3,5.8 -2.9,2.1 -1.2,3 -3.2,2.2 -8.4,2.7 -3.5,0.3 -2.2,-2.1 -3.4,-22.8 2.8,-2.6 -1.5,-3.3 z"
       id="SVN1003"
       name="Vodice"
       style="fill:#cccccc" />
    <path
       d="m 404.8,230.6 2.2,15 7.6,10.6 1.9,5.1 1.1,4.1 1.7,1.9 6.4,-0.2 -0.6,7.9 3.2,3 12.4,4 11.3,0.6 7.1,-0.6 13.8,0.7 9.6,5.7 14.3,9.9 -6.4,3.8 -3.5,0.9 -35.8,4 -5.1,1.8 h -6.7 l -4.3,-0.8 -6.1,-2.1 -10.4,1.4 -8,-3.4 -1.9,0.2 -2,0.7 -2,1.1 -2.3,2.3 -7.1,4 -6.1,-0.3 -3.3,-1.5 0.9,-2.6 -4,-7.7 -1.5,-6 -4,-7 3.6,-1.8 1.4,-2.9 0.5,-3.6 -3.6,-6 -1.7,-1.9 -0.9,-4.9 -2.1,-4.3 0.1,-6.1 2.8,-4.3 -2.7,-7 0.7,-4.4 -0.4,-3 -3,-3.5 10.4,-3.9 8.5,3.4 4.5,-0.3 z"
       id="SVN206"
       name="Kamnik"
       style="fill:#cccccc" />
    <path
       d="m 386.7,307.8 -14.2,11 -4.2,-1.4 -7.6,-11.8 16.5,-18.5 4,7 1.5,6 z"
       id="SVN225"
       name="Komenda"
       style="fill:#cccccc" />
    <path
       d="m 350.8,332.8 -2.8,4.3 -4.5,2.6 h -4.2 l -2,0.9 -1.3,1.5 -0.6,2.6 1.2,0.9 1.1,3.1 1,1.9 2.1,3.3 -0.7,0.8 -1.6,0.6 -7,5.2 -11.6,-3.3 -6.8,3.1 -3.9,-1.7 -1.6,-1.6 -2.5,-3.5 1.7,-6.9 -0.8,-2.4 0.9,-3.8 2.2,-3.5 6.2,-5 3.7,-0.8 2.7,-1.4 2.1,-3.6 3.1,-1 6.5,-4.7 -1,-2 -1.5,-7.7 16.5,-0.7 z"
       id="SVN967"
       name="Medvode"
       style="fill:#cccccc" />
    <path
       d="m 389.1,311.9 -2.1,5.8 2,13.2 -22,7 -2.1,-6 3.2,-2.2 1.2,-3 2.9,-2.1 0.3,-5.8 14.2,-11 -0.9,2.6 z"
       id="SVN968"
       name="Mengeš"
       style="fill:#cccccc" />
    <path
       d="m 371.1,402.8 6.5,8.2 1.9,7.8 0.5,5.3 -1.5,10.2 2.2,2.8 0.4,2.1 -0.2,2.6 0.7,1.2 5.9,2.6 0.4,6.4 -1.6,3.6 -3.6,3.1 -2.6,0.1 -2.2,-0.2 -1.6,-1.2 -2.3,-1 -3.8,-2.8 -7.2,-2.6 -5.6,1.7 -7.4,-11.5 -0.9,-6.6 -1.6,-7.6 0.1,-5 -4.5,-11.8 9.3,-4.1 1.9,-4 7.1,-2.7 3.3,-0.1 z"
       id="SVN953"
       name="Ig"
       style="fill:#cccccc" />
    <path
       d="m 436.6,399.2 -2.2,7.3 -5,7.5 -0.8,6 1.1,0.2 3.3,1.3 1.4,1 0.2,1.1 -0.5,1.6 1.4,6.4 4.3,8.8 -0.1,2.1 -0.8,2.8 v 2.1 l 1.4,4.2 -6.5,3.1 h -2.6 l -12.2,-4.3 -2.1,-1.3 -2,-0.7 -2.3,0.7 -1.5,2.5 -6.2,3.8 -4.5,-5.2 -1.4,-3.8 -6.5,-6.5 -3,-9.1 1.2,-14.4 -0.2,-3.8 -1.2,-5.2 2.1,-3.5 2,-1.8 0.9,0.1 3,-2.3 4.6,3.4 9.5,-0.3 5.1,-2.9 1.9,-1.9 1.2,-2.2 4.7,-2.6 2.7,-0.1 1.7,0.8 3,2.5 z"
       id="SVN950"
       name="Grosuplje"
       style="fill:#cccccc" />
    <path
       d="m 418.5,307.3 -6.2,6.2 -3.5,7 -0.6,2.6 0.3,1.5 2.2,1 1.9,2.5 3.7,1.4 2.5,3.1 -3,2.3 0.2,2.8 2.6,2.1 1.9,1.2 -0.7,3.8 -6.6,-0.2 -4.2,2.1 -7.6,5 -3.7,1.7 -7.3,0.8 -0.7,-4 -7.2,-1.1 0.5,-7.6 1.5,-4.6 4.5,-6 -2,-13.2 2.1,-5.8 6.1,0.3 7.1,-4 2.3,-2.3 2,-1.1 2,-0.7 1.9,-0.2 z"
       id="SVN205"
       name="Domžale"
       style="fill:#cccccc" />
    <path
       d="m 382.5,349.1 -9.4,-3.8 -6.1,-7.4 22,-7 -4.5,6 -1.5,4.6 z"
       id="SVN236"
       name="Trzin"
       style="fill:#cccccc" />
    <path
       d="m 464.6,325.1 -7.6,-2.2 -10.3,-1.5 -13.4,2.8 -5.9,4.8 -8.6,3.6 -2.5,-3.1 -3.7,-1.4 -1.9,-2.5 -2.2,-1 -0.3,-1.5 0.6,-2.6 3.5,-7 6.2,-6.2 10.4,-1.4 6.1,2.1 4.3,0.8 h 6.7 l 5.1,-1.8 35.8,-4 0.9,8.1 -2.9,5.3 -2.2,0.9 -20.8,2.5 -0.6,1.4 2.2,1.3 z"
       id="SVN966"
       name="Lukovica"
       style="fill:#cccccc" />
    <path
       d="m 367,337.9 6.1,7.4 9.4,3.8 7.2,1.1 0.7,4 0.5,3.8 6.2,3.8 5.6,1.5 7.7,-0.5 6.5,-2.2 1.9,0.4 2.6,1.8 6.4,-0.7 3.5,2.8 0.6,1.7 3.4,1.8 -0.9,3.4 v 2 l -0.6,1.4 2,2.7 1.9,2.1 1.6,2.7 0.8,2.8 -1.1,2.5 0.6,9 -3,2.2 -4.9,-2.6 -3,-2.5 -1.7,-0.8 -2.7,0.1 -4.7,2.6 -1.2,2.2 -1.9,1.9 -5.1,2.9 -9.5,0.3 -4.6,-3.4 -9.2,-8.6 -7.6,-1.5 -6.7,1.1 -2.1,1.5 0.2,4.3 -0.8,6.1 -6.4,-3.5 -3.3,0.1 -7.1,2.7 -1.9,4 -9.3,4.1 -3,-2.7 0.1,-3.1 2.3,-3.3 2.8,-2.6 1.8,-2.6 -0.7,-1.9 -3.9,-2.9 -4.5,-6 3.4,-2.1 0.4,-3.3 -0.3,-4.3 -1.7,-4.7 -0.7,-1.1 -2.6,-7 -1.1,-1.3 -1.8,-0.7 -2.1,-0.1 7,-5.2 1.6,-0.6 0.7,-0.8 -2.1,-3.3 -1,-1.9 -1.1,-3.1 -1.2,-0.9 0.6,-2.6 1.3,-1.5 2,-0.9 h 4.2 l 4.5,-2.6 2.8,-4.3 2.2,2.1 3.5,-0.3 8.4,-2.7 z"
       id="SVN962"
       name="Ljubljana"
       style="fill:#cccccc" />
    <path
       d="m 397.3,399.9 -3,2.3 -0.9,-0.1 -2,1.8 -2.1,3.5 1.2,5.2 0.2,3.8 -1.2,14.4 3,9.1 -2,3.3 -0.3,2.1 -0.7,0.9 -2,-0.6 -5.9,-2.6 -0.7,-1.2 0.2,-2.6 -0.4,-2.1 -2.2,-2.8 1.5,-10.2 -0.5,-5.3 -1.9,-7.8 -6.5,-8.2 0.8,-6.1 -0.2,-4.3 2.1,-1.5 6.7,-1.1 7.6,1.5 z"
       id="SVN990"
       name="Škofljica"
       style="fill:#cccccc" />
  </g>
  <g
     info="Byl zřízen v květnu 2005. Nachází se v jihovýchodní části Slovinska. V regionu je celkem 21 občin. Hlavním a také největším městem regionu je městská občina Novo mesto. Rozloha regionu je 2675 km² a v lednu 2014 zde žilo 142 405 lidí."
     name="Jugovzhodna Slovenija"
     style="fill:#cccccc"
     id="jugovzhodna">
    <path
       d="m 406.9,531.5 -3.7,-5.9 -1.6,-1.9 -3.2,-1.9 -6.5,-0.3 -7.3,-2.7 -2,-7.6 v -3.3 l -1.2,-3.3 -4,-6.6 3.5,-4 7.2,-1.6 4,3.6 3,1.7 4.5,1.1 6.5,2.2 6.1,1.2 3.8,2 0.9,3.6 -0.2,4.1 -4.3,12.5 -2,3.9 z"
       id="SVN248"
       name="Sodražica"
       style="fill:#cccccc" />
    <path
       d="m 513.2,504.8 0.5,7.8 -1.1,3.5 -2.6,13.5 1.5,4 1.4,2.8 6,6.7 6.4,7.7 1.4,7.9 4.1,7.3 6,11.1 5.4,2.2 2.1,5.5 -0.3,2.7 1.4,4.2 v 5 l 1.7,2.3 3.7,3.6 v 2 l -1.1,0.6 -2.2,-0.7 -2.6,1.8 -2.8,3.7 -1.1,5.2 1.1,2.6 2.1,1.1 3.4,-0.9 3.5,-1.3 3.6,-0.4 2.5,1.7 0.1,2.2 -1,1.3 -4.5,1.1 -3.5,1.8 -1.9,1.5 -3.8,4.6 -2.7,6.8 -3.2,-2.7 -15.4,-0.4 -3.2,-2.9 -3.5,-1.7 -2.9,-0.4 -3.8,-8.9 -6.8,-6.3 -1.9,-0.4 -2.5,0.4 -5.1,1.5 -3.8,0.3 -5.2,-1.2 -4.8,-2.8 -1.8,-0.4 -2,0.6 -3.1,2.6 -0.8,1.7 -0.8,3 -1.5,4.2 -1,1.2 -1.4,0.9 -4.4,-0.7 -6.8,-8 -12.5,-11.8 -5.4,-3.9 -2,-3.6 -0.4,-1.7 0.5,-0.8 0.1,-2.1 -1.1,-1.8 -2,-9.6 -4.1,-14.1 5,-4.4 1.6,-4.2 7.3,3.4 5.1,-1 2.2,-3.1 3.3,-6.7 0.4,-4.9 10.4,-24.4 -8.4,-6.9 5.7,-6.6 h 4.2 l 2.8,-1.3 3.4,0.4 5,1.8 2.3,1.6 2.4,3.7 5.9,-0.5 9.7,-10.9 4.1,-1.1 z"
       id="SVN207"
       name="Kocevje"
       style="fill:#cccccc" />
    <path
       d="m 615.2,460.1 -7.3,4 -1.4,2.4 -1.6,3.9 0.8,5.4 1.7,4.4 5.7,5.9 7.4,11.3 3.1,12.3 0.2,1.3 -8.6,2.9 -12.8,7.2 -2.7,3.1 -1.6,4.4 -6.9,5 -11.8,8.3 -2,0.6 -4.1,0.4 -4.9,-0.4 -9.5,0.6 -7.4,-1.2 0.9,-3.7 4,-2.7 1.1,-1.7 0.7,-2 -0.9,-2.2 -2.2,-3.1 -10.6,-11.7 -0.4,-2.2 -1.1,-2.4 -4.2,-6.4 -1.5,-5.7 8.9,-11.4 3.2,-1.9 1.6,-2.3 2.5,-0.7 1.1,-1.6 1.8,-4 0.6,-3.1 -0.5,-3 0.5,-0.6 h 1.6 l 1.1,-0.5 2.1,-1.9 3,-11 12.6,2.7 3.8,-1.1 4.2,-1.8 2.5,-2.7 3.5,-7.3 -0.6,-4.1 0.2,-2 3.5,-6.9 9.5,7.9 2.9,1.4 3.4,2.4 3.1,3.7 1.6,2.3 0.9,1.9 -1.4,2.9 z"
       id="SVN212"
       name="Novo Mesto"
       style="fill:#cccccc" />
    <path
       d="m 454.2,515.3 8.4,6.9 -10.4,24.4 -0.4,4.9 -3.3,6.7 -2.2,3.1 -5.1,1 -7.3,-3.4 1.1,-2.3 v -3.3 l -1.2,-3.6 -3.4,-1.1 -4,-2.6 -10,-3.5 -2.9,-2.8 -6.6,-8.2 3.5,-3.2 2,-3.9 4.3,-12.5 0.2,-4.1 -0.9,-3.6 -3.8,-2 -6.1,-1.2 -6.5,-2.2 -4.5,-1.1 -3,-1.7 -4,-3.6 12.9,-2.2 8.5,-3.1 5,-4.1 5.5,-1.7 z"
       id="SVN218"
       name="Ribnica"
       style="fill:#cccccc" />
    <path
       d="m 530.7,470.9 3.7,6.7 1.2,1.1 10.6,8 -8.9,11.4 -7.8,-0.1 -5.8,-1.6 -3.6,1.1 -2.3,1.2 -4.6,6.1 -13.5,-2.4 -4.1,1.1 -9.7,10.9 -5.9,0.5 -2.4,-3.7 -2.3,-1.6 -5,-1.8 -3.4,-0.4 -2.8,1.3 h -4.2 l -3.1,-8 -0.4,-2.3 0.6,-7.8 6.3,-0.2 4,0.9 3.8,-1.7 2.1,-3.7 0.2,-7.8 -1.9,-6.8 -0.9,-2.3 v -2.7 l 1,-1.3 8.2,-1.5 0.2,-5.7 16.6,-0.5 2.9,0.9 3.2,2.3 1.3,2.1 0.6,2.6 1.3,2.4 2.6,1.9 3.8,0.8 6.6,-3.2 4.9,2 1.3,2.3 2,0.8 z"
       id="SVN238"
       name="Žužemberk"
       style="fill:#cccccc" />
    <path
       d="m 564.8,456.1 -3,11 -2.1,1.9 -1.1,0.5 H 557 l -0.5,0.6 0.5,3 -0.6,3.1 -1.8,4 -1.1,1.6 -2.5,0.7 -1.6,2.3 -3.2,1.9 -10.6,-8 -1.2,-1.1 -3.7,-6.7 0.2,-9.2 1.8,-2.7 2.2,-2.6 3.2,-2.4 4.4,-1 2.7,-0.8 1.8,-2 1.7,-3 1.1,-0.8 1.4,-0.1 1.1,1.4 2.1,1.5 1.6,1.9 1.9,1.2 1.6,1.5 z"
       id="SVN242"
       name="Mirna Pec"
       style="fill:#cccccc" />
    <path
       d="m 511.7,629.2 -4.6,-0.6 -5.5,-5.2 -7.2,-4.7 -5.8,0.3 -1.1,9.6 -6.1,10.5 -13.5,4.9 -13.2,-2.8 -5,-12.6 -0.1,-0.1 -29.4,-13 -6.3,-5.4 -0.1,-2.3 1.1,-8 -0.6,-3.5 -1.9,-2.6 5.3,-2.7 13.7,-9.4 2,9.6 1.1,1.8 -0.1,2.1 -0.5,0.8 0.4,1.7 2,3.6 5.4,3.9 12.5,11.8 6.8,8 4.4,0.7 1.4,-0.9 1,-1.2 1.5,-4.2 0.8,-3 0.8,-1.7 3.1,-2.6 2,-0.6 1.8,0.4 4.8,2.8 5.2,1.2 3.8,-0.3 5.1,-1.5 2.5,-0.4 1.9,0.4 6.8,6.3 z"
       id="SVN245"
       name="Kostel"
       style="fill:#cccccc" />
    <path
       d="m 537.3,498.1 1.5,5.7 4.2,6.4 1.1,2.4 0.4,2.2 10.6,11.7 2.2,3.1 0.9,2.2 -0.7,2 -1.1,1.7 -4,2.7 -0.9,3.7 -5.8,-0.8 -3.7,1.8 -2.9,3.1 -5.9,8.3 -1.3,2.6 -1.1,9.1 -4.1,-7.3 -1.4,-7.9 -6.4,-7.7 -6,-6.7 -1.4,-2.8 -1.5,-4 2.6,-13.5 1.1,-3.5 -0.5,-7.8 4.6,-6.1 2.3,-1.2 3.6,-1.1 5.8,1.6 z"
       id="SVN249"
       name="Dolenjske Toplice"
       style="fill:#cccccc" />
    <path
       d="m 440.3,451.6 5.1,7.5 -0.2,1.3 -2.2,5.9 -0.5,6.2 1.7,2.5 2.2,4 3.4,3.6 0.9,3.1 6.3,4.9 -0.6,7.8 0.4,2.3 3.1,8 -5.7,6.6 -34.2,-34 -5.9,-8.8 -5.5,-4.2 -2.1,-0.9 -2,-0.4 -0.6,-2.1 1,-4 v -5.5 l 6.2,-3.8 1.5,-2.5 2.3,-0.7 2,0.7 2.1,1.3 12.2,4.3 h 2.6 z"
       id="SVN253"
       name="Dobrepolje"
       style="fill:#cccccc" />
    <path
       d="m 590.2,576.5 -0.4,3.7 4.9,1.7 3.1,-0.9 1.3,0.7 -0.1,1.1 1,2.3 1.7,3.1 3,2.8 3,1.4 0.6,0.7 0.2,0.4 1.9,11.8 2.5,9.8 4.6,7.7 15.9,10.8 -3,2.7 -5.7,7.9 -2.8,2.6 -3.5,1.1 -10.3,-0.2 -30.8,11.4 -14.3,-2 -23.1,-19.8 2.7,-6.8 3.8,-4.6 1.9,-1.5 3.5,-1.8 4.5,-1.1 1,-1.3 -0.1,-2.2 -2.5,-1.7 -3.6,0.4 -3.5,1.3 -3.4,0.9 -2.1,-1.1 -1.1,-2.6 1.1,-5.2 2.8,-3.7 2.6,-1.8 2.2,0.7 1.1,-0.6 v -2 l -3.7,-3.6 -1.7,-2.3 v -5 l -1.4,-4.2 0.3,-2.7 -2.1,-5.5 10.1,3.4 8.8,-0.8 2.6,-0.9 1.5,-1.1 1.5,-2.6 1.6,-1.8 5.7,-3.2 4.7,0.2 5.7,1.1 z"
       id="SVN945"
       name="Crnomelj"
       style="fill:#cccccc" />
    <path
       d="m 384.6,518.8 7.3,2.7 6.5,0.3 3.2,1.9 1.6,1.9 3.7,5.9 6.6,8.2 2.9,2.8 10,3.5 4,2.6 3.4,1.1 1.2,3.6 v 3.3 l -1.1,2.3 -1.6,4.2 -5,4.4 4.1,14.1 -13.7,9.4 -5.3,2.7 -4.3,-2.1 -10.8,-8.7 -4.1,-4.3 -3,-5.7 -0.2,-6.1 0.3,-8.3 -0.7,-7 -3.4,-2 -3.8,1.6 -0.3,-1.1 -3,-6.6 -0.6,-5 -6.1,-19.1 4,-1.8 1.7,1.6 z"
       id="SVN965"
       name="Loški Potok"
       style="fill:#cccccc" />
    <path
       d="m 608.3,593.1 -0.6,-0.7 -3,-1.4 -3,-2.8 -1.7,-3.1 -1,-2.3 0.1,-1.1 -1.3,-0.7 -3.1,0.9 -4.9,-1.7 0.4,-3.7 3.6,-0.2 1.7,-0.9 2.3,-1.9 3.1,-3.1 0.9,-1.8 1.1,-3.3 1,-1.4 1.2,-0.9 2.3,-0.2 1.4,-2.3 0.2,-3 -3.1,-5.9 -3.1,-4.5 -4.4,-3.7 -4,-8.9 -0.6,-0.8 -2.6,-0.1 6.9,-5 -0.3,0.9 0.6,1.9 2.3,1.2 3.1,3 3.1,6.1 1.7,2.2 2.8,2.1 4.1,1.5 1.3,-0.9 0.5,-1.8 1.4,-1.2 3.8,-1.1 1.2,-0.6 1,0.9 5.7,6.6 5.2,8.6 1.7,4 h -6.5 l -4.4,1.5 -4,2.1 -9.3,3 -1.8,3.4 -1.2,3.5 -2.1,1.9 -4,2.1 0.3,3.7 2.3,4.9 z"
       id="SVN969"
       name="Metlika"
       style="fill:#cccccc" />
    <path
       d="m 590.2,576.5 -5.8,-2.9 -5.7,-1.1 -4.7,-0.2 -5.7,3.2 -1.6,1.8 -1.5,2.6 -1.5,1.1 -2.6,0.9 -8.8,0.8 -10.1,-3.4 -5.4,-2.2 -6,-11.1 1.1,-9.1 1.3,-2.6 5.9,-8.3 2.9,-3.1 3.7,-1.8 5.8,0.8 7.4,1.2 9.5,-0.6 4.9,0.4 4.1,-0.4 2,-0.6 11.8,-8.3 2.6,0.1 0.6,0.8 4,8.9 4.4,3.7 3.1,4.5 3.1,5.9 -0.2,3 -1.4,2.3 -2.3,0.2 -1.2,0.9 -1,1.4 -1.1,3.3 -0.9,1.8 -3.1,3.1 -2.3,1.9 -1.7,0.9 z"
       id="SVN984"
       name="Semic"
       style="fill:#cccccc" />
    <path
       d="m 495.9,415.2 -5.9,6.3 -6.3,3.6 -2.2,4 -1,3.5 -1.5,11.9 -1.7,5.2 0.9,4.5 1.8,3.6 -0.2,5.7 -8.2,1.5 -1,1.3 v 2.7 l 0.9,2.3 1.9,6.8 -0.2,7.8 -2.1,3.7 -3.8,1.7 -4,-0.9 -6.3,0.2 -6.3,-4.9 -0.9,-3.1 -3.4,-3.6 -2.2,-4 -1.7,-2.5 0.5,-6.2 2.2,-5.9 0.2,-1.3 -5.1,-7.5 -1.4,-4.2 v -2.1 l 0.8,-2.8 0.1,-2.1 -4.3,-8.8 -1.4,-6.4 0.5,-1.6 -0.2,-1.1 -1.4,-1 -3.3,-1.3 -1.1,-0.2 0.8,-6 5,-7.5 2.2,-7.3 3,-2.2 7.3,-0.7 0.8,-0.8 2,-1 9.3,0.3 10.2,3.3 4.1,0.3 2.2,-0.4 0.2,-1.6 0.7,-1 1.8,0.6 1.9,1.4 8.9,13.3 z"
       id="SVN955"
       name="Ivancna Gorica"
       style="fill:#cccccc" />
    <path
       d="m 555.7,396.4 5.4,3.6 1.3,2.3 2,1 2.5,-0.9 1.7,-1.3 3,-0.9 0.8,0.8 -0.4,2.6 -1.4,1.8 -1,1.9 -0.3,2.8 2.2,4.5 4.7,5.9 7.2,6.4 11.1,6 -3.5,6.9 -0.2,2 0.6,4.1 -3.5,7.3 -2.5,2.7 -4.2,1.8 -3.8,1.1 -12.6,-2.7 -5.3,-2.3 -1.6,-1.5 -1.9,-1.2 -1.6,-1.9 -2.1,-1.5 -1.1,-1.4 -1.4,0.1 -1.1,0.8 -1.7,3 -1.8,2 -2.7,0.8 -4.4,1 -3.2,2.4 -2.2,2.6 -1.8,2.7 -0.2,9.2 -3.6,1.3 -2,-0.8 -1.3,-2.3 -4.9,-2 -6.6,3.2 -3.8,-0.8 -2.6,-1.9 -1.3,-2.4 -0.6,-2.6 -1.3,-2.1 -3.2,-2.3 -2.9,-0.9 -16.6,0.5 -1.8,-3.6 -0.9,-4.5 1.7,-5.2 1.5,-11.9 1,-3.5 2.2,-4 6.3,-3.6 5.9,-6.3 3.9,-1.4 4.7,-4.1 4.4,0.2 4.4,1 5.6,3.7 7.7,-2.7 2.5,-3.3 1.4,-3.7 0.4,-3.8 0.9,-3 4.5,-0.7 7.7,0.4 3.2,-2.3 2.5,-0.3 1.6,0.9 z"
       id="SVN999"
       name="Trebnje"
       style="fill:#cccccc" />
  </g>
  <circle
     id="0"
     cy="597.8"
     cx="257.5" />
  <circle
     id="1"
     cy="481.2"
     cx="410" />
  <circle
     id="2"
     cy="245.8"
     cx="629.8" />
  <ellipse
     info="Lublaň (slovinsky Ljubljana) je hlavní město Slovinska, sídlo stejnojmenné městské občiny a je zároveň největší obcí ve Slovinsku. Je zeměpisným, kulturním, vědeckým, ekonomickým, politickým a administrativním centrem státu. Během celé historie byla Lublaň ovlivněna několika kulturami, neboť se nachází na křižovatce germánských, románských a slovanských národů, jejich jazyků, zvyků a obyčejů. Město zaujímá plochu 164 km² a v roce 2019 zde žilo okolo 293 000 obyvatel. Centrem města protéká řeka Lublaňka.

Dopravní spojení, hustota průmyslu, vědecké a výzkumné instituce a obchodní tradice jsou faktory, které přispěly k vedoucí ekonomické pozici Lublaně. Lublaň je sídlem ústřední vlády, veřejné správy a všech slovinských ministerstev. Je také sídlem slovinského Národního shromáždění, slovinské vlády a prezidenta Slovinska, největší univerzity, Národního muzea, Etnografického muzea, Slovinské národní galerie, Muzea moderního umění a Slovinské akademie věd a umění.

Ve starověku na území Lublaně stávalo římské město Emona. Lublaň je poprvé zmiňována v první polovině 12. století. Od středověku až do rozpadu Rakouska-Uherska v roce 1918 byla součástí habsburské říše, poté se stala součástí Království Srbů, Chorvatů a Slovinců. Po druhé světové válce se Lublaň stala hlavním městem Socialistické republiky Slovinsko, která byla součástí Socialistické federativní republiky Jugoslávie. Tento status si udržela až do roku 1991, kdy Slovinsko získalo nezávislost a Lublaň se stala hlavním městem nově vzniklého státu. Nachází se uprostřed obchodní cesty mezi severním Jaderským mořem a oblastí Dunaje, byla historickým hlavním městem Kraňska, jedné z částí Habsburské monarchie obydlené Slovinci."
     name="Ljubljana"
     style="fill:#003752;fill-opacity:1;fill-rule:evenodd;stroke-width:1.06836"
     id="ljubljana"
     cx="360.83194"
     cy="376.12039"
     rx="6.9658179"
     ry="6.9658175" />
  <ellipse
     info="Maribor (německy Marburg an der Drau) je druhé největší město ve Slovinsku a sídlo stejnojmenné územně-správní jednotky (občiny). Je univerzitním, hospodářským, finančním, kulturním a turistickým centrem severovýchodního Slovinska. Celá občina Maribor má 95 171 obyvatel. Město leží na úpatí horského masivu Pohorje a protéká jím řeka Dráva.

Ve městě působí významné divadlo a je zde druhá největší slovinská univerzita – Univerzita v Mariboru, založená v roce 1975. Jsou zde také galerie, muzea a sportovní kluby.

Hlavním průmyslovým podnikem je zde TAMBUS Maribor, který vyráběl až do roku 1996 autobusy pro celou Jugoslávii, i pro některé země východního bloku."
     name="Maribor"
     ry="6.9658175"
     rx="6.9658179"
     cy="146.58911"
     cx="723.95239"
     id="maribor"
     style="fill:#003752;fill-opacity:1;fill-rule:evenodd;stroke-width:1.06836" />
  <ellipse
     info="Novo mesto (německy Rudolfswerth) je město ve Slovinsku. Leží na jihu země, u hranice s Chorvatskem na řece Krka. Je centrem historického regionu Dolní Kraňsko (Dolenjska), statistického Jihovýchodního slovinského regionu a městské občiny Novo mesto. Žije zde 22 415 obyvatel (v celé občině 40 925). Leží v nadmořské výšce 202 m.

Novo mesto vzniklo v roce 1365, bylo založeno na dosud ještě neosídleném místě, v meandru řeky Krka. Až do roku 1768 bylo obehnáno hradbami; právě díky nim jej Turci při svém tažení po Balkáně nedobyli. Přesto se ale malé úseky hradeb dochovaly až dodnes. V 19. století městu vládli krátkou dobu Francouzi; v jeho druhé polovině zde probíhalo národní obrození Slovinců. Výstavba železnice a průmyslu zajišťovala velký růst města, ten však ukončila 1. světová válka v roce 1914. Po první světové válce bylo město součástí království jižních Slovanů, za druhé světové války bylo součástí italského záboru, po roce 1943 pak říšskoněmeckého. Jugoslávská vláda tu byla obnovena po druhé světové válce. V 2. polovině 20. století se město zmodernizovalo, vzniklo mnoho nových závodů. Od roku 1991 je součástí nezávislého Slovinska.

V zdejším průmyslu má velký vliv automobilový, v Novom mestu dříve sídlil závod Industrija motornih vozil (Revoz), který vyráběl ve spolupráci se západoevropskými automobilkami Renault, Auto Union a koncernem Daimler. Kromě něj zde například sídlí firma Krka – známý výrobce léčiv a také dále pak textilní firma Labod a lesnická Novoles.

V Novom meste se nachází také pět základních škol (OŠ Grm, OŠ Bršljin, OŠ Drska, OŠ Center, OŠ Šmihel), střední školy a vysokološkolské centrum."
     name="Novo mesto"
     ry="6.9658175"
     rx="6.9658179"
     cy="495.52518"
     cx="567.4707"
     id="novo-mesto"
     style="fill:#003752;fill-opacity:1;fill-rule:evenodd;stroke-width:1.06836" />
  <ellipse
     info="Koper (italsky Capodistria, chorvatsky Kopar, německy Gafers) je město ve Slovinsku na pobřeží Jaderského moře. Žije zde 23 726 obyvatel (2002), s celou občinou, jejímž je sídlem, 49 200 obyvatel. Koper je nejdůležitějším přístavem země.

Z původních dvanácti městských bran se nejlépe zachovala Muda (Porta della Muda, vrata Muda) z roku 1516. Ústřední městské náměstí nese jméno po maršálu Titovi (Titov trg) a nacházejí se na něm další významné památky – Prétorský palác, Lóže, katedrála Nanebevzetí Panny Marie a rotunda sv. Jana Křtitele.

Koper byl významným obchodním bodem a svým významem konkuroval nedalekému Terstu. První ranou, ze které se vzpamatoval, byl mor, který v sedmnáctém století srazil počet obyvatel na osminu. Obnovená prosperita trvala do roku 1719, kdy se z Terstu a Rijeky staly svobodné přístavy. Pád Benátské republiky znamenal ztrátu dominance na Jadranu. Význam města snížil po otevření železnice z Vídně do Terstu."
     name="Koper"
     style="fill:#003752;fill-opacity:1;fill-rule:evenodd;stroke-width:1.06836"
     id="koper"
     cx="120.50888"
     cy="620.53058"
     rx="6.9658179"
     ry="6.9658175" />
  <ellipse
     info="Nova Gorica (německy Neu Görz) je desáté největší slovinské město. Město bylo vybudováno po roce 1948 v těsném sousedství zástavby italského města Gorizia (česky Gorice).

Město Gorizia bylo osvobozeno 1. května 1945. Oblast byla demarkační linií rozdělena na zóny. Zónu A okupovaly anglo-americké jednotky, zónu B Jugoslávská lidová armáda. Po podpisu Pařížské mírové smlouvy došlo ke změně jugoslávsko-italské hranice, když se jugoslávská hranice posunula do původní historické hranice Rakouského Přímoří s výjimkou jižní části, kde oblast Gorice připadla Itálii. Oblast se ale díky takovému rozdělení ocitla bez správního centra, které zůstalo v Itálii. Rozhodnutí o výstavbě nového centra poprvé zaznělo v projevu slovinského předsedy vlády Miha Marinky, výstavbou byl pověřen ministr Ivan Maček. Pracovní skupina odpovědná za výstavbu nového města vznikla již v dubnu 1947. Autorem plánu výstavby byl prof. Ing. Edvard Ravnikar.

Přípravné práce pro výstavbu nového města byly zahájeny v říjnu 1947. Výstavba se již od počátku musela potýkat s nedostatkem stavebních materiálů, pracovní síly a finančních prostředků. Nasazeny byly brigády mladých. Výstavba pokračovala i navzdory jugoslávsko-sovětské roztržce. Do konce roku 1950 žilo ve městě sedm set lidí. Skutečný rozvoj města započal až v roce 1965."
     name="Nova Gorica"
     style="fill:#003752;fill-opacity:1;fill-rule:evenodd;stroke-width:1.06836"
     id="nova-gorica"
     cx="90.831306"
     cy="419.9823"
     rx="6.9658179"
     ry="6.9658175" />
  <ellipse
     info="Kranj (česky též Kraň, německy Krainburg) je čtvrté největší město a územně-správní jednotka (občina) ve Slovinsku v historické zemi Kraňsku, jehož metropolí původně bylo, než se jí stala Lublaň. Žije zde zhruba 37 000 obyvatel.

V roce 1900 mělo město dva tisíce obyvatel, z nichž většina byla Slovinců. V roce 1906 získalo díky projektu „nových alpských železnic“ přímý přístup přes tunel Karavanky a Villach do severozápadních částí monarchie a do Německa.

Po první světové válce se Kranj stal součástí Státu Slovinců, Chorvatů a Srbů a následnně Království Srbů, Chorvatů a Slovinců (pozdější Jugoslávie). Meziválečný rozvoj města byl umožněn díky zahraničnímu kapitálu. Za druhé světové války bylo město součástí říšskoněmeckého záboru. V oblasti bojovali proti okupantům partyzáni. Po druhé světové válce se město stalo součástí Jugoslávie a po roce 1991 samostatného Slovinska.

V Kranji prožil poslední roky života slovinský „národní básník“ France Prešeren (1800–1849). Je zde po něm pojmenována řada institucí."
     name="Kranj"
     style="fill:#003752;fill-opacity:1;fill-rule:evenodd;stroke-width:1.06836"
     id="kranj"
     cx="335.44623"
     cy="313.86258"
     rx="6.9658179"
     ry="6.9658175" />
  <ellipse
     info="Ptuj (německy Pettau, latinsky Poetovio) je město ve slovinském Dolním Štýrsku u hranic s Chorvatskem. Žije zde asi 20 000 obyvatel.

Ptuj je jedno z nejstarších měst v celém Slovinsku. Nachází se 27 km na jihovýchod od Mariboru. Jeho historie začíná už v době kamenné, ale největší rozkvět zažívalo za dob Římské říše. Město Poetovio bylo základním táborem pro legii XIII Gemina v Pannonii. Název města pochází z dob císaře Trajána, který dal tehdejší osadě statut města a pojmenoval ho Colonia Ulpia Traiana Poetovio. Roku 69 pak zde byl zvolen císař Vespasianus a z této doby také pochází první písemná zmínka o městu. Vyplenili jej ale Hunové, je vystřídali Avaři a později Slované. Městská práva pak ve středověku Ptuj získala opět až v 10. století.

Ve městě se nachází známé termální lázně, ve kterých je bazén s teplotou vody přesahující 40 °C."
     name="Ptuj"
     style="fill:#003752;fill-opacity:1;fill-rule:evenodd;stroke-width:1.06836"
     id="ptuj"
     cx="793.20001"
     cy="209.5415"
     rx="6.9658179"
     ry="6.9658175" />
  <ellipse
     info="Celje (německy Cilli, latinsky Celeia) je slovinské město v Dolním Štýrsku. Žije zde 37 834 obyvatel.

V předválečném období mělo Celje s přilehlými osadami přibližně dvacet tisíc obyvatel. V průběhu války zemřelo 575 občanů, převážně ve věku od dvaceti do třiceti let, přes jeden a půl tisíce obyvatel bylo deportováno do Srbska nebo do Říše, kolem tisíce osob bylo uvězněno a šest set místních dětí bylo převezeno do Německa ke germanizaci.

V letech 1945 až 1946 byli v městské částí Teharje (Tüchern) popraveni domnělí kolaboranti, nacisté a přisluhovači Domobrany. Přeživší Němci byli vysídleni. Obětem z Teharje byl po osamostatnění Slovinska postaven pomník.

V dobách socialistické Jugoslávie bylo město průmyslovým centrem a počet obyvatel se oproti meziválečnému období zdvojnásobil. Od roku 1991 je Celje součástí samostatného Slovinska.

Kolem Celje vede významná dálnice spojující Maribor a Lublaň. Mimo této dálnice zde vede jedna z hlavních železničních tepen Slovinska z Mariboru do Zidani Most a Lublaně."
     name="Celje"
     style="fill:#003752;fill-opacity:1;fill-rule:evenodd;stroke-width:1.06836"
     id="celje"
     cx="582.75922"
     cy="284.18503"
     rx="6.9658179"
     ry="6.9658175" />
</svg>
