<?xml version="1.0" encoding="iso-8859-1"?>
<!-- Generator: Adobe Illustrator 18.0.0, SVG Export Plug-In . SVG Version: 6.00 Build 0)  -->
<!DOCTYPE svg PUBLIC "-//W3C//DTD SVG 1.1//EN" "http://www.w3.org/Graphics/SVG/1.1/DTD/svg11.dtd">
<svg version="1.1" id="Capa_1" xmlns="http://www.w3.org/2000/svg" xmlns:xlink="http://www.w3.org/1999/xlink" x="0px" y="0px"
	 viewBox="0 0 488.172 488.172" style="enable-background:new 0 0 488.172 488.172;" xml:space="preserve">
<g>
	<path d="M168.412,113.181h151.395c2.065,0,3.968-1.171,4.905-3.025c0.934-1.854,0.742-4.073-0.501-5.743L248.537,2.225
		C247.487,0.83,245.859,0,244.117,0c-1.741,0-3.387,0.83-4.419,2.225l-75.69,102.188c-1.243,1.67-1.436,3.889-0.502,5.743
		C164.443,112.01,166.348,113.181,168.412,113.181z"/>
	<path d="M474.969,184.225c-0.002-4.38-3.553-7.93-7.933-7.93H451.79c-4.341,0-7.876,3.489-7.933,7.831l-0.22,17.053h-18.65v-16.951
		c0-4.381-3.552-7.933-7.933-7.933h-15.478c-4.381,0-7.933,3.552-7.933,7.933v16.951h-18.616v-16.951
		c0-4.381-3.552-7.933-7.933-7.933h-15.502c-4.378,0-7.929,3.547-7.933,7.925l-0.074,72.66h-36.554V134.684
		c0-3.314-2.678-5.994-5.985-5.994H187.205c-3.306,0-5.984,2.68-5.984,5.994v122.197h-36.248l0.044-72.647
		c0.001-2.104-0.834-4.124-2.321-5.612c-1.488-1.488-3.507-2.325-5.611-2.325h-15.813c-4.381,0-7.933,3.552-7.933,7.933v16.951
		H94.721v-16.951c0-4.381-3.552-7.933-7.933-7.933H71.311c-4.381,0-7.933,3.552-7.933,7.933v16.951H44.729v-16.951
		c0-4.381-3.552-7.933-7.933-7.933H21.31c-4.378,0-7.929,3.547-7.933,7.925l-0.3,303.951h171.643V436.93
		c0-32.788,26.585-59.365,59.365-59.365c32.779,0,59.365,26.577,59.365,59.365v51.242h171.643L474.969,184.225z M100.044,315.82
		c0,3.315-2.679,5.993-5.986,5.993H64.053c-3.306,0-5.983-2.678-5.983-5.993V256.02c0-11.59,9.388-20.987,20.986-20.987
		c11.583,0,20.988,9.398,20.988,20.987V315.82z M265.105,233.572c0,3.314-2.679,5.993-5.985,5.993h-30.005
		c-3.308,0-5.984-2.679-5.984-5.993v-59.801c0-11.591,9.388-20.988,20.986-20.988c11.583,0,20.988,9.397,20.988,20.988V233.572z
		 M430.328,315.82c0,3.315-2.68,5.993-5.985,5.993h-30.005c-3.308,0-5.987-2.678-5.987-5.993V256.02
		c0-11.59,9.39-20.987,20.989-20.987c11.583,0,20.988,9.398,20.988,20.987V315.82z"/>
</g>
<g>
</g>
<g>
</g>
<g>
</g>
<g>
</g>
<g>
</g>
<g>
</g>
<g>
</g>
<g>
</g>
<g>
</g>
<g>
</g>
<g>
</g>
<g>
</g>
<g>
</g>
<g>
</g>
<g>
</g>
</svg>
