<?xml version="1.0" encoding="UTF-8" standalone="no"?>
<svg
   xmlns:dc="http://purl.org/dc/elements/1.1/"
   xmlns:cc="http://creativecommons.org/ns#"
   xmlns:rdf="http://www.w3.org/1999/02/22-rdf-syntax-ns#"
   xmlns:svg="http://www.w3.org/2000/svg"
   xmlns="http://www.w3.org/2000/svg"
   xmlns:sodipodi="http://sodipodi.sourceforge.net/DTD/sodipodi-0.dtd"
   xmlns:inkscape="http://www.inkscape.org/namespaces/inkscape"
   baseprofile="tiny"
   fill="#7c7c7c"
   height="661"
   stroke="#ffffff"
   stroke-linecap="round"
   stroke-linejoin="round"
   stroke-width="2"
   version="1.2"
   viewbox="0 0 1000 661"
   width="1000"
   id="pol-map"
   sodipodi:docname="pol-map.svg"
   inkscape:version="1.0 (4035a4fb49, 2020-05-01)">
  <metadata
     id="metadata416">
    <rdf:RDF>
      <cc:Work
         rdf:about="">
        <dc:format>image/svg+xml</dc:format>
        <dc:type
           rdf:resource="http://purl.org/dc/dcmitype/StillImage" />
      </cc:Work>
    </rdf:RDF>
  </metadata>
  <defs
     id="defs414" />
  <sodipodi:namedview
     inkscape:document-rotation="0"
     pagecolor="#ffffff"
     bordercolor="#666666"
     borderopacity="1"
     objecttolerance="10"
     gridtolerance="10"
     guidetolerance="10"
     inkscape:pageopacity="0"
     inkscape:pageshadow="2"
     inkscape:window-width="1920"
     inkscape:window-height="1137"
     id="namedview412"
     showgrid="false"
     inkscape:zoom="0.95185641"
     inkscape:cx="448.40153"
     inkscape:cy="285.6774"
     inkscape:window-x="-8"
     inkscape:window-y="-8"
     inkscape:window-maximized="1"
     inkscape:current-layer="pol-map" />
  <g
     id="obalnokraska"
     style="fill:#cccccc">
    <path
       style="fill:#cccccc"
       name="Divaca"
       id="SVN1025"
       d="m 213.9,507.2 11.1,8 3,4.1 3.7,9.1 -3.3,3.5 -3.6,1.8 -2.2,4.1 -0.7,3.2 0.6,3.1 1.3,2.8 0.2,6.3 1.2,3 1.6,3.4 1.6,4.5 -1.1,2.7 0.1,0.8 3.4,1.6 -0.2,4.6 -4,1.9 -1.7,2.9 -1.8,1.2 -2.1,0.6 -6.3,-1.3 -4.7,-4.1 -5.9,-2.8 -5.9,-4.3 -5.2,-2.7 -6.5,-1.3 -3.9,-3 1.7,-8.4 -2.3,-4.2 8.2,-12.6 1.7,-3.2 -0.9,-4 -1.7,-3.6 -1.3,-5.1 0.4,-3.1 2.4,-2 3.6,-1.8 4.5,-7.5 4.1,-2.3 0.8,-0.6 3.3,0.3 z" />
    <path
       style="fill:#cccccc"
       name="Hrpelje-Kozina"
       id="SVN1026"
       d="m 182.6,560.9 3.9,3 6.5,1.3 5.2,2.7 5.9,4.3 5.9,2.8 4.7,4.1 6.3,1.3 2.1,-0.6 1.8,-1.2 1.7,-2.9 4,-1.9 4.6,4.3 -0.7,1.5 -1,3.3 -1.7,3.4 -1.3,5.4 0.3,2 1,1.3 1.8,-0.6 2,1.2 -1,7.1 -2.6,8.7 -2.3,5.9 0.7,1.3 5.8,4.7 1.4,1.6 2,4.3 -0.1,5.5 -0.4,3 -7.6,-0.4 -8.3,-2.9 -7.9,-5.8 -4.2,-4.3 -4.6,-2.4 -8.4,-1.8 -1.1,-3.5 -10,-11.9 -13.3,-2.8 -5,-3.5 -3.1,-3.6 -1.5,-2.1 -3,-11.3 -0.8,-2.2 6,-7.5 2.4,-5.9 -0.3,-0.9 4.8,-4.5 z" />
    <path
       style="fill:#cccccc"
       name="Izola"
       id="SVN1027"
       d="m 95.3,622.3 -1.7,6.7 -3.5,1.8 -1.5,-0.6 -0.7,-1.6 -1.9,-3 -1.6,-1.1 -2,-2.1 -1,-4 -0.1,-2.7 -2.3,-5.4 -0.2,-2 20.4,-3.1 -0.3,10.9 z" />
    <path
       style="fill:#cccccc"
       name="Komen"
       id="SVN1030"
       d="m 149.5,473.3 7.6,4.1 1.8,0.1 7.1,-1.1 5.2,8.4 -15.8,4.8 -31.5,4 -6.8,-0.2 -1.9,0.7 -6.3,4.6 -1.9,4.2 -12.5,-9.8 -5.3,-1.7 -10.9,-1.3 -8.9,-4.9 -2.2,-4.4 5.6,-1 18.1,0.5 6.7,-1.1 3.8,-4.2 3.7,-2.1 2.2,-3 1.8,-1.6 0.9,-8.4 16.8,9.3 5.5,1.6 h 6.8 l 3.4,-0.5 z" />
    <path
       style="fill:#cccccc"
       name="Koper"
       id="SVN1031"
       d="m 198.1,620.1 -4.9,-1 -2.2,1.4 -1.1,3.2 v 4.9 l 6.7,8.1 -4.1,5.5 -14.8,6.4 -4.6,4.5 -2.8,4.4 -3.4,2.5 -16.9,-2.5 -5,-1.6 -4.2,-4.3 -15,-9.5 -31.4,1.5 0.4,-3 3,-2.1 2.2,-5.3 3.5,-3.6 1.4,-2 -1.1,-1.9 -8.5,-3.4 3.6,-6.2 0.3,-10.9 24.6,-3.6 v -2.8 l -3.3,-4.9 -9.7,-10.6 15.6,-1.4 12.5,6.8 15,-1.5 6.4,-8 0.8,2.2 3,11.3 1.5,2.1 3.1,3.6 5,3.5 13.3,2.8 10,11.9 z" />
    <path
       style="fill:#cccccc"
       name="Piran"
       id="SVN1033"
       d="m 78.8,608.3 0.2,2 2.3,5.4 0.1,2.7 1,4 2,2.1 1.6,1.1 1.9,3 0.7,1.6 1.5,0.6 3.5,-1.8 1.7,-6.7 8.5,3.4 1.1,1.9 -1.4,2 -3.5,3.6 -2.2,5.3 -3,2.1 -0.4,3 -9.8,0.4 -12.5,-13.5 0.6,-1.9 -0.8,-3.8 2.2,-4.7 v -2.8 l -3.1,-0.6 -2.4,-1.8 -1.9,-3 -1.3,-4.2 6.7,1.6 z" />
    <path
       style="fill:#cccccc"
       name="Sežana"
       id="SVN1034"
       d="m 198.9,505.4 -4.5,7.5 -3.6,1.8 -2.4,2 -0.4,3.1 1.3,5.1 1.7,3.6 0.9,4 -1.7,3.2 -8.2,12.6 2.3,4.2 -1.7,8.4 -9.4,-0.5 -4.8,4.5 -0.2,-0.4 -2.8,-0.2 -4.8,-2.7 -3.4,-3.7 -25.2,-42.7 -21.9,-10 -3.1,-2.3 1.9,-4.2 6.3,-4.6 1.9,-0.7 6.8,0.2 31.5,-4 15.8,-4.8 9.2,7.7 16.5,9.3 z" />
  </g>
  <g
     id="goriska"
     style="fill:#cccccc">
    <path
       style="fill:#cccccc"
       name="Cerkno"
       id="SVN1010"
       d="m 225.4,326.1 -14.5,25.8 -1.1,4.1 -0.8,4.8 0.5,1.5 2.1,2.7 v 3.2 l -3.4,1 -3.2,-0.3 -3,-1.2 -5.6,-4.1 -5.5,-4.9 -1.4,-0.2 -1.1,3.6 -2.4,2.4 -1.3,2 -3,0.2 -1.5,-1 -1.1,0.2 -0.3,2.5 -0.9,2 -3.1,0.1 -1.9,-0.4 -4.1,-2.6 3.8,-2.6 0.3,-1.4 -0.5,-3 -0.8,-2.6 -0.7,-4 v -3.6 l -0.6,-3.6 -3,-5.4 -1.3,-4.4 v -2.5 l 1.2,-3.6 1.2,-2.9 4.1,-4.3 5.4,-3.3 10.9,-3.5 9.9,-7.4 -0.3,3.9 v 2.5 l 1.7,1.2 2.9,1.1 12,1.1 8.5,2.7 z" />
    <path
       style="fill:#cccccc"
       name="Tolmin"
       id="SVN1018"
       d="m 201.2,288.9 2.5,5.9 v 3 l -5,11.6 -9.9,7.4 -10.9,3.5 -5.4,3.3 -4.1,4.3 -1.2,2.9 -1.2,3.6 v 2.5 l 1.3,4.4 3,5.4 0.6,3.6 v 3.6 l 0.7,4 0.8,2.6 0.5,3 -0.3,1.4 -3.8,2.6 -2.3,-0.6 -1.7,2.6 -1.7,0.2 -3,-0.9 -1.2,0.7 -0.9,2 0.4,1.6 0.9,1.3 1.9,1.2 0.9,1.4 0.3,1.7 -0.7,0.9 -1.3,0.1 -0.4,1.7 0.2,5.2 -0.6,8.6 -8.7,-5.6 -2.4,-2.7 -3.3,-5 -2.9,-6.4 -1.1,-5.6 -0.2,-5.5 0.3,-3.2 -2.6,-10.2 -2.2,-2.2 -3.9,-0.2 -3.7,3.4 -19.1,-12.1 -1.4,-2.5 -2.3,-1.3 -3.2,-4.5 -0.6,-3.4 -5.8,-9.9 -8.1,1.7 -1.2,-4.1 -3.2,-0.6 3.1,-4.3 -4.5,-4.3 -0.3,-4.5 0.7,-3.9 1.6,-2.5 1.6,-1.5 3,0.9 1.4,-0.6 3.6,-2.5 2.5,-0.6 5.7,-0.1 2.3,-2.2 0.8,-5.4 2.2,-8.4 2.2,-3.9 3.1,-3.3 2.5,-0.6 3.2,-0.1 10.8,11 15.9,9.3 14.2,4.6 4.7,0.7 4.5,0.1 z" />
    <path
       style="fill:#cccccc"
       name="Ajdovščina"
       id="SVN1022"
       d="m 240.4,453.6 1.6,4.6 -9.3,7.7 -1.1,1.3 -14.9,5.5 -7.7,-5.1 -1.2,-3.3 -1,-4.5 -3.1,-3.6 -2.5,-1.3 -3.3,-0.8 -4.2,0.2 -5.4,1.6 -7.6,4.7 -3.3,3.5 -4.6,2.9 -5,4 -1.8,5.4 -7.1,1.1 -1.8,-0.1 -7.6,-4.1 -3.4,-5.4 -0.8,-1.1 -5,-2.8 -1.3,-1.2 -0.9,-1.8 -1,-1.1 -2.5,-3.5 -5.7,-5.8 -4.4,-2.7 -2.5,-3.2 -2.6,-1.6 -1.6,-0.6 -0.4,-1.2 4.4,-3.1 2.1,-0.8 6.7,-8 7.8,-13.2 14.3,-10.4 v -4.4 l 2.6,-4 4.3,6.1 0.3,1.8 2,2.1 3.1,2.1 5.7,2.9 7.2,8.4 7.7,6.5 4.2,1.3 3,2.7 6.3,4.1 4,4.2 12.6,8.8 z" />
    <path
       style="fill:#cccccc"
       name="Bovec"
       id="SVN1023"
       d="m 152,223.4 -4.4,6 -20.2,11 -4.7,4.5 -2.3,4.3 -4.7,11.1 -17.7,3.1 -6.3,-0.6 -7,-2 -14.3,0.5 -10.8,-1.1 -5.6,1.8 -2,1.7 1,1.5 0.3,2.2 -1,2.2 -3.8,1.9 -12.1,-1.7 -8.9,-2.8 -5.2,-2.5 -4.3,-1.3 -4.7,-3.6 -2.7,-1.6 4.5,-7.7 4.3,-9.8 3.4,-4.1 4.2,-0.5 3.9,-1.9 7.6,-5.6 14.7,-7.9 7.7,-8.1 6.8,-9.5 7.7,-7.3 10.8,-1.5 7.8,0.3 5.9,-3.2 2.7,-5.5 1.4,4.7 -1.1,10.2 1.6,1.1 3.3,-0.4 3.2,-1 8.2,-3.6 4,0.9 5.2,2.4 9.9,6 4,3.2 1.9,2.5 1.2,2.9 1,1.7 z" />
    <path
       style="fill:#cccccc"
       name="Brda"
       id="SVN1024"
       d="m 76.6,392.5 7.1,7.4 -4.8,2.5 -3.3,3 -9.2,2.2 -10.2,4.9 -9.5,0.7 -8.6,-9.9 -0.9,-1.8 -1.5,-1.2 -4.1,-4.9 4.8,-4.4 1.7,-1.1 2.4,-3.2 0.9,-3.2 -0.8,-2.9 -2.5,-2.7 7.2,-9.7 5.5,-4.2 3,2.3 4.5,1.8 3.3,3.5 1.8,4.3 2.8,4.9 5.1,4.8 z" />
    <path
       style="fill:#cccccc"
       name="Kanal"
       id="SVN1028"
       d="m 128.9,352 -0.7,9 -1.9,2.8 -2.9,5.1 -3.8,2.9 -2.4,0.1 -8.5,-3.6 -7.5,-0.5 -4.7,2.5 -3.7,3.1 -7,10.8 -2.4,1.7 -0.2,1.7 4.3,5.9 1.7,2.7 -1,1.2 -1.2,0.4 -1.3,-0.1 -2.3,-2.3 -3.2,-2.4 -3.6,-0.5 -5.3,-6.9 -5.1,-4.8 -2.8,-4.9 -1.8,-4.3 -3.3,-3.5 -4.5,-1.8 -3,-2.3 29.8,-22.8 9,-16.7 -1.2,-4.5 8.1,-1.7 5.8,9.9 0.6,3.4 3.2,4.5 2.3,1.3 1.4,2.5 z" />
    <path
       style="fill:#cccccc"
       name="Kobarid"
       id="SVN1029"
       d="m 115.7,260.3 3,7.2 -3.2,0.1 -2.5,0.6 -3.1,3.3 -2.2,3.9 -2.2,8.4 -0.8,5.4 -2.3,2.2 -5.7,0.1 -2.5,0.6 -3.6,2.5 -1.4,0.6 -3,-0.9 -1.6,1.5 -1.6,2.5 -0.7,3.9 0.3,4.5 4.5,4.3 -3.1,4.3 -4.2,-0.8 -9.3,1 -8.1,-1.3 -9.5,-9.5 -6,-4.2 -8.8,-1.8 -4.5,-2.5 -9.4,-0.7 -5,-1.7 4.7,8.1 -8.7,1.4 -2.7,-4 -1.1,-6.3 -4.2,-5.9 -2,-11.5 -1.7,-5.5 -2.5,-4.6 8.3,-5.1 1.3,-2.4 2.7,1.6 4.7,3.6 4.3,1.3 5.2,2.5 8.9,2.8 12.1,1.7 3.8,-1.9 1,-2.2 -0.3,-2.2 -1,-1.5 2,-1.7 5.6,-1.8 10.8,1.1 14.3,-0.5 7,2 6.3,0.6 z" />
    <path
       style="fill:#cccccc"
       name="Miren-Kostanjevica"
       id="SVN1032"
       d="m 90.2,445.2 -2.3,2.1 -4.4,0.7 -1.6,0.9 -0.1,1.4 2.8,3.2 3.2,2.1 8.3,2.9 4.4,-0.2 9.5,1.6 -0.9,8.4 -1.8,1.6 -2.2,3 -3.7,2.1 -3.8,4.2 -6.7,1.1 -18.1,-0.5 -5.6,1 -2.6,-5.1 1,-15.6 9.6,-21.8 4.5,3.8 z" />
    <path
       style="fill:#cccccc"
       name="Vipava"
       id="SVN1035"
       d="m 216.7,472.7 4,12.8 -2.1,5.3 -1,8.6 -1.7,2.4 -2,5.4 -6.8,-4.4 -3.3,-0.3 -0.8,0.6 -4.1,2.3 -2,-3.6 -16.5,-9.3 -9.2,-7.7 -5.2,-8.4 1.8,-5.4 5,-4 4.6,-2.9 3.3,-3.5 7.6,-4.7 5.4,-1.6 4.2,-0.2 3.3,0.8 2.5,1.3 3.1,3.6 1,4.5 1.2,3.3 z" />
    <path
       style="fill:#cccccc"
       name="Nova Goriška"
       id="SVN260"
       d="m 159.6,395.2 -4.3,2.2 -2.6,4 v 4.4 l -14.3,10.4 -7.8,13.2 -6.7,8 -2.1,0.8 -4.4,3.1 0.4,1.2 1.6,0.6 2.6,1.6 2.5,3.2 4.4,2.7 5.7,5.8 2.5,3.5 1,1.1 0.9,1.8 1.3,1.2 5,2.8 0.8,1.1 3.4,5.4 -7,-3 -3.4,0.5 h -6.8 l -5.5,-1.6 -16.8,-9.3 -9.5,-1.6 -4.4,0.2 -8.3,-2.9 -3.2,-2.1 -2.8,-3.2 0.1,-1.4 1.6,-0.9 4.4,-0.7 2.3,-2.1 6.3,-5.8 3.3,-1.2 1.7,0.4 1.2,-1.6 0.3,-3.2 -0.3,-1.6 h -2.2 l -2.2,-1.6 -3.8,-0.3 -1.5,-0.9 -2.9,-2.8 -2.3,-1.2 -2,-0.5 -5.6,-1.9 2.4,-9.3 -5.4,-8.7 -1.6,0.4 3.3,-3 4.8,-2.5 -7.1,-7.4 3.6,0.5 3.2,2.4 2.3,2.3 1.3,0.1 1.2,-0.4 1,-1.2 -1.7,-2.7 -4.3,-5.9 0.2,-1.7 2.4,-1.7 7,-10.8 3.7,-3.1 4.7,-2.5 7.5,0.5 8.5,3.6 2.4,-0.1 3.8,-2.9 2.9,-5.1 1.9,-2.8 0.7,-9 3.7,-3.4 3.9,0.2 2.2,2.2 2.6,10.2 -0.3,3.2 0.2,5.5 1.1,5.6 2.9,6.4 3.3,5 2.4,2.7 z" />
    <path
       style="fill:#cccccc"
       name="Šempeter-Vrtojba"
       id="SVN261"
       d="m 90.2,445.2 -10.5,-3.1 -4.5,-3.8 2.8,-6.4 2.2,-8.9 5.6,1.9 2,0.5 2.3,1.2 2.9,2.8 1.5,0.9 3.8,0.3 2.2,1.6 h 2.2 l 0.3,1.6 -0.3,3.2 -1.2,1.6 -1.7,-0.4 -3.3,1.2 z" />
    <path
       style="fill:#cccccc"
       name="Idrija"
       id="SVN1012"
       d="m 211.6,365 7.6,4.6 8.8,12.9 2.6,1.1 2.1,0.1 1.3,2.2 1.6,3.9 1.7,2.8 8.7,3.1 -0.4,6.2 -2.7,3.5 -2.6,2.7 -3.1,2.5 -0.7,1.8 0.3,0.9 1.4,0.5 0.7,2.1 -0.4,4.6 -2,5.3 -2.2,4.3 -0.4,4 0.1,3.5 1.1,3.5 1.5,2.2 3.8,10.3 -24.7,-5.2 -12.6,-8.8 -4,-4.2 -6.3,-4.1 -3,-2.7 -4.2,-1.3 -7.7,-6.5 -7.2,-8.4 -5.7,-2.9 -3.1,-2.1 -2,-2.1 -0.3,-1.8 -4.3,-6.1 4.3,-2.2 0.6,-8.6 -0.2,-5.2 0.4,-1.7 1.3,-0.1 0.7,-0.9 -0.3,-1.7 -0.9,-1.4 -1.9,-1.2 -0.9,-1.3 -0.4,-1.6 0.9,-2 1.2,-0.7 3,0.9 1.7,-0.2 1.7,-2.6 2.3,0.6 4.1,2.6 1.9,0.4 3.1,-0.1 0.9,-2 0.3,-2.5 1.1,-0.2 1.5,1 3,-0.2 1.3,-2 2.4,-2.4 1.1,-3.6 1.4,0.2 5.5,4.9 5.6,4.1 3,1.2 3.2,0.3 3.4,-1 z" />
  </g>
  <g
     id="gorenjska"
     style="fill:#cccccc">
    <path
       style="fill:#cccccc"
       name="Bled"
       id="SVN1008"
       d="m 242.6,212 -2.2,6.5 5.2,9.5 1.7,2.8 2.1,4.1 0.9,2.4 -0.4,2.3 -4.7,4.7 -1.1,3 -1.1,1.9 -4.1,3.5 -1.6,5.3 -3,3.6 -1.4,-0.9 -1.8,-4.5 -1.5,-2.5 -2.1,-0.2 -1.9,0.8 -2.7,0.9 -2.5,0.3 -4.5,-1.4 -3,-2.8 -1.8,-2.3 -1.9,-1.8 -4.2,-2.8 -3.5,-0.7 -4.7,-4.5 -6.1,-2.1 -5.4,-3.5 -15.1,-3.1 -6.5,0.1 -9.8,-6.8 22.2,-12.1 9.3,-8.4 4.2,-2.9 3.7,-1.9 2.3,-2.7 4.1,-1.2 25.5,13.9 2.8,2.4 4.7,2.2 1.6,0.4 z" />
    <path
       style="fill:#cccccc"
       name="Jezersko"
       id="SVN237"
       d="m 380.2,219 0.3,0.9 1.8,9.6 -10.4,3.9 -21.1,-1.8 -4.7,-1.2 -3.1,0.2 -1.3,0.8 -2.1,4.3 -2.2,2.2 -6.8,-0.5 0.9,-5.7 -0.1,-4.1 3.4,-6.4 1.2,-4.4 3.7,-9 0.9,-1.3 4.4,2 5.3,0.8 10.9,-2.6 4.3,6 3.6,7.9 4.2,4.4 5.5,-2.4 z" />
    <path
       style="fill:#cccccc"
       name="Žiri"
       id="SVN1021"
       d="m 261.3,381.1 -5,8 -10.3,6.6 -8.7,-3.1 -1.7,-2.8 -1.6,-3.9 -1.3,-2.2 -2.1,-0.1 -2.6,-1.1 -8.8,-12.9 -7.6,-4.6 1,-3.9 1.8,-0.8 3.6,-0.8 25.2,5.5 3.4,1.5 1.9,1.7 4,5.1 2.2,2.2 z" />
    <path
       style="fill:#cccccc"
       name="Bohinj"
       id="SVN1009"
       d="m 153.9,223.8 9.8,6.8 6.5,-0.1 15.1,3.1 5.4,3.5 6.1,2.1 4.7,4.5 3.5,0.7 4.2,2.8 1.9,1.8 1.8,2.3 3,2.8 4.5,1.4 2.5,-0.3 2.7,-0.9 1.9,-0.8 2.1,0.2 1.5,2.5 1.8,4.5 1.4,0.9 3,-3.6 15.4,1.7 1.6,-0.6 2.2,-0.3 1.1,0.6 1.6,2.3 -0.4,6.7 -3.9,1.3 -10.6,-1.2 -3.7,0.4 -3.5,0.8 -2.3,3.3 -1.3,3 -1,7.1 -0.8,2.5 -2.6,1.2 -17.8,-2.8 -6.2,1.6 -3.9,3.3 -32.4,4.3 -4.5,-0.1 -4.7,-0.7 -14.2,-4.6 -15.9,-9.3 -10.8,-11 -3,-7.2 4.7,-11.1 2.3,-4.3 4.7,-4.5 20.2,-11 4.4,-6 z" />
    <path
       style="fill:#cccccc"
       name="Gorenja vas-Poljane"
       id="SVN1011"
       d="m 269,358.1 -0.3,6.7 -0.8,3 -0.3,3.1 -6.3,10.2 -6.6,-5.6 -2.2,-2.2 -4,-5.1 -1.9,-1.7 -3.4,-1.5 -25.2,-5.5 -3.6,0.8 -1.8,0.8 -1,3.9 -2.1,-2.7 -0.5,-1.5 0.8,-4.8 1.1,-4.1 14.5,-25.8 6.6,-4.3 1.1,-1.3 20.3,-4.1 3.7,0.5 3.9,-0.8 5.8,-0.4 2.8,0.8 1.9,1.8 1.2,2 -2.6,5.3 -2,1.9 -1.5,2.8 -1,3.6 1.4,1.4 0.5,1.5 0.2,2.1 -1.3,2.1 -0.9,2.6 -0.1,4 0.3,3.9 2.3,2.5 z" />
    <path
       style="fill:#cccccc"
       name="Kranj"
       id="SVN1013"
       d="m 334.3,266.2 -0.7,4.5 -4.1,5.7 -3.1,12 -2.5,4.6 -0.4,2.7 0.3,1.3 1.5,2.1 5.6,11.6 1.5,7.7 1,2 -6.5,4.7 -2.8,-7.3 -1.7,-2.4 -2.5,-0.7 -1.2,0.3 -1.2,-0.4 -0.4,-2.1 1.3,-3.1 -0.5,-0.4 -5,1.4 -3.7,-0.2 -19.7,-8.2 -2,-1.7 V 298 l 0.8,-1.4 1.9,-1.9 0.2,-1.4 -1.1,-2 -8.4,-4.1 -8.5,-3.4 -4.4,-2.4 -5,-5.7 -8.1,-6 3.9,-1.3 15.5,4.1 2,0.9 12.8,-0.8 7.5,3 8.5,6.2 1.6,-0.8 0.8,-1.9 0.6,-4.5 -1.4,-3.1 -4.7,-6.4 -1.2,-0.9 -0.1,-1.8 0.4,-1.6 2.7,-2.6 0.6,-2.5 1.8,-1.1 -0.7,-3.3 1.3,-7.1 2.4,-1.5 4,-3.8 2.8,-1.1 14.6,-0.4 -3.8,11.7 -1.4,6.5 -0.8,2.3 -1.2,1.6 -4.4,-1.3 -0.7,1.2 0.5,2.6 0.9,2.1 2.7,1.9 3.1,-0.9 z" />
    <path
       style="fill:#cccccc"
       name="Kranjska Gora"
       id="SVN1014"
       d="m 206.8,177.2 -0.2,6.2 -0.6,3.9 -2.4,2.4 -1.6,1.1 -2.3,3.8 -4.1,1.2 -2.3,2.7 -3.7,1.9 -4.2,2.9 -9.3,8.4 -22.2,12.1 -1.9,-0.4 -5.6,-7.1 -1,-1.7 -1.2,-2.9 -1.9,-2.5 -4,-3.2 -9.9,-6 -5.2,-2.4 -4,-0.9 -8.2,3.6 -3.2,1 -3.3,0.4 -1.6,-1.1 1.1,-10.2 -1.4,-4.7 0.8,-1.7 0.5,-11.8 1.7,-2.4 1.2,-2.9 0.6,-3.2 v -3.6 l 4.8,0.4 20.9,5.1 4.3,-0.1 20.6,-3.4 9.5,1.6 29,13.8 5.2,0.6 z" />
    <path
       style="fill:#cccccc"
       name="Naklo"
       id="SVN1015"
       d="m 305.5,251.3 0.7,3.3 -1.8,1.1 -0.6,2.5 -2.7,2.6 -0.4,1.6 0.1,1.8 1.2,0.9 4.7,6.4 1.4,3.1 -0.6,4.5 -0.8,1.9 -1.6,0.8 -8.5,-6.2 -7.5,-3 -2.2,-7.1 -0.5,-3.1 0.3,-13.3 7,1.7 1.9,1.3 1.8,0.3 z" />
    <path
       style="fill:#cccccc"
       name="Radovljica"
       id="SVN1016"
       d="m 286.7,249.1 -0.3,13.3 0.5,3.1 2.2,7.1 -12.8,0.8 -2,-0.9 -15.5,-4.1 0.4,-6.7 -1.6,-2.3 -1.1,-0.6 -2.2,0.3 -1.6,0.6 -15.4,-1.7 1.6,-5.3 4.1,-3.5 1.1,-1.9 1.1,-3 4.7,-4.7 0.4,-2.3 -0.9,-2.4 -2.1,-4.1 -1.7,-2.8 7,-4.4 2.9,0.3 3.7,-0.4 3.3,-2.3 1.3,-3.1 1.7,-4.7 4.6,-6 2.7,-2.2 4.8,-1.6 4.6,5.4 0.8,10.7 -2.1,16.9 0.5,2.7 0.9,1.4 1.6,1 -0.6,2.2 1.2,3.3 z" />
    <path
       style="fill:#cccccc"
       name="Škofja Loka"
       id="SVN1017"
       d="m 326.9,325.1 -3.1,1 -2.1,3.6 -2.7,1.4 -3.7,0.8 -6.2,5 -2.2,3.5 -0.9,3.8 0.8,2.4 -1.7,6.9 -18.3,-3.8 -11.2,3 -6.6,5.4 -1,-4.1 -2.3,-2.5 -0.3,-3.9 0.1,-4 0.9,-2.6 1.3,-2.1 -0.2,-2.1 -0.5,-1.5 -1.4,-1.4 1,-3.6 1.5,-2.8 2,-1.9 2.6,-5.3 -1.2,-2 -1.9,-1.8 -2.8,-0.8 -5.8,0.4 -3.9,0.8 -3.7,-0.5 2.5,-4.3 6.7,-2.3 2.5,-2.4 5.4,-2.6 3,-1 1.6,-1.8 1.5,-8 2.4,-2.5 1.9,-4.3 8.4,4.1 1.1,2 -0.2,1.4 -1.9,1.9 -0.8,1.4 v 2.3 l 2,1.7 19.7,8.2 3.7,0.2 5,-1.4 0.5,0.4 -1.3,3.1 0.4,2.1 1.2,0.4 1.2,-0.3 2.5,0.7 1.7,2.4 z" />
    <path
       style="fill:#cccccc"
       name="Tržič"
       id="SVN1019"
       d="m 340.6,206.5 -0.9,1.3 -3.7,9 -1.2,4.4 -3.4,6.4 0.1,4.1 -0.9,5.7 -14.6,0.4 -2.8,1.1 -4,3.8 -2.4,1.5 -1.3,7.1 -8.1,1.1 -1.8,-0.3 -1.9,-1.3 -7,-1.7 -2.2,-1.9 -1.2,-3.3 0.6,-2.2 -1.6,-1 -0.9,-1.4 -0.5,-2.7 2.1,-16.9 -0.8,-10.7 -4.6,-5.4 1.3,-6 37.9,1.1 10.7,-2.4 3.4,0.8 1.5,2.1 1,2.6 1.8,2.2 z" />
    <path
       style="fill:#cccccc"
       name="Železniki"
       id="SVN1020"
       d="m 254.9,269.7 8.1,6 5,5.7 4.4,2.4 8.5,3.4 -1.9,4.3 -2.4,2.5 -1.5,8 -1.6,1.8 -3,1 -5.4,2.6 -2.5,2.4 -6.7,2.3 -2.5,4.3 -20.3,4.1 -1.1,1.3 -6.6,4.3 -1.9,-4.2 -8.5,-2.7 -12,-1.1 -2.9,-1.1 -1.7,-1.2 v -2.5 l 0.3,-3.9 5,-11.6 v -3 l -2.5,-5.9 3.9,-3.3 6.2,-1.6 17.8,2.8 2.6,-1.2 0.8,-2.5 1,-7.1 1.3,-3 2.3,-3.3 3.5,-0.8 3.7,-0.4 z" />
    <path
       style="fill:#cccccc"
       name="Preddvor"
       id="SVN215"
       d="m 371.9,233.4 3,3.5 0.4,3 -0.7,4.4 2.7,7 -2.8,4.3 -9.1,5.6 -4.6,1.4 -5.4,0.2 -5.3,2.1 -15.8,1.3 -8.8,-1.1 -3.1,0.9 -2.7,-1.9 -0.9,-2.1 -0.5,-2.6 0.7,-1.2 4.4,1.3 1.2,-1.6 0.8,-2.3 1.4,-6.5 3.8,-11.7 6.8,0.5 2.2,-2.2 2.1,-4.3 1.3,-0.8 3.1,-0.2 4.7,1.2 z" />
    <path
       style="fill:#cccccc"
       name="Jesenice"
       id="SVN258"
       d="m 249,196.6 -3.3,2.9 -2.6,4.1 -0.5,8.4 -8.3,1.5 -1.6,-0.4 -4.7,-2.2 -2.8,-2.4 -25.5,-13.9 2.3,-3.8 1.6,-1.1 2.4,-2.4 0.6,-3.9 0.2,-6.2 5.6,-1 5.5,0.1 5.2,1.6 4.7,2.3 17.8,15.5 z" />
    <path
       style="fill:#cccccc"
       name="Žirovnica"
       id="SVN259"
       d="m 278.9,197.6 -1.3,6 -4.8,1.6 -2.7,2.2 -4.6,6 -1.7,4.7 -1.3,3.1 -3.3,2.3 -3.7,0.4 -2.9,-0.3 -7,4.4 -5.2,-9.5 2.2,-6.5 0.5,-8.4 2.6,-4.1 3.3,-2.9 0.6,0.2 z" />
    <path
       style="fill:#cccccc"
       name="Cerklje na Gorenjskem"
       id="SVN942"
       d="m 377.2,287.1 -16.5,18.5 -12,-1.5 -5.8,-7.8 -0.4,-4.4 -0.3,-10.3 0.5,-5.4 1.7,-4.2 1.1,-0.9 1,-1.6 1.3,-1.3 2.3,-3.3 5.3,-2.1 5.4,-0.2 4.6,-1.4 9.1,-5.6 -0.1,6.1 2.1,4.3 0.9,4.9 1.7,1.9 3.6,6 -0.5,3.6 -1.4,2.9 z" />
    <path
       style="fill:#cccccc"
       name="Šenčur"
       id="SVN985"
       d="m 348.7,304.1 1.5,3.3 -2.8,2.6 -16.5,0.7 -5.6,-11.6 -1.5,-2.1 -0.3,-1.3 0.4,-2.7 2.5,-4.6 3.1,-12 4.1,-5.7 0.7,-4.5 15.8,-1.3 -2.3,3.3 -1.3,1.3 -1,1.6 -1.1,0.9 -1.7,4.2 -0.5,5.4 0.3,10.3 0.4,4.4 z" />
  </g>
  <g
     id="pomurska"
     style="fill:#cccccc">
    <path
       style="fill:#cccccc"
       name="Kobilje"
       id="SVN1043"
       d="m 963.3,93.9 -3.2,-0.5 -6.1,-2.7 -3,-2.2 -2.4,-4.5 2.9,-5.6 1.9,0.8 5.9,0.4 4.8,3.2 1.7,8.7 z" />
    <path
       style="fill:#cccccc"
       name="Turnišče"
       id="SVN1049"
       d="m 935.3,102.2 10.7,13.8 9.6,7.2 -4.6,1.1 -4.7,-1.5 -2.7,0.6 -1.5,1 -0.2,1.5 -2.1,4.6 -8.8,-6.2 -0.8,-9.5 -4.7,-4.5 1,-3.9 -0.1,-2.4 3.7,-3 z" />
    <path
       style="fill:#cccccc"
       name="Beltinci"
       id="SVN1039"
       d="m 930.1,101 -3.7,3 0.1,2.4 -1,3.9 4.7,4.5 0.8,9.5 -8.4,-0.5 -2.5,2.5 -1.4,1.8 -0.8,2.6 0.8,3.3 1.3,3.3 -5.8,7.1 -9.8,-14 -4.2,-3.6 -13.5,-6.4 6.9,-4.4 3.1,-4.8 4.1,-1.7 11.2,-11.2 8.8,1 2.5,-2.7 2.3,0.6 z" />
    <path
       style="fill:#cccccc"
       name="Moravske Toplice"
       id="SVN1044"
       d="m 930.6,40.1 -0.4,1.7 0.7,1.8 4.4,13.3 3.6,4.6 2.7,5.3 2.9,3.5 4.4,-0.7 0.1,7.8 2.5,1 -2.9,5.6 -4.9,-2 -2.1,2.4 -2.1,3.5 -3.2,7.1 -1,7.2 -5.2,-1.2 -4.5,-3.8 -2.3,-0.6 -2.5,2.7 -8.8,-1 -4.7,-0.8 -7.1,-3.7 -1.7,-1.6 -1.9,-2.4 -0.1,-3.4 -4.1,-8.4 -1,-9.7 2.7,-3.9 1.9,-0.1 6.5,-8.2 2.3,0.3 1.8,-1.2 2.7,-4.7 2.7,-2.4 5.4,-8.2 10.4,1.3 z" />
    <path
       style="fill:#cccccc"
       name="Murska Sobota"
       id="SVN1045"
       d="m 912,98.3 -11.2,11.2 -4.1,1.7 -3.1,4.8 -6.9,4.4 -12.8,-6.1 -3.2,-2.2 3.2,-6.1 0.8,-3.2 -1.4,-3.1 -1.4,-2.7 -1.8,-2.3 -1.3,-4.7 -0.4,-2.4 1.7,-6.3 11.4,-0.6 2.2,0.8 8.7,-3.5 4.1,8.4 0.1,3.4 1.9,2.4 1.7,1.6 7.1,3.7 z" />
    <path
       style="fill:#cccccc"
       name="Odranci"
       id="SVN1046"
       d="m 931,124.3 -0.3,3.6 -4,5.2 -2.4,0.8 -4.3,3.4 -1.3,-3.3 -0.8,-3.3 0.8,-2.6 1.4,-1.8 2.5,-2.5 z" />
    <path
       style="fill:#cccccc"
       name="Šalovci"
       id="SVN196"
       d="m 930,8.8 0.1,1.3 1.7,4 v 6.2 l -0.6,2.6 -1.7,3 0.7,2.9 4.1,3 -2.8,4.8 -0.9,3.5 -2.8,1.1 -10.4,-1.3 0.8,-3.6 0.9,-1.7 1.1,-4.9 -0.4,-3.5 -2.1,-3.9 -4.5,-4.5 -5.3,-3.1 -15.3,-11.2 29.3,-2.5 3.3,1.9 z" />
    <path
       style="fill:#cccccc"
       name="Kuzma"
       id="SVN197"
       d="m 877,4.4 -2.3,6.1 0.7,4.8 -8.3,0.5 -2.2,0.8 -4.5,3.6 -1.7,1.7 -5.2,1.3 -1,-13.9 13,-7.7 z" />
    <path
       style="fill:#cccccc"
       name="Hodoš"
       id="SVN201"
       d="m 934.3,31.8 -4.1,-3 -0.7,-2.9 1.7,-3 0.6,-2.6 v -6.2 l -1.7,-4 -0.1,-1.3 1.4,1.8 2.8,1.5 4.6,0.3 1.4,2.3 -0.7,4.1 -1.8,5.7 -2.2,5.2 z" />
    <path
       style="fill:#cccccc"
       name="Grad"
       id="SVN202"
       d="m 879,17 -3.1,19.4 -4.7,9.3 -2.1,1.7 -2.5,0.8 -1.9,-0.8 -2.8,-0.5 -6,0.3 -3.6,-2.7 -0.2,-2.6 1.4,-18.7 5.2,-1.3 1.7,-1.7 4.5,-3.6 2.2,-0.8 8.3,-0.5 z" />
    <path
       style="fill:#cccccc"
       name="Črenšovci"
       id="SVN263"
       d="m 939.8,130.5 1.9,2.9 1.1,6.4 -1.1,3.3 -1.8,3.6 1.9,1.7 1.7,0.6 -3.2,3.8 -6.1,2.1 -5.9,-1.7 -3.3,-5.8 -2.2,1.3 -2.2,2.1 -4.4,-3.5 -2,-2.9 5.8,-7.1 4.3,-3.4 2.4,-0.8 4,-5.2 0.3,-3.6 z" />
    <path
       style="fill:#cccccc"
       name="Lendava"
       id="SVN264"
       d="m 943.5,149 -1.7,-0.6 -1.9,-1.7 1.8,-3.6 3.1,-0.1 2,-0.4 5.4,-2.4 4.9,-3.3 2.1,-2.2 2.5,-1.6 -6.1,-9.9 -9.6,-7.2 6,-8.7 1.7,-1 1.3,3.3 5.8,4.7 11.3,6.7 11.6,18.4 10.7,9.1 4.6,19.9 -7.7,-6.2 -3.1,-1.8 -3.3,-0.6 -6.9,0.9 -2.7,-0.3 -2.7,-1.9 -5.3,-5.7 -2.8,-1.8 -3.6,-0.3 -4.1,0.3 -4,-0.5 -3.7,-3 -1.9,3.5 -2.4,-3.5 z" />
    <path
       style="fill:#cccccc"
       name="Velika Polana"
       id="SVN270"
       d="m 955.6,123.2 6.1,9.9 -2.5,1.6 -2.1,2.2 -4.9,3.3 -5.4,2.4 -2,0.4 -3.1,0.1 1.1,-3.3 -1.1,-6.4 -1.9,-2.9 2.1,-4.6 0.2,-1.5 1.5,-1 2.7,-0.6 4.7,1.5 z" />
    <path
       style="fill:#cccccc"
       name="Dobrovnik"
       id="SVN271"
       d="m 948.6,84 2.4,4.5 3,2.2 6.1,2.7 3.2,0.5 -1.9,1.9 -6,2.9 -2.9,4.5 1.2,3.1 -1.7,1 -6,8.7 -10.7,-13.8 1,-7.2 3.2,-7.1 2.1,-3.5 2.1,-2.4 z" />
    <path
       style="fill:#cccccc"
       name="Cankova"
       id="SVN926"
       d="m 853.3,51 0.8,9.5 -0.5,3 -1,4.2 1.9,4.9 2.3,2.3 2.7,1.4 2.9,0.8 2.6,2.1 5.1,2.1 -1.7,6.3 0.4,2.4 1.3,4.7 1.8,2.3 1.4,2.7 1.4,3.1 -0.8,3.2 -3.2,6.1 -13.7,-9.5 -8,-8.5 -4.4,-1.1 -3.6,-2.6 -0.6,-10.6 -3.6,-7.2 -6.8,-4.3 -3.6,-11.3 -0.3,-8.1 0.4,-6.7 5.4,-0.4 5.4,0.9 0.7,1.7 3.6,4 2,1.2 z" />
    <path
       style="fill:#cccccc"
       name="Gornji Petrovci"
       id="SVN928"
       d="m 917.4,39.9 -5.4,8.2 -2.7,2.4 -2.7,4.7 -1.8,1.2 -2.3,-0.3 -4.3,-5.7 -1.2,-2.3 3.3,-9.1 -0.6,-3.9 -1.3,-1.5 -2.1,-1.1 -2.4,-0.7 -6.1,-6 -1.1,-3.5 -2,-2 -1.4,-2 -4.3,-1.3 -3.6,-1.7 -0.7,-4.8 2.3,-6.1 1.6,0.4 14,-1.3 15.3,11.2 5.3,3.1 4.5,4.5 2.1,3.9 0.4,3.5 -1.1,4.9 -0.9,1.7 z" />
    <path
       style="fill:#cccccc"
       name="Puconci"
       id="SVN929"
       d="m 902.5,56.1 -6.5,8.2 -1.9,0.1 -2.7,3.9 1,9.7 -8.7,3.5 -2.2,-0.8 -11.4,0.6 -5.1,-2.1 -2.6,-2.1 -2.9,-0.8 -2.7,-1.4 -2.3,-2.3 -1.9,-4.9 1,-4.2 0.5,-3 -0.8,-9.5 2.6,-3.8 6,-0.3 2.8,0.5 1.9,0.8 2.5,-0.8 2.1,-1.7 4.7,-9.3 3.1,-19.4 4.3,1.3 1.4,2 2,2 1.1,3.5 6.1,6 2.4,0.7 2.1,1.1 1.3,1.5 0.6,3.9 -3.3,9.1 1.2,2.3 z" />
    <path
       style="fill:#cccccc"
       name="Rogašovci"
       id="SVN931"
       d="m 853.5,23.2 -1.4,18.7 0.2,2.6 3.6,2.7 -2.6,3.8 -9.7,-1.4 -2,-1.2 -3.6,-4 -0.7,-1.7 -5.4,-0.9 -5.4,0.4 0.1,-1.4 2.2,-14.4 -0.2,-3.3 -1.4,-1 -0.3,-1 3,-3.3 1.9,-1.1 14.1,-3.5 6.6,-3.9 z" />
    <path
       style="fill:#cccccc"
       name="Sveti Jurij"
       id="SVN1048"
       d="m 860.9,126.2 3.5,10.9 -0.4,2.5 -3.6,10.3 -10.2,-1.6 -3.6,2.8 -1.9,2.7 -0.4,1.1 0.4,1.2 -0.5,3.1 -2,4.8 -4.1,-6.1 -6.6,-10.2 -5.7,-9 3.1,-9.2 11.2,-3.5 4.3,1.9 3,-3.2 3.8,-4.5 2.2,0.2 1.7,1.7 1.6,5.2 1.1,1.6 0.8,-0.3 z" />
    <path
       style="fill:#cccccc"
       name="Ljutomer"
       id="SVN265"
       d="m 914.2,144.4 2,2.9 4.4,3.5 2.2,-2.1 2.2,-1.3 3.3,5.8 5.9,1.7 -2.9,1.8 -7.6,-3.1 -5.7,6.7 0.4,2.6 -8.2,9.3 -0.3,3.9 -2.2,1.7 -1.7,2.7 -1.6,0.4 -2,-0.8 -1.2,1.3 h -1.5 l -3.2,-4.9 -2.7,-2.4 -4,-3 -4.8,1.2 -0.9,1.6 -1.6,0.6 -3.5,-0.4 -7.2,-3 -14.6,-2.7 -5.1,-2.1 -9.9,-2.3 2,-4.8 0.5,-3.1 -0.4,-1.2 0.4,-1.1 1.9,-2.7 3.6,-2.8 10.2,1.6 6.3,1.3 7.8,4.6 6.5,1.5 3.6,0.2 3.7,-1.1 2.5,-2.4 0.7,-4.1 0.9,-3.8 -1.6,-1.8 0.9,-2.8 4.4,-2.9 3.6,-0.1 0.7,-0.6 4,-7.5 z" />
    <path
       style="fill:#cccccc"
       name="Križevci"
       id="SVN266"
       d="m 886.7,120.4 -3.4,2.1 -4.3,-0.9 0.5,4.7 1.9,3.7 3.6,3.1 0.9,4.5 5.8,3.9 -0.9,2.8 1.6,1.8 -0.9,3.8 -0.7,4.1 -2.5,2.4 -3.7,1.1 -3.6,-0.2 -6.5,-1.5 -7.8,-4.6 -6.3,-1.3 3.6,-10.3 0.4,-2.5 -3.5,-10.9 5.1,-6.6 5.2,-0.2 -2.1,-4.3 1.6,-3 3.2,2.2 z" />
    <path
       style="fill:#cccccc"
       name="Veržej"
       id="SVN267"
       d="m 904.4,130.4 -4,7.5 -0.7,0.6 -3.6,0.1 -4.4,2.9 -5.8,-3.9 -0.9,-4.5 -3.6,-3.1 -1.9,-3.7 -0.5,-4.7 4.3,0.9 3.4,-2.1 13.5,6.4 z" />
    <path
       style="fill:#cccccc"
       name="Razkrižje"
       id="SVN269"
       d="m 931.3,156.7 -2,1.2 -9.9,3.9 -1,1.1 -0.4,-2.6 5.7,-6.7 z" />
    <path
       style="fill:#cccccc"
       name="Apace"
       id="SVN5884"
       d="m 825.5,79.4 -6.6,9.3 -4.7,4.3 -6.6,0.7 -7.2,0.4 -3.7,-2.6 -5.7,-1.5 -10,-6.8 -2.8,-4.5 -4.4,-1.7 -5.7,-4.7 -0.6,-1 12.1,-5 8.9,-0.7 8.8,1.7 21.4,10.9 z" />
    <path
       style="fill:#cccccc"
       name="Gornja Radgona"
       id="SVN927"
       d="m 841,90.4 3.6,2.6 4.4,1.1 -10.8,13.8 -0.3,5.3 2.2,12.8 -11.2,3.5 -7.1,-1 -7.2,-3.8 -5.4,-6.6 -0.8,-3.6 -0.1,-2.5 4.8,-4.4 0.8,-2.2 -2.6,-1.1 -1.4,0.3 -2.9,0.1 -6.7,-2.8 0.1,-7.8 7.2,-0.4 6.6,-0.7 4.7,-4.3 6.6,-9.3 6.1,1.1 3.5,2.4 z" />
    <path
       style="fill:#cccccc"
       name="Radenci"
       id="SVN930"
       d="m 870.7,112.1 -1.6,3 2.1,4.3 -5.2,0.2 -5.1,6.6 -2.3,2.4 -0.8,0.3 -1.1,-1.6 -1.6,-5.2 -1.7,-1.7 -2.2,-0.2 -3.8,4.5 -3,3.2 -4.3,-1.9 -2.2,-12.8 0.3,-5.3 10.8,-13.8 8,8.5 z" />
  </g>
  <g
     id="koroska"
     style="fill:#cccccc">
    <path
       style="fill:#cccccc"
       name="Ravne na Koroškem"
       id="SVN217"
       d="m 522.2,145.9 -2.1,8.6 -0.5,8.1 -1.2,3.9 -2,3.3 -1.7,1.3 -6.7,2.9 -7,-0.6 -0.9,-0.7 -5.2,-5.7 7.5,-7.7 0.9,-4.2 -1.1,-1.7 -0.3,-4.9 0.1,-5.7 -0.4,-2.5 -0.9,-1.5 -2.5,-0.6 -0.9,-1 -1.6,-2.9 -1.2,-3.1 -1.2,-1.9 -3.3,-3.1 -1.7,0.1 -0.8,-0.7 -2.1,-4.9 1.1,-0.2 6.9,-4.4 0.2,0.7 7.4,5.9 5.3,0.5 1.9,1.3 1.5,2.4 3.5,4.5 5,4.1 3.1,1.9 2.1,4.5 z" />
    <path
       style="fill:#cccccc"
       name="Prevalje"
       id="SVN233"
       d="m 494.9,167 -7.8,0.1 1,-5.6 -1.2,-1.3 -2.2,-1.8 -3.2,-3.4 -1.1,-3 -0.1,-2.2 -1.7,-1.5 -1.8,-0.9 -1.2,-2.2 -3.2,-0.7 -1.9,0.6 -6.8,-0.2 -3.5,0.6 2.4,-7.5 3.6,-7.7 5.3,-7.8 4,-1.7 4.5,0.6 5.4,-0.7 2.1,4.9 0.8,0.7 1.7,-0.1 3.3,3.1 1.2,1.9 1.2,3.1 1.6,2.9 0.9,1 2.5,0.6 0.9,1.5 0.4,2.5 -0.1,5.7 0.3,4.9 1.1,1.7 -0.9,4.2 z" />
    <path
       style="fill:#cccccc"
       name="Črna na Koroškem"
       id="SVN944"
       d="m 487.1,167.1 7.8,-0.1 5.2,5.7 0.9,0.7 7,0.6 -2.9,13.6 -0.2,5.8 -4.4,3.4 -15.9,7.5 -27.7,-0.7 -9.1,-3.1 -1.8,0.3 -4.8,4.5 -6.7,-9.6 -3.6,-2.6 -14.7,-2.9 -1,-2.5 2.3,0.4 2.3,-5.7 3.7,-4.5 1.6,-3.1 1.9,-2.2 5.2,-2.4 2.8,2 8.2,-1.3 7,-3.2 1.7,-1.6 2.6,-5.9 5.2,1 5.8,1.7 6.4,5.2 6.9,2.3 4.1,0.4 2.7,-0.6 z" />
    <path
       style="fill:#cccccc"
       name="Dravograd"
       id="SVN947"
       d="m 546.1,101 1,6.2 1.5,4.1 3.5,6.4 6.7,4.8 -4.4,1.2 -1.1,1.7 -1.5,3.8 0.7,3.5 -0.8,4.2 -10.3,9.1 -0.6,2.1 -1.5,1.6 -1.3,0.3 -3.6,-1.4 -4,1.4 -2.6,1.6 h -1.1 l -4.5,-5.7 1.2,-4 -2.1,-4.5 -3.1,-1.9 -5,-4.1 -3.5,-4.5 -1.5,-2.4 -1.9,-1.3 -5.3,-0.5 -7.4,-5.9 -0.2,-0.7 4.5,-2.8 4.5,0.9 6.1,8.8 11.8,-16.9 18.2,-5.9 z" />
    <path
       style="fill:#cccccc"
       name="Mežica"
       id="SVN970"
       d="m 487.1,167.1 -1.5,3.1 -2.7,0.6 -4.1,-0.4 -6.9,-2.3 -6.4,-5.2 -5.8,-1.7 -5.2,-1 3.3,-7.6 2.4,-7.1 3.5,-0.6 6.8,0.2 1.9,-0.6 3.2,0.7 1.2,2.2 1.8,0.9 1.7,1.5 0.1,2.2 1.1,3 3.2,3.4 2.2,1.8 1.2,1.3 z" />
    <path
       style="fill:#cccccc"
       name="Muta"
       id="SVN974"
       d="m 573.6,104 0.3,1.6 2.6,3.8 0.7,1.9 -0.1,2.8 -9.2,7.3 -4.6,1.8 -4.5,-0.7 -6.7,-4.8 -3.5,-6.4 -1.5,-4.1 -1,-6.2 z" />
    <path
       style="fill:#cccccc"
       name="Vuzenica"
       id="SVN1005"
       d="m 582.1,155.7 -3.4,5.5 -14.4,-7.5 -1.7,-3.6 -3.4,-4.8 -4.4,-3.7 -3.1,-4.7 0.8,-4.2 -0.7,-3.5 1.5,-3.8 1.1,-1.7 4.4,-1.2 4.5,0.7 4.6,-1.8 9.2,-7.3 2.6,3.2 1.7,1.3 1.9,0.7 1.9,1.5 0.7,1.5 v 1.9 l -0.5,2.6 -2.6,4.6 -1.8,1.1 -3.8,1.1 0.9,1.9 0.2,1.9 -1.2,3.8 -1.7,3 -0.7,3.1 -0.2,2.3 1.6,3.9 z" />
    <path
       style="fill:#cccccc"
       name="Mislinja"
       id="SVN971"
       d="m 617.8,172.6 1.1,4.8 0.7,5.7 2.1,3.1 0.8,2.1 -0.7,3.3 -8.5,0.6 -5.3,1.5 -2.4,1.6 -2.1,2.7 -4.1,10.7 -6.8,9.9 -13.4,1.9 -4.6,-2.6 0.1,-3.8 -0.2,-3.1 -1.7,-0.8 -2.6,-0.8 -2.1,-0.1 -10,-4.2 3.6,-10.1 3,-0.6 1.6,-2.1 0.5,-4.8 3.5,-3.5 7.6,-11.1 3,-8.8 8.6,6.5 4.9,1 6.4,-0.4 z" />
    <path
       style="fill:#cccccc"
       name="Podvelka"
       id="SVN214"
       d="m 656.9,110.5 1.8,3.5 -0.5,4.6 -1,3.4 -0.5,2.5 v 2.1 l 1.8,0.9 0.9,2.6 -2.4,4.6 -3.3,-0.2 -5.7,-3.8 -6.1,-2 -3.8,-0.4 -1.5,0.6 -0.8,1.6 0.1,3.9 -0.8,3 -5.8,8.1 -2.9,7.8 -3.2,4.5 -2,6.5 -1.8,-7.8 0.1,-2.1 1,-2.5 -1,-1.4 -4.9,-2.8 -2.7,-4.8 -7.3,-7.2 4.4,-12 4.3,-4.2 2.1,-0.7 5.2,-2.5 2.6,-2.1 1.1,-7.3 0.1,-3.9 17.5,-1 9.3,3.6 z" />
    <path
       style="fill:#cccccc"
       name="Ribnica na Pohorju"
       id="SVN257"
       d="m 621.2,164.3 -3.4,8.3 -17,-1.4 -6.4,0.4 -4.9,-1 -8.6,-6.5 -2.2,-2.9 3.4,-5.5 3.1,-2.9 0.4,-3.6 1.4,-1.9 1.7,-1.6 15.9,-10 7.3,7.2 2.7,4.8 4.9,2.8 1,1.4 -1,2.5 -0.1,2.1 z" />
    <path
       style="fill:#cccccc"
       name="Radlje ob Dravi"
       id="SVN981"
       d="m 604.6,135.7 -15.9,10 -1.7,1.6 -1.4,1.9 -0.4,3.6 -3.1,2.9 -6,-2.2 -1.6,-3.9 0.2,-2.3 0.7,-3.1 1.7,-3 1.2,-3.8 -0.2,-1.9 -0.9,-1.9 3.8,-1.1 1.8,-1.1 2.6,-4.6 0.5,-2.6 v -1.9 l -0.7,-1.5 -1.9,-1.5 -1.9,-0.7 -1.7,-1.3 -2.6,-3.2 0.1,-2.8 -0.7,-1.9 -2.6,-3.8 -0.3,-1.6 10.2,1.1 40.6,-2.1 -0.1,3.9 -1.1,7.3 -2.6,2.1 -5.2,2.5 -2.1,0.7 -4.3,4.2 z" />
    <path
       style="fill:#cccccc"
       name="Slovenj Gradec"
       id="SVN991"
       d="m 578.7,161.2 2.2,2.9 -3,8.8 -7.6,11.1 -3.5,3.5 -0.5,4.8 -1.6,2.1 -3,0.6 -3.6,10.1 -3.7,-4.1 -4.2,-1.4 -2.1,-0.1 -0.9,3.5 -28.3,-9.4 -13.8,-6 2.9,-13.6 6.7,-2.9 1.7,-1.3 2,-3.3 1.2,-3.9 0.5,-8.1 2.1,-8.6 4.5,5.7 h 1.1 l 2.6,-1.6 4,-1.4 3.6,1.4 1.3,-0.3 1.5,-1.6 0.6,-2.1 10.3,-9.1 3.1,4.7 4.4,3.7 3.4,4.8 1.7,3.6 z" />
  </g>
  <g
     id="podravska"
     style="fill:#cccccc">
    <path
       style="fill:#cccccc"
       name="Zavrc"
       id="SVN1050"
       d="m 859.7,222.3 4.1,5.2 -9.7,-2 -0.2,8.2 0.8,6.6 -0.1,6 -2.3,6.3 -0.7,0.8 -2.3,-8 -0.7,-5.3 -0.8,-2.6 -1.1,-1.2 -1,-2 v -2.6 l 2.9,-7.2 4.6,-3.8 z" />
    <path
       style="fill:#cccccc"
       name="Dornava"
       id="SVN1040"
       d="m 844,200.3 -4.5,-1.2 -5.2,2.8 -1.3,1.5 -2.6,4.1 -12.7,-1.8 3.2,-14 7.6,2.2 6.2,-5.7 2.3,-3.7 1.4,-3.3 4,-7.8 6,10.2 -0.3,8.9 z" />
    <path
       style="fill:#cccccc"
       name="Gorišnica"
       id="SVN1041"
       d="m 844,200.3 7.8,3.4 4.8,9.6 3.1,9 -6.5,-1.6 -4.6,3.8 -2.9,7.2 v 2.6 l 1,2 1.1,1.2 0.8,2.6 0.7,5.3 2.3,8 -3.5,3.8 -6.3,4.4 -6.6,3.4 -1.5,0.4 -1.4,-2.2 -4.4,-14.8 0.3,-3.6 -1.6,-5.1 -1.2,-1.2 0.6,-5.8 2.6,-0.2 2.6,-0.9 1,-0.7 3,-3.3 -0.5,-3.8 -2.5,-5.8 -0.3,-4 -1.5,-6.5 2.6,-4.1 1.3,-1.5 5.2,-2.8 z" />
    <path
       style="fill:#cccccc"
       name="Juršinci"
       id="SVN1042"
       d="m 842.2,164 -2,1.7 2.2,7.7 -4,7.8 -1.4,3.3 -2.3,3.7 -6.2,5.7 -7.6,-2.2 -3.1,-4.1 0.3,-9.5 0.9,-3 0.8,-6.7 1.6,-2 2.4,-2.3 2.9,-1.4 3.7,-2.4 7.7,-2.4 z" />
    <path
       style="fill:#cccccc"
       name="Ormož"
       id="SVN1047"
       d="m 909.9,176.1 -0.1,2.9 1.2,6.2 3.7,12.7 0.3,3.7 -0.6,7.4 0.8,3.9 2,2.3 5.4,3.6 1.4,2.2 0.5,5.1 -1.4,1.4 -7.3,-0.1 -11.3,2.8 -2.7,0.1 -5.3,-1.2 -4.5,-2.7 -7.6,-7.3 -3.1,-1.5 -3.9,0.8 -2.6,2.8 -2.5,3.5 -3,2.5 -3.7,0.7 -1.8,-0.4 -4.1,-5.2 -3.1,-9 -4.8,-9.6 -7.8,-3.4 4.1,-7.8 0.3,-8.9 -6,-10.2 -2.2,-7.7 2,-1.7 9.9,2.3 5.1,2.1 14.6,2.7 7.2,3 3.5,0.4 1.6,-0.6 0.9,-1.6 4.8,-1.2 4,3 2.7,2.4 3.2,4.9 h 1.5 l 1.2,-1.3 2,0.8 1.6,-0.4 1.7,-2.7 z" />
    <path
       style="fill:#cccccc"
       name="Cerkvenjak"
       id="SVN198"
       d="m 828.9,129.5 -3.1,9.2 5.7,9 -8.7,6.1 -1.6,0.2 -2.1,-0.2 -0.7,-1.2 -5.3,-2.7 -2.8,-10.8 2.1,-3.8 3.7,-2.8 1.7,-0.7 4,-3.3 z" />
    <path
       style="fill:#cccccc"
       name="Benedikt"
       id="SVN199"
       d="m 814.6,124.7 -2.3,2.5 -3.4,2.4 -3.2,0.4 -0.9,0.7 -1.3,-0.4 -1.6,-1.8 -5.6,-8.2 -4,-2.3 0.9,-5.7 2.9,-6 4.2,-4.4 6.7,2.8 2.9,-0.1 1.4,-0.3 2.6,1.1 -0.8,2.2 -4.8,4.4 0.1,2.5 0.8,3.6 z" />
    <path
       style="fill:#cccccc"
       name="Sveta Ana"
       id="SVN200"
       d="m 800.4,94.1 -0.1,7.8 -4.2,4.4 -2.9,6 -0.9,5.7 -1.9,1.7 -1.6,-0.1 -2.2,-0.8 -3.3,-2.6 -1.6,-1.9 -0.3,-3.9 -1.6,-5.9 -1.6,-2.4 -5.8,-0.7 -1.8,-3.6 -0.6,-2.8 0.1,-2.2 2,-2.3 0.3,-2.6 1.2,-2.9 0.2,-8 4.4,1.7 2.8,4.5 10,6.8 5.7,1.5 z" />
    <path
       style="fill:#cccccc"
       name="Destrnik"
       id="SVN203"
       d="m 813.1,167.3 5.9,7.8 -0.9,3 -6.9,4.4 -4.5,4.9 -0.9,1.8 -1.6,1.3 -2.4,0.6 -2.5,-0.6 -4.8,-2.9 -7.7,-10.5 -7,-5.6 9.8,-5.2 4.1,2.8 6.5,0.1 z" />
    <path
       style="fill:#cccccc"
       name="Lenart"
       id="SVN208"
       d="m 772.4,101.4 5.8,0.7 1.6,2.4 1.6,5.9 0.3,3.9 1.6,1.9 3.3,2.6 2.2,0.8 1.6,0.1 1.9,-1.7 4,2.3 5.6,8.2 1.6,1.8 1.3,0.4 0.9,-0.7 3.2,-0.4 3.4,-2.4 2.3,-2.5 7.2,3.8 -4,3.3 -1.7,0.7 -3.7,2.8 -2.1,3.8 2.8,10.8 -1.4,3.4 -10.1,-5.5 -2.5,1.9 -3.6,2 -1.7,1.9 -1.8,3.8 -0.6,2.6 -1,1.9 -0.8,4.4 -9.8,5.2 -2.3,-1.1 -1.8,-4.1 1.2,-2.7 1.1,-1.3 -0.8,-2.4 -1.9,-2.4 -5.8,-4.3 -0.7,-1.4 -0.3,-1.9 -0.9,-1.4 -1.3,-1 -1.7,-0.4 -2,0.4 h -4.9 l 4.9,-5.7 -1.1,-0.9 -0.6,-1.7 -2.9,-3.8 1.7,-6.8 -0.7,-6.8 0.9,-5.6 3.2,-8.9 0.8,-4.2 1.6,-2.3 z" />
    <path
       style="fill:#cccccc"
       name="Majšperk"
       id="SVN211"
       d="m 773.2,235.9 2,4.6 0.9,1.1 0.5,1.6 -3.9,8.4 -8.9,10.5 -3.5,5.5 -1.3,10.9 -5.2,-1.8 -11.9,0.8 -6,-4.5 8.5,-10.5 2.5,-6.6 0.5,-6.4 0.1,-5.3 -1.7,-3.3 -2.3,-1.2 -5.9,-1 -3.1,-3.6 -0.9,-2.5 1,-2.6 28,2 4.8,1 z" />
    <path
       style="fill:#cccccc"
       name="Ptuj"
       id="SVN216"
       d="m 779.8,171.5 7,5.6 7.7,10.5 4.8,2.9 2.5,0.6 2.4,-0.6 1.6,-1.3 0.9,-1.8 4.5,-4.9 6.9,-4.4 -0.3,9.5 3.1,4.1 -3.2,14 -0.1,2.9 -2.3,3.2 -10,6.3 -2.4,-1.5 -8.5,5.9 0.5,-2.5 -0.6,-0.9 -1.8,-0.9 -1.8,-2 0.4,-1.2 -0.1,-2.8 0.3,-2.2 -0.4,-1.7 -3.5,-7.2 -9.1,-11.1 -4.4,-5.6 -2.8,-1.1 -4.6,0.7 4.2,-5.6 3.7,-2.5 3.1,-5.5 z" />
    <path
       style="fill:#cccccc"
       name="Ruše"
       id="SVN219"
       d="m 697.5,164.6 -7.7,5.8 -12.3,-0.9 -29.3,9.9 2.3,-10 8,-8.7 2.7,-6.1 0.5,-2.8 -0.2,-1.9 3,-3.8 -0.4,5.3 7.8,1.9 4.2,-1.5 20.4,-11.3 -3.2,20.4 z" />
    <path
       style="fill:#cccccc"
       name="Slovenska Bistrica"
       id="SVN221"
       d="m 689.8,170.4 2,6.5 0.7,4 2.9,2.7 26.3,15.7 0.5,1.6 3.7,1.2 4.5,2.2 6.3,6.9 -3.2,2.9 0.6,1 1.9,1.6 -0.5,1.9 0.6,2.4 -1,3.4 -1.4,2.1 0.9,3.5 -1,2.6 0.9,2.5 3.1,3.6 5.9,1 2.3,1.2 1.7,3.3 -0.1,5.3 -0.5,6.4 -2.5,6.6 -8.5,10.5 -10.1,0.2 -14,-4.7 -6.6,-0.1 -3.5,1.1 -1.8,1.1 -1.7,2.6 -4.2,-1.9 1.7,-7.2 -0.9,-7 -2.3,-11.5 -2.2,-5 -2.7,-2.4 -2.5,-0.3 -6.8,-4.1 -1.9,-5.6 -0.9,-4.2 0.5,-4.2 -0.3,-1.2 -1.5,-1.1 -4.5,-1.3 -3.9,0.4 -1.9,-1.4 -1,-2.6 -1,-1.9 -3.3,-4.2 -5.7,-2.6 -7.8,-6.2 -5.1,-1.3 -4.4,-3.1 -5,-2.3 -2.2,-3.2 -2.2,-2.7 -1.1,-5.5 7.6,-1.3 1.5,0.9 4.1,4 1.4,0.3 1.9,-0.7 1.1,-0.8 5.5,-2.6 29.3,-9.9 z" />
    <path
       style="fill:#cccccc"
       name="Videm"
       id="SVN222"
       d="m 805.3,218.1 7.8,3.1 2.1,1.6 2.3,6.4 2.8,1.7 5.7,1.8 -0.6,5.8 1.2,1.2 1.6,5.1 -0.3,3.6 4.4,14.8 1.4,2.2 -3.7,1 -10.5,1.9 -9.5,5.3 -0.8,-4.7 0.7,-2.5 -0.2,-2.4 0.3,-2.6 -0.2,-1.4 -2,-4.3 -0.8,-3.5 0.3,-1.5 1.1,-2.3 -0.3,-3.3 -0.7,-1.5 -1.4,-1.3 -1.8,-1.1 -5.2,-2.3 -1.3,-0.9 -4.8,-0.6 -7.2,2.2 -1.5,0.8 -1.8,2.6 -1,2.6 0.2,2.9 -1.3,8.7 -7.6,-5.6 3.9,-8.4 -0.5,-1.6 -0.9,-1.1 -2,-4.6 5.1,-2 0.8,-3.1 1.1,-2.6 2.1,-10.6 6,5.9 6.1,-1 8.5,-5.9 z" />
    <path
       style="fill:#cccccc"
       name="Oplotnica"
       id="SVN226"
       d="m 678.3,233.8 -13.1,0.6 -2.5,-0.8 -9.1,-5.2 -5.1,-4.4 0.3,-1.3 2.4,-3.1 0.5,-1.3 -1.2,-2.1 -1.7,-2.2 v -1.4 l 0.8,-0.9 1.3,-4.6 2,-3.2 5.7,2.6 3.3,4.2 1,1.9 1,2.6 1.9,1.4 3.9,-0.4 4.5,1.3 1.5,1.1 0.3,1.2 -0.5,4.2 0.9,4.2 z" />
    <path
       style="fill:#cccccc"
       name="Hajdina"
       id="SVN227"
       d="m 794.4,222.5 -6.1,1 -6,-5.9 -9.8,-17 1.7,-2.7 -0.6,-3.4 0.5,-1.9 4.2,-2.6 9.1,11.1 3.5,7.2 0.4,1.7 -0.3,2.2 0.1,2.8 -0.4,1.2 1.8,2 1.8,0.9 0.6,0.9 z" />
    <path
       style="fill:#cccccc"
       name="Miklavž na Dravskem polju"
       id="SVN228"
       d="m 750.7,167 0.5,0.7 -2.7,3.9 -0.4,1.4 1.4,2.5 0.6,2.8 1,2.6 -5,6.7 -2.4,-2.3 -3.7,-7.6 -0.9,-2.4 1.4,-3.5 0.4,-1.8 -2,-3.6 0.7,-2.8 z" />
    <path
       style="fill:#cccccc"
       name="Hoce-Slivnica"
       id="SVN229"
       d="m 739.6,163.6 -0.7,2.8 2,3.6 -0.4,1.8 -1.4,3.5 0.9,2.4 3.7,7.6 -7.2,1.2 -3.4,0.9 -5.5,0.2 -1.5,-0.3 -2.2,-1 -3.2,-2.7 -7.6,-3.7 h -8.3 l -4.9,-2.1 -8.1,-0.9 -2,-6.5 7.7,-5.8 14.2,-3.1 z" />
    <path
       style="fill:#cccccc"
       name="Trnovska vas"
       id="SVN230"
       d="m 811.7,153.3 2,2.1 0.6,1.2 0.6,3.9 -1.8,6.8 -12.9,1.9 -6.5,-0.1 -4.1,-2.8 0.8,-4.4 1,-1.9 0.6,-2.6 1.8,-3.8 1.7,-1.9 3.6,-2 2.5,-1.9 z" />
    <path
       style="fill:#cccccc"
       name="Žetale"
       id="SVN231"
       d="m 780.3,257.2 11.7,11.3 1.6,1 2.6,7.2 1.8,3 -14.8,0.5 -5,1.3 -4.8,2.3 -1.2,0.9 -13.2,-6.2 1.3,-10.9 3.5,-5.5 8.9,-10.5 z" />
    <path
       style="fill:#cccccc"
       name="Podlehnik"
       id="SVN232"
       d="m 810,273.6 -11.1,6.1 H 798 l -1.8,-3 -2.6,-7.2 -1.6,-1 -11.7,-11.3 1.3,-8.7 -0.2,-2.9 1,-2.6 1.8,-2.6 1.5,-0.8 7.2,-2.2 4.8,0.6 1.3,0.9 5.2,2.3 1.8,1.1 1.4,1.3 0.7,1.5 0.3,3.3 -1.1,2.3 -0.3,1.5 0.8,3.5 2,4.3 0.2,1.4 -0.3,2.6 0.2,2.4 -0.7,2.5 z" />
    <path
       style="fill:#cccccc"
       name="Selnica ob Dravi"
       id="SVN234"
       d="m 696.5,140.5 -20.4,11.3 -4.2,1.5 -7.8,-1.9 0.4,-5.3 0.7,-8.4 -1.3,-3.9 -2.1,-2 -2.4,-1.7 -0.9,-2.6 -1.8,-0.9 v -2.1 l 0.5,-2.5 1,-3.4 0.5,-4.6 -1.8,-3.5 1.4,1.3 7.2,4.5 9.5,-1.7 5.9,-4.6 0.8,-1.9 2,2.4 1.5,6.2 -0.1,3.4 1.1,2.6 1.3,1.9 3.1,1.8 1.6,2.2 0.5,4.3 v 3 z" />
    <path
       style="fill:#cccccc"
       name="Lovrenc na Pohorju"
       id="SVN235"
       d="m 659.4,130.1 2.4,1.7 2.1,2 1.3,3.9 -0.7,8.4 -3,3.8 0.2,1.9 -0.5,2.8 -2.7,6.1 -8,8.7 -2.3,10 -5.5,2.6 -1.1,0.8 -1.9,0.7 -1.4,-0.3 -4.1,-4 -1.5,-0.9 -7.6,1.3 -6.2,-2.2 -1.1,-4.8 3.4,-8.3 2,-6.5 3.2,-4.5 2.9,-7.8 5.8,-8.1 0.8,-3 -0.1,-3.9 0.8,-1.6 1.5,-0.6 3.8,0.4 6.1,2 5.7,3.8 3.3,0.2 z" />
    <path
       style="fill:#cccccc"
       name="Maribor"
       id="SVN256"
       d="m 723.9,125.8 10.4,0.6 6.1,6.1 6.8,4.7 7.7,0.4 3.1,-2.2 2.9,3.8 0.6,1.7 1.1,0.9 -4.9,5.7 -4.9,6.6 -4.8,2.6 -1,2.7 1.4,3.5 2.3,4.1 -11.1,-3.4 -27.9,-2.1 -14.2,3.1 -4.2,-3.7 3.2,-20.4 -3.8,-4.6 v -3 l -0.5,-4.3 -1.6,-2.2 -3.1,-1.8 -1.3,-1.9 -1.1,-2.6 0.1,-3.4 -1.5,-6.2 -2,-2.4 1.2,-2.7 0.9,-4.4 5.2,5.3 10.7,2.9 6.4,-0.1 2.4,1 2.2,2.8 2.7,1.7 4.3,4 1.1,3.3 z" />
    <path
       style="fill:#cccccc"
       name="Sveti Andraž v Slovenskih Goricah"
       id="SVN268"
       d="m 838.1,157.9 -7.7,2.4 -3.7,2.4 -2.9,1.4 -2.4,2.3 -1.6,2 -0.8,6.7 -5.9,-7.8 1.8,-6.8 -0.6,-3.9 -0.6,-1.2 -2,-2.1 1.4,-3.4 5.3,2.7 0.7,1.2 2.1,0.2 1.6,-0.2 8.7,-6.1 z" />
    <path
       style="fill:#cccccc"
       name="Markovci"
       id="SVN272"
       d="m 830.4,207.5 1.5,6.5 0.3,4 2.5,5.8 0.5,3.8 -3,3.3 -1,0.7 -2.6,0.9 -2.6,0.2 -5.7,-1.8 -2.8,-1.7 -2.3,-6.4 -2.1,-1.6 -7.8,-3.1 10,-6.3 2.3,-3.2 0.1,-2.9 z" />
    <path
       style="fill:#cccccc"
       name="Duplek"
       id="SVN948"
       d="m 777.5,170.4 -3.1,5.5 -3.7,2.5 -4.2,5.6 -7.9,-8.3 -1.9,-1 -2.6,-0.9 -1.4,-1.7 -1.5,-4.4 -0.5,-0.7 -2.3,-4.1 -1.4,-3.5 1,-2.7 4.8,-2.6 4.9,-6.6 h 4.9 l 2,-0.4 1.7,0.4 1.3,1 0.9,1.4 0.3,1.9 0.7,1.4 5.8,4.3 1.9,2.4 0.8,2.4 -1.1,1.3 -1.2,2.7 z" />
    <path
       style="fill:#cccccc"
       name="Kidricevo"
       id="SVN956"
       d="m 772.5,200.6 9.8,17 -2.1,10.6 -1.1,2.6 -0.8,3.1 -5.1,2 -5.8,-2.9 -4.8,-1 -28,-2 -0.9,-3.5 1.4,-2.1 1,-3.4 -0.6,-2.4 0.5,-1.9 -1.9,-1.6 -0.6,-1 3.2,-2.9 14.9,-9.1 5.6,-1.8 5.6,0.6 4,-1.7 z" />
    <path
       style="fill:#cccccc"
       name="Kungota"
       id="SVN959"
       d="m 723.5,103.3 5.9,18.1 -5.5,4.4 -5.1,-3.9 -1.1,-3.3 -4.3,-4 -2.7,-1.7 -2.2,-2.8 -2.4,-1 -6.4,0.1 -10.7,-2.9 -5.2,-5.3 0.1,-0.8 3.1,-6.6 4.9,-3.7 6.8,-1.8 6.7,-0.1 4.8,1.4 4.1,-1.2 1.6,-1.2 0.2,5.3 z" />
    <path
       style="fill:#cccccc"
       name="Pesnica"
       id="SVN976"
       d="m 763.1,107.3 -3.2,8.9 -0.9,5.6 0.7,6.8 -1.7,6.8 -3.1,2.2 -7.7,-0.4 -6.8,-4.7 -6.1,-6.1 -10.4,-0.6 5.5,-4.4 -5.9,-18.1 8.5,-1.5 1.7,-1.3 -0.4,-1.6 0.6,-2.2 2.1,-4 0.9,-3.4 1.1,-1.5 2.3,-0.2 1.8,0.6 3.8,-0.3 4.5,1.3 1.5,1.4 0.7,1.3 0.4,2.5 1.8,2.1 1.4,1.1 1.2,1.5 1.1,2 1.4,1.6 z" />
    <path
       style="fill:#cccccc"
       name="Race-Fram"
       id="SVN979"
       d="m 743.7,185.3 2.4,2.3 2,4.7 -0.5,2.9 4,6.9 -14.9,9.1 -6.3,-6.9 -4.5,-2.2 -3.7,-1.2 -0.5,-1.6 -26.3,-15.7 -2.9,-2.7 -0.7,-4 8.1,0.9 4.9,2.1 h 8.3 l 7.6,3.7 3.2,2.7 2.2,1 1.5,0.3 5.5,-0.2 3.4,-0.9 z" />
    <path
       style="fill:#cccccc"
       name="Šentilj"
       id="SVN986"
       d="m 767.5,71.3 0.6,1 5.7,4.7 -0.2,8 -1.2,2.9 -0.3,2.6 -2,2.3 -0.1,2.2 0.6,2.8 1.8,3.6 -6.9,-0.6 -1.6,2.3 -0.8,4.2 -3.2,-4.6 -1.4,-1.6 -1.1,-2 -1.2,-1.5 -1.4,-1.1 -1.8,-2.1 -0.4,-2.5 -0.7,-1.3 -1.5,-1.4 -4.5,-1.3 -3.8,0.3 -1.8,-0.6 -2.3,0.2 -1.1,1.5 -0.9,3.4 -2.1,4 -0.6,2.2 0.4,1.6 -1.7,1.3 -8.5,1.5 -7.4,-11 -0.2,-5.3 1.7,-1.3 1.9,-4 -0.1,-5.9 1,-7 5.1,3.1 24.3,3.6 8.4,-0.5 z" />
    <path
       style="fill:#cccccc"
       name="Starše"
       id="SVN996"
       d="m 766.5,184 4.6,-0.7 2.8,1.1 4.4,5.6 -4.2,2.6 -0.5,1.9 0.6,3.4 -1.7,2.7 -5.7,-1.4 -4,1.7 -5.6,-0.6 -5.6,1.8 -4,-6.9 0.5,-2.9 -2,-4.7 5,-6.7 -1,-2.6 -0.6,-2.8 -1.4,-2.5 0.4,-1.4 2.7,-3.9 1.5,4.4 1.4,1.7 2.6,0.9 1.9,1 z" />
  </g>
  <g
     id="savinjska"
     style="fill:#cccccc">
    <path
       style="fill:#cccccc"
       name="Prebold"
       id="SVN243"
       d="m 551.9,281.7 6.2,6.2 4.5,2.5 1.7,2.1 -1.7,0.8 -0.7,1.3 -0.4,2.2 -0.1,7 -0.5,3.9 -0.5,1.5 -1.8,2.2 -2.2,1.1 -2.3,0.2 -10.6,1.4 -10.3,-4.1 2.1,-6.5 0.3,-1.8 -0.5,-6.7 4.9,-2 9,-12.5 z" />
    <path
       style="fill:#cccccc"
       name="Velenje"
       id="SVN1001"
       d="m 558.1,205.1 10,4.2 2.1,0.1 2.6,0.8 1.7,0.8 0.2,3.1 -0.1,3.8 4.6,2.6 3.5,12.8 1.1,3 0.5,3.8 v 1.7 l -3.1,6.6 -4.7,1.1 -7.4,-5 -3.9,0.2 -2.6,1.3 -2.1,2.4 -2.7,4.9 -3.9,-2.8 -2.5,-4.4 -4.8,-3.3 -1.9,-3 -4.7,-2.4 1,-9.3 4,-6.6 1.7,-6.3 0.5,-12.2 0.9,-3.5 2.1,0.1 4.2,1.4 z" />
    <path
       style="fill:#cccccc"
       name="Vitanje"
       id="SVN1002"
       d="m 623.8,231.2 h -20.1 l -11.1,-12.6 6.8,-9.9 4.1,-10.7 2.1,-2.7 2.4,-1.6 5.3,-1.5 8.5,-0.6 3.9,2.5 -0.1,1 -3.1,2.1 -0.7,1.8 0.2,2.7 4.7,8.2 2.7,2.4 2.2,1.6 0.9,2.4 -0.6,4.2 -0.8,2.4 z" />
    <path
       style="fill:#cccccc"
       name="Zrece"
       id="SVN1007"
       d="m 625.1,179.6 1.1,5.5 2.2,2.7 2.2,3.2 5,2.3 4.4,3.1 5.1,1.3 7.8,6.2 -2,3.2 -1.3,4.6 -0.8,0.9 v 1.4 l 1.7,2.2 1.2,2.1 -0.5,1.3 -2.4,3.1 -0.3,1.3 5.1,4.4 -4.1,7.5 h -1.4 l -2,-1 -2.4,-0.6 -1.8,1 -1.9,2.1 -4.2,8.1 -6,-3.4 -3.5,-3.7 -0.6,-4.1 -1.9,-3.1 7.3,-8.3 0.8,-2.4 0.6,-4.2 -0.9,-2.4 -2.2,-1.6 -2.7,-2.4 -4.7,-8.2 -0.2,-2.7 0.7,-1.8 3.1,-2.1 0.1,-1 -3.9,-2.5 0.7,-3.3 -0.8,-2.1 -2.1,-3.1 -0.7,-5.7 z" />
    <path
       style="fill:#cccccc"
       name="Luce"
       id="SVN210"
       d="m 456.9,203.6 0.4,7.5 1.1,4.5 -0.7,4.9 -8.2,22.9 -15.7,12.8 -8.1,10.9 -6.4,0.2 -1.7,-1.9 -1.1,-4.1 -1.9,-5.1 -7.6,-10.6 -2.2,-15 9.4,0.8 18.1,-8.6 3.5,-2.6 1.7,-1.8 -1,-2.6 0.1,-3.9 4.6,-6.6 4.8,-4.5 1.8,-0.3 z" />
    <path
       style="fill:#cccccc"
       name="Bistrica ob Sotli"
       id="SVN213"
       d="m 717.4,309.1 -1.1,1.6 -5.9,11.3 -4.6,13 v 11.5 l 4.4,10.3 6.3,6.7 -5.1,4.8 -2.7,-1.5 -1.2,-4.4 0.3,-1.7 1,-1.6 -4.7,-10.3 -2.8,-1.6 -5.3,-4.6 -3.9,-0.8 -3.4,-3 3,-11.3 7,-4.4 3.6,-6.7 10.9,-11.4 z" />
    <path
       style="fill:#cccccc"
       name="Šentjur pri Celju"
       id="SVN220"
       d="m 686.8,271.8 -1.8,2.1 -1,1.5 -1.9,1.7 -3.9,5 -4.7,3.2 -3.7,1.7 -5.5,4 -3.5,4 -0.2,2.1 0.9,3.8 2.6,6.8 5.7,8.8 0.7,2.6 1.6,3.4 2.4,2.4 4.5,1.7 3.6,-1.1 3.1,-0.3 1.8,-0.6 4.2,2.9 -3,11.3 -5.7,4 -3.3,4.2 -2.6,1.4 -2.4,-0.5 -1.2,-0.7 -2,-0.3 -1,2.1 -0.6,2.7 3.2,6.6 1.9,9.2 -23.5,2 -15.8,-4.1 2.8,-5.3 0.8,-2.5 -0.3,-3.9 1.2,-4.8 2.3,0.4 2.6,-1 2.4,-2.6 2.6,-2.2 0.9,-2.2 1,-0.3 2.2,2.4 1.5,0.9 1.2,0.1 0.6,-0.7 0.9,-4.1 -0.5,-1.4 -1.2,-1.5 -2.9,-1.8 -1.2,-1.1 -2.7,-3.6 -0.5,-1.3 -2.7,-0.1 -10.3,7.5 -1.2,-6.3 2,-3.9 0.5,-4.4 -3.7,-6.2 0.3,-11.6 0.7,-2.9 -1.5,-4.3 -7,-3.1 1.3,-5.8 2.5,-2.3 1.5,-1.9 0.7,-4.4 1.7,-9 1.8,-1 2.7,-3.4 0.6,-2.2 -1.1,-1.9 -0.9,-0.8 0.9,-5 6.2,4.3 32.9,10 2,-0.3 1.8,-1 z" />
    <path
       style="fill:#cccccc"
       name="Vojnik"
       id="SVN223"
       d="m 635.8,245.5 -1.4,4.5 1.1,3 0.6,1 2.1,1.9 -0.9,5 0.9,0.8 1.1,1.9 -0.6,2.2 -2.7,3.4 -1.8,1 -1.7,9 -10.4,-5.3 -1.4,-0.6 -2.1,-0.2 -1.1,0.6 -1.7,0.2 -1.3,-0.8 -3.1,-2.9 -1.5,-4.1 -5.4,-8.4 -9.5,-6 6,-6.9 0.8,-3.3 -0.1,-4.5 0.6,-1.5 2,-2.1 -0.6,-2.2 h 20.1 l 1.9,3.1 0.6,4.1 3.5,3.7 z" />
    <path
       style="fill:#cccccc"
       name="Žalec"
       id="SVN224"
       d="m 581.2,248.4 9.4,4.7 v 14.7 l -1.2,2 -1,3.2 -0.4,1.8 0.8,3.1 -0.5,1.5 1.2,7.4 0.4,3.6 -2.4,17.3 -4,4.6 -8.7,1.7 -20,0.5 -0.7,-1.8 2.3,-0.2 2.2,-1.1 1.8,-2.2 0.5,-1.5 0.5,-3.9 0.1,-7 0.4,-2.2 0.7,-1.3 1.7,-0.8 -1.7,-2.1 -4.5,-2.5 -6.2,-6.2 1.9,-5 -0.8,-2.5 1,-2.6 2.4,-4.8 1,-2.8 0.4,-10.7 2.7,-4.9 2.1,-2.4 2.6,-1.3 3.9,-0.2 7.4,5 z" />
    <path
       style="fill:#cccccc"
       name="Dobrna"
       id="SVN239"
       d="m 603.7,231.2 0.6,2.2 -2,2.1 -0.6,1.5 0.1,4.5 -0.8,3.3 -6,6.9 -4.4,1.4 -9.4,-4.7 3.1,-6.6 v -1.7 l -0.5,-3.8 -1.1,-3 -3.5,-12.8 13.4,-1.9 z" />
    <path
       style="fill:#cccccc"
       name="Tabor"
       id="SVN240"
       d="m 535.1,295 0.5,6.7 -0.3,1.8 -2.1,6.5 -8.5,1 -5.8,-3.6 -9.2,0.5 0.5,-6.3 0.8,-3.1 11.1,-18.1 6.5,2.1 3.8,5.1 0.9,2 z" />
    <path
       style="fill:#cccccc"
       name="Vransko"
       id="SVN241"
       d="m 522.1,280.4 -11.1,18.1 -0.8,3.1 -0.5,6.3 -10.6,2.8 -2.3,-0.9 -4.7,-3.5 -1.7,-4.2 6.4,-3.8 -14.3,-9.9 4,-6.3 V 280 l 0.8,-2.1 2.4,-0.7 3.3,-0.2 2.4,-1.7 6.3,-2.6 1.5,-1.5 v -1.8 l 2.1,-0.6 4.2,-0.3 z" />
    <path
       style="fill:#cccccc"
       name="Polzela"
       id="SVN244"
       d="m 557.8,253.3 -0.4,10.7 -1,2.8 -2.4,4.8 -1,2.6 0.8,2.5 -1.9,5 -2.9,-1.2 -13.8,-22.7 2.1,-3.4 0.5,-4.7 0.2,-5.6 2,-6.7 4.7,2.4 1.9,3 4.8,3.3 2.5,4.4 z" />
    <path
       style="fill:#cccccc"
       name="Braslovce"
       id="SVN247"
       d="m 535.2,257.8 13.8,22.7 -9,12.5 -4.9,2 -1.8,-5.4 -0.9,-2 -3.8,-5.1 -6.5,-2.1 -12.6,-11.9 0.1,-8.8 4.5,-4.2 1.2,-2.2 0.5,-2.6 3.1,-4.8 2.7,-1.9 9.1,5.9 z" />
    <path
       style="fill:#cccccc"
       name="Solcava"
       id="SVN251"
       d="m 415.2,187.7 1,2.5 14.7,2.9 3.6,2.6 6.7,9.6 -4.6,6.6 -0.1,3.9 1,2.6 -1.7,1.8 -3.5,2.6 -18.1,8.6 -9.4,-0.8 -9.5,2 -4.5,0.3 -8.5,-3.4 -1.8,-9.6 -0.3,-0.9 1.5,-4 2.7,-8.9 4.7,-6.8 3,-1.2 6.9,-0.6 3.2,-1 3.3,-2.1 6.4,-6.7 1.4,-0.4 z" />
    <path
       style="fill:#cccccc"
       name="Dobje"
       id="SVN252"
       d="m 640.2,348.9 -3.8,-12.6 10.3,-7.5 2.7,0.1 0.5,1.3 2.7,3.6 1.2,1.1 2.9,1.8 1.2,1.5 0.5,1.4 -0.9,4.1 -0.6,0.7 -1.2,-0.1 -1.5,-0.9 -2.2,-2.4 -1,0.3 -0.9,2.2 -2.6,2.2 -2.4,2.6 -2.6,1 z" />
    <path
       style="fill:#cccccc"
       name="Podcetrtek"
       id="SVN255"
       d="m 738.4,379.4 -2.6,0.7 -5.3,6.2 -1.4,-2.6 -7.9,-0.1 -2.3,-0.8 -2.2,-1.7 -1.5,-1.4 -3.8,-11.4 5.1,-4.8 2.5,2.6 3.9,2.3 8.8,3.8 3.9,2.8 z" />
    <path
       style="fill:#cccccc"
       name="Celje"
       id="SVN941"
       d="m 632.5,279.2 -0.7,4.4 -1.5,1.9 -2.5,2.3 -1.3,5.8 -2.3,-0.3 -3.3,1.5 -2.5,1.7 -1.8,2.1 v 8.6 l 0.5,2.6 -2.7,2.2 -11.6,-2.2 -2.3,-1.6 -2.8,-0.1 -6.2,2.5 -3.4,-0.5 -0.6,-2.4 2.4,-17.3 -0.4,-3.6 -1.2,-7.4 0.5,-1.5 -0.8,-3.1 0.4,-1.8 1,-3.2 1.2,-2 v -14.7 l 4.4,-1.4 9.5,6 5.4,8.4 1.5,4.1 3.1,2.9 1.3,0.8 1.7,-0.2 1.1,-0.6 2.1,0.2 1.4,0.6 z" />
    <path
       style="fill:#cccccc"
       name="Gornji Grad"
       id="SVN949"
       d="m 476.8,254 3.2,6.6 -1.7,5.9 -3.1,4.2 -1.4,4.7 -0.9,7.3 -13.8,-0.7 -7.1,0.6 -11.3,-0.6 -12.4,-4 -3.2,-3 0.6,-7.9 8.1,-10.9 15.7,-12.8 5.3,-2.2 1,1.1 3.1,1.8 11.9,9.6 z" />
    <path
       style="fill:#cccccc"
       name="Kozje"
       id="SVN957"
       d="m 711.4,368.3 3.8,11.4 1.5,1.4 2.2,1.7 2.3,0.8 7.9,0.1 1.4,2.6 -13.9,10.4 -8.3,4.2 -4.5,0.2 6.4,-11.1 -1.4,-1.8 -4.5,0.6 -2.3,0.7 -1.9,0.2 -1.4,0.6 -2.5,0.2 -3.5,-12.3 -3.4,-3.9 -4.1,-3 -2.3,-0.3 -7.9,-3.5 -1.9,-9.2 -3.2,-6.6 0.6,-2.7 1,-2.1 2,0.3 1.2,0.7 2.4,0.5 2.6,-1.4 3.3,-4.2 5.7,-4 3.4,3 3.9,0.8 5.3,4.6 2.8,1.6 4.7,10.3 -1,1.6 -0.3,1.7 1.2,4.4 z" />
    <path
       style="fill:#cccccc"
       name="Laško"
       id="SVN960"
       d="m 614.4,312 0.5,3.1 -1.3,2.8 -2.5,1.8 -0.7,0.9 0.4,1.2 1.2,0.9 5.9,-0.3 16.1,-6.9 3.7,6.2 -0.5,4.4 -2,3.9 1.2,6.3 3.8,12.6 -1.2,4.8 0.3,3.9 -0.8,2.5 -2.8,5.3 -16.4,1.6 -4.5,1.8 -3.3,2.6 h -1.6 l -1,-1.3 -0.9,-4.4 -1.4,-2.1 -2.5,-1.6 -4.7,-1.7 -16,-0.2 -3.1,0.7 v 1.7 l 2.3,2.7 1.2,2.8 -0.9,2.6 -12.2,-14.5 -4.2,-2 -2.1,-2.1 -0.4,-2.2 0.9,-1.5 1.2,-0.2 3.9,2.2 3.8,1.4 3.7,-2.4 1.1,-1.6 v -2.4 l -2.6,-5.9 -2.7,-4.2 -3.9,-4.8 -7.8,-5.8 -1.2,-2.7 -5.6,-7.4 20,-0.5 8.7,-1.7 4,-4.6 0.6,2.4 3.4,0.5 6.2,-2.5 2.8,0.1 2.3,1.6 z" />
    <path
       style="fill:#cccccc"
       name="Ljubno"
       id="SVN963"
       d="m 484.6,204.3 2.9,2.8 0.4,10.9 -6.5,19 v 6.8 l -4.6,10.2 -6,-0.3 -11.9,-9.6 -3.1,-1.8 -1,-1.1 -5.3,2.2 8.2,-22.9 0.7,-4.9 -1.1,-4.5 -0.4,-7.5 z" />
    <path
       style="fill:#cccccc"
       name="Mozirje"
       id="SVN973"
       d="m 518.9,225.6 -0.4,9.8 0.5,2.7 2.6,5.9 -2.7,1.9 -3.1,4.8 -0.5,2.6 -1.2,2.2 -4.5,4.2 -1.3,-7.2 -2.1,-2.7 -1.9,-0.5 -1.9,0.9 -7.3,6.3 -15.1,4.1 -3.2,-6.6 4.6,-10.2 V 237 l 6.5,-19 11.9,-3.4 3.2,2.1 4.2,1.1 2.8,0.4 4.4,-1.1 2.5,0.6 2.1,1.9 0.7,1.8 z" />
    <path
       style="fill:#cccccc"
       name="Nazarje"
       id="SVN975"
       d="m 509.6,259.7 -0.1,8.8 -4.2,0.3 -2.1,0.6 v 1.8 l -1.5,1.5 -6.3,2.6 -2.4,1.7 -3.3,0.2 -2.4,0.7 -0.8,2.1 v 2.1 l -4,6.3 -9.6,-5.7 0.9,-7.3 1.4,-4.7 3.1,-4.2 1.7,-5.9 15.1,-4.1 7.3,-6.3 1.9,-0.9 1.9,0.5 2.1,2.7 z" />
    <path
       style="fill:#cccccc"
       name="Rogaška Slatina"
       id="SVN982"
       d="m 735.9,273 6,4.5 11.9,-0.8 -6.2,3 -1.7,1.2 -2.5,2.3 -2.2,4.6 -3.1,2 -4.3,8 -0.1,2.5 -5.3,-0.4 -6.8,3.5 -4.2,5.7 -4.2,-4.1 -1.9,-7.2 -1,-1.2 -2.3,-1.3 -3.5,-4.9 -6.3,-17.2 1.7,-2.6 1.8,-1.1 3.5,-1.1 6.6,0.1 14,4.7 z" />
    <path
       style="fill:#cccccc"
       name="Rogatec"
       id="SVN983"
       d="m 759,278.5 13.2,6.2 -3.3,2.5 -6.4,10.9 -6,3.9 -22.8,-1.7 0.1,-2.5 4.3,-8 3.1,-2 2.2,-4.6 2.5,-2.3 1.7,-1.2 6.2,-3 z" />
    <path
       style="fill:#cccccc"
       name="Slovenske Konjice"
       id="SVN992"
       d="m 678.3,233.8 6.8,4.1 2.5,0.3 2.7,2.4 2.2,5 2.3,11.5 0.9,7 -1.7,7.2 -7.2,0.5 -5.7,-2.9 -1.8,1 -2,0.3 -32.9,-10 -6.2,-4.3 -2.1,-1.9 -0.6,-1 -1.1,-3 1.4,-4.5 4.2,-8.1 1.9,-2.1 1.8,-1 2.4,0.6 2,1 h 1.4 l 4.1,-7.5 9.1,5.2 2.5,0.8 z" />
    <path
       style="fill:#cccccc"
       name="Šmarje pri Jelšah"
       id="SVN993"
       d="m 698.2,273.2 6.3,17.2 3.5,4.9 2.3,1.3 1,1.2 1.9,7.2 -10.9,11.4 -3.6,6.7 -7,4.4 -4.2,-2.9 -1.8,0.6 -3.1,0.3 -3.6,1.1 -4.5,-1.7 -2.4,-2.4 -1.6,-3.4 -0.7,-2.6 -5.7,-8.8 -2.6,-6.8 -0.9,-3.8 0.2,-2.1 3.5,-4 5.5,-4 3.7,-1.7 4.7,-3.2 3.9,-5 1.9,-1.7 1,-1.5 1.8,-2.1 7.2,-0.5 z" />
    <path
       style="fill:#cccccc"
       name="Šmartno ob Paki"
       id="SVN994"
       d="m 540,237.4 -2,6.7 -0.2,5.6 -0.5,4.7 -2.1,3.4 -4.5,-7.9 -9.1,-5.9 -2.6,-5.9 -0.5,-2.7 0.4,-9.8 4.4,5.9 8,4.1 z" />
    <path
       style="fill:#cccccc"
       name="Šoštanj"
       id="SVN995"
       d="m 547.2,203 -0.5,12.2 -1.7,6.3 -4,6.6 -1,9.3 -8.7,-1.8 -8,-4.1 -4.4,-5.9 0.8,-4.2 -0.7,-1.8 -2.1,-1.9 -2.5,-0.6 -4.4,1.1 -2.8,-0.4 -4.2,-1.1 -3.2,-2.1 -11.9,3.4 -0.4,-10.9 -2.9,-2.8 15.9,-7.5 4.4,-3.4 0.2,-5.8 13.8,6 z" />
    <path
       style="fill:#cccccc"
       name="Štore"
       id="SVN997"
       d="m 626.5,293.6 7,3.1 1.5,4.3 -0.7,2.9 -0.3,11.6 -16.1,6.9 -5.9,0.3 -1.2,-0.9 -0.4,-1.2 0.7,-0.9 2.5,-1.8 1.3,-2.8 -0.5,-3.1 2.7,-2.2 -0.5,-2.6 v -8.6 l 1.8,-2.1 2.5,-1.7 3.3,-1.5 z" />
  </g>
  <g
     id="posavska"
     style="fill:#cccccc">
    <path
       style="fill:#cccccc"
       name="Krsko"
       id="SVN939"
       d="m 703.8,401.1 -4.7,-1.7 -1.3,-1 -0.2,-2.2 -1.4,-5.7 2.5,-0.2 1.4,-0.6 1.9,-0.2 2.3,-0.7 4.5,-0.6 1.4,1.8 z" />
    <path
       style="fill:#cccccc"
       name="Brežice"
       id="SVN938"
       d="m 693.1,478.7 -1.6,-3 -7,-10.3 -1.5,-3.5 -1.6,-2.9 -1,-3.3 0.1,-3.6 1.7,-5.4 4.7,-3 3.7,-1.3 h 1.4 l 1.3,-1.2 1.9,-1 0.8,-3.9 2.5,-1.5 1,-2.8 0.7,-4.8 -0.3,-16.2 3.9,-9.9 4.5,-0.2 8.3,-4.2 13.9,-10.4 5.3,-6.2 2.6,-0.7 1.7,2.4 -1.4,4.8 -3.7,5.6 -2.5,9.3 0.9,23.4 -0.4,7.6 -1.7,5.7 -2.2,5.4 -1.3,5.4 1.4,5.8 3.7,9.2 0.2,6.5 -3.2,4.5 -6.4,3.5 -6.2,1.8 -12.3,0.4 z" />
    <path
       style="fill:#cccccc"
       name="Krško"
       id="SVN958"
       d="m 696.2,390.5 1.4,5.7 0.2,2.2 1.3,1 4.7,1.7 -3.9,9.9 0.3,16.2 -0.7,4.8 -1,2.8 -2.5,1.5 -0.8,3.9 -1.9,1 -1.3,1.2 h -1.4 l -3.7,1.3 -4.7,3 -1.7,5.4 -0.1,3.6 1,3.3 1.6,2.9 1.5,3.5 7,10.3 1.6,3 -8.3,-1.4 -3.1,1.5 -5.9,4.9 -3.1,1.1 -3.6,-0.6 -3.6,-1.2 -3.6,-0.4 -3.5,1.6 -1.5,4.3 1.3,4.7 0.5,4.4 -3.6,2.9 -1.8,-1.9 -7.3,-13.7 -0.5,-6.2 -0.9,-5.4 -0.4,-9.9 -2.3,-8.8 -8.6,-3.2 -3.3,-3.7 0.8,-3.5 0.3,-7.7 2.8,-8.4 2.7,-7.4 5.7,-8.5 11,-11.1 1.7,-3 0.1,-2.9 -0.6,-2.6 -1.7,-2.4 -1.1,-3.6 -0.8,-3.4 v -3.9 l 0.9,-2.1 0.3,-1.6 -0.6,-6.1 23.5,-2 7.9,3.5 2.3,0.3 4.1,3 3.4,3.9 z" />
    <path
       style="fill:#cccccc"
       name="Radece"
       id="SVN980"
       d="m 570.7,356.1 12.2,14.5 0.8,3.6 1.8,1.8 2.6,0.7 2.1,1 4.5,3.8 0.3,1.5 -1.7,1.4 -4.5,0.5 -24.1,-5.9 -16,1 -5,-3.8 -1,-2.3 -1.1,-5.1 5.5,-1.4 -0.4,-4.5 3.1,-0.8 1.4,-0.9 1.4,-5.6 7,3.5 z" />
    <path
       style="fill:#cccccc"
       name="Sevnica"
       id="SVN988"
       d="m 635.7,365.4 15.8,4.1 0.6,6.1 -0.3,1.6 -0.9,2.1 v 3.9 l 0.8,3.4 1.1,3.6 1.7,2.4 0.6,2.6 -0.1,2.9 -1.7,3 -11,11.1 -5.7,8.5 -2.7,7.4 -5.2,-4.4 -1.3,-3.2 -2.5,-1.3 -2.3,-0.7 -3.2,-0.6 -6.8,0.5 -1.9,1 -1,0.9 -0.5,2.9 0.5,2.3 -0.8,2.2 -1.5,-0.2 -4.2,-4 -2,-0.1 -0.7,0.5 -0.7,2.5 -5.4,2.9 0.1,3.6 -11.1,-6 -7.2,-6.4 -4.7,-5.9 -2.2,-4.5 0.3,-2.8 1,-1.9 1.4,-1.8 0.4,-2.6 -0.8,-0.8 -3,0.9 -1.7,1.3 -2.5,0.9 -2,-1 -1.3,-2.3 -5.4,-3.6 -7.2,-12.1 0.2,-4.3 16,-1 24.1,5.9 4.5,-0.5 1.7,-1.4 -0.3,-1.5 -4.5,-3.8 -2.1,-1 -2.6,-0.7 -1.8,-1.8 -0.8,-3.6 0.9,-2.6 -1.2,-2.8 -2.3,-2.7 v -1.7 l 3.1,-0.7 16,0.2 4.7,1.7 2.5,1.6 1.4,2.1 0.9,4.4 1,1.3 h 1.6 l 3.3,-2.6 4.5,-1.8 z" />
    <path
       style="fill:#cccccc"
       name="Škocjan"
       id="SVN989"
       d="m 633.9,428.1 -2.8,8.4 -0.3,7.7 -0.8,3.5 3.3,3.7 -1.7,4.3 -2.4,2 -2.1,0.6 -0.5,-1.1 -3.3,-1.7 -8.1,4.6 -0.7,-4.7 1.4,-2.9 -0.9,-1.9 -1.6,-2.3 -3.1,-3.7 -3.4,-2.4 -2.9,-1.4 -9.5,-7.9 -0.1,-3.6 5.4,-2.9 0.7,-2.5 0.7,-0.5 2,0.1 4.2,4 1.5,0.2 0.8,-2.2 -0.5,-2.3 0.5,-2.9 1,-0.9 1.9,-1 6.8,-0.5 3.2,0.6 2.3,0.7 2.5,1.3 1.3,3.2 z" />
    <path
       style="fill:#cccccc"
       name="Šentjernej"
       id="SVN987"
       d="m 655.1,500.5 -0.2,0.2 -31.1,10.3 -0.2,-1.3 -3.1,-12.3 -7.4,-11.3 -5.7,-5.9 -1.7,-4.4 -0.8,-5.4 1.6,-3.9 1.4,-2.4 7.3,-4 8.1,-4.6 3.3,1.7 0.5,1.1 2.1,-0.6 2.4,-2 1.7,-4.3 8.6,3.2 2.3,8.8 0.4,9.9 0.9,5.4 0.5,6.2 7.3,13.7 z" />
  </g>
  <g
     id="zasavska"
     style="fill:#cccccc">
    <path
       style="fill:#cccccc"
       name="Zasavska"
       id="SVN1006"
       d="m 509.7,307.9 9.2,-0.5 4.1,7.7 -2.7,2.3 -3.7,1.8 -2,2 0.5,1.1 2.3,-1 1.2,0.3 4.6,5.5 4.3,7.2 1.3,4.1 v 2.4 l -2.9,3.1 -2.3,1.2 h -1 l -3.7,-1.1 -7.5,3.1 -2.5,1.6 -2.9,3.5 -2.5,1.7 -1.4,0.5 -5.1,1 h -3.9 l -2.3,0.5 -2.5,-1.3 -3.5,-6 -0.2,-2.1 0.8,-3.6 -0.1,-1.5 -1.1,-1.4 -2.7,-0.7 -13.5,-0.1 -1.4,-3.4 1.5,-2.1 0.3,-3.4 -3.8,-5.2 -1.1,-2.6 -2.2,-1.3 0.6,-1.4 20.8,-2.5 2.2,-0.9 2.9,-5.3 -0.9,-8.1 3.5,-0.9 1.7,4.2 4.7,3.5 2.3,0.9 z" />
    <path
       style="fill:#cccccc"
       name="Dol pri Ljubljani"
       id="SVN946"
       d="m 419.8,344.8 5.2,2.6 3.9,0.7 1.8,1.7 1.5,2.7 2.7,0.6 6.1,-0.5 -1.3,3.2 -1.7,1.2 -10.2,5.1 -6.4,0.7 -2.6,-1.8 -1.9,-0.4 -6.5,2.2 -7.7,0.5 -5.6,-1.5 -6.2,-3.8 -0.5,-3.8 7.3,-0.8 3.7,-1.7 7.6,-5 4.2,-2.1 z" />
    <path
       style="fill:#cccccc"
       name="Moravce"
       id="SVN972"
       d="m 464.6,325.1 3.8,5.2 -0.3,3.4 -1.5,2.1 -9.1,9.8 -16.5,7 -6.1,0.5 -2.7,-0.6 -1.5,-2.7 -1.8,-1.7 -3.9,-0.7 -5.2,-2.6 0.7,-3.8 -1.9,-1.2 -2.6,-2.1 -0.2,-2.8 3,-2.3 8.6,-3.6 5.9,-4.8 13.4,-2.8 10.3,1.5 z" />
    <path
       style="fill:#cccccc"
       name="Hrastnik"
       id="SVN951"
       d="m 570.7,356.1 -11.1,3 -7,-3.5 -2.3,-4.4 -0.5,-1.9 -3,-2.9 -2.2,-1 -1.1,-1.5 -2,-3.5 -0.9,-1.1 -1.1,-3.3 0.2,-2.3 1.6,-3.8 4.2,-7.2 5.7,-3.8 3.6,-4.4 5.6,7.4 1.2,2.7 7.8,5.8 3.9,4.8 2.7,4.2 2.6,5.9 v 2.4 l -1.1,1.6 -3.7,2.4 -3.8,-1.4 -3.9,-2.2 -1.2,0.2 -0.9,1.5 0.4,2.2 2.1,2.1 z" />
    <path
       style="fill:#cccccc"
       name="Trbovlje"
       id="SVN952"
       d="m 533.2,310 10.3,4.1 10.6,-1.4 0.7,1.8 -3.6,4.4 -5.7,3.8 -4.2,7.2 -1.6,3.8 -0.2,2.3 1.1,3.3 0.9,1.1 2,3.5 1.1,1.5 2.2,1 3,2.9 0.5,1.9 2.3,4.4 -1.4,5.6 -1.4,0.9 -3.1,0.8 0.4,4.5 -5.5,1.4 -14.2,4.7 -3.1,0.4 -4.6,-1.3 -0.3,-2.4 -1.5,-2.9 -1.1,-6.1 -0.1,-1.8 1.5,-1.4 1.3,-2.3 0.9,-2.5 -1.5,-9.2 3.7,1.1 h 1 l 2.3,-1.2 2.9,-3.1 v -2.4 l -1.3,-4.1 -4.3,-7.2 -4.6,-5.5 -1.2,-0.3 -2.3,1 -0.5,-1.1 2,-2 3.7,-1.8 2.7,-2.3 -4.1,-7.7 5.8,3.6 z" />
    <path
       style="fill:#cccccc"
       name="Šmartno in Litiji"
       id="SVN5885"
       d="m 504.5,409.7 -4.7,4.1 -3.9,1.4 -6.9,-4.5 -8.9,-13.3 -1.9,-1.4 -1.8,-0.6 -0.7,1 -0.2,1.6 -2.2,0.4 -4.1,-0.3 -10.2,-3.3 -9.3,-0.3 -2,1 -0.8,0.8 -7.3,0.7 -0.6,-9 1.1,-2.5 -0.8,-2.8 -1.6,-2.7 -1.9,-2.1 -2,-2.7 0.6,-1.4 v -2 l 0.9,-3.4 5,-0.3 17.1,3 12.2,-6.1 6.8,1.4 7.5,7.1 7.4,9.8 7.3,6.7 4.5,11.1 z" />
    <path
       style="fill:#cccccc"
       name="Litija"
       id="SVN961"
       d="m 518.9,344 1.5,9.2 -0.9,2.5 -1.3,2.3 -1.5,1.4 0.1,1.8 1.1,6.1 1.5,2.9 0.3,2.4 4.6,1.3 3.1,-0.4 14.2,-4.7 1.1,5.1 1,2.3 5,3.8 -0.2,4.3 7.2,12.1 -4.4,-0.3 -1.6,-0.9 -2.5,0.3 -3.2,2.3 -7.7,-0.4 -4.5,0.7 -0.9,3 -0.4,3.8 -1.4,3.7 -2.5,3.3 -7.7,2.7 -5.6,-3.7 -4.4,-1 -4.4,-0.2 -1.4,-8.6 -4.5,-11.1 -7.3,-6.7 -7.4,-9.8 -7.5,-7.1 -6.8,-1.4 -12.2,6.1 -17.1,-3 -5,0.3 -3.4,-1.8 -0.6,-1.7 -3.5,-2.8 10.2,-5.1 1.7,-1.2 1.3,-3.2 16.5,-7 9.1,-9.8 1.4,3.4 13.5,0.1 2.7,0.7 1.1,1.4 0.1,1.5 -0.8,3.6 0.2,2.1 3.5,6 2.5,1.3 2.3,-0.5 h 3.9 l 5.1,-1 1.4,-0.5 2.5,-1.7 2.9,-3.5 2.5,-1.6 z" />
  </g>
  <g
     id="primorsko"
     style="fill:#cccccc">
    <path
       style="fill:#cccccc"
       name="Loška dolina"
       id="SVN209"
       d="m 372.4,519.3 6.1,19.1 0.6,5 3,6.6 0.3,1.1 -1.6,0.7 -2.5,2.7 -4,9.2 -3.3,4.9 -8,9 -2.9,4.4 -2,5.7 -0.3,2 -1,-0.5 -2.4,0.2 -2.1,-0.3 -1.9,0.7 -2.4,-0.6 -3.5,0.2 -3.3,-0.4 -0.3,-1.1 1.7,-2.1 0.1,-3.1 -0.8,-2.5 -4.2,-3.9 -1.9,-3.7 0.2,-3.2 1.1,-9.1 -0.1,-8 -2.9,-4.1 -7.4,-8.5 -2.3,-8.2 7.8,-1.2 21.5,-17.1 9.4,7.6 5.4,1 1.4,-0.6 z" />
    <path
       style="fill:#cccccc"
       name="Ilirska Bistrica"
       id="SVN954"
       d="m 337.1,560.3 -1.1,9.1 -0.2,3.2 1.9,3.7 4.2,3.9 0.8,2.5 -0.1,3.1 -1.7,2.1 0.3,1.1 3.3,0.4 3.5,-0.2 2.4,0.6 1.9,-0.7 2.1,0.3 2.4,-0.2 1,0.5 -1.3,10.2 -1.6,6.4 -4.2,7.6 -12.4,9.2 -5.9,5.5 -12.2,6.9 -14.6,1.3 -14.7,-2.8 -12.6,-5.5 -6.9,-1.7 -8.1,2.4 -15.1,7 -8.2,1.5 h -0.9 l 0.4,-3 0.1,-5.5 -2,-4.3 -1.4,-1.6 -5.8,-4.7 -0.7,-1.3 2.3,-5.9 2.6,-8.7 1,-7.1 -2,-1.2 -1.8,0.6 -1,-1.3 -0.3,-2 1.3,-5.4 1.7,-3.4 1,-3.3 0.7,-1.5 -4.6,-4.3 0.2,-4.6 3.9,0.7 2.3,-1.5 5.5,-1.9 7.7,-0.5 13.4,0.8 6.8,-0.8 3.5,-0.9 3.6,-3.3 2.7,-1.6 12.4,-4.9 9.9,-2 3.6,-2 0.8,-1.7 -0.7,-1.4 1.3,-0.6 4.6,-0.1 6.9,5.7 3,3.5 z" />
    <path
       style="fill:#cccccc"
       name="Pivka"
       id="SVN977"
       d="m 324.4,531.5 2.3,8.2 7.4,8.5 2.9,4.1 0.1,8 -15.1,-3.6 -3,-3.5 -6.9,-5.7 -4.6,0.1 -1.3,0.6 0.7,1.4 -0.8,1.7 -3.6,2 -9.9,2 -12.4,4.9 -2.7,1.6 -3.6,3.3 -3.5,0.9 -6.8,0.8 -13.4,-0.8 -7.7,0.5 -5.5,1.9 -2.3,1.5 -3.9,-0.7 -3.4,-1.6 -0.1,-0.8 1.1,-2.7 -1.6,-4.5 -1.6,-3.4 -1.2,-3 -0.2,-6.3 -1.3,-2.8 -0.6,-3.1 0.7,-3.2 2.2,-4.1 3.6,-1.8 3.3,-3.5 7.5,3.4 5.3,1.4 h 5.1 l 7.1,-1.4 9.3,-4.3 5.7,-0.4 11.7,-4.4 4.7,-3.6 16.4,-8.8 1.4,6.5 z" />
    <path
       style="fill:#cccccc"
       name="Postojna"
       id="SVN978"
       d="m 289.7,468.5 0.9,4 -6.3,16.3 -0.4,4.9 3.6,6.5 5.7,6.1 3.7,2.6 7.6,1.4 -16.4,8.8 -4.7,3.6 -11.7,4.4 -5.7,0.4 -9.3,4.3 -7.1,1.4 h -5.1 l -5.3,-1.4 -7.5,-3.4 -3.7,-9.1 -3,-4.1 -11.1,-8 2,-5.4 1.7,-2.4 1,-8.6 2.1,-5.3 -4,-12.8 14.9,-5.5 1.1,-1.3 9.3,-7.7 16.8,-3.1 6.6,1.4 7,4.4 z" />
    <path
       style="fill:#cccccc"
       name="Bloke"
       id="SVN254"
       d="m 380.9,494 -3.5,4 4,6.6 1.2,3.3 v 3.3 l 2,7.6 -6.5,0.3 -1.7,-1.6 -4,1.8 -2.5,1.9 -1.4,0.6 -5.4,-1 -9.4,-7.6 4.4,-3.6 -1.8,-3.8 -1.7,-0.7 -5.7,-4.5 -5.3,-6.3 -1.4,-2.9 v -2.2 l 1.3,-2.9 1.4,-2.2 2,-2.5 8.4,-7.1 3,-1.2 3.8,-2.4 7.8,12.7 z" />
    <path
       style="fill:#cccccc"
       name="Cerknica"
       id="SVN943"
       d="m 321.3,456.9 2.7,3 2.6,2.1 2.2,-0.4 2,-2.8 3.6,-1.6 5.8,3.6 2,-0.2 15.2,-7.9 2.5,4.7 -0.6,3.8 0.3,4.7 2.5,5 -3.8,2.4 -3,1.2 -8.4,7.1 -2,2.5 -1.4,2.2 -1.3,2.9 v 2.2 l 1.4,2.9 5.3,6.3 5.7,4.5 1.7,0.7 1.8,3.8 -4.4,3.6 -21.5,17.1 -7.8,1.2 -18.5,-14.7 -1.4,-6.5 -7.6,-1.4 -3.7,-2.6 -5.7,-6.1 -3.6,-6.5 0.4,-4.9 6.3,-16.3 -0.9,-4 7.2,-18.1 3.2,-2.5 5.2,1.8 12.4,9.1 z" />
  </g>
  <g
     id="osrednjeslovenska"
     style="fill:#cccccc">
    <path
       style="fill:#cccccc"
       name="Velike Lašče"
       id="SVN1000"
       d="m 404.9,455.4 v 5.5 l -1,4 0.6,2.1 2,0.4 2.1,0.9 5.5,4.2 5.9,8.8 -5.5,1.7 -5,4.1 -8.5,3.1 -12.9,2.2 -7.2,1.6 -11,-10.4 -7.8,-12.7 -2.5,-5 -0.3,-4.7 0.6,-3.8 -2.5,-4.7 5.6,-1.7 7.2,2.6 3.8,2.8 2.3,1 1.6,1.2 2.2,0.2 2.6,-0.1 3.6,-3.1 1.6,-3.6 -0.4,-6.4 2,0.6 0.7,-0.9 0.3,-2.1 2,-3.3 6.5,6.5 1.4,3.8 z" />
    <path
       style="fill:#cccccc"
       name="Vrhnika"
       id="SVN1004"
       d="m 317.9,414.1 -6.8,2 -2,2.9 -1.3,5.2 0.2,4.1 1,4 6.4,16.6 2,3.1 3.9,4.9 -3.6,1.9 -12.4,-9.1 -5.2,-1.8 -3.2,2.5 -4.3,-9.8 -8,-10 -6.8,-6.9 -2.8,-2 -2.1,-0.9 -1.5,0.1 -1.4,-0.9 -1.1,-2.1 0.6,-2.2 1.4,-2.7 -0.5,-3.4 1.3,-6.3 2.8,-1.8 0.4,-0.9 -7.6,-5.1 -3,-0.8 -1.9,-7.6 17,2 0.8,3.3 -2.4,1.9 0.5,1.6 1.6,1.8 6.9,3.2 2.1,0.2 0.9,-0.8 -0.2,-1.3 0.4,-1.5 1.8,-0.9 8.1,-1.5 2.2,-0.9 8.4,-2.2 5.5,-3.1 2.3,-3.1 5.9,-2.2 3.6,3.8 0.7,2.1 -0.5,3.9 -3.6,1.3 -2.3,2.5 -2.1,3.9 1,6.2 z" />
    <path
       style="fill:#cccccc"
       name="Dobrova-Polhov Gradec"
       id="SVN204"
       d="m 305.1,353.5 2.5,3.5 1.6,1.6 3.9,1.7 6.8,-3.1 11.6,3.3 2.1,0.1 1.8,0.7 1.1,1.3 2.6,7 0.7,1.1 1.7,4.7 0.3,4.3 -0.4,3.3 -3.4,2.1 -5.2,-2.7 -1.7,-0.4 -6.9,1.6 -5.9,2.2 -2.3,3.1 -5.5,3.1 0.7,-3.6 -0.4,-3.3 -1.9,-3.9 -2,-1.4 -2.4,-0.9 -12.9,-1.3 -8,1.9 -1.5,0.7 -2.9,3.8 0.2,5.1 -17,-2 0.8,-4.6 -1.9,-1.4 6.3,-10.2 0.3,-3.1 0.8,-3 0.3,-6.7 6.6,-5.4 11.2,-3 z" />
    <path
       style="fill:#cccccc"
       name="Horjul"
       id="SVN250"
       d="m 310.5,392 -8.4,2.2 -2.2,0.9 -8.1,1.5 -1.8,0.9 -0.4,1.5 0.2,1.3 -0.9,0.8 -2.1,-0.2 -6.9,-3.2 -1.6,-1.8 -0.5,-1.6 2.4,-1.9 -0.8,-3.3 -0.2,-5.1 2.9,-3.8 1.5,-0.7 8,-1.9 12.9,1.3 2.4,0.9 2,1.4 1.9,3.9 0.4,3.3 z" />
    <path
       style="fill:#cccccc"
       name="Borovnica"
       id="SVN937"
       d="m 334.4,457.2 -3.6,1.6 -2,2.8 -2.2,0.4 -2.6,-2.1 -2.7,-3 -3.9,-4.9 -2,-3.1 -6.4,-16.6 -1,-4 -0.2,-4.1 1.3,-5.2 2,-2.9 6.8,-2 1.4,6.2 4.5,5.7 2.5,2.6 3,2 h 1.7 l 1.9,1.4 0.6,1.6 -1,5.9 -0.5,4.9 -1,3.4 z" />
    <path
       style="fill:#cccccc"
       name="Brezovica"
       id="SVN940"
       d="m 338,385.1 4.5,6 3.9,2.9 0.7,1.9 -1.8,2.6 -2.8,2.6 -2.3,3.3 -0.1,3.1 3,2.7 4.5,11.8 -0.1,5 1.6,7.6 0.9,6.6 7.4,11.5 -15.2,7.9 -2,0.2 -5.8,-3.6 -3.4,-9.4 1,-3.4 0.5,-4.9 1,-5.9 -0.6,-1.6 -1.9,-1.4 h -1.7 l -3,-2 -2.5,-2.6 -4.5,-5.7 -1.4,-6.2 3.1,-6.8 -1,-6.2 2.1,-3.9 2.3,-2.5 3.6,-1.3 0.5,-3.9 -0.7,-2.1 -3.6,-3.8 6.9,-1.6 1.7,0.4 z" />
    <path
       style="fill:#cccccc"
       name="Logatec"
       id="SVN964"
       d="m 262.4,387.1 1.9,7.6 3,0.8 7.6,5.1 -0.4,0.9 -2.8,1.8 -1.3,6.3 0.5,3.4 -1.4,2.7 -0.6,2.2 1.1,2.1 1.4,0.9 1.5,-0.1 2.1,0.9 2.8,2 6.8,6.9 8,10 4.3,9.8 -7.2,18.1 -17.3,-7.6 -7,-4.4 -6.6,-1.4 -16.8,3.1 -1.6,-4.6 -3.8,-10.3 -1.5,-2.2 -1.1,-3.5 -0.1,-3.5 0.4,-4 2.2,-4.3 2,-5.3 0.4,-4.6 -0.7,-2.1 -1.4,-0.5 -0.3,-0.9 0.7,-1.8 3.1,-2.5 2.6,-2.7 2.7,-3.5 0.4,-6.2 10.3,-6.6 5,-8 1.9,1.4 z" />
    <path
       style="fill:#cccccc"
       name="Vodice"
       id="SVN1003"
       d="m 360.7,305.6 7.6,11.8 4.2,1.4 -0.3,5.8 -2.9,2.1 -1.2,3 -3.2,2.2 -8.4,2.7 -3.5,0.3 -2.2,-2.1 -3.4,-22.8 2.8,-2.6 -1.5,-3.3 z" />
    <path
       style="fill:#cccccc"
       name="Kamnik"
       id="SVN206"
       d="m 404.8,230.6 2.2,15 7.6,10.6 1.9,5.1 1.1,4.1 1.7,1.9 6.4,-0.2 -0.6,7.9 3.2,3 12.4,4 11.3,0.6 7.1,-0.6 13.8,0.7 9.6,5.7 14.3,9.9 -6.4,3.8 -3.5,0.9 -35.8,4 -5.1,1.8 h -6.7 l -4.3,-0.8 -6.1,-2.1 -10.4,1.4 -8,-3.4 -1.9,0.2 -2,0.7 -2,1.1 -2.3,2.3 -7.1,4 -6.1,-0.3 -3.3,-1.5 0.9,-2.6 -4,-7.7 -1.5,-6 -4,-7 3.6,-1.8 1.4,-2.9 0.5,-3.6 -3.6,-6 -1.7,-1.9 -0.9,-4.9 -2.1,-4.3 0.1,-6.1 2.8,-4.3 -2.7,-7 0.7,-4.4 -0.4,-3 -3,-3.5 10.4,-3.9 8.5,3.4 4.5,-0.3 z" />
    <path
       style="fill:#cccccc"
       name="Komenda"
       id="SVN225"
       d="m 386.7,307.8 -14.2,11 -4.2,-1.4 -7.6,-11.8 16.5,-18.5 4,7 1.5,6 z" />
    <path
       style="fill:#cccccc"
       name="Medvode"
       id="SVN967"
       d="m 350.8,332.8 -2.8,4.3 -4.5,2.6 h -4.2 l -2,0.9 -1.3,1.5 -0.6,2.6 1.2,0.9 1.1,3.1 1,1.9 2.1,3.3 -0.7,0.8 -1.6,0.6 -7,5.2 -11.6,-3.3 -6.8,3.1 -3.9,-1.7 -1.6,-1.6 -2.5,-3.5 1.7,-6.9 -0.8,-2.4 0.9,-3.8 2.2,-3.5 6.2,-5 3.7,-0.8 2.7,-1.4 2.1,-3.6 3.1,-1 6.5,-4.7 -1,-2 -1.5,-7.7 16.5,-0.7 z" />
    <path
       style="fill:#cccccc"
       name="Mengeš"
       id="SVN968"
       d="m 389.1,311.9 -2.1,5.8 2,13.2 -22,7 -2.1,-6 3.2,-2.2 1.2,-3 2.9,-2.1 0.3,-5.8 14.2,-11 -0.9,2.6 z" />
    <path
       style="fill:#cccccc"
       name="Ig"
       id="SVN953"
       d="m 371.1,402.8 6.5,8.2 1.9,7.8 0.5,5.3 -1.5,10.2 2.2,2.8 0.4,2.1 -0.2,2.6 0.7,1.2 5.9,2.6 0.4,6.4 -1.6,3.6 -3.6,3.1 -2.6,0.1 -2.2,-0.2 -1.6,-1.2 -2.3,-1 -3.8,-2.8 -7.2,-2.6 -5.6,1.7 -7.4,-11.5 -0.9,-6.6 -1.6,-7.6 0.1,-5 -4.5,-11.8 9.3,-4.1 1.9,-4 7.1,-2.7 3.3,-0.1 z" />
    <path
       style="fill:#cccccc"
       name="Grosuplje"
       id="SVN950"
       d="m 436.6,399.2 -2.2,7.3 -5,7.5 -0.8,6 1.1,0.2 3.3,1.3 1.4,1 0.2,1.1 -0.5,1.6 1.4,6.4 4.3,8.8 -0.1,2.1 -0.8,2.8 v 2.1 l 1.4,4.2 -6.5,3.1 h -2.6 l -12.2,-4.3 -2.1,-1.3 -2,-0.7 -2.3,0.7 -1.5,2.5 -6.2,3.8 -4.5,-5.2 -1.4,-3.8 -6.5,-6.5 -3,-9.1 1.2,-14.4 -0.2,-3.8 -1.2,-5.2 2.1,-3.5 2,-1.8 0.9,0.1 3,-2.3 4.6,3.4 9.5,-0.3 5.1,-2.9 1.9,-1.9 1.2,-2.2 4.7,-2.6 2.7,-0.1 1.7,0.8 3,2.5 z" />
    <path
       style="fill:#cccccc"
       name="Domžale"
       id="SVN205"
       d="m 418.5,307.3 -6.2,6.2 -3.5,7 -0.6,2.6 0.3,1.5 2.2,1 1.9,2.5 3.7,1.4 2.5,3.1 -3,2.3 0.2,2.8 2.6,2.1 1.9,1.2 -0.7,3.8 -6.6,-0.2 -4.2,2.1 -7.6,5 -3.7,1.7 -7.3,0.8 -0.7,-4 -7.2,-1.1 0.5,-7.6 1.5,-4.6 4.5,-6 -2,-13.2 2.1,-5.8 6.1,0.3 7.1,-4 2.3,-2.3 2,-1.1 2,-0.7 1.9,-0.2 z" />
    <path
       style="fill:#cccccc"
       name="Trzin"
       id="SVN236"
       d="m 382.5,349.1 -9.4,-3.8 -6.1,-7.4 22,-7 -4.5,6 -1.5,4.6 z" />
    <path
       style="fill:#cccccc"
       name="Lukovica"
       id="SVN966"
       d="m 464.6,325.1 -7.6,-2.2 -10.3,-1.5 -13.4,2.8 -5.9,4.8 -8.6,3.6 -2.5,-3.1 -3.7,-1.4 -1.9,-2.5 -2.2,-1 -0.3,-1.5 0.6,-2.6 3.5,-7 6.2,-6.2 10.4,-1.4 6.1,2.1 4.3,0.8 h 6.7 l 5.1,-1.8 35.8,-4 0.9,8.1 -2.9,5.3 -2.2,0.9 -20.8,2.5 -0.6,1.4 2.2,1.3 z" />
    <path
       style="fill:#cccccc"
       name="Ljubljana"
       id="SVN962"
       d="m 367,337.9 6.1,7.4 9.4,3.8 7.2,1.1 0.7,4 0.5,3.8 6.2,3.8 5.6,1.5 7.7,-0.5 6.5,-2.2 1.9,0.4 2.6,1.8 6.4,-0.7 3.5,2.8 0.6,1.7 3.4,1.8 -0.9,3.4 v 2 l -0.6,1.4 2,2.7 1.9,2.1 1.6,2.7 0.8,2.8 -1.1,2.5 0.6,9 -3,2.2 -4.9,-2.6 -3,-2.5 -1.7,-0.8 -2.7,0.1 -4.7,2.6 -1.2,2.2 -1.9,1.9 -5.1,2.9 -9.5,0.3 -4.6,-3.4 -9.2,-8.6 -7.6,-1.5 -6.7,1.1 -2.1,1.5 0.2,4.3 -0.8,6.1 -6.4,-3.5 -3.3,0.1 -7.1,2.7 -1.9,4 -9.3,4.1 -3,-2.7 0.1,-3.1 2.3,-3.3 2.8,-2.6 1.8,-2.6 -0.7,-1.9 -3.9,-2.9 -4.5,-6 3.4,-2.1 0.4,-3.3 -0.3,-4.3 -1.7,-4.7 -0.7,-1.1 -2.6,-7 -1.1,-1.3 -1.8,-0.7 -2.1,-0.1 7,-5.2 1.6,-0.6 0.7,-0.8 -2.1,-3.3 -1,-1.9 -1.1,-3.1 -1.2,-0.9 0.6,-2.6 1.3,-1.5 2,-0.9 h 4.2 l 4.5,-2.6 2.8,-4.3 2.2,2.1 3.5,-0.3 8.4,-2.7 z" />
    <path
       style="fill:#cccccc"
       name="Škofljica"
       id="SVN990"
       d="m 397.3,399.9 -3,2.3 -0.9,-0.1 -2,1.8 -2.1,3.5 1.2,5.2 0.2,3.8 -1.2,14.4 3,9.1 -2,3.3 -0.3,2.1 -0.7,0.9 -2,-0.6 -5.9,-2.6 -0.7,-1.2 0.2,-2.6 -0.4,-2.1 -2.2,-2.8 1.5,-10.2 -0.5,-5.3 -1.9,-7.8 -6.5,-8.2 0.8,-6.1 -0.2,-4.3 2.1,-1.5 6.7,-1.1 7.6,1.5 z" />
  </g>
  <g
     id="jugovzhodna"
     style="fill:#cccccc">
    <path
       style="fill:#cccccc"
       name="Sodražica"
       id="SVN248"
       d="m 406.9,531.5 -3.7,-5.9 -1.6,-1.9 -3.2,-1.9 -6.5,-0.3 -7.3,-2.7 -2,-7.6 v -3.3 l -1.2,-3.3 -4,-6.6 3.5,-4 7.2,-1.6 4,3.6 3,1.7 4.5,1.1 6.5,2.2 6.1,1.2 3.8,2 0.9,3.6 -0.2,4.1 -4.3,12.5 -2,3.9 z" />
    <path
       style="fill:#cccccc"
       name="Kocevje"
       id="SVN207"
       d="m 513.2,504.8 0.5,7.8 -1.1,3.5 -2.6,13.5 1.5,4 1.4,2.8 6,6.7 6.4,7.7 1.4,7.9 4.1,7.3 6,11.1 5.4,2.2 2.1,5.5 -0.3,2.7 1.4,4.2 v 5 l 1.7,2.3 3.7,3.6 v 2 l -1.1,0.6 -2.2,-0.7 -2.6,1.8 -2.8,3.7 -1.1,5.2 1.1,2.6 2.1,1.1 3.4,-0.9 3.5,-1.3 3.6,-0.4 2.5,1.7 0.1,2.2 -1,1.3 -4.5,1.1 -3.5,1.8 -1.9,1.5 -3.8,4.6 -2.7,6.8 -3.2,-2.7 -15.4,-0.4 -3.2,-2.9 -3.5,-1.7 -2.9,-0.4 -3.8,-8.9 -6.8,-6.3 -1.9,-0.4 -2.5,0.4 -5.1,1.5 -3.8,0.3 -5.2,-1.2 -4.8,-2.8 -1.8,-0.4 -2,0.6 -3.1,2.6 -0.8,1.7 -0.8,3 -1.5,4.2 -1,1.2 -1.4,0.9 -4.4,-0.7 -6.8,-8 -12.5,-11.8 -5.4,-3.9 -2,-3.6 -0.4,-1.7 0.5,-0.8 0.1,-2.1 -1.1,-1.8 -2,-9.6 -4.1,-14.1 5,-4.4 1.6,-4.2 7.3,3.4 5.1,-1 2.2,-3.1 3.3,-6.7 0.4,-4.9 10.4,-24.4 -8.4,-6.9 5.7,-6.6 h 4.2 l 2.8,-1.3 3.4,0.4 5,1.8 2.3,1.6 2.4,3.7 5.9,-0.5 9.7,-10.9 4.1,-1.1 z" />
    <path
       style="fill:#cccccc"
       name="Novo Mesto"
       id="SVN212"
       d="m 615.2,460.1 -7.3,4 -1.4,2.4 -1.6,3.9 0.8,5.4 1.7,4.4 5.7,5.9 7.4,11.3 3.1,12.3 0.2,1.3 -8.6,2.9 -12.8,7.2 -2.7,3.1 -1.6,4.4 -6.9,5 -11.8,8.3 -2,0.6 -4.1,0.4 -4.9,-0.4 -9.5,0.6 -7.4,-1.2 0.9,-3.7 4,-2.7 1.1,-1.7 0.7,-2 -0.9,-2.2 -2.2,-3.1 -10.6,-11.7 -0.4,-2.2 -1.1,-2.4 -4.2,-6.4 -1.5,-5.7 8.9,-11.4 3.2,-1.9 1.6,-2.3 2.5,-0.7 1.1,-1.6 1.8,-4 0.6,-3.1 -0.5,-3 0.5,-0.6 h 1.6 l 1.1,-0.5 2.1,-1.9 3,-11 12.6,2.7 3.8,-1.1 4.2,-1.8 2.5,-2.7 3.5,-7.3 -0.6,-4.1 0.2,-2 3.5,-6.9 9.5,7.9 2.9,1.4 3.4,2.4 3.1,3.7 1.6,2.3 0.9,1.9 -1.4,2.9 z" />
    <path
       style="fill:#cccccc"
       name="Ribnica"
       id="SVN218"
       d="m 454.2,515.3 8.4,6.9 -10.4,24.4 -0.4,4.9 -3.3,6.7 -2.2,3.1 -5.1,1 -7.3,-3.4 1.1,-2.3 v -3.3 l -1.2,-3.6 -3.4,-1.1 -4,-2.6 -10,-3.5 -2.9,-2.8 -6.6,-8.2 3.5,-3.2 2,-3.9 4.3,-12.5 0.2,-4.1 -0.9,-3.6 -3.8,-2 -6.1,-1.2 -6.5,-2.2 -4.5,-1.1 -3,-1.7 -4,-3.6 12.9,-2.2 8.5,-3.1 5,-4.1 5.5,-1.7 z" />
    <path
       style="fill:#cccccc"
       name="Žužemberk"
       id="SVN238"
       d="m 530.7,470.9 3.7,6.7 1.2,1.1 10.6,8 -8.9,11.4 -7.8,-0.1 -5.8,-1.6 -3.6,1.1 -2.3,1.2 -4.6,6.1 -13.5,-2.4 -4.1,1.1 -9.7,10.9 -5.9,0.5 -2.4,-3.7 -2.3,-1.6 -5,-1.8 -3.4,-0.4 -2.8,1.3 h -4.2 l -3.1,-8 -0.4,-2.3 0.6,-7.8 6.3,-0.2 4,0.9 3.8,-1.7 2.1,-3.7 0.2,-7.8 -1.9,-6.8 -0.9,-2.3 v -2.7 l 1,-1.3 8.2,-1.5 0.2,-5.7 16.6,-0.5 2.9,0.9 3.2,2.3 1.3,2.1 0.6,2.6 1.3,2.4 2.6,1.9 3.8,0.8 6.6,-3.2 4.9,2 1.3,2.3 2,0.8 z" />
    <path
       style="fill:#cccccc"
       name="Mirna Pec"
       id="SVN242"
       d="m 564.8,456.1 -3,11 -2.1,1.9 -1.1,0.5 H 557 l -0.5,0.6 0.5,3 -0.6,3.1 -1.8,4 -1.1,1.6 -2.5,0.7 -1.6,2.3 -3.2,1.9 -10.6,-8 -1.2,-1.1 -3.7,-6.7 0.2,-9.2 1.8,-2.7 2.2,-2.6 3.2,-2.4 4.4,-1 2.7,-0.8 1.8,-2 1.7,-3 1.1,-0.8 1.4,-0.1 1.1,1.4 2.1,1.5 1.6,1.9 1.9,1.2 1.6,1.5 z" />
    <path
       style="fill:#cccccc"
       name="Kostel"
       id="SVN245"
       d="m 511.7,629.2 -4.6,-0.6 -5.5,-5.2 -7.2,-4.7 -5.8,0.3 -1.1,9.6 -6.1,10.5 -13.5,4.9 -13.2,-2.8 -5,-12.6 -0.1,-0.1 -29.4,-13 -6.3,-5.4 -0.1,-2.3 1.1,-8 -0.6,-3.5 -1.9,-2.6 5.3,-2.7 13.7,-9.4 2,9.6 1.1,1.8 -0.1,2.1 -0.5,0.8 0.4,1.7 2,3.6 5.4,3.9 12.5,11.8 6.8,8 4.4,0.7 1.4,-0.9 1,-1.2 1.5,-4.2 0.8,-3 0.8,-1.7 3.1,-2.6 2,-0.6 1.8,0.4 4.8,2.8 5.2,1.2 3.8,-0.3 5.1,-1.5 2.5,-0.4 1.9,0.4 6.8,6.3 z" />
    <path
       style="fill:#cccccc"
       name="Dolenjske Toplice"
       id="SVN249"
       d="m 537.3,498.1 1.5,5.7 4.2,6.4 1.1,2.4 0.4,2.2 10.6,11.7 2.2,3.1 0.9,2.2 -0.7,2 -1.1,1.7 -4,2.7 -0.9,3.7 -5.8,-0.8 -3.7,1.8 -2.9,3.1 -5.9,8.3 -1.3,2.6 -1.1,9.1 -4.1,-7.3 -1.4,-7.9 -6.4,-7.7 -6,-6.7 -1.4,-2.8 -1.5,-4 2.6,-13.5 1.1,-3.5 -0.5,-7.8 4.6,-6.1 2.3,-1.2 3.6,-1.1 5.8,1.6 z" />
    <path
       style="fill:#cccccc"
       name="Dobrepolje"
       id="SVN253"
       d="m 440.3,451.6 5.1,7.5 -0.2,1.3 -2.2,5.9 -0.5,6.2 1.7,2.5 2.2,4 3.4,3.6 0.9,3.1 6.3,4.9 -0.6,7.8 0.4,2.3 3.1,8 -5.7,6.6 -34.2,-34 -5.9,-8.8 -5.5,-4.2 -2.1,-0.9 -2,-0.4 -0.6,-2.1 1,-4 v -5.5 l 6.2,-3.8 1.5,-2.5 2.3,-0.7 2,0.7 2.1,1.3 12.2,4.3 h 2.6 z" />
    <path
       style="fill:#cccccc"
       name="Crnomelj"
       id="SVN945"
       d="m 590.2,576.5 -0.4,3.7 4.9,1.7 3.1,-0.9 1.3,0.7 -0.1,1.1 1,2.3 1.7,3.1 3,2.8 3,1.4 0.6,0.7 0.2,0.4 1.9,11.8 2.5,9.8 4.6,7.7 15.9,10.8 -3,2.7 -5.7,7.9 -2.8,2.6 -3.5,1.1 -10.3,-0.2 -30.8,11.4 -14.3,-2 -23.1,-19.8 2.7,-6.8 3.8,-4.6 1.9,-1.5 3.5,-1.8 4.5,-1.1 1,-1.3 -0.1,-2.2 -2.5,-1.7 -3.6,0.4 -3.5,1.3 -3.4,0.9 -2.1,-1.1 -1.1,-2.6 1.1,-5.2 2.8,-3.7 2.6,-1.8 2.2,0.7 1.1,-0.6 v -2 l -3.7,-3.6 -1.7,-2.3 v -5 l -1.4,-4.2 0.3,-2.7 -2.1,-5.5 10.1,3.4 8.8,-0.8 2.6,-0.9 1.5,-1.1 1.5,-2.6 1.6,-1.8 5.7,-3.2 4.7,0.2 5.7,1.1 z" />
    <path
       style="fill:#cccccc"
       name="Loški Potok"
       id="SVN965"
       d="m 384.6,518.8 7.3,2.7 6.5,0.3 3.2,1.9 1.6,1.9 3.7,5.9 6.6,8.2 2.9,2.8 10,3.5 4,2.6 3.4,1.1 1.2,3.6 v 3.3 l -1.1,2.3 -1.6,4.2 -5,4.4 4.1,14.1 -13.7,9.4 -5.3,2.7 -4.3,-2.1 -10.8,-8.7 -4.1,-4.3 -3,-5.7 -0.2,-6.1 0.3,-8.3 -0.7,-7 -3.4,-2 -3.8,1.6 -0.3,-1.1 -3,-6.6 -0.6,-5 -6.1,-19.1 4,-1.8 1.7,1.6 z" />
    <path
       style="fill:#cccccc"
       name="Metlika"
       id="SVN969"
       d="m 608.3,593.1 -0.6,-0.7 -3,-1.4 -3,-2.8 -1.7,-3.1 -1,-2.3 0.1,-1.1 -1.3,-0.7 -3.1,0.9 -4.9,-1.7 0.4,-3.7 3.6,-0.2 1.7,-0.9 2.3,-1.9 3.1,-3.1 0.9,-1.8 1.1,-3.3 1,-1.4 1.2,-0.9 2.3,-0.2 1.4,-2.3 0.2,-3 -3.1,-5.9 -3.1,-4.5 -4.4,-3.7 -4,-8.9 -0.6,-0.8 -2.6,-0.1 6.9,-5 -0.3,0.9 0.6,1.9 2.3,1.2 3.1,3 3.1,6.1 1.7,2.2 2.8,2.1 4.1,1.5 1.3,-0.9 0.5,-1.8 1.4,-1.2 3.8,-1.1 1.2,-0.6 1,0.9 5.7,6.6 5.2,8.6 1.7,4 h -6.5 l -4.4,1.5 -4,2.1 -9.3,3 -1.8,3.4 -1.2,3.5 -2.1,1.9 -4,2.1 0.3,3.7 2.3,4.9 z" />
    <path
       style="fill:#cccccc"
       name="Semic"
       id="SVN984"
       d="m 590.2,576.5 -5.8,-2.9 -5.7,-1.1 -4.7,-0.2 -5.7,3.2 -1.6,1.8 -1.5,2.6 -1.5,1.1 -2.6,0.9 -8.8,0.8 -10.1,-3.4 -5.4,-2.2 -6,-11.1 1.1,-9.1 1.3,-2.6 5.9,-8.3 2.9,-3.1 3.7,-1.8 5.8,0.8 7.4,1.2 9.5,-0.6 4.9,0.4 4.1,-0.4 2,-0.6 11.8,-8.3 2.6,0.1 0.6,0.8 4,8.9 4.4,3.7 3.1,4.5 3.1,5.9 -0.2,3 -1.4,2.3 -2.3,0.2 -1.2,0.9 -1,1.4 -1.1,3.3 -0.9,1.8 -3.1,3.1 -2.3,1.9 -1.7,0.9 z" />
    <path
       style="fill:#cccccc"
       name="Ivancna Gorica"
       id="SVN955"
       d="m 495.9,415.2 -5.9,6.3 -6.3,3.6 -2.2,4 -1,3.5 -1.5,11.9 -1.7,5.2 0.9,4.5 1.8,3.6 -0.2,5.7 -8.2,1.5 -1,1.3 v 2.7 l 0.9,2.3 1.9,6.8 -0.2,7.8 -2.1,3.7 -3.8,1.7 -4,-0.9 -6.3,0.2 -6.3,-4.9 -0.9,-3.1 -3.4,-3.6 -2.2,-4 -1.7,-2.5 0.5,-6.2 2.2,-5.9 0.2,-1.3 -5.1,-7.5 -1.4,-4.2 v -2.1 l 0.8,-2.8 0.1,-2.1 -4.3,-8.8 -1.4,-6.4 0.5,-1.6 -0.2,-1.1 -1.4,-1 -3.3,-1.3 -1.1,-0.2 0.8,-6 5,-7.5 2.2,-7.3 3,-2.2 7.3,-0.7 0.8,-0.8 2,-1 9.3,0.3 10.2,3.3 4.1,0.3 2.2,-0.4 0.2,-1.6 0.7,-1 1.8,0.6 1.9,1.4 8.9,13.3 z" />
    <path
       style="fill:#cccccc"
       name="Trebnje"
       id="SVN999"
       d="m 555.7,396.4 5.4,3.6 1.3,2.3 2,1 2.5,-0.9 1.7,-1.3 3,-0.9 0.8,0.8 -0.4,2.6 -1.4,1.8 -1,1.9 -0.3,2.8 2.2,4.5 4.7,5.9 7.2,6.4 11.1,6 -3.5,6.9 -0.2,2 0.6,4.1 -3.5,7.3 -2.5,2.7 -4.2,1.8 -3.8,1.1 -12.6,-2.7 -5.3,-2.3 -1.6,-1.5 -1.9,-1.2 -1.6,-1.9 -2.1,-1.5 -1.1,-1.4 -1.4,0.1 -1.1,0.8 -1.7,3 -1.8,2 -2.7,0.8 -4.4,1 -3.2,2.4 -2.2,2.6 -1.8,2.7 -0.2,9.2 -3.6,1.3 -2,-0.8 -1.3,-2.3 -4.9,-2 -6.6,3.2 -3.8,-0.8 -2.6,-1.9 -1.3,-2.4 -0.6,-2.6 -1.3,-2.1 -3.2,-2.3 -2.9,-0.9 -16.6,0.5 -1.8,-3.6 -0.9,-4.5 1.7,-5.2 1.5,-11.9 1,-3.5 2.2,-4 6.3,-3.6 5.9,-6.3 3.9,-1.4 4.7,-4.1 4.4,0.2 4.4,1 5.6,3.7 7.7,-2.7 2.5,-3.3 1.4,-3.7 0.4,-3.8 0.9,-3 4.5,-0.7 7.7,0.4 3.2,-2.3 2.5,-0.3 1.6,0.9 z" />
  </g>
  <circle
     cx="257.5"
     cy="597.8"
     id="0" />
  <circle
     cx="410"
     cy="481.2"
     id="1" />
  <circle
     cx="629.8"
     cy="245.8"
     id="2" />
  <ellipse
     ry="6.9658175"
     rx="6.9658179"
     cy="376.12039"
     cx="360.83194"
     id="ljubljana"
     style="fill:#003752;fill-opacity:1;fill-rule:evenodd;stroke-width:1.06836" />
  <ellipse
     style="fill:#003752;fill-opacity:1;fill-rule:evenodd;stroke-width:1.06836"
     id="maribor"
     cx="723.95239"
     cy="146.58911"
     rx="6.9658179"
     ry="6.9658175" />
  <ellipse
     style="fill:#003752;fill-opacity:1;fill-rule:evenodd;stroke-width:1.06836"
     id="novo-mesto"
     cx="567.4707"
     cy="495.52518"
     rx="6.9658179"
     ry="6.9658175" />
  <ellipse
     ry="6.9658175"
     rx="6.9658179"
     cy="620.53058"
     cx="120.50888"
     id="koper"
     style="fill:#003752;fill-opacity:1;fill-rule:evenodd;stroke-width:1.06836" />
  <ellipse
     ry="6.9658175"
     rx="6.9658179"
     cy="419.9823"
     cx="90.831306"
     id="nova-gorica"
     style="fill:#003752;fill-opacity:1;fill-rule:evenodd;stroke-width:1.06836" />
  <ellipse
     ry="6.9658175"
     rx="6.9658179"
     cy="313.86258"
     cx="335.44623"
     id="kranj"
     style="fill:#003752;fill-opacity:1;fill-rule:evenodd;stroke-width:1.06836" />
  <ellipse
     ry="6.9658175"
     rx="6.9658179"
     cy="209.5415"
     cx="793.20001"
     id="ptuj"
     style="fill:#003752;fill-opacity:1;fill-rule:evenodd;stroke-width:1.06836" />
  <ellipse
     ry="6.9658175"
     rx="6.9658179"
     cy="284.18503"
     cx="582.75922"
     id="celje"
     style="fill:#003752;fill-opacity:1;fill-rule:evenodd;stroke-width:1.06836" />
</svg>
