<?xml version="1.0" encoding="UTF-8" standalone="no"?>
<svg
   xmlns:dc="http://purl.org/dc/elements/1.1/"
   xmlns:cc="http://creativecommons.org/ns#"
   xmlns:rdf="http://www.w3.org/1999/02/22-rdf-syntax-ns#"
   xmlns:svg="http://www.w3.org/2000/svg"
   xmlns="http://www.w3.org/2000/svg"
   xmlns:sodipodi="http://sodipodi.sourceforge.net/DTD/sodipodi-0.dtd"
   xmlns:inkscape="http://www.inkscape.org/namespaces/inkscape"
   inkscape:version="1.0 (4035a4fb49, 2020-05-01)"
   sodipodi:docname="map.svg"
   id="svg410"
   width="1000"
   viewbox="0 0 1000 661"
   version="1.2"
   stroke-width="2"
   stroke-linejoin="round"
   stroke-linecap="round"
   stroke="#ffffff"
   height="661"
   fill="#7c7c7c"
   baseprofile="tiny">
  <metadata
     id="metadata416">
    <rdf:RDF>
      <cc:Work
         rdf:about="">
        <dc:format>image/svg+xml</dc:format>
        <dc:type
           rdf:resource="http://purl.org/dc/dcmitype/StillImage" />
      </cc:Work>
    </rdf:RDF>
  </metadata>
  <defs
     id="defs414" />
  <sodipodi:namedview
     inkscape:current-layer="svg410"
     inkscape:window-maximized="1"
     inkscape:window-y="-8"
     inkscape:window-x="-8"
     inkscape:cy="339.4932"
     inkscape:cx="500"
     inkscape:zoom="1.1119516"
     showgrid="false"
     id="namedview412"
     inkscape:window-height="1137"
     inkscape:window-width="1920"
     inkscape:pageshadow="2"
     inkscape:pageopacity="0"
     guidetolerance="10"
     gridtolerance="10"
     objecttolerance="10"
     borderopacity="1"
     bordercolor="#666666"
     pagecolor="#ffffff" />
  <path
     style="fill:#cccccc"
     name="Velike Lašče"
     id="SVN1000"
     d="M404.9 455.4l0 5.5-1 4 0.6 2.1 2 0.4 2.1 0.9 5.5 4.2 5.9 8.8-5.5 1.7-5 4.1-8.5 3.1-12.9 2.2-7.2 1.6-11-10.4-7.8-12.7-2.5-5-0.3-4.7 0.6-3.8-2.5-4.7 5.6-1.7 7.2 2.6 3.8 2.8 2.3 1 1.6 1.2 2.2 0.2 2.6-0.1 3.6-3.1 1.6-3.6-0.4-6.4 2 0.6 0.7-0.9 0.3-2.1 2-3.3 6.5 6.5 1.4 3.8 4.5 5.2z" />
  <path
     style="fill:#cccccc"
     name="Velenje"
     id="SVN1001"
     d="M558.1 205.1l10 4.2 2.1 0.1 2.6 0.8 1.7 0.8 0.2 3.1-0.1 3.8 4.6 2.6 3.5 12.8 1.1 3 0.5 3.8 0 1.7-3.1 6.6-4.7 1.1-7.4-5-3.9 0.2-2.6 1.3-2.1 2.4-2.7 4.9-3.9-2.8-2.5-4.4-4.8-3.3-1.9-3-4.7-2.4 1-9.3 4-6.6 1.7-6.3 0.5-12.2 0.9-3.5 2.1 0.1 4.2 1.4 3.7 4.1z" />
  <path
     style="fill:#cccccc"
     name="Vitanje"
     id="SVN1002"
     d="M623.8 231.2l-20.1 0-11.1-12.6 6.8-9.9 4.1-10.7 2.1-2.7 2.4-1.6 5.3-1.5 8.5-0.6 3.9 2.5-0.1 1-3.1 2.1-0.7 1.8 0.2 2.7 4.7 8.2 2.7 2.4 2.2 1.6 0.9 2.4-0.6 4.2-0.8 2.4-7.3 8.3z" />
  <path
     style="fill:#cccccc"
     name="Vodice"
     id="SVN1003"
     d="M360.7 305.6l7.6 11.8 4.2 1.4-0.3 5.8-2.9 2.1-1.2 3-3.2 2.2-8.4 2.7-3.5 0.3-2.2-2.1-3.4-22.8 2.8-2.6-1.5-3.3 12 1.5z" />
  <path
     style="fill:#cccccc"
     name="Vrhnika"
     id="SVN1004"
     d="M317.9 414.1l-6.8 2-2 2.9-1.3 5.2 0.2 4.1 1 4 6.4 16.6 2 3.1 3.9 4.9-3.6 1.9-12.4-9.1-5.2-1.8-3.2 2.5-4.3-9.8-8-10-6.8-6.9-2.8-2-2.1-0.9-1.5 0.1-1.4-0.9-1.1-2.1 0.6-2.2 1.4-2.7-0.5-3.4 1.3-6.3 2.8-1.8 0.4-0.9-7.6-5.1-3-0.8-1.9-7.6 17 2 0.8 3.3-2.4 1.9 0.5 1.6 1.6 1.8 6.9 3.2 2.1 0.2 0.9-0.8-0.2-1.3 0.4-1.5 1.8-0.9 8.1-1.5 2.2-0.9 8.4-2.2 5.5-3.1 2.3-3.1 5.9-2.2 3.6 3.8 0.7 2.1-0.5 3.9-3.6 1.3-2.3 2.5-2.1 3.9 1 6.2-3.1 6.8z" />
  <path
     style="fill:#cccccc"
     name="Vuzenica"
     id="SVN1005"
     d="M582.1 155.7l-3.4 5.5-14.4-7.5-1.7-3.6-3.4-4.8-4.4-3.7-3.1-4.7 0.8-4.2-0.7-3.5 1.5-3.8 1.1-1.7 4.4-1.2 4.5 0.7 4.6-1.8 9.2-7.3 2.6 3.2 1.7 1.3 1.9 0.7 1.9 1.5 0.7 1.5 0 1.9-0.5 2.6-2.6 4.6-1.8 1.1-3.8 1.1 0.9 1.9 0.2 1.9-1.2 3.8-1.7 3-0.7 3.1-0.2 2.3 1.6 3.9 6 2.2z" />
  <path
     style="fill:#cccccc"
     name="Zasavska"
     id="SVN1006"
     d="M509.7 307.9l9.2-0.5 4.1 7.7-2.7 2.3-3.7 1.8-2 2 0.5 1.1 2.3-1 1.2 0.3 4.6 5.5 4.3 7.2 1.3 4.1 0 2.4-2.9 3.1-2.3 1.2-1 0-3.7-1.1-7.5 3.1-2.5 1.6-2.9 3.5-2.5 1.7-1.4 0.5-5.1 1-3.9 0-2.3 0.5-2.5-1.3-3.5-6-0.2-2.1 0.8-3.6-0.1-1.5-1.1-1.4-2.7-0.7-13.5-0.1-1.4-3.4 1.5-2.1 0.3-3.4-3.8-5.2-1.1-2.6-2.2-1.3 0.6-1.4 20.8-2.5 2.2-0.9 2.9-5.3-0.9-8.1 3.5-0.9 1.7 4.2 4.7 3.5 2.3 0.9 10.6-2.8z" />
  <path
     style="fill:#cccccc"
     name="Zrece"
     id="SVN1007"
     d="M625.1 179.6l1.1 5.5 2.2 2.7 2.2 3.2 5 2.3 4.4 3.1 5.1 1.3 7.8 6.2-2 3.2-1.3 4.6-0.8 0.9 0 1.4 1.7 2.2 1.2 2.1-0.5 1.3-2.4 3.1-0.3 1.3 5.1 4.4-4.1 7.5-1.4 0-2-1-2.4-0.6-1.8 1-1.9 2.1-4.2 8.1-6-3.4-3.5-3.7-0.6-4.1-1.9-3.1 7.3-8.3 0.8-2.4 0.6-4.2-0.9-2.4-2.2-1.6-2.7-2.4-4.7-8.2-0.2-2.7 0.7-1.8 3.1-2.1 0.1-1-3.9-2.5 0.7-3.3-0.8-2.1-2.1-3.1-0.7-5.7 6.2 2.2z" />
  <path
     style="fill:#cccccc"
     name="Bled"
     id="SVN1008"
     d="M242.6 212l-2.2 6.5 5.2 9.5 1.7 2.8 2.1 4.1 0.9 2.4-0.4 2.3-4.7 4.7-1.1 3-1.1 1.9-4.1 3.5-1.6 5.3-3 3.6-1.4-0.9-1.8-4.5-1.5-2.5-2.1-0.2-1.9 0.8-2.7 0.9-2.5 0.3-4.5-1.4-3-2.8-1.8-2.3-1.9-1.8-4.2-2.8-3.5-0.7-4.7-4.5-6.1-2.1-5.4-3.5-15.1-3.1-6.5 0.1-9.8-6.8 22.2-12.1 9.3-8.4 4.2-2.9 3.7-1.9 2.3-2.7 4.1-1.2 25.5 13.9 2.8 2.4 4.7 2.2 1.6 0.4 8.3-1.5z" />
  <path
     style="fill:#cccccc"
     name="Bohinj"
     id="SVN1009"
     d="M153.9 223.8l9.8 6.8 6.5-0.1 15.1 3.1 5.4 3.5 6.1 2.1 4.7 4.5 3.5 0.7 4.2 2.8 1.9 1.8 1.8 2.3 3 2.8 4.5 1.4 2.5-0.3 2.7-0.9 1.9-0.8 2.1 0.2 1.5 2.5 1.8 4.5 1.4 0.9 3-3.6 15.4 1.7 1.6-0.6 2.2-0.3 1.1 0.6 1.6 2.3-0.4 6.7-3.9 1.3-10.6-1.2-3.7 0.4-3.5 0.8-2.3 3.3-1.3 3-1 7.1-0.8 2.5-2.6 1.2-17.8-2.8-6.2 1.6-3.9 3.3-32.4 4.3-4.5-0.1-4.7-0.7-14.2-4.6-15.9-9.3-10.8-11-3-7.2 4.7-11.1 2.3-4.3 4.7-4.5 20.2-11 4.4-6 1.9 0.4z" />
  <path
     style="fill:#cccccc"
     name="Cerkno"
     id="SVN1010"
     d="M225.4 326.1l-14.5 25.8-1.1 4.1-0.8 4.8 0.5 1.5 2.1 2.7 0 3.2-3.4 1-3.2-0.3-3-1.2-5.6-4.1-5.5-4.9-1.4-0.2-1.1 3.6-2.4 2.4-1.3 2-3 0.2-1.5-1-1.1 0.2-0.3 2.5-0.9 2-3.1 0.1-1.9-0.4-4.1-2.6 3.8-2.6 0.3-1.4-0.5-3-0.8-2.6-0.7-4 0-3.6-0.6-3.6-3-5.4-1.3-4.4 0-2.5 1.2-3.6 1.2-2.9 4.1-4.3 5.4-3.3 10.9-3.5 9.9-7.4-0.3 3.9 0 2.5 1.7 1.2 2.9 1.1 12 1.1 8.5 2.7 1.9 4.2z" />
  <path
     style="fill:#cccccc"
     name="Gorenja vas-Poljane"
     id="SVN1011"
     d="M269 358.1l-0.3 6.7-0.8 3-0.3 3.1-6.3 10.2-6.6-5.6-2.2-2.2-4-5.1-1.9-1.7-3.4-1.5-25.2-5.5-3.6 0.8-1.8 0.8-1 3.9-2.1-2.7-0.5-1.5 0.8-4.8 1.1-4.1 14.5-25.8 6.6-4.3 1.1-1.3 20.3-4.1 3.7 0.5 3.9-0.8 5.8-0.4 2.8 0.8 1.9 1.8 1.2 2-2.6 5.3-2 1.9-1.5 2.8-1 3.6 1.4 1.4 0.5 1.5 0.2 2.1-1.3 2.1-0.9 2.6-0.1 4 0.3 3.9 2.3 2.5 1 4.1z" />
  <path
     style="fill:#cccccc"
     name="Idrija"
     id="SVN1012"
     d="M211.6 365l7.6 4.6 8.8 12.9 2.6 1.1 2.1 0.1 1.3 2.2 1.6 3.9 1.7 2.8 8.7 3.1-0.4 6.2-2.7 3.5-2.6 2.7-3.1 2.5-0.7 1.8 0.3 0.9 1.4 0.5 0.7 2.1-0.4 4.6-2 5.3-2.2 4.3-0.4 4 0.1 3.5 1.1 3.5 1.5 2.2 3.8 10.3-24.7-5.2-12.6-8.8-4-4.2-6.3-4.1-3-2.7-4.2-1.3-7.7-6.5-7.2-8.4-5.7-2.9-3.1-2.1-2-2.1-0.3-1.8-4.3-6.1 4.3-2.2 0.6-8.6-0.2-5.2 0.4-1.7 1.3-0.1 0.7-0.9-0.3-1.7-0.9-1.4-1.9-1.2-0.9-1.3-0.4-1.6 0.9-2 1.2-0.7 3 0.9 1.7-0.2 1.7-2.6 2.3 0.6 4.1 2.6 1.9 0.4 3.1-0.1 0.9-2 0.3-2.5 1.1-0.2 1.5 1 3-0.2 1.3-2 2.4-2.4 1.1-3.6 1.4 0.2 5.5 4.9 5.6 4.1 3 1.2 3.2 0.3 3.4-1 0-3.2z" />
  <path
     style="fill:#cccccc"
     name="Kranj"
     id="SVN1013"
     d="M334.3 266.2l-0.7 4.5-4.1 5.7-3.1 12-2.5 4.6-0.4 2.7 0.3 1.3 1.5 2.1 5.6 11.6 1.5 7.7 1 2-6.5 4.7-2.8-7.3-1.7-2.4-2.5-0.7-1.2 0.3-1.2-0.4-0.4-2.1 1.3-3.1-0.5-0.4-5 1.4-3.7-0.2-19.7-8.2-2-1.7 0-2.3 0.8-1.4 1.9-1.9 0.2-1.4-1.1-2-8.4-4.1-8.5-3.4-4.4-2.4-5-5.7-8.1-6 3.9-1.3 15.5 4.1 2 0.9 12.8-0.8 7.5 3 8.5 6.2 1.6-0.8 0.8-1.9 0.6-4.5-1.4-3.1-4.7-6.4-1.2-0.9-0.1-1.8 0.4-1.6 2.7-2.6 0.6-2.5 1.8-1.1-0.7-3.3 1.3-7.1 2.4-1.5 4-3.8 2.8-1.1 14.6-0.4-3.8 11.7-1.4 6.5-0.8 2.3-1.2 1.6-4.4-1.3-0.7 1.2 0.5 2.6 0.9 2.1 2.7 1.9 3.1-0.9 8.8 1.1z" />
  <path
     style="fill:#cccccc"
     name="Kranjska Gora"
     id="SVN1014"
     d="M206.8 177.2l-0.2 6.2-0.6 3.9-2.4 2.4-1.6 1.1-2.3 3.8-4.1 1.2-2.3 2.7-3.7 1.9-4.2 2.9-9.3 8.4-22.2 12.1-1.9-0.4-5.6-7.1-1-1.7-1.2-2.9-1.9-2.5-4-3.2-9.9-6-5.2-2.4-4-0.9-8.2 3.6-3.2 1-3.3 0.4-1.6-1.1 1.1-10.2-1.4-4.7 0.8-1.7 0.5-11.8 1.7-2.4 1.2-2.9 0.6-3.2 0-3.6 4.8 0.4 20.9 5.1 4.3-0.1 20.6-3.4 9.5 1.6 29 13.8 5.2 0.6 5.1-0.9z" />
  <path
     style="fill:#cccccc"
     name="Naklo"
     id="SVN1015"
     d="M305.5 251.3l0.7 3.3-1.8 1.1-0.6 2.5-2.7 2.6-0.4 1.6 0.1 1.8 1.2 0.9 4.7 6.4 1.4 3.1-0.6 4.5-0.8 1.9-1.6 0.8-8.5-6.2-7.5-3-2.2-7.1-0.5-3.1 0.3-13.3 7 1.7 1.9 1.3 1.8 0.3 8.1-1.1z" />
  <path
     style="fill:#cccccc"
     name="Radovljica"
     id="SVN1016"
     d="M286.7 249.1l-0.3 13.3 0.5 3.1 2.2 7.1-12.8 0.8-2-0.9-15.5-4.1 0.4-6.7-1.6-2.3-1.1-0.6-2.2 0.3-1.6 0.6-15.4-1.7 1.6-5.3 4.1-3.5 1.1-1.9 1.1-3 4.7-4.7 0.4-2.3-0.9-2.4-2.1-4.1-1.7-2.8 7-4.4 2.9 0.3 3.7-0.4 3.3-2.3 1.3-3.1 1.7-4.7 4.6-6 2.7-2.2 4.8-1.6 4.6 5.4 0.8 10.7-2.1 16.9 0.5 2.7 0.9 1.4 1.6 1-0.6 2.2 1.2 3.3 2.2 1.9z" />
  <path
     style="fill:#cccccc"
     name="Škofja Loka"
     id="SVN1017"
     d="M326.9 325.1l-3.1 1-2.1 3.6-2.7 1.4-3.7 0.8-6.2 5-2.2 3.5-0.9 3.8 0.8 2.4-1.7 6.9-18.3-3.8-11.2 3-6.6 5.4-1-4.1-2.3-2.5-0.3-3.9 0.1-4 0.9-2.6 1.3-2.1-0.2-2.1-0.5-1.5-1.4-1.4 1-3.6 1.5-2.8 2-1.9 2.6-5.3-1.2-2-1.9-1.8-2.8-0.8-5.8 0.4-3.9 0.8-3.7-0.5 2.5-4.3 6.7-2.3 2.5-2.4 5.4-2.6 3-1 1.6-1.8 1.5-8 2.4-2.5 1.9-4.3 8.4 4.1 1.1 2-0.2 1.4-1.9 1.9-0.8 1.4 0 2.3 2 1.7 19.7 8.2 3.7 0.2 5-1.4 0.5 0.4-1.3 3.1 0.4 2.1 1.2 0.4 1.2-0.3 2.5 0.7 1.7 2.4 2.8 7.3z" />
  <path
     style="fill:#cccccc"
     name="Tolmin"
     id="SVN1018"
     d="M201.2 288.9l2.5 5.9 0 3-5 11.6-9.9 7.4-10.9 3.5-5.4 3.3-4.1 4.3-1.2 2.9-1.2 3.6 0 2.5 1.3 4.4 3 5.4 0.6 3.6 0 3.6 0.7 4 0.8 2.6 0.5 3-0.3 1.4-3.8 2.6-2.3-0.6-1.7 2.6-1.7 0.2-3-0.9-1.2 0.7-0.9 2 0.4 1.6 0.9 1.3 1.9 1.2 0.9 1.4 0.3 1.7-0.7 0.9-1.3 0.1-0.4 1.7 0.2 5.2-0.6 8.6-8.7-5.6-2.4-2.7-3.3-5-2.9-6.4-1.1-5.6-0.2-5.5 0.3-3.2-2.6-10.2-2.2-2.2-3.9-0.2-3.7 3.4-19.1-12.1-1.4-2.5-2.3-1.3-3.2-4.5-0.6-3.4-5.8-9.9-8.1 1.7-1.2-4.1-3.2-0.6 3.1-4.3-4.5-4.3-0.3-4.5 0.7-3.9 1.6-2.5 1.6-1.5 3 0.9 1.4-0.6 3.6-2.5 2.5-0.6 5.7-0.1 2.3-2.2 0.8-5.4 2.2-8.4 2.2-3.9 3.1-3.3 2.5-0.6 3.2-0.1 10.8 11 15.9 9.3 14.2 4.6 4.7 0.7 4.5 0.1 32.4-4.3z" />
  <path
     style="fill:#cccccc"
     name="Tržič"
     id="SVN1019"
     d="M340.6 206.5l-0.9 1.3-3.7 9-1.2 4.4-3.4 6.4 0.1 4.1-0.9 5.7-14.6 0.4-2.8 1.1-4 3.8-2.4 1.5-1.3 7.1-8.1 1.1-1.8-0.3-1.9-1.3-7-1.7-2.2-1.9-1.2-3.3 0.6-2.2-1.6-1-0.9-1.4-0.5-2.7 2.1-16.9-0.8-10.7-4.6-5.4 1.3-6 37.9 1.1 10.7-2.4 3.4 0.8 1.5 2.1 1 2.6 1.8 2.2 5.4 2.5z" />
  <path
     style="fill:#cccccc"
     name="Železniki"
     id="SVN1020"
     d="M254.9 269.7l8.1 6 5 5.7 4.4 2.4 8.5 3.4-1.9 4.3-2.4 2.5-1.5 8-1.6 1.8-3 1-5.4 2.6-2.5 2.4-6.7 2.3-2.5 4.3-20.3 4.1-1.1 1.3-6.6 4.3-1.9-4.2-8.5-2.7-12-1.1-2.9-1.1-1.7-1.2 0-2.5 0.3-3.9 5-11.6 0-3-2.5-5.9 3.9-3.3 6.2-1.6 17.8 2.8 2.6-1.2 0.8-2.5 1-7.1 1.3-3 2.3-3.3 3.5-0.8 3.7-0.4 10.6 1.2z" />
  <path
     style="fill:#cccccc"
     name="Žiri"
     id="SVN1021"
     d="M261.3 381.1l-5 8-10.3 6.6-8.7-3.1-1.7-2.8-1.6-3.9-1.3-2.2-2.1-0.1-2.6-1.1-8.8-12.9-7.6-4.6 1-3.9 1.8-0.8 3.6-0.8 25.2 5.5 3.4 1.5 1.9 1.7 4 5.1 2.2 2.2 6.6 5.6z" />
  <path
     style="fill:#cccccc"
     name="Ajdovščina"
     id="SVN1022"
     d="M240.4 453.6l1.6 4.6-9.3 7.7-1.1 1.3-14.9 5.5-7.7-5.1-1.2-3.3-1-4.5-3.1-3.6-2.5-1.3-3.3-0.8-4.2 0.2-5.4 1.6-7.6 4.7-3.3 3.5-4.6 2.9-5 4-1.8 5.4-7.1 1.1-1.8-0.1-7.6-4.1-3.4-5.4-0.8-1.1-5-2.8-1.3-1.2-0.9-1.8-1-1.1-2.5-3.5-5.7-5.8-4.4-2.7-2.5-3.2-2.6-1.6-1.6-0.6-0.4-1.2 4.4-3.1 2.1-0.8 6.7-8 7.8-13.2 14.3-10.4 0-4.4 2.6-4 4.3 6.1 0.3 1.8 2 2.1 3.1 2.1 5.7 2.9 7.2 8.4 7.7 6.5 4.2 1.3 3 2.7 6.3 4.1 4 4.2 12.6 8.8 24.7 5.2z" />
  <path
     style="fill:#cccccc"
     name="Bovec"
     id="SVN1023"
     d="M152 223.4l-4.4 6-20.2 11-4.7 4.5-2.3 4.3-4.7 11.1-17.7 3.1-6.3-0.6-7-2-14.3 0.5-10.8-1.1-5.6 1.8-2 1.7 1 1.5 0.3 2.2-1 2.2-3.8 1.9-12.1-1.7-8.9-2.8-5.2-2.5-4.3-1.3-4.7-3.6-2.7-1.6 4.5-7.7 4.3-9.8 3.4-4.1 4.2-0.5 3.9-1.9 7.6-5.6 14.7-7.9 7.7-8.1 6.8-9.5 7.7-7.3 10.8-1.5 7.8 0.3 5.9-3.2 2.7-5.5 1.4 4.7-1.1 10.2 1.6 1.1 3.3-0.4 3.2-1 8.2-3.6 4 0.9 5.2 2.4 9.9 6 4 3.2 1.9 2.5 1.2 2.9 1 1.7 5.6 7.1z" />
  <path
     style="fill:#cccccc"
     name="Brda"
     id="SVN1024"
     d="M76.6 392.5l7.1 7.4-4.8 2.5-3.3 3-9.2 2.2-10.2 4.9-9.5 0.7-8.6-9.9-0.9-1.8-1.5-1.2-4.1-4.9 4.8-4.4 1.7-1.1 2.4-3.2 0.9-3.2-0.8-2.9-2.5-2.7 7.2-9.7 5.5-4.2 3 2.3 4.5 1.8 3.3 3.5 1.8 4.3 2.8 4.9 5.1 4.8 5.3 6.9z" />
  <path
     style="fill:#cccccc"
     name="Divaca"
     id="SVN1025"
     d="M213.9 507.2l11.1 8 3 4.1 3.7 9.1-3.3 3.5-3.6 1.8-2.2 4.1-0.7 3.2 0.6 3.1 1.3 2.8 0.2 6.3 1.2 3 1.6 3.4 1.6 4.5-1.1 2.7 0.1 0.8 3.4 1.6-0.2 4.6-4 1.9-1.7 2.9-1.8 1.2-2.1 0.6-6.3-1.3-4.7-4.1-5.9-2.8-5.9-4.3-5.2-2.7-6.5-1.3-3.9-3 1.7-8.4-2.3-4.2 8.2-12.6 1.7-3.2-0.9-4-1.7-3.6-1.3-5.1 0.4-3.1 2.4-2 3.6-1.8 4.5-7.5 4.1-2.3 0.8-0.6 3.3 0.3 6.8 4.4z" />
  <path
     style="fill:#cccccc"
     name="Hrpelje-Kozina"
     id="SVN1026"
     d="M182.6 560.9l3.9 3 6.5 1.3 5.2 2.7 5.9 4.3 5.9 2.8 4.7 4.1 6.3 1.3 2.1-0.6 1.8-1.2 1.7-2.9 4-1.9 4.6 4.3-0.7 1.5-1 3.3-1.7 3.4-1.3 5.4 0.3 2 1 1.3 1.8-0.6 2 1.2-1 7.1-2.6 8.7-2.3 5.9 0.7 1.3 5.8 4.7 1.4 1.6 2 4.3-0.1 5.5-0.4 3-7.6-0.4-8.3-2.9-7.9-5.8-4.2-4.3-4.6-2.4-8.4-1.8-1.1-3.5-10-11.9-13.3-2.8-5-3.5-3.1-3.6-1.5-2.1-3-11.3-0.8-2.2 6-7.5 2.4-5.9-0.3-0.9 4.8-4.5 9.4 0.5z" />
  <path
     style="fill:#cccccc"
     name="Izola"
     id="SVN1027"
     d="M95.3 622.3l-1.7 6.7-3.5 1.8-1.5-0.6-0.7-1.6-1.9-3-1.6-1.1-2-2.1-1-4-0.1-2.7-2.3-5.4-0.2-2 20.4-3.1-0.3 10.9-3.6 6.2z" />
  <path
     style="fill:#cccccc"
     name="Kanal"
     id="SVN1028"
     d="M128.9 352l-0.7 9-1.9 2.8-2.9 5.1-3.8 2.9-2.4 0.1-8.5-3.6-7.5-0.5-4.7 2.5-3.7 3.1-7 10.8-2.4 1.7-0.2 1.7 4.3 5.9 1.7 2.7-1 1.2-1.2 0.4-1.3-0.1-2.3-2.3-3.2-2.4-3.6-0.5-5.3-6.9-5.1-4.8-2.8-4.9-1.8-4.3-3.3-3.5-4.5-1.8-3-2.3 29.8-22.8 9-16.7-1.2-4.5 8.1-1.7 5.8 9.9 0.6 3.4 3.2 4.5 2.3 1.3 1.4 2.5 19.1 12.1z" />
  <path
     style="fill:#cccccc"
     name="Kobarid"
     id="SVN1029"
     d="M115.7 260.3l3 7.2-3.2 0.1-2.5 0.6-3.1 3.3-2.2 3.9-2.2 8.4-0.8 5.4-2.3 2.2-5.7 0.1-2.5 0.6-3.6 2.5-1.4 0.6-3-0.9-1.6 1.5-1.6 2.5-0.7 3.9 0.3 4.5 4.5 4.3-3.1 4.3-4.2-0.8-9.3 1-8.1-1.3-9.5-9.5-6-4.2-8.8-1.8-4.5-2.5-9.4-0.7-5-1.7 4.7 8.1-8.7 1.4-2.7-4-1.1-6.3-4.2-5.9-2-11.5-1.7-5.5-2.5-4.6 8.3-5.1 1.3-2.4 2.7 1.6 4.7 3.6 4.3 1.3 5.2 2.5 8.9 2.8 12.1 1.7 3.8-1.9 1-2.2-0.3-2.2-1-1.5 2-1.7 5.6-1.8 10.8 1.1 14.3-0.5 7 2 6.3 0.6 17.7-3.1z" />
  <path
     style="fill:#cccccc"
     name="Komen"
     id="SVN1030"
     d="M149.5 473.3l7.6 4.1 1.8 0.1 7.1-1.1 5.2 8.4-15.8 4.8-31.5 4-6.8-0.2-1.9 0.7-6.3 4.6-1.9 4.2-12.5-9.8-5.3-1.7-10.9-1.3-8.9-4.9-2.2-4.4 5.6-1 18.1 0.5 6.7-1.1 3.8-4.2 3.7-2.1 2.2-3 1.8-1.6 0.9-8.4 16.8 9.3 5.5 1.6 6.8 0 3.4-0.5 7 3z" />
  <path
     style="fill:#cccccc"
     name="Koper"
     id="SVN1031"
     d="M198.1 620.1l-4.9-1-2.2 1.4-1.1 3.2 0 4.9 6.7 8.1-4.1 5.5-14.8 6.4-4.6 4.5-2.8 4.4-3.4 2.5-16.9-2.5-5-1.6-4.2-4.3-15-9.5-31.4 1.5 0.4-3 3-2.1 2.2-5.3 3.5-3.6 1.4-2-1.1-1.9-8.5-3.4 3.6-6.2 0.3-10.9 24.6-3.6 0-2.8-3.3-4.9-9.7-10.6 15.6-1.4 12.5 6.8 15-1.5 6.4-8 0.8 2.2 3 11.3 1.5 2.1 3.1 3.6 5 3.5 13.3 2.8 10 11.9 1.1 3.5z" />
  <path
     style="fill:#cccccc"
     name="Miren-Kostanjevica"
     id="SVN1032"
     d="M90.2 445.2l-2.3 2.1-4.4 0.7-1.6 0.9-0.1 1.4 2.8 3.2 3.2 2.1 8.3 2.9 4.4-0.2 9.5 1.6-0.9 8.4-1.8 1.6-2.2 3-3.7 2.1-3.8 4.2-6.7 1.1-18.1-0.5-5.6 1-2.6-5.1 1-15.6 9.6-21.8 4.5 3.8 10.5 3.1z" />
  <path
     style="fill:#cccccc"
     name="Piran"
     id="SVN1033"
     d="M78.8 608.3l0.2 2 2.3 5.4 0.1 2.7 1 4 2 2.1 1.6 1.1 1.9 3 0.7 1.6 1.5 0.6 3.5-1.8 1.7-6.7 8.5 3.4 1.1 1.9-1.4 2-3.5 3.6-2.2 5.3-3 2.1-0.4 3-9.8 0.4-12.5-13.5 0.6-1.9-0.8-3.8 2.2-4.7 0-2.8-3.1-0.6-2.4-1.8-1.9-3-1.3-4.2 6.7 1.6 6.7-1z" />
  <path
     style="fill:#cccccc"
     name="Sežana"
     id="SVN1034"
     d="M198.9 505.4l-4.5 7.5-3.6 1.8-2.4 2-0.4 3.1 1.3 5.1 1.7 3.6 0.9 4-1.7 3.2-8.2 12.6 2.3 4.2-1.7 8.4-9.4-0.5-4.8 4.5-0.2-0.4-2.8-0.2-4.8-2.7-3.4-3.7-25.2-42.7-21.9-10-3.1-2.3 1.9-4.2 6.3-4.6 1.9-0.7 6.8 0.2 31.5-4 15.8-4.8 9.2 7.7 16.5 9.3 2 3.6z" />
  <path
     style="fill:#cccccc"
     name="Vipava"
     id="SVN1035"
     d="M216.7 472.7l4 12.8-2.1 5.3-1 8.6-1.7 2.4-2 5.4-6.8-4.4-3.3-0.3-0.8 0.6-4.1 2.3-2-3.6-16.5-9.3-9.2-7.7-5.2-8.4 1.8-5.4 5-4 4.6-2.9 3.3-3.5 7.6-4.7 5.4-1.6 4.2-0.2 3.3 0.8 2.5 1.3 3.1 3.6 1 4.5 1.2 3.3 7.7 5.1z" />
  <path
     style="fill:#cccccc"
     name="Beltinci"
     id="SVN1039"
     d="M930.1 101l-3.7 3 0.1 2.4-1 3.9 4.7 4.5 0.8 9.5-8.4-0.5-2.5 2.5-1.4 1.8-0.8 2.6 0.8 3.3 1.3 3.3-5.8 7.1-9.8-14-4.2-3.6-13.5-6.4 6.9-4.4 3.1-4.8 4.1-1.7 11.2-11.2 8.8 1 2.5-2.7 2.3 0.6 4.5 3.8z" />
  <path
     style="fill:#cccccc"
     name="Dornava"
     id="SVN1040"
     d="M844 200.3l-4.5-1.2-5.2 2.8-1.3 1.5-2.6 4.1-12.7-1.8 3.2-14 7.6 2.2 6.2-5.7 2.3-3.7 1.4-3.3 4-7.8 6 10.2-0.3 8.9-4.1 7.8z" />
  <path
     style="fill:#cccccc"
     name="Gorišnica"
     id="SVN1041"
     d="M844 200.3l7.8 3.4 4.8 9.6 3.1 9-6.5-1.6-4.6 3.8-2.9 7.2 0 2.6 1 2 1.1 1.2 0.8 2.6 0.7 5.3 2.3 8-3.5 3.8-6.3 4.4-6.6 3.4-1.5 0.4-1.4-2.2-4.4-14.8 0.3-3.6-1.6-5.1-1.2-1.2 0.6-5.8 2.6-0.2 2.6-0.9 1-0.7 3-3.3-0.5-3.8-2.5-5.8-0.3-4-1.5-6.5 2.6-4.1 1.3-1.5 5.2-2.8 4.5 1.2z" />
  <path
     style="fill:#cccccc"
     name="Juršinci"
     id="SVN1042"
     d="M842.2 164l-2 1.7 2.2 7.7-4 7.8-1.4 3.3-2.3 3.7-6.2 5.7-7.6-2.2-3.1-4.1 0.3-9.5 0.9-3 0.8-6.7 1.6-2 2.4-2.3 2.9-1.4 3.7-2.4 7.7-2.4 4.1 6.1z" />
  <path
     style="fill:#cccccc"
     name="Kobilje"
     id="SVN1043"
     d="M963.3 93.9l-3.2-0.5-6.1-2.7-3-2.2-2.4-4.5 2.9-5.6 1.9 0.8 5.9 0.4 4.8 3.2 1.7 8.7-2.5 2.4z" />
  <path
     style="fill:#cccccc"
     name="Moravske Toplice"
     id="SVN1044"
     d="M930.6 40.1l-0.4 1.7 0.7 1.8 4.4 13.3 3.6 4.6 2.7 5.3 2.9 3.5 4.4-0.7 0.1 7.8 2.5 1-2.9 5.6-4.9-2-2.1 2.4-2.1 3.5-3.2 7.1-1 7.2-5.2-1.2-4.5-3.8-2.3-0.6-2.5 2.7-8.8-1-4.7-0.8-7.1-3.7-1.7-1.6-1.9-2.4-0.1-3.4-4.1-8.4-1-9.7 2.7-3.9 1.9-0.1 6.5-8.2 2.3 0.3 1.8-1.2 2.7-4.7 2.7-2.4 5.4-8.2 10.4 1.3 2.8-1.1z" />
  <path
     style="fill:#cccccc"
     name="Murska Sobota"
     id="SVN1045"
     d="M912 98.3l-11.2 11.2-4.1 1.7-3.1 4.8-6.9 4.4-12.8-6.1-3.2-2.2 3.2-6.1 0.8-3.2-1.4-3.1-1.4-2.7-1.8-2.3-1.3-4.7-0.4-2.4 1.7-6.3 11.4-0.6 2.2 0.8 8.7-3.5 4.1 8.4 0.1 3.4 1.9 2.4 1.7 1.6 7.1 3.7 4.7 0.8z" />
  <path
     style="fill:#cccccc"
     name="Odranci"
     id="SVN1046"
     d="M931 124.3l-0.3 3.6-4 5.2-2.4 0.8-4.3 3.4-1.3-3.3-0.8-3.3 0.8-2.6 1.4-1.8 2.5-2.5 8.4 0.5z" />
  <path
     style="fill:#cccccc"
     name="Ormož"
     id="SVN1047"
     d="M909.9 176.1l-0.1 2.9 1.2 6.2 3.7 12.7 0.3 3.7-0.6 7.4 0.8 3.9 2 2.3 5.4 3.6 1.4 2.2 0.5 5.1-1.4 1.4-7.3-0.1-11.3 2.8-2.7 0.1-5.3-1.2-4.5-2.7-7.6-7.3-3.1-1.5-3.9 0.8-2.6 2.8-2.5 3.5-3 2.5-3.7 0.7-1.8-0.4-4.1-5.2-3.1-9-4.8-9.6-7.8-3.4 4.1-7.8 0.3-8.9-6-10.2-2.2-7.7 2-1.7 9.9 2.3 5.1 2.1 14.6 2.7 7.2 3 3.5 0.4 1.6-0.6 0.9-1.6 4.8-1.2 4 3 2.7 2.4 3.2 4.9 1.5 0 1.2-1.3 2 0.8 1.6-0.4 1.7-2.7 2.2-1.7z" />
  <path
     style="fill:#cccccc"
     name="Sveti Jurij"
     id="SVN1048"
     d="M860.9 126.2l3.5 10.9-0.4 2.5-3.6 10.3-10.2-1.6-3.6 2.8-1.9 2.7-0.4 1.1 0.4 1.2-0.5 3.1-2 4.8-4.1-6.1-6.6-10.2-5.7-9 3.1-9.2 11.2-3.5 4.3 1.9 3-3.2 3.8-4.5 2.2 0.2 1.7 1.7 1.6 5.2 1.1 1.6 0.8-0.3 2.3-2.4z" />
  <path
     style="fill:#cccccc"
     name="Turnišče"
     id="SVN1049"
     d="M935.3 102.2l10.7 13.8 9.6 7.2-4.6 1.1-4.7-1.5-2.7 0.6-1.5 1-0.2 1.5-2.1 4.6-8.8-6.2-0.8-9.5-4.7-4.5 1-3.9-0.1-2.4 3.7-3 5.2 1.2z" />
  <path
     style="fill:#cccccc"
     name="Zavrc"
     id="SVN1050"
     d="M859.7 222.3l4.1 5.2-9.7-2-0.2 8.2 0.8 6.6-0.1 6-2.3 6.3-0.7 0.8-2.3-8-0.7-5.3-0.8-2.6-1.1-1.2-1-2 0-2.6 2.9-7.2 4.6-3.8 6.5 1.6z" />
  <path
     style="fill:#cccccc"
     name="Šalovci"
     id="SVN196"
     d="M930 8.8l0.1 1.3 1.7 4 0 6.2-0.6 2.6-1.7 3 0.7 2.9 4.1 3-2.8 4.8-0.9 3.5-2.8 1.1-10.4-1.3 0.8-3.6 0.9-1.7 1.1-4.9-0.4-3.5-2.1-3.9-4.5-4.5-5.3-3.1-15.3-11.2 29.3-2.5 3.3 1.9 4.8 5.9z" />
  <path
     style="fill:#cccccc"
     name="Kuzma"
     id="SVN197"
     d="M877 4.4l-2.3 6.1 0.7 4.8-8.3 0.5-2.2 0.8-4.5 3.6-1.7 1.7-5.2 1.3-1-13.9 13-7.7 11.5 2.8z" />
  <path
     style="fill:#cccccc"
     name="Cerkvenjak"
     id="SVN198"
     d="M828.9 129.5l-3.1 9.2 5.7 9-8.7 6.1-1.6 0.2-2.1-0.2-0.7-1.2-5.3-2.7-2.8-10.8 2.1-3.8 3.7-2.8 1.7-0.7 4-3.3 7.1 1z" />
  <path
     style="fill:#cccccc"
     name="Benedikt"
     id="SVN199"
     d="M814.6 124.7l-2.3 2.5-3.4 2.4-3.2 0.4-0.9 0.7-1.3-0.4-1.6-1.8-5.6-8.2-4-2.3 0.9-5.7 2.9-6 4.2-4.4 6.7 2.8 2.9-0.1 1.4-0.3 2.6 1.1-0.8 2.2-4.8 4.4 0.1 2.5 0.8 3.6 5.4 6.6z" />
  <path
     style="fill:#cccccc"
     name="Sveta Ana"
     id="SVN200"
     d="M800.4 94.1l-0.1 7.8-4.2 4.4-2.9 6-0.9 5.7-1.9 1.7-1.6-0.1-2.2-0.8-3.3-2.6-1.6-1.9-0.3-3.9-1.6-5.9-1.6-2.4-5.8-0.7-1.8-3.6-0.6-2.8 0.1-2.2 2-2.3 0.3-2.6 1.2-2.9 0.2-8 4.4 1.7 2.8 4.5 10 6.8 5.7 1.5 3.7 2.6z" />
  <path
     style="fill:#cccccc"
     name="Hodoš"
     id="SVN201"
     d="M934.3 31.8l-4.1-3-0.7-2.9 1.7-3 0.6-2.6 0-6.2-1.7-4-0.1-1.3 1.4 1.8 2.8 1.5 4.6 0.3 1.4 2.3-0.7 4.1-1.8 5.7-2.2 5.2-1.2 2.1z" />
  <path
     style="fill:#cccccc"
     name="Grad"
     id="SVN202"
     d="M879 17l-3.1 19.4-4.7 9.3-2.1 1.7-2.5 0.8-1.9-0.8-2.8-0.5-6 0.3-3.6-2.7-0.2-2.6 1.4-18.7 5.2-1.3 1.7-1.7 4.5-3.6 2.2-0.8 8.3-0.5 3.6 1.7z" />
  <path
     style="fill:#cccccc"
     name="Destrnik"
     id="SVN203"
     d="M813.1 167.3l5.9 7.8-0.9 3-6.9 4.4-4.5 4.9-0.9 1.8-1.6 1.3-2.4 0.6-2.5-0.6-4.8-2.9-7.7-10.5-7-5.6 9.8-5.2 4.1 2.8 6.5 0.1 12.9-1.9z" />
  <path
     style="fill:#cccccc"
     name="Dobrova-Polhov Gradec"
     id="SVN204"
     d="M305.1 353.5l2.5 3.5 1.6 1.6 3.9 1.7 6.8-3.1 11.6 3.3 2.1 0.1 1.8 0.7 1.1 1.3 2.6 7 0.7 1.1 1.7 4.7 0.3 4.3-0.4 3.3-3.4 2.1-5.2-2.7-1.7-0.4-6.9 1.6-5.9 2.2-2.3 3.1-5.5 3.1 0.7-3.6-0.4-3.3-1.9-3.9-2-1.4-2.4-0.9-12.9-1.3-8 1.9-1.5 0.7-2.9 3.8 0.2 5.1-17-2 0.8-4.6-1.9-1.4 6.3-10.2 0.3-3.1 0.8-3 0.3-6.7 6.6-5.4 11.2-3 18.3 3.8z" />
  <path
     style="fill:#cccccc"
     name="Domžale"
     id="SVN205"
     d="M418.5 307.3l-6.2 6.2-3.5 7-0.6 2.6 0.3 1.5 2.2 1 1.9 2.5 3.7 1.4 2.5 3.1-3 2.3 0.2 2.8 2.6 2.1 1.9 1.2-0.7 3.8-6.6-0.2-4.2 2.1-7.6 5-3.7 1.7-7.3 0.8-0.7-4-7.2-1.1 0.5-7.6 1.5-4.6 4.5-6-2-13.2 2.1-5.8 6.1 0.3 7.1-4 2.3-2.3 2-1.1 2-0.7 1.9-0.2 8 3.4z" />
  <path
     style="fill:#cccccc"
     name="Kamnik"
     id="SVN206"
     d="M404.8 230.6l2.2 15 7.6 10.6 1.9 5.1 1.1 4.1 1.7 1.9 6.4-0.2-0.6 7.9 3.2 3 12.4 4 11.3 0.6 7.1-0.6 13.8 0.7 9.6 5.7 14.3 9.9-6.4 3.8-3.5 0.9-35.8 4-5.1 1.8-6.7 0-4.3-0.8-6.1-2.1-10.4 1.4-8-3.4-1.9 0.2-2 0.7-2 1.1-2.3 2.3-7.1 4-6.1-0.3-3.3-1.5 0.9-2.6-4-7.7-1.5-6-4-7 3.6-1.8 1.4-2.9 0.5-3.6-3.6-6-1.7-1.9-0.9-4.9-2.1-4.3 0.1-6.1 2.8-4.3-2.7-7 0.7-4.4-0.4-3-3-3.5 10.4-3.9 8.5 3.4 4.5-0.3 9.5-2z" />
  <path
     style="fill:#cccccc"
     name="Kocevje"
     id="SVN207"
     d="M513.2 504.8l0.5 7.8-1.1 3.5-2.6 13.5 1.5 4 1.4 2.8 6 6.7 6.4 7.7 1.4 7.9 4.1 7.3 6 11.1 5.4 2.2 2.1 5.5-0.3 2.7 1.4 4.2 0 5 1.7 2.3 3.7 3.6 0 2-1.1 0.6-2.2-0.7-2.6 1.8-2.8 3.7-1.1 5.2 1.1 2.6 2.1 1.1 3.4-0.9 3.5-1.3 3.6-0.4 2.5 1.7 0.1 2.2-1 1.3-4.5 1.1-3.5 1.8-1.9 1.5-3.8 4.6-2.7 6.8-3.2-2.7-15.4-0.4-3.2-2.9-3.5-1.7-2.9-0.4-3.8-8.9-6.8-6.3-1.9-0.4-2.5 0.4-5.1 1.5-3.8 0.3-5.2-1.2-4.8-2.8-1.8-0.4-2 0.6-3.1 2.6-0.8 1.7-0.8 3-1.5 4.2-1 1.2-1.4 0.9-4.4-0.7-6.8-8-12.5-11.8-5.4-3.9-2-3.6-0.4-1.7 0.5-0.8 0.1-2.1-1.1-1.8-2-9.6-4.1-14.1 5-4.4 1.6-4.2 7.3 3.4 5.1-1 2.2-3.1 3.3-6.7 0.4-4.9 10.4-24.4-8.4-6.9 5.7-6.6 4.2 0 2.8-1.3 3.4 0.4 5 1.8 2.3 1.6 2.4 3.7 5.9-0.5 9.7-10.9 4.1-1.1 13.5 2.4z" />
  <path
     style="fill:#cccccc"
     name="Lenart"
     id="SVN208"
     d="M772.4 101.4l5.8 0.7 1.6 2.4 1.6 5.9 0.3 3.9 1.6 1.9 3.3 2.6 2.2 0.8 1.6 0.1 1.9-1.7 4 2.3 5.6 8.2 1.6 1.8 1.3 0.4 0.9-0.7 3.2-0.4 3.4-2.4 2.3-2.5 7.2 3.8-4 3.3-1.7 0.7-3.7 2.8-2.1 3.8 2.8 10.8-1.4 3.4-10.1-5.5-2.5 1.9-3.6 2-1.7 1.9-1.8 3.8-0.6 2.6-1 1.9-0.8 4.4-9.8 5.2-2.3-1.1-1.8-4.1 1.2-2.7 1.1-1.3-0.8-2.4-1.9-2.4-5.8-4.3-0.7-1.4-0.3-1.9-0.9-1.4-1.3-1-1.7-0.4-2 0.4-4.9 0 4.9-5.7-1.1-0.9-0.6-1.7-2.9-3.8 1.7-6.8-0.7-6.8 0.9-5.6 3.2-8.9 0.8-4.2 1.6-2.3 6.9 0.6z" />
  <path
     style="fill:#cccccc"
     name="Loška dolina"
     id="SVN209"
     d="M372.4 519.3l6.1 19.1 0.6 5 3 6.6 0.3 1.1-1.6 0.7-2.5 2.7-4 9.2-3.3 4.9-8 9-2.9 4.4-2 5.7-0.3 2-1-0.5-2.4 0.2-2.1-0.3-1.9 0.7-2.4-0.6-3.5 0.2-3.3-0.4-0.3-1.1 1.7-2.1 0.1-3.1-0.8-2.5-4.2-3.9-1.9-3.7 0.2-3.2 1.1-9.1-0.1-8-2.9-4.1-7.4-8.5-2.3-8.2 7.8-1.2 21.5-17.1 9.4 7.6 5.4 1 1.4-0.6 2.5-1.9z" />
  <path
     style="fill:#cccccc"
     name="Luce"
     id="SVN210"
     d="M456.9 203.6l0.4 7.5 1.1 4.5-0.7 4.9-8.2 22.9-15.7 12.8-8.1 10.9-6.4 0.2-1.7-1.9-1.1-4.1-1.9-5.1-7.6-10.6-2.2-15 9.4 0.8 18.1-8.6 3.5-2.6 1.7-1.8-1-2.6 0.1-3.9 4.6-6.6 4.8-4.5 1.8-0.3 9.1 3.1z" />
  <path
     style="fill:#cccccc"
     name="Majšperk"
     id="SVN211"
     d="M773.2 235.9l2 4.6 0.9 1.1 0.5 1.6-3.9 8.4-8.9 10.5-3.5 5.5-1.3 10.9-5.2-1.8-11.9 0.8-6-4.5 8.5-10.5 2.5-6.6 0.5-6.4 0.1-5.3-1.7-3.3-2.3-1.2-5.9-1-3.1-3.6-0.9-2.5 1-2.6 28 2 4.8 1 5.8 2.9z" />
  <path
     style="fill:#cccccc"
     name="Novo Mesto"
     id="SVN212"
     d="M615.2 460.1l-7.3 4-1.4 2.4-1.6 3.9 0.8 5.4 1.7 4.4 5.7 5.9 7.4 11.3 3.1 12.3 0.2 1.3-8.6 2.9-12.8 7.2-2.7 3.1-1.6 4.4-6.9 5-11.8 8.3-2 0.6-4.1 0.4-4.9-0.4-9.5 0.6-7.4-1.2 0.9-3.7 4-2.7 1.1-1.7 0.7-2-0.9-2.2-2.2-3.1-10.6-11.7-0.4-2.2-1.1-2.4-4.2-6.4-1.5-5.7 8.9-11.4 3.2-1.9 1.6-2.3 2.5-0.7 1.1-1.6 1.8-4 0.6-3.1-0.5-3 0.5-0.6 1.6 0 1.1-0.5 2.1-1.9 3-11 12.6 2.7 3.8-1.1 4.2-1.8 2.5-2.7 3.5-7.3-0.6-4.1 0.2-2 3.5-6.9 9.5 7.9 2.9 1.4 3.4 2.4 3.1 3.7 1.6 2.3 0.9 1.9-1.4 2.9 0.7 4.7z" />
  <path
     style="fill:#cccccc"
     name="Bistrica ob Sotli"
     id="SVN213"
     d="M717.4 309.1l-1.1 1.6-5.9 11.3-4.6 13 0 11.5 4.4 10.3 6.3 6.7-5.1 4.8-2.7-1.5-1.2-4.4 0.3-1.7 1-1.6-4.7-10.3-2.8-1.6-5.3-4.6-3.9-0.8-3.4-3 3-11.3 7-4.4 3.6-6.7 10.9-11.4 4.2 4.1z" />
  <path
     style="fill:#cccccc"
     name="Podvelka"
     id="SVN214"
     d="M656.9 110.5l1.8 3.5-0.5 4.6-1 3.4-0.5 2.5 0 2.1 1.8 0.9 0.9 2.6-2.4 4.6-3.3-0.2-5.7-3.8-6.1-2-3.8-0.4-1.5 0.6-0.8 1.6 0.1 3.9-0.8 3-5.8 8.1-2.9 7.8-3.2 4.5-2 6.5-1.8-7.8 0.1-2.1 1-2.5-1-1.4-4.9-2.8-2.7-4.8-7.3-7.2 4.4-12 4.3-4.2 2.1-0.7 5.2-2.5 2.6-2.1 1.1-7.3 0.1-3.9 17.5-1 9.3 3.6 5.7 4.9z" />
  <path
     style="fill:#cccccc"
     name="Preddvor"
     id="SVN215"
     d="M371.9 233.4l3 3.5 0.4 3-0.7 4.4 2.7 7-2.8 4.3-9.1 5.6-4.6 1.4-5.4 0.2-5.3 2.1-15.8 1.3-8.8-1.1-3.1 0.9-2.7-1.9-0.9-2.1-0.5-2.6 0.7-1.2 4.4 1.3 1.2-1.6 0.8-2.3 1.4-6.5 3.8-11.7 6.8 0.5 2.2-2.2 2.1-4.3 1.3-0.8 3.1-0.2 4.7 1.2 21.1 1.8z" />
  <path
     style="fill:#cccccc"
     name="Ptuj"
     id="SVN216"
     d="M779.8 171.5l7 5.6 7.7 10.5 4.8 2.9 2.5 0.6 2.4-0.6 1.6-1.3 0.9-1.8 4.5-4.9 6.9-4.4-0.3 9.5 3.1 4.1-3.2 14-0.1 2.9-2.3 3.2-10 6.3-2.4-1.5-8.5 5.9 0.5-2.5-0.6-0.9-1.8-0.9-1.8-2 0.4-1.2-0.1-2.8 0.3-2.2-0.4-1.7-3.5-7.2-9.1-11.1-4.4-5.6-2.8-1.1-4.6 0.7 4.2-5.6 3.7-2.5 3.1-5.5 2.3 1.1z" />
  <path
     style="fill:#cccccc"
     name="Ravne na Koroškem"
     id="SVN217"
     d="M522.2 145.9l-2.1 8.6-0.5 8.1-1.2 3.9-2 3.3-1.7 1.3-6.7 2.9-7-0.6-0.9-0.7-5.2-5.7 7.5-7.7 0.9-4.2-1.1-1.7-0.3-4.9 0.1-5.7-0.4-2.5-0.9-1.5-2.5-0.6-0.9-1-1.6-2.9-1.2-3.1-1.2-1.9-3.3-3.1-1.7 0.1-0.8-0.7-2.1-4.9 1.1-0.2 6.9-4.4 0.2 0.7 7.4 5.9 5.3 0.5 1.9 1.3 1.5 2.4 3.5 4.5 5 4.1 3.1 1.9 2.1 4.5-1.2 4z" />
  <path
     style="fill:#cccccc"
     name="Ribnica"
     id="SVN218"
     d="M454.2 515.3l8.4 6.9-10.4 24.4-0.4 4.9-3.3 6.7-2.2 3.1-5.1 1-7.3-3.4 1.1-2.3 0-3.3-1.2-3.6-3.4-1.1-4-2.6-10-3.5-2.9-2.8-6.6-8.2 3.5-3.2 2-3.9 4.3-12.5 0.2-4.1-0.9-3.6-3.8-2-6.1-1.2-6.5-2.2-4.5-1.1-3-1.7-4-3.6 12.9-2.2 8.5-3.1 5-4.1 5.5-1.7 34.2 34z" />
  <path
     style="fill:#cccccc"
     name="Ruše"
     id="SVN219"
     d="M697.5 164.6l-7.7 5.8-12.3-0.9-29.3 9.9 2.3-10 8-8.7 2.7-6.1 0.5-2.8-0.2-1.9 3-3.8-0.4 5.3 7.8 1.9 4.2-1.5 20.4-11.3-3.2 20.4 4.2 3.7z" />
  <path
     style="fill:#cccccc"
     name="Šentjur pri Celju"
     id="SVN220"
     d="M686.8 271.8l-1.8 2.1-1 1.5-1.9 1.7-3.9 5-4.7 3.2-3.7 1.7-5.5 4-3.5 4-0.2 2.1 0.9 3.8 2.6 6.8 5.7 8.8 0.7 2.6 1.6 3.4 2.4 2.4 4.5 1.7 3.6-1.1 3.1-0.3 1.8-0.6 4.2 2.9-3 11.3-5.7 4-3.3 4.2-2.6 1.4-2.4-0.5-1.2-0.7-2-0.3-1 2.1-0.6 2.7 3.2 6.6 1.9 9.2-23.5 2-15.8-4.1 2.8-5.3 0.8-2.5-0.3-3.9 1.2-4.8 2.3 0.4 2.6-1 2.4-2.6 2.6-2.2 0.9-2.2 1-0.3 2.2 2.4 1.5 0.9 1.2 0.1 0.6-0.7 0.9-4.1-0.5-1.4-1.2-1.5-2.9-1.8-1.2-1.1-2.7-3.6-0.5-1.3-2.7-0.1-10.3 7.5-1.2-6.3 2-3.9 0.5-4.4-3.7-6.2 0.3-11.6 0.7-2.9-1.5-4.3-7-3.1 1.3-5.8 2.5-2.3 1.5-1.9 0.7-4.4 1.7-9 1.8-1 2.7-3.4 0.6-2.2-1.1-1.9-0.9-0.8 0.9-5 6.2 4.3 32.9 10 2-0.3 1.8-1 5.7 2.9z" />
  <path
     style="fill:#cccccc"
     name="Slovenska Bistrica"
     id="SVN221"
     d="M689.8 170.4l2 6.5 0.7 4 2.9 2.7 26.3 15.7 0.5 1.6 3.7 1.2 4.5 2.2 6.3 6.9-3.2 2.9 0.6 1 1.9 1.6-0.5 1.9 0.6 2.4-1 3.4-1.4 2.1 0.9 3.5-1 2.6 0.9 2.5 3.1 3.6 5.9 1 2.3 1.2 1.7 3.3-0.1 5.3-0.5 6.4-2.5 6.6-8.5 10.5-10.1 0.2-14-4.7-6.6-0.1-3.5 1.1-1.8 1.1-1.7 2.6-4.2-1.9 1.7-7.2-0.9-7-2.3-11.5-2.2-5-2.7-2.4-2.5-0.3-6.8-4.1-1.9-5.6-0.9-4.2 0.5-4.2-0.3-1.2-1.5-1.1-4.5-1.3-3.9 0.4-1.9-1.4-1-2.6-1-1.9-3.3-4.2-5.7-2.6-7.8-6.2-5.1-1.3-4.4-3.1-5-2.3-2.2-3.2-2.2-2.7-1.1-5.5 7.6-1.3 1.5 0.9 4.1 4 1.4 0.3 1.9-0.7 1.1-0.8 5.5-2.6 29.3-9.9 12.3 0.9z" />
  <path
     style="fill:#cccccc"
     name="Videm"
     id="SVN222"
     d="M805.3 218.1l7.8 3.1 2.1 1.6 2.3 6.4 2.8 1.7 5.7 1.8-0.6 5.8 1.2 1.2 1.6 5.1-0.3 3.6 4.4 14.8 1.4 2.2-3.7 1-10.5 1.9-9.5 5.3-0.8-4.7 0.7-2.5-0.2-2.4 0.3-2.6-0.2-1.4-2-4.3-0.8-3.5 0.3-1.5 1.1-2.3-0.3-3.3-0.7-1.5-1.4-1.3-1.8-1.1-5.2-2.3-1.3-0.9-4.8-0.6-7.2 2.2-1.5 0.8-1.8 2.6-1 2.6 0.2 2.9-1.3 8.7-7.6-5.6 3.9-8.4-0.5-1.6-0.9-1.1-2-4.6 5.1-2 0.8-3.1 1.1-2.6 2.1-10.6 6 5.9 6.1-1 8.5-5.9 2.4 1.5z" />
  <path
     style="fill:#cccccc"
     name="Vojnik"
     id="SVN223"
     d="M635.8 245.5l-1.4 4.5 1.1 3 0.6 1 2.1 1.9-0.9 5 0.9 0.8 1.1 1.9-0.6 2.2-2.7 3.4-1.8 1-1.7 9-10.4-5.3-1.4-0.6-2.1-0.2-1.1 0.6-1.7 0.2-1.3-0.8-3.1-2.9-1.5-4.1-5.4-8.4-9.5-6 6-6.9 0.8-3.3-0.1-4.5 0.6-1.5 2-2.1-0.6-2.2 20.1 0 1.9 3.1 0.6 4.1 3.5 3.7 6 3.4z" />
  <path
     style="fill:#cccccc"
     name="Žalec"
     id="SVN224"
     d="M581.2 248.4l9.4 4.7 0 14.7-1.2 2-1 3.2-0.4 1.8 0.8 3.1-0.5 1.5 1.2 7.4 0.4 3.6-2.4 17.3-4 4.6-8.7 1.7-20 0.5-0.7-1.8 2.3-0.2 2.2-1.1 1.8-2.2 0.5-1.5 0.5-3.9 0.1-7 0.4-2.2 0.7-1.3 1.7-0.8-1.7-2.1-4.5-2.5-6.2-6.2 1.9-5-0.8-2.5 1-2.6 2.4-4.8 1-2.8 0.4-10.7 2.7-4.9 2.1-2.4 2.6-1.3 3.9-0.2 7.4 5 4.7-1.1z" />
  <path
     style="fill:#cccccc"
     name="Komenda"
     id="SVN225"
     d="M386.7 307.8l-14.2 11-4.2-1.4-7.6-11.8 16.5-18.5 4 7 1.5 6 4 7.7z" />
  <path
     style="fill:#cccccc"
     name="Oplotnica"
     id="SVN226"
     d="M678.3 233.8l-13.1 0.6-2.5-0.8-9.1-5.2-5.1-4.4 0.3-1.3 2.4-3.1 0.5-1.3-1.2-2.1-1.7-2.2 0-1.4 0.8-0.9 1.3-4.6 2-3.2 5.7 2.6 3.3 4.2 1 1.9 1 2.6 1.9 1.4 3.9-0.4 4.5 1.3 1.5 1.1 0.3 1.2-0.5 4.2 0.9 4.2 1.9 5.6z" />
  <path
     style="fill:#cccccc"
     name="Hajdina"
     id="SVN227"
     d="M794.4 222.5l-6.1 1-6-5.9-9.8-17 1.7-2.7-0.6-3.4 0.5-1.9 4.2-2.6 9.1 11.1 3.5 7.2 0.4 1.7-0.3 2.2 0.1 2.8-0.4 1.2 1.8 2 1.8 0.9 0.6 0.9-0.5 2.5z" />
  <path
     style="fill:#cccccc"
     name="Miklavž na Dravskem polju"
     id="SVN228"
     d="M750.7 167l0.5 0.7-2.7 3.9-0.4 1.4 1.4 2.5 0.6 2.8 1 2.6-5 6.7-2.4-2.3-3.7-7.6-0.9-2.4 1.4-3.5 0.4-1.8-2-3.6 0.7-2.8 11.1 3.4z" />
  <path
     style="fill:#cccccc"
     name="Hoce-Slivnica"
     id="SVN229"
     d="M739.6 163.6l-0.7 2.8 2 3.6-0.4 1.8-1.4 3.5 0.9 2.4 3.7 7.6-7.2 1.2-3.4 0.9-5.5 0.2-1.5-0.3-2.2-1-3.2-2.7-7.6-3.7-8.3 0-4.9-2.1-8.1-0.9-2-6.5 7.7-5.8 14.2-3.1 27.9 2.1z" />
  <path
     style="fill:#cccccc"
     name="Trnovska vas"
     id="SVN230"
     d="M811.7 153.3l2 2.1 0.6 1.2 0.6 3.9-1.8 6.8-12.9 1.9-6.5-0.1-4.1-2.8 0.8-4.4 1-1.9 0.6-2.6 1.8-3.8 1.7-1.9 3.6-2 2.5-1.9 10.1 5.5z" />
  <path
     style="fill:#cccccc"
     name="Žetale"
     id="SVN231"
     d="M780.3 257.2l11.7 11.3 1.6 1 2.6 7.2 1.8 3-14.8 0.5-5 1.3-4.8 2.3-1.2 0.9-13.2-6.2 1.3-10.9 3.5-5.5 8.9-10.5 7.6 5.6z" />
  <path
     style="fill:#cccccc"
     name="Podlehnik"
     id="SVN232"
     d="M810 273.6l-11.1 6.1-0.9 0-1.8-3-2.6-7.2-1.6-1-11.7-11.3 1.3-8.7-0.2-2.9 1-2.6 1.8-2.6 1.5-0.8 7.2-2.2 4.8 0.6 1.3 0.9 5.2 2.3 1.8 1.1 1.4 1.3 0.7 1.5 0.3 3.3-1.1 2.3-0.3 1.5 0.8 3.5 2 4.3 0.2 1.4-0.3 2.6 0.2 2.4-0.7 2.5 0.8 4.7z" />
  <path
     style="fill:#cccccc"
     name="Prevalje"
     id="SVN233"
     d="M494.9 167l-7.8 0.1 1-5.6-1.2-1.3-2.2-1.8-3.2-3.4-1.1-3-0.1-2.2-1.7-1.5-1.8-0.9-1.2-2.2-3.2-0.7-1.9 0.6-6.8-0.2-3.5 0.6 2.4-7.5 3.6-7.7 5.3-7.8 4-1.7 4.5 0.6 5.4-0.7 2.1 4.9 0.8 0.7 1.7-0.1 3.3 3.1 1.2 1.9 1.2 3.1 1.6 2.9 0.9 1 2.5 0.6 0.9 1.5 0.4 2.5-0.1 5.7 0.3 4.9 1.1 1.7-0.9 4.2-7.5 7.7z" />
  <path
     style="fill:#cccccc"
     name="Selnica ob Dravi"
     id="SVN234"
     d="M696.5 140.5l-20.4 11.3-4.2 1.5-7.8-1.9 0.4-5.3 0.7-8.4-1.3-3.9-2.1-2-2.4-1.7-0.9-2.6-1.8-0.9 0-2.1 0.5-2.5 1-3.4 0.5-4.6-1.8-3.5 1.4 1.3 7.2 4.5 9.5-1.7 5.9-4.6 0.8-1.9 2 2.4 1.5 6.2-0.1 3.4 1.1 2.6 1.3 1.9 3.1 1.8 1.6 2.2 0.5 4.3 0 3 3.8 4.6z" />
  <path
     style="fill:#cccccc"
     name="Lovrenc na Pohorju"
     id="SVN235"
     d="M659.4 130.1l2.4 1.7 2.1 2 1.3 3.9-0.7 8.4-3 3.8 0.2 1.9-0.5 2.8-2.7 6.1-8 8.7-2.3 10-5.5 2.6-1.1 0.8-1.9 0.7-1.4-0.3-4.1-4-1.5-0.9-7.6 1.3-6.2-2.2-1.1-4.8 3.4-8.3 2-6.5 3.2-4.5 2.9-7.8 5.8-8.1 0.8-3-0.1-3.9 0.8-1.6 1.5-0.6 3.8 0.4 6.1 2 5.7 3.8 3.3 0.2 2.4-4.6z" />
  <path
     style="fill:#cccccc"
     name="Trzin"
     id="SVN236"
     d="M382.5 349.1l-9.4-3.8-6.1-7.4 22-7-4.5 6-1.5 4.6-0.5 7.6z" />
  <path
     style="fill:#cccccc"
     name="Jezersko"
     id="SVN237"
     d="M380.2 219l0.3 0.9 1.8 9.6-10.4 3.9-21.1-1.8-4.7-1.2-3.1 0.2-1.3 0.8-2.1 4.3-2.2 2.2-6.8-0.5 0.9-5.7-0.1-4.1 3.4-6.4 1.2-4.4 3.7-9 0.9-1.3 4.4 2 5.3 0.8 10.9-2.6 4.3 6 3.6 7.9 4.2 4.4 5.5-2.4 1.4-3.6z" />
  <path
     style="fill:#cccccc"
     name="Žužemberk"
     id="SVN238"
     d="M530.7 470.9l3.7 6.7 1.2 1.1 10.6 8-8.9 11.4-7.8-0.1-5.8-1.6-3.6 1.1-2.3 1.2-4.6 6.1-13.5-2.4-4.1 1.1-9.7 10.9-5.9 0.5-2.4-3.7-2.3-1.6-5-1.8-3.4-0.4-2.8 1.3-4.2 0-3.1-8-0.4-2.3 0.6-7.8 6.3-0.2 4 0.9 3.8-1.7 2.1-3.7 0.2-7.8-1.9-6.8-0.9-2.3 0-2.7 1-1.3 8.2-1.5 0.2-5.7 16.6-0.5 2.9 0.9 3.2 2.3 1.3 2.1 0.6 2.6 1.3 2.4 2.6 1.9 3.8 0.8 6.6-3.2 4.9 2 1.3 2.3 2 0.8 3.6-1.3z" />
  <path
     style="fill:#cccccc"
     name="Dobrna"
     id="SVN239"
     d="M603.7 231.2l0.6 2.2-2 2.1-0.6 1.5 0.1 4.5-0.8 3.3-6 6.9-4.4 1.4-9.4-4.7 3.1-6.6 0-1.7-0.5-3.8-1.1-3-3.5-12.8 13.4-1.9 11.1 12.6z" />
  <path
     style="fill:#cccccc"
     name="Tabor"
     id="SVN240"
     d="M535.1 295l0.5 6.7-0.3 1.8-2.1 6.5-8.5 1-5.8-3.6-9.2 0.5 0.5-6.3 0.8-3.1 11.1-18.1 6.5 2.1 3.8 5.1 0.9 2 1.8 5.4z" />
  <path
     style="fill:#cccccc"
     name="Vransko"
     id="SVN241"
     d="M522.1 280.4l-11.1 18.1-0.8 3.1-0.5 6.3-10.6 2.8-2.3-0.9-4.7-3.5-1.7-4.2 6.4-3.8-14.3-9.9 4-6.3 0-2.1 0.8-2.1 2.4-0.7 3.3-0.2 2.4-1.7 6.3-2.6 1.5-1.5 0-1.8 2.1-0.6 4.2-0.3 12.6 11.9z" />
  <path
     style="fill:#cccccc"
     name="Mirna Pec"
     id="SVN242"
     d="M564.8 456.1l-3 11-2.1 1.9-1.1 0.5-1.6 0-0.5 0.6 0.5 3-0.6 3.1-1.8 4-1.1 1.6-2.5 0.7-1.6 2.3-3.2 1.9-10.6-8-1.2-1.1-3.7-6.7 0.2-9.2 1.8-2.7 2.2-2.6 3.2-2.4 4.4-1 2.7-0.8 1.8-2 1.7-3 1.1-0.8 1.4-0.1 1.1 1.4 2.1 1.5 1.6 1.9 1.9 1.2 1.6 1.5 5.3 2.3z" />
  <path
     style="fill:#cccccc"
     name="Prebold"
     id="SVN243"
     d="M551.9 281.7l6.2 6.2 4.5 2.5 1.7 2.1-1.7 0.8-0.7 1.3-0.4 2.2-0.1 7-0.5 3.9-0.5 1.5-1.8 2.2-2.2 1.1-2.3 0.2-10.6 1.4-10.3-4.1 2.1-6.5 0.3-1.8-0.5-6.7 4.9-2 9-12.5 2.9 1.2z" />
  <path
     style="fill:#cccccc"
     name="Polzela"
     id="SVN244"
     d="M557.8 253.3l-0.4 10.7-1 2.8-2.4 4.8-1 2.6 0.8 2.5-1.9 5-2.9-1.2-13.8-22.7 2.1-3.4 0.5-4.7 0.2-5.6 2-6.7 4.7 2.4 1.9 3 4.8 3.3 2.5 4.4 3.9 2.8z" />
  <path
     style="fill:#cccccc"
     name="Kostel"
     id="SVN245"
     d="M511.7 629.2l-4.6-0.6-5.5-5.2-7.2-4.7-5.8 0.3-1.1 9.6-6.1 10.5-13.5 4.9-13.2-2.8-5-12.6-0.1-0.1-29.4-13-6.3-5.4-0.1-2.3 1.1-8-0.6-3.5-1.9-2.6 5.3-2.7 13.7-9.4 2 9.6 1.1 1.8-0.1 2.1-0.5 0.8 0.4 1.7 2 3.6 5.4 3.9 12.5 11.8 6.8 8 4.4 0.7 1.4-0.9 1-1.2 1.5-4.2 0.8-3 0.8-1.7 3.1-2.6 2-0.6 1.8 0.4 4.8 2.8 5.2 1.2 3.8-0.3 5.1-1.5 2.5-0.4 1.9 0.4 6.8 6.3 3.8 8.9z" />
  <path
     style="fill:#cccccc"
     name="Braslovce"
     id="SVN247"
     d="M535.2 257.8l13.8 22.7-9 12.5-4.9 2-1.8-5.4-0.9-2-3.8-5.1-6.5-2.1-12.6-11.9 0.1-8.8 4.5-4.2 1.2-2.2 0.5-2.6 3.1-4.8 2.7-1.9 9.1 5.9 4.5 7.9z" />
  <path
     style="fill:#cccccc"
     name="Sodražica"
     id="SVN248"
     d="M406.9 531.5l-3.7-5.9-1.6-1.9-3.2-1.9-6.5-0.3-7.3-2.7-2-7.6 0-3.3-1.2-3.3-4-6.6 3.5-4 7.2-1.6 4 3.6 3 1.7 4.5 1.1 6.5 2.2 6.1 1.2 3.8 2 0.9 3.6-0.2 4.1-4.3 12.5-2 3.9-3.5 3.2z" />
  <path
     style="fill:#cccccc"
     name="Dolenjske Toplice"
     id="SVN249"
     d="M537.3 498.1l1.5 5.7 4.2 6.4 1.1 2.4 0.4 2.2 10.6 11.7 2.2 3.1 0.9 2.2-0.7 2-1.1 1.7-4 2.7-0.9 3.7-5.8-0.8-3.7 1.8-2.9 3.1-5.9 8.3-1.3 2.6-1.1 9.1-4.1-7.3-1.4-7.9-6.4-7.7-6-6.7-1.4-2.8-1.5-4 2.6-13.5 1.1-3.5-0.5-7.8 4.6-6.1 2.3-1.2 3.6-1.1 5.8 1.6 7.8 0.1z" />
  <path
     style="fill:#cccccc"
     name="Horjul"
     id="SVN250"
     d="M310.5 392l-8.4 2.2-2.2 0.9-8.1 1.5-1.8 0.9-0.4 1.5 0.2 1.3-0.9 0.8-2.1-0.2-6.9-3.2-1.6-1.8-0.5-1.6 2.4-1.9-0.8-3.3-0.2-5.1 2.9-3.8 1.5-0.7 8-1.9 12.9 1.3 2.4 0.9 2 1.4 1.9 3.9 0.4 3.3-0.7 3.6z" />
  <path
     style="fill:#cccccc"
     name="Solcava"
     id="SVN251"
     d="M415.2 187.7l1 2.5 14.7 2.9 3.6 2.6 6.7 9.6-4.6 6.6-0.1 3.9 1 2.6-1.7 1.8-3.5 2.6-18.1 8.6-9.4-0.8-9.5 2-4.5 0.3-8.5-3.4-1.8-9.6-0.3-0.9 1.5-4 2.7-8.9 4.7-6.8 3-1.2 6.9-0.6 3.2-1 3.3-2.1 6.4-6.7 1.4-0.4 1.9 0.4z" />
  <path
     style="fill:#cccccc"
     name="Dobje"
     id="SVN252"
     d="M640.2 348.9l-3.8-12.6 10.3-7.5 2.7 0.1 0.5 1.3 2.7 3.6 1.2 1.1 2.9 1.8 1.2 1.5 0.5 1.4-0.9 4.1-0.6 0.7-1.2-0.1-1.5-0.9-2.2-2.4-1 0.3-0.9 2.2-2.6 2.2-2.4 2.6-2.6 1-2.3-0.4z" />
  <path
     style="fill:#cccccc"
     name="Dobrepolje"
     id="SVN253"
     d="M440.3 451.6l5.1 7.5-0.2 1.3-2.2 5.9-0.5 6.2 1.7 2.5 2.2 4 3.4 3.6 0.9 3.1 6.3 4.9-0.6 7.8 0.4 2.3 3.1 8-5.7 6.6-34.2-34-5.9-8.8-5.5-4.2-2.1-0.9-2-0.4-0.6-2.1 1-4 0-5.5 6.2-3.8 1.5-2.5 2.3-0.7 2 0.7 2.1 1.3 12.2 4.3 2.6 0 6.5-3.1z" />
  <path
     style="fill:#cccccc"
     name="Bloke"
     id="SVN254"
     d="M380.9 494l-3.5 4 4 6.6 1.2 3.3 0 3.3 2 7.6-6.5 0.3-1.7-1.6-4 1.8-2.5 1.9-1.4 0.6-5.4-1-9.4-7.6 4.4-3.6-1.8-3.8-1.7-0.7-5.7-4.5-5.3-6.3-1.4-2.9 0-2.2 1.3-2.9 1.4-2.2 2-2.5 8.4-7.1 3-1.2 3.8-2.4 7.8 12.7 11 10.4z" />
  <path
     style="fill:#cccccc"
     name="Podcetrtek"
     id="SVN255"
     d="M738.4 379.4l-2.6 0.7-5.3 6.2-1.4-2.6-7.9-0.1-2.3-0.8-2.2-1.7-1.5-1.4-3.8-11.4 5.1-4.8 2.5 2.6 3.9 2.3 8.8 3.8 3.9 2.8 2.8 4.4z" />
  <path
     style="fill:#cccccc"
     name="Maribor"
     id="SVN256"
     d="M723.9 125.8l10.4 0.6 6.1 6.1 6.8 4.7 7.7 0.4 3.1-2.2 2.9 3.8 0.6 1.7 1.1 0.9-4.9 5.7-4.9 6.6-4.8 2.6-1 2.7 1.4 3.5 2.3 4.1-11.1-3.4-27.9-2.1-14.2 3.1-4.2-3.7 3.2-20.4-3.8-4.6 0-3-0.5-4.3-1.6-2.2-3.1-1.8-1.3-1.9-1.1-2.6 0.1-3.4-1.5-6.2-2-2.4 1.2-2.7 0.9-4.4 5.2 5.3 10.7 2.9 6.4-0.1 2.4 1 2.2 2.8 2.7 1.7 4.3 4 1.1 3.3 5.1 3.9z" />
  <path
     style="fill:#cccccc"
     name="Ribnica na Pohorju"
     id="SVN257"
     d="M621.2 164.3l-3.4 8.3-17-1.4-6.4 0.4-4.9-1-8.6-6.5-2.2-2.9 3.4-5.5 3.1-2.9 0.4-3.6 1.4-1.9 1.7-1.6 15.9-10 7.3 7.2 2.7 4.8 4.9 2.8 1 1.4-1 2.5-0.1 2.1 1.8 7.8z" />
  <path
     style="fill:#cccccc"
     name="Jesenice"
     id="SVN258"
     d="M249 196.6l-3.3 2.9-2.6 4.1-0.5 8.4-8.3 1.5-1.6-0.4-4.7-2.2-2.8-2.4-25.5-13.9 2.3-3.8 1.6-1.1 2.4-2.4 0.6-3.9 0.2-6.2 5.6-1 5.5 0.1 5.2 1.6 4.7 2.3 17.8 15.5 3.4 0.9z" />
  <path
     style="fill:#cccccc"
     name="Žirovnica"
     id="SVN259"
     d="M278.9 197.6l-1.3 6-4.8 1.6-2.7 2.2-4.6 6-1.7 4.7-1.3 3.1-3.3 2.3-3.7 0.4-2.9-0.3-7 4.4-5.2-9.5 2.2-6.5 0.5-8.4 2.6-4.1 3.3-2.9 0.6 0.2 29.3 0.8z" />
  <path
     style="fill:#cccccc"
     name="Nova Goriška"
     id="SVN260"
     d="M159.6 395.2l-4.3 2.2-2.6 4 0 4.4-14.3 10.4-7.8 13.2-6.7 8-2.1 0.8-4.4 3.1 0.4 1.2 1.6 0.6 2.6 1.6 2.5 3.2 4.4 2.7 5.7 5.8 2.5 3.5 1 1.1 0.9 1.8 1.3 1.2 5 2.8 0.8 1.1 3.4 5.4-7-3-3.4 0.5-6.8 0-5.5-1.6-16.8-9.3-9.5-1.6-4.4 0.2-8.3-2.9-3.2-2.1-2.8-3.2 0.1-1.4 1.6-0.9 4.4-0.7 2.3-2.1 6.3-5.8 3.3-1.2 1.7 0.4 1.2-1.6 0.3-3.2-0.3-1.6-2.2 0-2.2-1.6-3.8-0.3-1.5-0.9-2.9-2.8-2.3-1.2-2-0.5-5.6-1.9 2.4-9.3-5.4-8.7-1.6 0.4 3.3-3 4.8-2.5-7.1-7.4 3.6 0.5 3.2 2.4 2.3 2.3 1.3 0.1 1.2-0.4 1-1.2-1.7-2.7-4.3-5.9 0.2-1.7 2.4-1.7 7-10.8 3.7-3.1 4.7-2.5 7.5 0.5 8.5 3.6 2.4-0.1 3.8-2.9 2.9-5.1 1.9-2.8 0.7-9 3.7-3.4 3.9 0.2 2.2 2.2 2.6 10.2-0.3 3.2 0.2 5.5 1.1 5.6 2.9 6.4 3.3 5 2.4 2.7 8.7 5.6z" />
  <path
     style="fill:#cccccc"
     name="Šempeter-Vrtojba"
     id="SVN261"
     d="M90.2 445.2l-10.5-3.1-4.5-3.8 2.8-6.4 2.2-8.9 5.6 1.9 2 0.5 2.3 1.2 2.9 2.8 1.5 0.9 3.8 0.3 2.2 1.6 2.2 0 0.3 1.6-0.3 3.2-1.2 1.6-1.7-0.4-3.3 1.2-6.3 5.8z" />
  <path
     style="fill:#cccccc"
     name="Črenšovci"
     id="SVN263"
     d="M939.8 130.5l1.9 2.9 1.1 6.4-1.1 3.3-1.8 3.6 1.9 1.7 1.7 0.6-3.2 3.8-6.1 2.1-5.9-1.7-3.3-5.8-2.2 1.3-2.2 2.1-4.4-3.5-2-2.9 5.8-7.1 4.3-3.4 2.4-0.8 4-5.2 0.3-3.6 8.8 6.2z" />
  <path
     style="fill:#cccccc"
     name="Lendava"
     id="SVN264"
     d="M943.5 149l-1.7-0.6-1.9-1.7 1.8-3.6 3.1-0.1 2-0.4 5.4-2.4 4.9-3.3 2.1-2.2 2.5-1.6-6.1-9.9-9.6-7.2 6-8.7 1.7-1 1.3 3.3 5.8 4.7 11.3 6.7 11.6 18.4 10.7 9.1 4.6 19.9-7.7-6.2-3.1-1.8-3.3-0.6-6.9 0.9-2.7-0.3-2.7-1.9-5.3-5.7-2.8-1.8-3.6-0.3-4.1 0.3-4-0.5-3.7-3-1.9 3.5-2.4-3.5-1.3 1.5z" />
  <path
     style="fill:#cccccc"
     name="Ljutomer"
     id="SVN265"
     d="M914.2 144.4l2 2.9 4.4 3.5 2.2-2.1 2.2-1.3 3.3 5.8 5.9 1.7-2.9 1.8-7.6-3.1-5.7 6.7 0.4 2.6-8.2 9.3-0.3 3.9-2.2 1.7-1.7 2.7-1.6 0.4-2-0.8-1.2 1.3-1.5 0-3.2-4.9-2.7-2.4-4-3-4.8 1.2-0.9 1.6-1.6 0.6-3.5-0.4-7.2-3-14.6-2.7-5.1-2.1-9.9-2.3 2-4.8 0.5-3.1-0.4-1.2 0.4-1.1 1.9-2.7 3.6-2.8 10.2 1.6 6.3 1.3 7.8 4.6 6.5 1.5 3.6 0.2 3.7-1.1 2.5-2.4 0.7-4.1 0.9-3.8-1.6-1.8 0.9-2.8 4.4-2.9 3.6-0.1 0.7-0.6 4-7.5 9.8 14z" />
  <path
     style="fill:#cccccc"
     name="Križevci"
     id="SVN266"
     d="M886.7 120.4l-3.4 2.1-4.3-0.9 0.5 4.7 1.9 3.7 3.6 3.1 0.9 4.5 5.8 3.9-0.9 2.8 1.6 1.8-0.9 3.8-0.7 4.1-2.5 2.4-3.7 1.1-3.6-0.2-6.5-1.5-7.8-4.6-6.3-1.3 3.6-10.3 0.4-2.5-3.5-10.9 5.1-6.6 5.2-0.2-2.1-4.3 1.6-3 3.2 2.2 12.8 6.1z" />
  <path
     style="fill:#cccccc"
     name="Veržej"
     id="SVN267"
     d="M904.4 130.4l-4 7.5-0.7 0.6-3.6 0.1-4.4 2.9-5.8-3.9-0.9-4.5-3.6-3.1-1.9-3.7-0.5-4.7 4.3 0.9 3.4-2.1 13.5 6.4 4.2 3.6z" />
  <path
     style="fill:#cccccc"
     name="Sveti Andraž v Slovenskih Goricah"
     id="SVN268"
     d="M838.1 157.9l-7.7 2.4-3.7 2.4-2.9 1.4-2.4 2.3-1.6 2-0.8 6.7-5.9-7.8 1.8-6.8-0.6-3.9-0.6-1.2-2-2.1 1.4-3.4 5.3 2.7 0.7 1.2 2.1 0.2 1.6-0.2 8.7-6.1 6.6 10.2z" />
  <path
     style="fill:#cccccc"
     name="Razkrižje"
     id="SVN269"
     d="M931.3 156.7l-2 1.2-9.9 3.9-1 1.1-0.4-2.6 5.7-6.7 7.6 3.1z" />
  <path
     style="fill:#cccccc"
     name="Velika Polana"
     id="SVN270"
     d="M955.6 123.2l6.1 9.9-2.5 1.6-2.1 2.2-4.9 3.3-5.4 2.4-2 0.4-3.1 0.1 1.1-3.3-1.1-6.4-1.9-2.9 2.1-4.6 0.2-1.5 1.5-1 2.7-0.6 4.7 1.5 4.6-1.1z" />
  <path
     style="fill:#cccccc"
     name="Dobrovnik"
     id="SVN271"
     d="M948.6 84l2.4 4.5 3 2.2 6.1 2.7 3.2 0.5-1.9 1.9-6 2.9-2.9 4.5 1.2 3.1-1.7 1-6 8.7-10.7-13.8 1-7.2 3.2-7.1 2.1-3.5 2.1-2.4 4.9 2z" />
  <path
     style="fill:#cccccc"
     name="Markovci"
     id="SVN272"
     d="M830.4 207.5l1.5 6.5 0.3 4 2.5 5.8 0.5 3.8-3 3.3-1 0.7-2.6 0.9-2.6 0.2-5.7-1.8-2.8-1.7-2.3-6.4-2.1-1.6-7.8-3.1 10-6.3 2.3-3.2 0.1-2.9 12.7 1.8z" />
  <path
     style="fill:#cccccc"
     name="Apace"
     id="SVN5884"
     d="M825.5 79.4l-6.6 9.3-4.7 4.3-6.6 0.7-7.2 0.4-3.7-2.6-5.7-1.5-10-6.8-2.8-4.5-4.4-1.7-5.7-4.7-0.6-1 12.1-5 8.9-0.7 8.8 1.7 21.4 10.9 6.8 1.2z" />
  <path
     style="fill:#cccccc"
     name="Šmartno in Litiji"
     id="SVN5885"
     d="M504.5 409.7l-4.7 4.1-3.9 1.4-6.9-4.5-8.9-13.3-1.9-1.4-1.8-0.6-0.7 1-0.2 1.6-2.2 0.4-4.1-0.3-10.2-3.3-9.3-0.3-2 1-0.8 0.8-7.3 0.7-0.6-9 1.1-2.5-0.8-2.8-1.6-2.7-1.9-2.1-2-2.7 0.6-1.4 0-2 0.9-3.4 5-0.3 17.1 3 12.2-6.1 6.8 1.4 7.5 7.1 7.4 9.8 7.3 6.7 4.5 11.1 1.4 8.6z" />
  <path
     style="fill:#cccccc"
     name="Cankova"
     id="SVN926"
     d="M853.3 51l0.8 9.5-0.5 3-1 4.2 1.9 4.9 2.3 2.3 2.7 1.4 2.9 0.8 2.6 2.1 5.1 2.1-1.7 6.3 0.4 2.4 1.3 4.7 1.8 2.3 1.4 2.7 1.4 3.1-0.8 3.2-3.2 6.1-13.7-9.5-8-8.5-4.4-1.1-3.6-2.6-0.6-10.6-3.6-7.2-6.8-4.3-3.6-11.3-0.3-8.1 0.4-6.7 5.4-0.4 5.4 0.9 0.7 1.7 3.6 4 2 1.2 9.7 1.4z" />
  <path
     style="fill:#cccccc"
     name="Gornja Radgona"
     id="SVN927"
     d="M841 90.4l3.6 2.6 4.4 1.1-10.8 13.8-0.3 5.3 2.2 12.8-11.2 3.5-7.1-1-7.2-3.8-5.4-6.6-0.8-3.6-0.1-2.5 4.8-4.4 0.8-2.2-2.6-1.1-1.4 0.3-2.9 0.1-6.7-2.8 0.1-7.8 7.2-0.4 6.6-0.7 4.7-4.3 6.6-9.3 6.1 1.1 3.5 2.4 5.9 7.5z" />
  <path
     style="fill:#cccccc"
     name="Gornji Petrovci"
     id="SVN928"
     d="M917.4 39.9l-5.4 8.2-2.7 2.4-2.7 4.7-1.8 1.2-2.3-0.3-4.3-5.7-1.2-2.3 3.3-9.1-0.6-3.9-1.3-1.5-2.1-1.1-2.4-0.7-6.1-6-1.1-3.5-2-2-1.4-2-4.3-1.3-3.6-1.7-0.7-4.8 2.3-6.1 1.6 0.4 14-1.3 15.3 11.2 5.3 3.1 4.5 4.5 2.1 3.9 0.4 3.5-1.1 4.9-0.9 1.7-0.8 3.6z" />
  <path
     style="fill:#cccccc"
     name="Puconci"
     id="SVN929"
     d="M902.5 56.1l-6.5 8.2-1.9 0.1-2.7 3.9 1 9.7-8.7 3.5-2.2-0.8-11.4 0.6-5.1-2.1-2.6-2.1-2.9-0.8-2.7-1.4-2.3-2.3-1.9-4.9 1-4.2 0.5-3-0.8-9.5 2.6-3.8 6-0.3 2.8 0.5 1.9 0.8 2.5-0.8 2.1-1.7 4.7-9.3 3.1-19.4 4.3 1.3 1.4 2 2 2 1.1 3.5 6.1 6 2.4 0.7 2.1 1.1 1.3 1.5 0.6 3.9-3.3 9.1 1.2 2.3 4.3 5.7z" />
  <path
     style="fill:#cccccc"
     name="Radenci"
     id="SVN930"
     d="M870.7 112.1l-1.6 3 2.1 4.3-5.2 0.2-5.1 6.6-2.3 2.4-0.8 0.3-1.1-1.6-1.6-5.2-1.7-1.7-2.2-0.2-3.8 4.5-3 3.2-4.3-1.9-2.2-12.8 0.3-5.3 10.8-13.8 8 8.5 13.7 9.5z" />
  <path
     style="fill:#cccccc"
     name="Rogašovci"
     id="SVN931"
     d="M853.5 23.2l-1.4 18.7 0.2 2.6 3.6 2.7-2.6 3.8-9.7-1.4-2-1.2-3.6-4-0.7-1.7-5.4-0.9-5.4 0.4 0.1-1.4 2.2-14.4-0.2-3.3-1.4-1-0.3-1 3-3.3 1.9-1.1 14.1-3.5 6.6-3.9 1 13.9z" />
  <path
     style="fill:#cccccc"
     name="Borovnica"
     id="SVN937"
     d="M334.4 457.2l-3.6 1.6-2 2.8-2.2 0.4-2.6-2.1-2.7-3-3.9-4.9-2-3.1-6.4-16.6-1-4-0.2-4.1 1.3-5.2 2-2.9 6.8-2 1.4 6.2 4.5 5.7 2.5 2.6 3 2 1.7 0 1.9 1.4 0.6 1.6-1 5.9-0.5 4.9-1 3.4 3.4 9.4z" />
  <path
     style="fill:#cccccc"
     name="Brežice"
     id="SVN938"
     d="M693.1 478.7l-1.6-3-7-10.3-1.5-3.5-1.6-2.9-1-3.3 0.1-3.6 1.7-5.4 4.7-3 3.7-1.3 1.4 0 1.3-1.2 1.9-1 0.8-3.9 2.5-1.5 1-2.8 0.7-4.8-0.3-16.2 3.9-9.9 4.5-0.2 8.3-4.2 13.9-10.4 5.3-6.2 2.6-0.7 1.7 2.4-1.4 4.8-3.7 5.6-2.5 9.3 0.9 23.4-0.4 7.6-1.7 5.7-2.2 5.4-1.3 5.4 1.4 5.8 3.7 9.2 0.2 6.5-3.2 4.5-6.4 3.5-6.2 1.8-12.3 0.4-11.9-2z" />
  <path
     style="fill:#cccccc"
     name="Krsko"
     id="SVN939"
     d="M703.8 401.1l-4.7-1.7-1.3-1-0.2-2.2-1.4-5.7 2.5-0.2 1.4-0.6 1.9-0.2 2.3-0.7 4.5-0.6 1.4 1.8-6.4 11.1z" />
  <path
     style="fill:#cccccc"
     name="Brezovica"
     id="SVN940"
     d="M338 385.1l4.5 6 3.9 2.9 0.7 1.9-1.8 2.6-2.8 2.6-2.3 3.3-0.1 3.1 3 2.7 4.5 11.8-0.1 5 1.6 7.6 0.9 6.6 7.4 11.5-15.2 7.9-2 0.2-5.8-3.6-3.4-9.4 1-3.4 0.5-4.9 1-5.9-0.6-1.6-1.9-1.4-1.7 0-3-2-2.5-2.6-4.5-5.7-1.4-6.2 3.1-6.8-1-6.2 2.1-3.9 2.3-2.5 3.6-1.3 0.5-3.9-0.7-2.1-3.6-3.8 6.9-1.6 1.7 0.4 5.2 2.7z" />
  <path
     style="fill:#cccccc"
     name="Celje"
     id="SVN941"
     d="M632.5 279.2l-0.7 4.4-1.5 1.9-2.5 2.3-1.3 5.8-2.3-0.3-3.3 1.5-2.5 1.7-1.8 2.1 0 8.6 0.5 2.6-2.7 2.2-11.6-2.2-2.3-1.6-2.8-0.1-6.2 2.5-3.4-0.5-0.6-2.4 2.4-17.3-0.4-3.6-1.2-7.4 0.5-1.5-0.8-3.1 0.4-1.8 1-3.2 1.2-2 0-14.7 4.4-1.4 9.5 6 5.4 8.4 1.5 4.1 3.1 2.9 1.3 0.8 1.7-0.2 1.1-0.6 2.1 0.2 1.4 0.6 10.4 5.3z" />
  <path
     style="fill:#cccccc"
     name="Cerklje na Gorenjskem"
     id="SVN942"
     d="M377.2 287.1l-16.5 18.5-12-1.5-5.8-7.8-0.4-4.4-0.3-10.3 0.5-5.4 1.7-4.2 1.1-0.9 1-1.6 1.3-1.3 2.3-3.3 5.3-2.1 5.4-0.2 4.6-1.4 9.1-5.6-0.1 6.1 2.1 4.3 0.9 4.9 1.7 1.9 3.6 6-0.5 3.6-1.4 2.9-3.6 1.8z" />
  <path
     style="fill:#cccccc"
     name="Cerknica"
     id="SVN943"
     d="M321.3 456.9l2.7 3 2.6 2.1 2.2-0.4 2-2.8 3.6-1.6 5.8 3.6 2-0.2 15.2-7.9 2.5 4.7-0.6 3.8 0.3 4.7 2.5 5-3.8 2.4-3 1.2-8.4 7.1-2 2.5-1.4 2.2-1.3 2.9 0 2.2 1.4 2.9 5.3 6.3 5.7 4.5 1.7 0.7 1.8 3.8-4.4 3.6-21.5 17.1-7.8 1.2-18.5-14.7-1.4-6.5-7.6-1.4-3.7-2.6-5.7-6.1-3.6-6.5 0.4-4.9 6.3-16.3-0.9-4 7.2-18.1 3.2-2.5 5.2 1.8 12.4 9.1 3.6-1.9z" />
  <path
     style="fill:#cccccc"
     name="Črna na Koroškem"
     id="SVN944"
     d="M487.1 167.1l7.8-0.1 5.2 5.7 0.9 0.7 7 0.6-2.9 13.6-0.2 5.8-4.4 3.4-15.9 7.5-27.7-0.7-9.1-3.1-1.8 0.3-4.8 4.5-6.7-9.6-3.6-2.6-14.7-2.9-1-2.5 2.3 0.4 2.3-5.7 3.7-4.5 1.6-3.1 1.9-2.2 5.2-2.4 2.8 2 8.2-1.3 7-3.2 1.7-1.6 2.6-5.9 5.2 1 5.8 1.7 6.4 5.2 6.9 2.3 4.1 0.4 2.7-0.6 1.5-3.1z" />
  <path
     style="fill:#cccccc"
     name="Crnomelj"
     id="SVN945"
     d="M590.2 576.5l-0.4 3.7 4.9 1.7 3.1-0.9 1.3 0.7-0.1 1.1 1 2.3 1.7 3.1 3 2.8 3 1.4 0.6 0.7 0.2 0.4 1.9 11.8 2.5 9.8 4.6 7.7 15.9 10.8-3 2.7-5.7 7.9-2.8 2.6-3.5 1.1-10.3-0.2-30.8 11.4-14.3-2-23.1-19.8 2.7-6.8 3.8-4.6 1.9-1.5 3.5-1.8 4.5-1.1 1-1.3-0.1-2.2-2.5-1.7-3.6 0.4-3.5 1.3-3.4 0.9-2.1-1.1-1.1-2.6 1.1-5.2 2.8-3.7 2.6-1.8 2.2 0.7 1.1-0.6 0-2-3.7-3.6-1.7-2.3 0-5-1.4-4.2 0.3-2.7-2.1-5.5 10.1 3.4 8.8-0.8 2.6-0.9 1.5-1.1 1.5-2.6 1.6-1.8 5.7-3.2 4.7 0.2 5.7 1.1 5.8 2.9z" />
  <path
     style="fill:#cccccc"
     name="Dol pri Ljubljani"
     id="SVN946"
     d="M419.8 344.8l5.2 2.6 3.9 0.7 1.8 1.7 1.5 2.7 2.7 0.6 6.1-0.5-1.3 3.2-1.7 1.2-10.2 5.1-6.4 0.7-2.6-1.8-1.9-0.4-6.5 2.2-7.7 0.5-5.6-1.5-6.2-3.8-0.5-3.8 7.3-0.8 3.7-1.7 7.6-5 4.2-2.1 6.6 0.2z" />
  <path
     style="fill:#cccccc"
     name="Dravograd"
     id="SVN947"
     d="M546.1 101l1 6.2 1.5 4.1 3.5 6.4 6.7 4.8-4.4 1.2-1.1 1.7-1.5 3.8 0.7 3.5-0.8 4.2-10.3 9.1-0.6 2.1-1.5 1.6-1.3 0.3-3.6-1.4-4 1.4-2.6 1.6-1.1 0-4.5-5.7 1.2-4-2.1-4.5-3.1-1.9-5-4.1-3.5-4.5-1.5-2.4-1.9-1.3-5.3-0.5-7.4-5.9-0.2-0.7 4.5-2.8 4.5 0.9 6.1 8.8 11.8-16.9 18.2-5.9 7.6 0.8z" />
  <path
     style="fill:#cccccc"
     name="Duplek"
     id="SVN948"
     d="M777.5 170.4l-3.1 5.5-3.7 2.5-4.2 5.6-7.9-8.3-1.9-1-2.6-0.9-1.4-1.7-1.5-4.4-0.5-0.7-2.3-4.1-1.4-3.5 1-2.7 4.8-2.6 4.9-6.6 4.9 0 2-0.4 1.7 0.4 1.3 1 0.9 1.4 0.3 1.9 0.7 1.4 5.8 4.3 1.9 2.4 0.8 2.4-1.1 1.3-1.2 2.7 1.8 4.1z" />
  <path
     style="fill:#cccccc"
     name="Gornji Grad"
     id="SVN949"
     d="M476.8 254l3.2 6.6-1.7 5.9-3.1 4.2-1.4 4.7-0.9 7.3-13.8-0.7-7.1 0.6-11.3-0.6-12.4-4-3.2-3 0.6-7.9 8.1-10.9 15.7-12.8 5.3-2.2 1 1.1 3.1 1.8 11.9 9.6 6 0.3z" />
  <path
     style="fill:#cccccc"
     name="Grosuplje"
     id="SVN950"
     d="M436.6 399.2l-2.2 7.3-5 7.5-0.8 6 1.1 0.2 3.3 1.3 1.4 1 0.2 1.1-0.5 1.6 1.4 6.4 4.3 8.8-0.1 2.1-0.8 2.8 0 2.1 1.4 4.2-6.5 3.1-2.6 0-12.2-4.3-2.1-1.3-2-0.7-2.3 0.7-1.5 2.5-6.2 3.8-4.5-5.2-1.4-3.8-6.5-6.5-3-9.1 1.2-14.4-0.2-3.8-1.2-5.2 2.1-3.5 2-1.8 0.9 0.1 3-2.3 4.6 3.4 9.5-0.3 5.1-2.9 1.9-1.9 1.2-2.2 4.7-2.6 2.7-0.1 1.7 0.8 3 2.5 4.9 2.6z" />
  <path
     style="fill:#cccccc"
     name="Hrastnik"
     id="SVN951"
     d="M570.7 356.1l-11.1 3-7-3.5-2.3-4.4-0.5-1.9-3-2.9-2.2-1-1.1-1.5-2-3.5-0.9-1.1-1.1-3.3 0.2-2.3 1.6-3.8 4.2-7.2 5.7-3.8 3.6-4.4 5.6 7.4 1.2 2.7 7.8 5.8 3.9 4.8 2.7 4.2 2.6 5.9 0 2.4-1.1 1.6-3.7 2.4-3.8-1.4-3.9-2.2-1.2 0.2-0.9 1.5 0.4 2.2 2.1 2.1 4.2 2z" />
  <path
     style="fill:#cccccc"
     name="Trbovlje"
     id="SVN952"
     d="M533.2 310l10.3 4.1 10.6-1.4 0.7 1.8-3.6 4.4-5.7 3.8-4.2 7.2-1.6 3.8-0.2 2.3 1.1 3.3 0.9 1.1 2 3.5 1.1 1.5 2.2 1 3 2.9 0.5 1.9 2.3 4.4-1.4 5.6-1.4 0.9-3.1 0.8 0.4 4.5-5.5 1.4-14.2 4.7-3.1 0.4-4.6-1.3-0.3-2.4-1.5-2.9-1.1-6.1-0.1-1.8 1.5-1.4 1.3-2.3 0.9-2.5-1.5-9.2 3.7 1.1 1 0 2.3-1.2 2.9-3.1 0-2.4-1.3-4.1-4.3-7.2-4.6-5.5-1.2-0.3-2.3 1-0.5-1.1 2-2 3.7-1.8 2.7-2.3-4.1-7.7 5.8 3.6 8.5-1z" />
  <path
     style="fill:#cccccc"
     name="Ig"
     id="SVN953"
     d="M371.1 402.8l6.5 8.2 1.9 7.8 0.5 5.3-1.5 10.2 2.2 2.8 0.4 2.1-0.2 2.6 0.7 1.2 5.9 2.6 0.4 6.4-1.6 3.6-3.6 3.1-2.6 0.1-2.2-0.2-1.6-1.2-2.3-1-3.8-2.8-7.2-2.6-5.6 1.7-7.4-11.5-0.9-6.6-1.6-7.6 0.1-5-4.5-11.8 9.3-4.1 1.9-4 7.1-2.7 3.3-0.1 6.4 3.5z" />
  <path
     style="fill:#cccccc"
     name="Ilirska Bistrica"
     id="SVN954"
     d="M337.1 560.3l-1.1 9.1-0.2 3.2 1.9 3.7 4.2 3.9 0.8 2.5-0.1 3.1-1.7 2.1 0.3 1.1 3.3 0.4 3.5-0.2 2.4 0.6 1.9-0.7 2.1 0.3 2.4-0.2 1 0.5-1.3 10.2-1.6 6.4-4.2 7.6-12.4 9.2-5.9 5.5-12.2 6.9-14.6 1.3-14.7-2.8-12.6-5.5-6.9-1.7-8.1 2.4-15.1 7-8.2 1.5-0.9 0 0.4-3 0.1-5.5-2-4.3-1.4-1.6-5.8-4.7-0.7-1.3 2.3-5.9 2.6-8.7 1-7.1-2-1.2-1.8 0.6-1-1.3-0.3-2 1.3-5.4 1.7-3.4 1-3.3 0.7-1.5-4.6-4.3 0.2-4.6 3.9 0.7 2.3-1.5 5.5-1.9 7.7-0.5 13.4 0.8 6.8-0.8 3.5-0.9 3.6-3.3 2.7-1.6 12.4-4.9 9.9-2 3.6-2 0.8-1.7-0.7-1.4 1.3-0.6 4.6-0.1 6.9 5.7 3 3.5 15.1 3.6z" />
  <path
     style="fill:#cccccc"
     name="Ivancna Gorica"
     id="SVN955"
     d="M495.9 415.2l-5.9 6.3-6.3 3.6-2.2 4-1 3.5-1.5 11.9-1.7 5.2 0.9 4.5 1.8 3.6-0.2 5.7-8.2 1.5-1 1.3 0 2.7 0.9 2.3 1.9 6.8-0.2 7.8-2.1 3.7-3.8 1.7-4-0.9-6.3 0.2-6.3-4.9-0.9-3.1-3.4-3.6-2.2-4-1.7-2.5 0.5-6.2 2.2-5.9 0.2-1.3-5.1-7.5-1.4-4.2 0-2.1 0.8-2.8 0.1-2.1-4.3-8.8-1.4-6.4 0.5-1.6-0.2-1.1-1.4-1-3.3-1.3-1.1-0.2 0.8-6 5-7.5 2.2-7.3 3-2.2 7.3-0.7 0.8-0.8 2-1 9.3 0.3 10.2 3.3 4.1 0.3 2.2-0.4 0.2-1.6 0.7-1 1.8 0.6 1.9 1.4 8.9 13.3 6.9 4.5z" />
  <path
     style="fill:#cccccc"
     name="Kidricevo"
     id="SVN956"
     d="M772.5 200.6l9.8 17-2.1 10.6-1.1 2.6-0.8 3.1-5.1 2-5.8-2.9-4.8-1-28-2-0.9-3.5 1.4-2.1 1-3.4-0.6-2.4 0.5-1.9-1.9-1.6-0.6-1 3.2-2.9 14.9-9.1 5.6-1.8 5.6 0.6 4-1.7 5.7 1.4z" />
  <path
     style="fill:#cccccc"
     name="Kozje"
     id="SVN957"
     d="M711.4 368.3l3.8 11.4 1.5 1.4 2.2 1.7 2.3 0.8 7.9 0.1 1.4 2.6-13.9 10.4-8.3 4.2-4.5 0.2 6.4-11.1-1.4-1.8-4.5 0.6-2.3 0.7-1.9 0.2-1.4 0.6-2.5 0.2-3.5-12.3-3.4-3.9-4.1-3-2.3-0.3-7.9-3.5-1.9-9.2-3.2-6.6 0.6-2.7 1-2.1 2 0.3 1.2 0.7 2.4 0.5 2.6-1.4 3.3-4.2 5.7-4 3.4 3 3.9 0.8 5.3 4.6 2.8 1.6 4.7 10.3-1 1.6-0.3 1.7 1.2 4.4 2.7 1.5z" />
  <path
     style="fill:#cccccc"
     name="Krško"
     id="SVN958"
     d="M696.2 390.5l1.4 5.7 0.2 2.2 1.3 1 4.7 1.7-3.9 9.9 0.3 16.2-0.7 4.8-1 2.8-2.5 1.5-0.8 3.9-1.9 1-1.3 1.2-1.4 0-3.7 1.3-4.7 3-1.7 5.4-0.1 3.6 1 3.3 1.6 2.9 1.5 3.5 7 10.3 1.6 3-8.3-1.4-3.1 1.5-5.9 4.9-3.1 1.1-3.6-0.6-3.6-1.2-3.6-0.4-3.5 1.6-1.5 4.3 1.3 4.7 0.5 4.4-3.6 2.9-1.8-1.9-7.3-13.7-0.5-6.2-0.9-5.4-0.4-9.9-2.3-8.8-8.6-3.2-3.3-3.7 0.8-3.5 0.3-7.7 2.8-8.4 2.7-7.4 5.7-8.5 11-11.1 1.7-3 0.1-2.9-0.6-2.6-1.7-2.4-1.1-3.6-0.8-3.4 0-3.9 0.9-2.1 0.3-1.6-0.6-6.1 23.5-2 7.9 3.5 2.3 0.3 4.1 3 3.4 3.9 3.5 12.3z" />
  <path
     style="fill:#cccccc"
     name="Kungota"
     id="SVN959"
     d="M723.5 103.3l5.9 18.1-5.5 4.4-5.1-3.9-1.1-3.3-4.3-4-2.7-1.7-2.2-2.8-2.4-1-6.4 0.1-10.7-2.9-5.2-5.3 0.1-0.8 3.1-6.6 4.9-3.7 6.8-1.8 6.7-0.1 4.8 1.4 4.1-1.2 1.6-1.2 0.2 5.3 7.4 11z" />
  <path
     style="fill:#cccccc"
     name="Laško"
     id="SVN960"
     d="M614.4 312l0.5 3.1-1.3 2.8-2.5 1.8-0.7 0.9 0.4 1.2 1.2 0.9 5.9-0.3 16.1-6.9 3.7 6.2-0.5 4.4-2 3.9 1.2 6.3 3.8 12.6-1.2 4.8 0.3 3.9-0.8 2.5-2.8 5.3-16.4 1.6-4.5 1.8-3.3 2.6-1.6 0-1-1.3-0.9-4.4-1.4-2.1-2.5-1.6-4.7-1.7-16-0.2-3.1 0.7 0 1.7 2.3 2.7 1.2 2.8-0.9 2.6-12.2-14.5-4.2-2-2.1-2.1-0.4-2.2 0.9-1.5 1.2-0.2 3.9 2.2 3.8 1.4 3.7-2.4 1.1-1.6 0-2.4-2.6-5.9-2.7-4.2-3.9-4.8-7.8-5.8-1.2-2.7-5.6-7.4 20-0.5 8.7-1.7 4-4.6 0.6 2.4 3.4 0.5 6.2-2.5 2.8 0.1 2.3 1.6 11.6 2.2z" />
  <path
     style="fill:#cccccc"
     name="Litija"
     id="SVN961"
     d="M518.9 344l1.5 9.2-0.9 2.5-1.3 2.3-1.5 1.4 0.1 1.8 1.1 6.1 1.5 2.9 0.3 2.4 4.6 1.3 3.1-0.4 14.2-4.7 1.1 5.1 1 2.3 5 3.8-0.2 4.3 7.2 12.1-4.4-0.3-1.6-0.9-2.5 0.3-3.2 2.3-7.7-0.4-4.5 0.7-0.9 3-0.4 3.8-1.4 3.7-2.5 3.3-7.7 2.7-5.6-3.7-4.4-1-4.4-0.2-1.4-8.6-4.5-11.1-7.3-6.7-7.4-9.8-7.5-7.1-6.8-1.4-12.2 6.1-17.1-3-5 0.3-3.4-1.8-0.6-1.7-3.5-2.8 10.2-5.1 1.7-1.2 1.3-3.2 16.5-7 9.1-9.8 1.4 3.4 13.5 0.1 2.7 0.7 1.1 1.4 0.1 1.5-0.8 3.6 0.2 2.1 3.5 6 2.5 1.3 2.3-0.5 3.9 0 5.1-1 1.4-0.5 2.5-1.7 2.9-3.5 2.5-1.6 7.5-3.1z" />
  <path
     style="fill:#cccccc"
     name="Ljubljana"
     id="SVN962"
     d="M367 337.9l6.1 7.4 9.4 3.8 7.2 1.1 0.7 4 0.5 3.8 6.2 3.8 5.6 1.5 7.7-0.5 6.5-2.2 1.9 0.4 2.6 1.8 6.4-0.7 3.5 2.8 0.6 1.7 3.4 1.8-0.9 3.4 0 2-0.6 1.4 2 2.7 1.9 2.1 1.6 2.7 0.8 2.8-1.1 2.5 0.6 9-3 2.2-4.9-2.6-3-2.5-1.7-0.8-2.7 0.1-4.7 2.6-1.2 2.2-1.9 1.9-5.1 2.9-9.5 0.3-4.6-3.4-9.2-8.6-7.6-1.5-6.7 1.1-2.1 1.5 0.2 4.3-0.8 6.1-6.4-3.5-3.3 0.1-7.1 2.7-1.9 4-9.3 4.1-3-2.7 0.1-3.1 2.3-3.3 2.8-2.6 1.8-2.6-0.7-1.9-3.9-2.9-4.5-6 3.4-2.1 0.4-3.3-0.3-4.3-1.7-4.7-0.7-1.1-2.6-7-1.1-1.3-1.8-0.7-2.1-0.1 7-5.2 1.6-0.6 0.7-0.8-2.1-3.3-1-1.9-1.1-3.1-1.2-0.9 0.6-2.6 1.3-1.5 2-0.9 4.2 0 4.5-2.6 2.8-4.3 2.2 2.1 3.5-0.3 8.4-2.7 2.1 6z" />
  <path
     style="fill:#cccccc"
     name="Ljubno"
     id="SVN963"
     d="M484.6 204.3l2.9 2.8 0.4 10.9-6.5 19 0 6.8-4.6 10.2-6-0.3-11.9-9.6-3.1-1.8-1-1.1-5.3 2.2 8.2-22.9 0.7-4.9-1.1-4.5-0.4-7.5 27.7 0.7z" />
  <path
     style="fill:#cccccc"
     name="Logatec"
     id="SVN964"
     d="M262.4 387.1l1.9 7.6 3 0.8 7.6 5.1-0.4 0.9-2.8 1.8-1.3 6.3 0.5 3.4-1.4 2.7-0.6 2.2 1.1 2.1 1.4 0.9 1.5-0.1 2.1 0.9 2.8 2 6.8 6.9 8 10 4.3 9.8-7.2 18.1-17.3-7.6-7-4.4-6.6-1.4-16.8 3.1-1.6-4.6-3.8-10.3-1.5-2.2-1.1-3.5-0.1-3.5 0.4-4 2.2-4.3 2-5.3 0.4-4.6-0.7-2.1-1.4-0.5-0.3-0.9 0.7-1.8 3.1-2.5 2.6-2.7 2.7-3.5 0.4-6.2 10.3-6.6 5-8 1.9 1.4-0.8 4.6z" />
  <path
     style="fill:#cccccc"
     name="Loški Potok"
     id="SVN965"
     d="M384.6 518.8l7.3 2.7 6.5 0.3 3.2 1.9 1.6 1.9 3.7 5.9 6.6 8.2 2.9 2.8 10 3.5 4 2.6 3.4 1.1 1.2 3.6 0 3.3-1.1 2.3-1.6 4.2-5 4.4 4.1 14.1-13.7 9.4-5.3 2.7-4.3-2.1-10.8-8.7-4.1-4.3-3-5.7-0.2-6.1 0.3-8.3-0.7-7-3.4-2-3.8 1.6-0.3-1.1-3-6.6-0.6-5-6.1-19.1 4-1.8 1.7 1.6 6.5-0.3z" />
  <path
     style="fill:#cccccc"
     name="Lukovica"
     id="SVN966"
     d="M464.6 325.1l-7.6-2.2-10.3-1.5-13.4 2.8-5.9 4.8-8.6 3.6-2.5-3.1-3.7-1.4-1.9-2.5-2.2-1-0.3-1.5 0.6-2.6 3.5-7 6.2-6.2 10.4-1.4 6.1 2.1 4.3 0.8 6.7 0 5.1-1.8 35.8-4 0.9 8.1-2.9 5.3-2.2 0.9-20.8 2.5-0.6 1.4 2.2 1.3 1.1 2.6z" />
  <path
     style="fill:#cccccc"
     name="Medvode"
     id="SVN967"
     d="M350.8 332.8l-2.8 4.3-4.5 2.6-4.2 0-2 0.9-1.3 1.5-0.6 2.6 1.2 0.9 1.1 3.1 1 1.9 2.1 3.3-0.7 0.8-1.6 0.6-7 5.2-11.6-3.3-6.8 3.1-3.9-1.7-1.6-1.6-2.5-3.5 1.7-6.9-0.8-2.4 0.9-3.8 2.2-3.5 6.2-5 3.7-0.8 2.7-1.4 2.1-3.6 3.1-1 6.5-4.7-1-2-1.5-7.7 16.5-0.7 3.4 22.8z" />
  <path
     style="fill:#cccccc"
     name="Mengeš"
     id="SVN968"
     d="M389.1 311.9l-2.1 5.8 2 13.2-22 7-2.1-6 3.2-2.2 1.2-3 2.9-2.1 0.3-5.8 14.2-11-0.9 2.6 3.3 1.5z" />
  <path
     style="fill:#cccccc"
     name="Metlika"
     id="SVN969"
     d="M608.3 593.1l-0.6-0.7-3-1.4-3-2.8-1.7-3.1-1-2.3 0.1-1.1-1.3-0.7-3.1 0.9-4.9-1.7 0.4-3.7 3.6-0.2 1.7-0.9 2.3-1.9 3.1-3.1 0.9-1.8 1.1-3.3 1-1.4 1.2-0.9 2.3-0.2 1.4-2.3 0.2-3-3.1-5.9-3.1-4.5-4.4-3.7-4-8.9-0.6-0.8-2.6-0.1 6.9-5-0.3 0.9 0.6 1.9 2.3 1.2 3.1 3 3.1 6.1 1.7 2.2 2.8 2.1 4.1 1.5 1.3-0.9 0.5-1.8 1.4-1.2 3.8-1.1 1.2-0.6 1 0.9 5.7 6.6 5.2 8.6 1.7 4-6.5 0-4.4 1.5-4 2.1-9.3 3-1.8 3.4-1.2 3.5-2.1 1.9-4 2.1 0.3 3.7 2.3 4.9 1.7 5z" />
  <path
     style="fill:#cccccc"
     name="Mežica"
     id="SVN970"
     d="M487.1 167.1l-1.5 3.1-2.7 0.6-4.1-0.4-6.9-2.3-6.4-5.2-5.8-1.7-5.2-1 3.3-7.6 2.4-7.1 3.5-0.6 6.8 0.2 1.9-0.6 3.2 0.7 1.2 2.2 1.8 0.9 1.7 1.5 0.1 2.2 1.1 3 3.2 3.4 2.2 1.8 1.2 1.3-1 5.6z" />
  <path
     style="fill:#cccccc"
     name="Mislinja"
     id="SVN971"
     d="M617.8 172.6l1.1 4.8 0.7 5.7 2.1 3.1 0.8 2.1-0.7 3.3-8.5 0.6-5.3 1.5-2.4 1.6-2.1 2.7-4.1 10.7-6.8 9.9-13.4 1.9-4.6-2.6 0.1-3.8-0.2-3.1-1.7-0.8-2.6-0.8-2.1-0.1-10-4.2 3.6-10.1 3-0.6 1.6-2.1 0.5-4.8 3.5-3.5 7.6-11.1 3-8.8 8.6 6.5 4.9 1 6.4-0.4 17 1.4z" />
  <path
     style="fill:#cccccc"
     name="Moravce"
     id="SVN972"
     d="M464.6 325.1l3.8 5.2-0.3 3.4-1.5 2.1-9.1 9.8-16.5 7-6.1 0.5-2.7-0.6-1.5-2.7-1.8-1.7-3.9-0.7-5.2-2.6 0.7-3.8-1.9-1.2-2.6-2.1-0.2-2.8 3-2.3 8.6-3.6 5.9-4.8 13.4-2.8 10.3 1.5 7.6 2.2z" />
  <path
     style="fill:#cccccc"
     name="Mozirje"
     id="SVN973"
     d="M518.9 225.6l-0.4 9.8 0.5 2.7 2.6 5.9-2.7 1.9-3.1 4.8-0.5 2.6-1.2 2.2-4.5 4.2-1.3-7.2-2.1-2.7-1.9-0.5-1.9 0.9-7.3 6.3-15.1 4.1-3.2-6.6 4.6-10.2 0-6.8 6.5-19 11.9-3.4 3.2 2.1 4.2 1.1 2.8 0.4 4.4-1.1 2.5 0.6 2.1 1.9 0.7 1.8-0.8 4.2z" />
  <path
     style="fill:#cccccc"
     name="Muta"
     id="SVN974"
     d="M573.6 104l0.3 1.6 2.6 3.8 0.7 1.9-0.1 2.8-9.2 7.3-4.6 1.8-4.5-0.7-6.7-4.8-3.5-6.4-1.5-4.1-1-6.2 27.5 3z" />
  <path
     style="fill:#cccccc"
     name="Nazarje"
     id="SVN975"
     d="M509.6 259.7l-0.1 8.8-4.2 0.3-2.1 0.6 0 1.8-1.5 1.5-6.3 2.6-2.4 1.7-3.3 0.2-2.4 0.7-0.8 2.1 0 2.1-4 6.3-9.6-5.7 0.9-7.3 1.4-4.7 3.1-4.2 1.7-5.9 15.1-4.1 7.3-6.3 1.9-0.9 1.9 0.5 2.1 2.7 1.3 7.2z" />
  <path
     style="fill:#cccccc"
     name="Pesnica"
     id="SVN976"
     d="M763.1 107.3l-3.2 8.9-0.9 5.6 0.7 6.8-1.7 6.8-3.1 2.2-7.7-0.4-6.8-4.7-6.1-6.1-10.4-0.6 5.5-4.4-5.9-18.1 8.5-1.5 1.7-1.3-0.4-1.6 0.6-2.2 2.1-4 0.9-3.4 1.1-1.5 2.3-0.2 1.8 0.6 3.8-0.3 4.5 1.3 1.5 1.4 0.7 1.3 0.4 2.5 1.8 2.1 1.4 1.1 1.2 1.5 1.1 2 1.4 1.6 3.2 4.6z" />
  <path
     style="fill:#cccccc"
     name="Pivka"
     id="SVN977"
     d="M324.4 531.5l2.3 8.2 7.4 8.5 2.9 4.1 0.1 8-15.1-3.6-3-3.5-6.9-5.7-4.6 0.1-1.3 0.6 0.7 1.4-0.8 1.7-3.6 2-9.9 2-12.4 4.9-2.7 1.6-3.6 3.3-3.5 0.9-6.8 0.8-13.4-0.8-7.7 0.5-5.5 1.9-2.3 1.5-3.9-0.7-3.4-1.6-0.1-0.8 1.1-2.7-1.6-4.5-1.6-3.4-1.2-3-0.2-6.3-1.3-2.8-0.6-3.1 0.7-3.2 2.2-4.1 3.6-1.8 3.3-3.5 7.5 3.4 5.3 1.4 5.1 0 7.1-1.4 9.3-4.3 5.7-0.4 11.7-4.4 4.7-3.6 16.4-8.8 1.4 6.5 18.5 14.7z" />
  <path
     style="fill:#cccccc"
     name="Postojna"
     id="SVN978"
     d="M289.7 468.5l0.9 4-6.3 16.3-0.4 4.9 3.6 6.5 5.7 6.1 3.7 2.6 7.6 1.4-16.4 8.8-4.7 3.6-11.7 4.4-5.7 0.4-9.3 4.3-7.1 1.4-5.1 0-5.3-1.4-7.5-3.4-3.7-9.1-3-4.1-11.1-8 2-5.4 1.7-2.4 1-8.6 2.1-5.3-4-12.8 14.9-5.5 1.1-1.3 9.3-7.7 16.8-3.1 6.6 1.4 7 4.4 17.3 7.6z" />
  <path
     style="fill:#cccccc"
     name="Race-Fram"
     id="SVN979"
     d="M743.7 185.3l2.4 2.3 2 4.7-0.5 2.9 4 6.9-14.9 9.1-6.3-6.9-4.5-2.2-3.7-1.2-0.5-1.6-26.3-15.7-2.9-2.7-0.7-4 8.1 0.9 4.9 2.1 8.3 0 7.6 3.7 3.2 2.7 2.2 1 1.5 0.3 5.5-0.2 3.4-0.9 7.2-1.2z" />
  <path
     style="fill:#cccccc"
     name="Radece"
     id="SVN980"
     d="M570.7 356.1l12.2 14.5 0.8 3.6 1.8 1.8 2.6 0.7 2.1 1 4.5 3.8 0.3 1.5-1.7 1.4-4.5 0.5-24.1-5.9-16 1-5-3.8-1-2.3-1.1-5.1 5.5-1.4-0.4-4.5 3.1-0.8 1.4-0.9 1.4-5.6 7 3.5 11.1-3z" />
  <path
     style="fill:#cccccc"
     name="Radlje ob Dravi"
     id="SVN981"
     d="M604.6 135.7l-15.9 10-1.7 1.6-1.4 1.9-0.4 3.6-3.1 2.9-6-2.2-1.6-3.9 0.2-2.3 0.7-3.1 1.7-3 1.2-3.8-0.2-1.9-0.9-1.9 3.8-1.1 1.8-1.1 2.6-4.6 0.5-2.6 0-1.9-0.7-1.5-1.9-1.5-1.9-0.7-1.7-1.3-2.6-3.2 0.1-2.8-0.7-1.9-2.6-3.8-0.3-1.6 10.2 1.1 40.6-2.1-0.1 3.9-1.1 7.3-2.6 2.1-5.2 2.5-2.1 0.7-4.3 4.2-4.4 12z" />
  <path
     style="fill:#cccccc"
     name="Rogaška Slatina"
     id="SVN982"
     d="M735.9 273l6 4.5 11.9-0.8-6.2 3-1.7 1.2-2.5 2.3-2.2 4.6-3.1 2-4.3 8-0.1 2.5-5.3-0.4-6.8 3.5-4.2 5.7-4.2-4.1-1.9-7.2-1-1.2-2.3-1.3-3.5-4.9-6.3-17.2 1.7-2.6 1.8-1.1 3.5-1.1 6.6 0.1 14 4.7 10.1-0.2z" />
  <path
     style="fill:#cccccc"
     name="Rogatec"
     id="SVN983"
     d="M759 278.5l13.2 6.2-3.3 2.5-6.4 10.9-6 3.9-22.8-1.7 0.1-2.5 4.3-8 3.1-2 2.2-4.6 2.5-2.3 1.7-1.2 6.2-3 5.2 1.8z" />
  <path
     style="fill:#cccccc"
     name="Semic"
     id="SVN984"
     d="M590.2 576.5l-5.8-2.9-5.7-1.1-4.7-0.2-5.7 3.2-1.6 1.8-1.5 2.6-1.5 1.1-2.6 0.9-8.8 0.8-10.1-3.4-5.4-2.2-6-11.1 1.1-9.1 1.3-2.6 5.9-8.3 2.9-3.1 3.7-1.8 5.8 0.8 7.4 1.2 9.5-0.6 4.9 0.4 4.1-0.4 2-0.6 11.8-8.3 2.6 0.1 0.6 0.8 4 8.9 4.4 3.7 3.1 4.5 3.1 5.9-0.2 3-1.4 2.3-2.3 0.2-1.2 0.9-1 1.4-1.1 3.3-0.9 1.8-3.1 3.1-2.3 1.9-1.7 0.9-3.6 0.2z" />
  <path
     style="fill:#cccccc"
     name="Šenčur"
     id="SVN985"
     d="M348.7 304.1l1.5 3.3-2.8 2.6-16.5 0.7-5.6-11.6-1.5-2.1-0.3-1.3 0.4-2.7 2.5-4.6 3.1-12 4.1-5.7 0.7-4.5 15.8-1.3-2.3 3.3-1.3 1.3-1 1.6-1.1 0.9-1.7 4.2-0.5 5.4 0.3 10.3 0.4 4.4 5.8 7.8z" />
  <path
     style="fill:#cccccc"
     name="Šentilj"
     id="SVN986"
     d="M767.5 71.3l0.6 1 5.7 4.7-0.2 8-1.2 2.9-0.3 2.6-2 2.3-0.1 2.2 0.6 2.8 1.8 3.6-6.9-0.6-1.6 2.3-0.8 4.2-3.2-4.6-1.4-1.6-1.1-2-1.2-1.5-1.4-1.1-1.8-2.1-0.4-2.5-0.7-1.3-1.5-1.4-4.5-1.3-3.8 0.3-1.8-0.6-2.3 0.2-1.1 1.5-0.9 3.4-2.1 4-0.6 2.2 0.4 1.6-1.7 1.3-8.5 1.5-7.4-11-0.2-5.3 1.7-1.3 1.9-4-0.1-5.9 1-7 5.1 3.1 24.3 3.6 8.4-0.5 9.3-3.7z" />
  <path
     style="fill:#cccccc"
     name="Šentjernej"
     id="SVN987"
     d="M655.1 500.5l-0.2 0.2-31.1 10.3-0.2-1.3-3.1-12.3-7.4-11.3-5.7-5.9-1.7-4.4-0.8-5.4 1.6-3.9 1.4-2.4 7.3-4 8.1-4.6 3.3 1.7 0.5 1.1 2.1-0.6 2.4-2 1.7-4.3 8.6 3.2 2.3 8.8 0.4 9.9 0.9 5.4 0.5 6.2 7.3 13.7 1.8 1.9z" />
  <path
     style="fill:#cccccc"
     name="Sevnica"
     id="SVN988"
     d="M635.7 365.4l15.8 4.1 0.6 6.1-0.3 1.6-0.9 2.1 0 3.9 0.8 3.4 1.1 3.6 1.7 2.4 0.6 2.6-0.1 2.9-1.7 3-11 11.1-5.7 8.5-2.7 7.4-5.2-4.4-1.3-3.2-2.5-1.3-2.3-0.7-3.2-0.6-6.8 0.5-1.9 1-1 0.9-0.5 2.9 0.5 2.3-0.8 2.2-1.5-0.2-4.2-4-2-0.1-0.7 0.5-0.7 2.5-5.4 2.9 0.1 3.6-11.1-6-7.2-6.4-4.7-5.9-2.2-4.5 0.3-2.8 1-1.9 1.4-1.8 0.4-2.6-0.8-0.8-3 0.9-1.7 1.3-2.5 0.9-2-1-1.3-2.3-5.4-3.6-7.2-12.1 0.2-4.3 16-1 24.1 5.9 4.5-0.5 1.7-1.4-0.3-1.5-4.5-3.8-2.1-1-2.6-0.7-1.8-1.8-0.8-3.6 0.9-2.6-1.2-2.8-2.3-2.7 0-1.7 3.1-0.7 16 0.2 4.7 1.7 2.5 1.6 1.4 2.1 0.9 4.4 1 1.3 1.6 0 3.3-2.6 4.5-1.8 16.4-1.6z" />
  <path
     style="fill:#cccccc"
     name="Škocjan"
     id="SVN989"
     d="M633.9 428.1l-2.8 8.4-0.3 7.7-0.8 3.5 3.3 3.7-1.7 4.3-2.4 2-2.1 0.6-0.5-1.1-3.3-1.7-8.1 4.6-0.7-4.7 1.4-2.9-0.9-1.9-1.6-2.3-3.1-3.7-3.4-2.4-2.9-1.4-9.5-7.9-0.1-3.6 5.4-2.9 0.7-2.5 0.7-0.5 2 0.1 4.2 4 1.5 0.2 0.8-2.2-0.5-2.3 0.5-2.9 1-0.9 1.9-1 6.8-0.5 3.2 0.6 2.3 0.7 2.5 1.3 1.3 3.2 5.2 4.4z" />
  <path
     style="fill:#cccccc"
     name="Škofljica"
     id="SVN990"
     d="M397.3 399.9l-3 2.3-0.9-0.1-2 1.8-2.1 3.5 1.2 5.2 0.2 3.8-1.2 14.4 3 9.1-2 3.3-0.3 2.1-0.7 0.9-2-0.6-5.9-2.6-0.7-1.2 0.2-2.6-0.4-2.1-2.2-2.8 1.5-10.2-0.5-5.3-1.9-7.8-6.5-8.2 0.8-6.1-0.2-4.3 2.1-1.5 6.7-1.1 7.6 1.5 9.2 8.6z" />
  <path
     style="fill:#cccccc"
     name="Slovenj Gradec"
     id="SVN991"
     d="M578.7 161.2l2.2 2.9-3 8.8-7.6 11.1-3.5 3.5-0.5 4.8-1.6 2.1-3 0.6-3.6 10.1-3.7-4.1-4.2-1.4-2.1-0.1-0.9 3.5-28.3-9.4-13.8-6 2.9-13.6 6.7-2.9 1.7-1.3 2-3.3 1.2-3.9 0.5-8.1 2.1-8.6 4.5 5.7 1.1 0 2.6-1.6 4-1.4 3.6 1.4 1.3-0.3 1.5-1.6 0.6-2.1 10.3-9.1 3.1 4.7 4.4 3.7 3.4 4.8 1.7 3.6 14.4 7.5z" />
  <path
     style="fill:#cccccc"
     name="Slovenske Konjice"
     id="SVN992"
     d="M678.3 233.8l6.8 4.1 2.5 0.3 2.7 2.4 2.2 5 2.3 11.5 0.9 7-1.7 7.2-7.2 0.5-5.7-2.9-1.8 1-2 0.3-32.9-10-6.2-4.3-2.1-1.9-0.6-1-1.1-3 1.4-4.5 4.2-8.1 1.9-2.1 1.8-1 2.4 0.6 2 1 1.4 0 4.1-7.5 9.1 5.2 2.5 0.8 13.1-0.6z" />
  <path
     style="fill:#cccccc"
     name="Šmarje pri Jelšah"
     id="SVN993"
     d="M698.2 273.2l6.3 17.2 3.5 4.9 2.3 1.3 1 1.2 1.9 7.2-10.9 11.4-3.6 6.7-7 4.4-4.2-2.9-1.8 0.6-3.1 0.3-3.6 1.1-4.5-1.7-2.4-2.4-1.6-3.4-0.7-2.6-5.7-8.8-2.6-6.8-0.9-3.8 0.2-2.1 3.5-4 5.5-4 3.7-1.7 4.7-3.2 3.9-5 1.9-1.7 1-1.5 1.8-2.1 7.2-0.5 4.2 1.9z" />
  <path
     style="fill:#cccccc"
     name="Šmartno ob Paki"
     id="SVN994"
     d="M540 237.4l-2 6.7-0.2 5.6-0.5 4.7-2.1 3.4-4.5-7.9-9.1-5.9-2.6-5.9-0.5-2.7 0.4-9.8 4.4 5.9 8 4.1 8.7 1.8z" />
  <path
     style="fill:#cccccc"
     name="Šoštanj"
     id="SVN995"
     d="M547.2 203l-0.5 12.2-1.7 6.3-4 6.6-1 9.3-8.7-1.8-8-4.1-4.4-5.9 0.8-4.2-0.7-1.8-2.1-1.9-2.5-0.6-4.4 1.1-2.8-0.4-4.2-1.1-3.2-2.1-11.9 3.4-0.4-10.9-2.9-2.8 15.9-7.5 4.4-3.4 0.2-5.8 13.8 6 28.3 9.4z" />
  <path
     style="fill:#cccccc"
     name="Starše"
     id="SVN996"
     d="M766.5 184l4.6-0.7 2.8 1.1 4.4 5.6-4.2 2.6-0.5 1.9 0.6 3.4-1.7 2.7-5.7-1.4-4 1.7-5.6-0.6-5.6 1.8-4-6.9 0.5-2.9-2-4.7 5-6.7-1-2.6-0.6-2.8-1.4-2.5 0.4-1.4 2.7-3.9 1.5 4.4 1.4 1.7 2.6 0.9 1.9 1 7.9 8.3z" />
  <path
     style="fill:#cccccc"
     name="Štore"
     id="SVN997"
     d="M626.5 293.6l7 3.1 1.5 4.3-0.7 2.9-0.3 11.6-16.1 6.9-5.9 0.3-1.2-0.9-0.4-1.2 0.7-0.9 2.5-1.8 1.3-2.8-0.5-3.1 2.7-2.2-0.5-2.6 0-8.6 1.8-2.1 2.5-1.7 3.3-1.5 2.3 0.3z" />
  <path
     style="fill:#cccccc"
     name="Trebnje"
     id="SVN999"
     d="M555.7 396.4l5.4 3.6 1.3 2.3 2 1 2.5-0.9 1.7-1.3 3-0.9 0.8 0.8-0.4 2.6-1.4 1.8-1 1.9-0.3 2.8 2.2 4.5 4.7 5.9 7.2 6.4 11.1 6-3.5 6.9-0.2 2 0.6 4.1-3.5 7.3-2.5 2.7-4.2 1.8-3.8 1.1-12.6-2.7-5.3-2.3-1.6-1.5-1.9-1.2-1.6-1.9-2.1-1.5-1.1-1.4-1.4 0.1-1.1 0.8-1.7 3-1.8 2-2.7 0.8-4.4 1-3.2 2.4-2.2 2.6-1.8 2.7-0.2 9.2-3.6 1.3-2-0.8-1.3-2.3-4.9-2-6.6 3.2-3.8-0.8-2.6-1.9-1.3-2.4-0.6-2.6-1.3-2.1-3.2-2.3-2.9-0.9-16.6 0.5-1.8-3.6-0.9-4.5 1.7-5.2 1.5-11.9 1-3.5 2.2-4 6.3-3.6 5.9-6.3 3.9-1.4 4.7-4.1 4.4 0.2 4.4 1 5.6 3.7 7.7-2.7 2.5-3.3 1.4-3.7 0.4-3.8 0.9-3 4.5-0.7 7.7 0.4 3.2-2.3 2.5-0.3 1.6 0.9 4.4 0.3z" />
  <circle
     id="0"
     cy="597.8"
     cx="257.5" />
  <circle
     id="1"
     cy="481.2"
     cx="410" />
  <circle
     id="2"
     cy="245.8"
     cx="629.8" />
</svg>
